<svg width="89" height="79" viewBox="0 0 89 79" fill="none" xmlns="http://www.w3.org/2000/svg">
<path d="M39 69C39 63.4793 43.4676 59 48.9737 59H79.0265C84.5326 59 89 63.4793 89 69C89 74.5207 84.5326 79 79.0265 79H48.9737C43.4676 79 39 74.5207 39 69Z" fill="#818385"/>
<path d="M39 10C39 4.47934 43.4676 0 48.9737 0H79.0265C84.5326 0 89 4.47934 89 10C89 15.5207 84.5326 20 79.0265 20H48.9737C43.4676 20 39 15.5207 39 10Z" fill="#B4D236"/>
<path d="M15 54C15 48.4793 19.5569 44 25.1732 44H55.8268C61.4431 44 66 48.4793 66 54C66 59.5207 61.4431 64 55.8268 64H25.1732C19.5569 64 15 59.5207 15 54Z" fill="#BDBEC1"/>
<path d="M15 25C15 19.4793 19.5569 15 25.1732 15H55.8268C61.4431 15 66 19.4793 66 25C66 30.5206 61.4431 35 55.8268 35H25.1732C19.5569 35.0165 15 30.5372 15 25Z" fill="#A7AAAC"/>
<path d="M0 39.5C0 33.7033 4.46741 29 9.97352 29H40.0263C45.5324 29 50 33.7033 50 39.5C50 45.2967 45.5324 50 40.0263 50H9.97352C4.46741 50 0 45.2967 0 39.5Z" fill="#E7E8E9"/>
</svg>
