<svg width="209" height="209" viewBox="0 0 209 209" fill="none" xmlns="http://www.w3.org/2000/svg">
<path d="M183.865 177.895C179.583 182.322 175.565 185.23 172.338 187.477C134.793 214.173 90.4641 206.376 80.9791 204.46C67.0152 201.684 40.1411 196.266 20.6443 173.534C-8.79861 139.172 -4.25372 85.1172 18.6024 49.4335C22.752 42.8914 44.8836 6.67903 89.7395 0.863898C116.877 -2.6384 148.559 4.43226 171.481 23.4636C219.697 63.4426 216.271 144.128 183.865 177.895Z" fill="#FDAD9B"/>
<path d="M86.126 191.31C84.8035 167.57 76.0085 145.88 44.7302 130.473C44.7302 130.539 39.9028 188.731 86.126 191.31Z" fill="#B3D136"/>
<path opacity="0.51" d="M77.5294 180.996C77.4633 180.996 77.3972 180.996 77.331 180.93C59.675 163.671 48.6316 138.344 48.4994 138.079C48.4333 137.947 48.4994 137.815 48.6317 137.749C48.7639 137.682 48.8962 137.749 48.9623 137.881C49.0945 138.145 60.0717 163.34 77.6617 180.533C77.7939 180.599 77.7939 180.798 77.6617 180.864C77.6617 180.996 77.5955 180.996 77.5294 180.996Z" fill="white"/>
<path d="M140.615 189.856C161.974 191.84 182.474 186.814 200.328 161.024C200.328 160.958 149.013 148.923 140.615 189.856Z" fill="#BDD0FB"/>
<path opacity="0.51" d="M152.717 182.844C152.65 182.844 152.584 182.844 152.584 182.778C152.452 182.712 152.452 182.513 152.584 182.447C158.999 174.909 169.447 170.147 177.052 167.436C185.317 164.527 192.195 163.402 192.261 163.402C192.393 163.402 192.525 163.468 192.525 163.601C192.525 163.733 192.459 163.865 192.327 163.865C192.062 163.931 165.016 168.494 152.981 182.778C152.915 182.844 152.849 182.844 152.717 182.844Z" fill="white"/>
<path d="M88.6389 144.824L84.1422 185.096H136.185L129.44 144.824H88.6389Z" fill="url(#paint0_linear_1835_3)"/>
<path d="M1.1521 45.6295V137.811C1.1521 145.416 7.16969 151.566 14.7744 151.764C48.4333 152.624 166.207 154.74 198.278 154.277C203.767 154.211 208.264 149.78 208.396 144.292C208.991 122.867 210.049 71.3532 206.28 47.4811C205.486 42.4554 201.254 38.6861 196.162 38.4877C167.926 37.562 43.077 34.7185 11.0712 35.4459C5.51652 35.6442 1.1521 40.1409 1.1521 45.6295Z" fill="#05556D"/>
<path d="M6.90521 45.2325V132.852C6.90521 137.282 10.4761 140.919 14.9066 140.985L193.65 143.167C198.014 143.234 201.651 139.729 201.651 135.298L201.982 48.4727C201.982 45.3647 199.469 42.7858 196.361 42.6535L13.3196 38.9503C9.81483 38.8842 6.90521 41.7277 6.90521 45.2325Z" fill="#D7F0F9"/>
<path opacity="0.65" d="M203.04 146.737L6.90521 143.365C6.77296 143.365 6.64069 143.233 6.64069 143.1C6.64069 142.968 6.77296 142.836 6.90521 142.836L202.974 146.208C203.106 146.208 203.238 146.341 203.238 146.473C203.238 146.605 203.172 146.737 203.04 146.737Z" fill="white"/>
<path opacity="0.65" d="M106.89 150.77C105.634 150.77 104.576 149.712 104.576 148.455C104.576 147.199 105.634 146.141 106.89 146.141C108.147 146.141 109.205 147.199 109.205 148.455C109.205 149.712 108.147 150.77 106.89 150.77ZM106.89 146.736C105.898 146.736 105.105 147.529 105.105 148.521C105.105 149.513 105.898 150.307 106.89 150.307C107.882 150.307 108.676 149.513 108.676 148.521C108.676 147.529 107.882 146.736 106.89 146.736Z" fill="white"/>
<path d="M137.507 190.977C160.387 179.603 178.043 161.749 180.027 124.32C180.027 124.254 120.446 144.159 137.507 190.977Z" fill="#B3D136"/>
<path opacity="0.51" d="M141.21 182.513H141.144C141.012 182.447 140.946 182.315 141.012 182.183C146.501 166.577 154.634 154.607 160.453 147.267C166.802 139.332 171.894 134.968 171.96 134.968C172.092 134.901 172.224 134.901 172.29 134.968C172.356 135.1 172.356 135.232 172.29 135.298C172.092 135.497 151.923 152.624 141.475 182.315C141.409 182.447 141.276 182.513 141.21 182.513Z" fill="white"/>
<path d="M147.426 193.359H71.1812C69.1313 193.359 67.5442 191.904 67.941 190.317L68.9329 186.481C69.1974 185.291 70.5199 184.431 72.0409 184.431L145.509 182.117C147.096 182.051 148.484 182.91 148.881 184.101L150.667 190.251C151.063 191.838 149.542 193.359 147.426 193.359Z" fill="#05556D"/>
<path d="M112.246 185.423C112.114 185.423 111.982 185.291 111.982 185.159C111.982 185.027 112.114 184.894 112.246 184.894L115.421 184.828C115.553 184.828 115.685 184.96 115.685 185.093C115.685 185.225 115.553 185.357 115.421 185.357L112.246 185.423Z" fill="white"/>
<path d="M70.7844 191.243C70.5861 191.243 70.52 191.111 70.52 190.979L70.9828 188.135C71.2473 186.614 72.5038 185.49 74.0247 185.49L107.419 185.027C107.551 185.027 107.684 185.16 107.684 185.292C107.684 185.424 107.551 185.556 107.419 185.556L74.0247 186.019C72.7683 186.019 71.6441 186.945 71.4457 188.268L70.9828 191.111C71.0489 191.111 70.9167 191.243 70.7844 191.243Z" fill="white"/>
<path d="M45.3918 199.312C45.3918 199.312 44.8628 202.354 44.5983 205.33C44.466 206.52 45.3918 207.512 46.5821 207.578C50.5498 207.777 59.1464 208.041 62.1882 207.909C62.6511 207.909 62.9818 207.446 62.7834 206.983C62.6511 206.653 62.3866 206.322 61.9898 206.19L47.9047 199.709L45.3918 199.312Z" fill="url(#paint1_linear_1835_3)"/>
<path d="M44.9951 197.529L45.458 201.166C45.458 201.166 47.9047 202.29 49.624 201.034L48.6321 197L44.9951 197.529Z" fill="url(#paint2_linear_1835_3)"/>
<path d="M45.3256 129.351C45.1273 130.277 44.3337 176.566 49.2933 197.33C49.3594 197.661 49.2272 197.992 48.8966 198.124C48.1692 198.455 46.6482 198.851 44.8627 198.918C44.3337 198.918 43.8047 198.587 43.6725 198.058C42.2838 193.231 35.4726 169.094 34.613 146.082C33.6211 120.358 34.613 145.222 34.613 145.222L35.2081 129.285L45.3256 129.351Z" fill="url(#paint3_linear_1835_3)"/>
<path d="M29.1905 200.898C29.1905 200.898 28.3309 202.419 27.5374 206.519C27.4051 207.247 27.9341 207.974 28.6615 208.04C29.984 208.172 32.034 208.305 33.6211 208.305C34.3485 208.305 34.9436 207.643 34.8775 206.916C34.6791 205.461 34.1501 203.015 32.4308 201.097L29.1905 200.898Z" fill="url(#paint4_linear_1835_3)"/>
<path d="M28.397 196.206L29.3889 201.695C29.3889 201.695 30.3809 202.422 32.3647 201.893L31.9018 196.008L28.397 196.206Z" fill="url(#paint5_linear_1835_3)"/>
<path d="M25.6858 130.806C21.652 155.207 26.5454 191.18 28.1986 198.19C28.3309 198.652 28.6615 198.983 29.0583 199.049C29.7857 199.181 31.0421 199.248 32.2324 198.917C32.6292 198.785 32.9598 198.454 32.9598 197.991C33.1582 192.304 32.7614 157.389 36.5307 143.568C36.7291 142.841 37.1258 142.246 37.721 141.849L45.0612 136.625L45.5902 128.227L25.6858 130.806Z" fill="url(#paint6_linear_1835_3)"/>
<path d="M61.7254 95.9648C61.1303 100.329 60.469 101.321 59.94 101.387C58.353 101.453 58.6836 91.6004 52.7982 86.6408C49.0951 83.4667 44.0032 83.2022 40.0356 83.5989C41.8872 90.2778 43.7387 96.8906 45.5903 103.569C46.3838 105.553 49.9547 113.621 57.9562 116.068C59.6094 116.597 61.99 117.324 64.2383 116.332C68.6689 114.414 70.7849 106.611 68.8011 96.7583C67.8753 96.3616 66.6189 95.9648 61.7254 95.9648Z" fill="#45BDA6"/>
<path d="M60.3367 78.9023L61.0641 83.0684C62.2544 88.1602 62.3867 92.3924 61.7254 95.9633C62.7173 96.0294 63.7754 96.0955 64.8996 96.1617C66.2882 96.2939 67.5446 96.4923 68.8011 96.6907C68.1398 91.5327 64.7011 82.9361 64.7011 82.9361C62.6512 79.9604 62.3867 81.8781 60.3367 78.9023Z" fill="#45BDA6"/>
<path d="M68.735 70.1055C67.8753 70.1055 67.0818 70.4361 66.5528 71.0974L61.3287 77.3134C61.3287 77.3134 60.4029 77.115 60.2707 75.2634C60.2046 73.4118 58.2207 73.2135 58.2207 73.2135C58.2207 73.2135 58.4852 75.7924 59.0142 79.5617C59.3449 81.7439 60.6013 83.2649 61.6593 84.2568L64.7012 83.1987C67.4786 79.2311 69.1979 74.8005 70.1898 70.1716L68.735 70.1055Z" fill="#45BDA6"/>
<path d="M19.2715 87.03C19.6021 86.9639 21.9827 84.451 22.3794 84.3849C28.2648 83.2607 42.9451 79.2931 52.7981 86.5671C52.7981 86.7655 52.8643 86.9639 52.8643 87.0961C52.9304 87.2284 53.0627 87.4268 53.261 87.8235C54.1868 89.609 55.311 91.3944 56.5674 92.9815C56.3029 93.246 56.0384 93.5766 55.9062 93.9734C53.5256 99.0652 44.5983 119.234 46.1854 131.666C46.2515 132.327 45.8547 132.923 45.1935 132.989C41.6887 133.452 31.3728 134.642 26.0165 132.46C25.6858 132.327 25.4875 131.997 25.4875 131.666C25.5536 129.153 25.4213 118.441 21.4537 105.413C21.3214 104.951 21.1892 104.422 21.123 103.959C21.0569 104.091 21.0569 104.157 20.9908 104.289L19.2715 87.03Z" fill="#45BDA6"/>
<path d="M28.2648 83.3281C17.2877 84.1217 14.9732 90.4038 7.36853 86.5684L8.69108 98.3391C11.5346 101.447 15.7667 103.563 21.1231 104.357L28.2648 83.3281Z" fill="#45BDA6"/>
<path d="M35.8033 72.6797C33.9517 76.449 33.1582 80.2844 32.8937 83.7891C33.2904 83.9214 38.7129 87.6906 42.3499 84.0536C41.5564 81.5408 41.6886 77.8376 41.887 74.0022L35.8033 72.6797Z" fill="url(#paint7_linear_1835_3)"/>
<path d="M45.5902 62.8247C45.7224 63.023 48.3675 75.7195 48.3675 75.7195L41.0935 77.1082L36.7291 65.4036C36.7291 65.4036 43.8709 59.9812 45.5902 62.8247Z" fill="url(#paint8_linear_1835_3)"/>
<path d="M39.5065 66.4613C39.3081 66.7258 39.242 67.0564 39.3081 67.3871L41.0936 73.603C41.0936 73.6692 41.1597 73.8014 41.2258 73.8676C41.4903 74.3304 42.5484 75.7191 43.937 74.595C45.1273 73.603 46.2515 72.7434 47.2434 72.545C47.8386 72.4127 48.3676 72.8095 48.4998 73.4047C48.7643 74.595 49.2272 77.0417 49.2934 79.2239C49.2934 79.7529 48.8966 80.2819 48.3676 80.3481C46.9128 80.5465 44.0693 80.811 41.6887 80.4803C41.2919 80.4142 40.9613 80.1497 40.829 79.819C40.2339 78.232 38.4484 73.6692 37.721 72.4789C37.0597 71.3547 35.3404 71.2886 34.5469 71.2886C34.2163 71.2886 33.9518 71.1563 33.7534 70.9579C33.1582 70.2967 32.1002 68.8419 33.8195 67.2548C34.2163 66.858 34.2824 66.1968 33.8856 65.8C33.2244 65.0065 32.5631 63.75 33.8856 62.3614C35.2082 60.9065 36.7952 61.171 37.8533 61.5678C38.3162 61.7662 38.8452 61.6339 39.1758 61.2372C39.3081 61.0388 39.5065 60.9727 39.8371 60.9727C40.4323 61.0388 40.8952 60.5759 40.9613 60.0469C41.0274 59.055 41.4903 57.8647 43.2758 57.4018C46.4499 56.6083 48.2353 59.7824 48.3014 62.0307C48.3676 64.2791 44.8628 64.9403 42.8129 64.6758C41.2919 64.3452 40.0355 65.6677 39.5065 66.4613Z" fill="url(#paint9_linear_1835_3)"/>
<path d="M38.8452 74.7291C38.8452 74.7291 38.1839 70.6954 36.5307 70.4309C34.8775 70.1663 33.2243 71.3566 34.7453 73.6711C36.5968 76.5807 38.8452 74.7291 38.8452 74.7291Z" fill="url(#paint10_linear_1835_3)"/>
<path d="M36.2 60.25C36.4646 60.25 36.7952 60.25 37.1258 60.3161C37.9194 60.4484 38.9113 60.8452 38.6468 61.6387C38.25 62.7629 36.1339 61.7048 35.0759 63.4903C34.084 65.0773 34.8775 66.7966 34.613 68.516C34.4807 69.3756 33.9517 70.5659 33.2243 71.0949C32.8937 71.2933 30.2486 71.7562 30.1163 71.2933L29.3889 68.9127C28.7276 66.7966 31.2405 63.2258 32.563 61.8371C33.4888 60.6468 34.8775 60.3161 36.2 60.25Z" fill="url(#paint11_linear_1835_3)"/>
<path d="M33.6872 68.7813L31.1744 70.8973C26.3471 72.9473 22.9084 75.3279 20.3294 77.973C19.4036 76.2537 17.9488 74.2698 15.5682 72.6828C20.3956 70.3022 24.0326 69.3103 24.0326 69.3103C33.8194 65.3426 33.6872 68.7813 33.6872 68.7813Z" fill="url(#paint12_linear_1835_3)"/>
<path d="M20.3955 77.9035C12.5264 86.0372 14.7747 81.9373 14.7086 88.8145C14.7086 91.3935 12.4602 101.247 12.4602 101.247C-11.6763 90.7984 8.49261 76.5809 15.6344 72.6133C17.9489 74.2003 19.4698 76.1842 20.3955 77.9035Z" fill="#45BDA6"/>
<defs>
<linearGradient id="paint0_linear_1835_3" x1="120.778" y1="147.077" x2="156.997" y2="69.6083" gradientUnits="userSpaceOnUse">
<stop stop-color="#09005D"/>
<stop offset="1" stop-color="#1A0F91"/>
</linearGradient>
<linearGradient id="paint1_linear_1835_3" x1="61.7607" y1="195.117" x2="10.0606" y2="251.352" gradientUnits="userSpaceOnUse">
<stop stop-color="#09005D"/>
<stop offset="1" stop-color="#1A0F91"/>
</linearGradient>
<linearGradient id="paint2_linear_1835_3" x1="44.9796" y1="199.295" x2="49.5719" y2="199.295" gradientUnits="userSpaceOnUse">
<stop stop-color="#FEBBBA"/>
<stop offset="1" stop-color="#FF928E"/>
</linearGradient>
<linearGradient id="paint3_linear_1835_3" x1="-226.968" y1="479.043" x2="-177.467" y2="421.026" gradientUnits="userSpaceOnUse">
<stop stop-color="#020039"/>
<stop offset="1" stop-color="#090056"/>
</linearGradient>
<linearGradient id="paint4_linear_1835_3" x1="50.1625" y1="184.453" x2="-1.53768" y2="240.688" gradientUnits="userSpaceOnUse">
<stop stop-color="#09005D"/>
<stop offset="1" stop-color="#1A0F91"/>
</linearGradient>
<linearGradient id="paint5_linear_1835_3" x1="28.4291" y1="199.059" x2="32.3942" y2="199.059" gradientUnits="userSpaceOnUse">
<stop stop-color="#FEBBBA"/>
<stop offset="1" stop-color="#FF928E"/>
</linearGradient>
<linearGradient id="paint6_linear_1835_3" x1="-233.908" y1="473.122" x2="-184.407" y2="415.104" gradientUnits="userSpaceOnUse">
<stop stop-color="#020039"/>
<stop offset="1" stop-color="#090056"/>
</linearGradient>
<linearGradient id="paint7_linear_1835_3" x1="42.7253" y1="71.4604" x2="24.2508" y2="106.14" gradientUnits="userSpaceOnUse">
<stop stop-color="#FEBBBA"/>
<stop offset="1" stop-color="#FF928E"/>
</linearGradient>
<linearGradient id="paint8_linear_1835_3" x1="17.6659" y1="66.5476" x2="53.3997" y2="70.8332" gradientUnits="userSpaceOnUse">
<stop stop-color="#FEBBBA"/>
<stop offset="1" stop-color="#FF928E"/>
</linearGradient>
<linearGradient id="paint9_linear_1835_3" x1="35.934" y1="74.4418" x2="51.1059" y2="65.0651" gradientUnits="userSpaceOnUse">
<stop stop-color="#09005D"/>
<stop offset="1" stop-color="#1A0F91"/>
</linearGradient>
<linearGradient id="paint10_linear_1835_3" x1="17.1897" y1="70.5177" x2="52.9236" y2="74.8033" gradientUnits="userSpaceOnUse">
<stop stop-color="#FEBBBA"/>
<stop offset="1" stop-color="#FF928E"/>
</linearGradient>
<linearGradient id="paint11_linear_1835_3" x1="38.1849" y1="62.7158" x2="9.35425" y2="82.2618" gradientUnits="userSpaceOnUse">
<stop stop-color="#FEBBBA"/>
<stop offset="1" stop-color="#FF928E"/>
</linearGradient>
<linearGradient id="paint12_linear_1835_3" x1="37.6085" y1="62.1358" x2="7.61644" y2="82.4691" gradientUnits="userSpaceOnUse">
<stop stop-color="#FEBBBA"/>
<stop offset="1" stop-color="#FF928E"/>
</linearGradient>
</defs>
</svg>
