<?xml version="1.0" encoding="utf-8"?>
<!-- Generator: Adobe Illustrator 21.0.2, SVG Export Plug-In . SVG Version: 6.00 Build 0)  -->
<svg version="1.1" id="Layer_1" xmlns="http://www.w3.org/2000/svg" xmlns:xlink="http://www.w3.org/1999/xlink" x="0px" y="0px"
	 viewBox="0 0 329.3 250.3" style="enable-background:new 0 0 329.3 250.3;" xml:space="preserve">
<style type="text/css">
	.st0{opacity:0.8;fill:#121212;}
	.st1{fill:#E5E5E5;}
	.st2{fill:#FFFFFF;}
	.st3{fill:#EF8019;}
	.st4{clip-path:url(#SVGID_6_);}
	.st5{clip-path:url(#SVGID_8_);}
	.st6{opacity:0.7;fill:#121212;}
	.st7{opacity:0.7;fill:#E5E5E5;}
	.st8{fill:#FEA219;}
	.st9{fill:#196476;}
	.st10{fill:#141414;stroke:#141414;stroke-width:0.9098;stroke-miterlimit:10;}
	.st11{fill:#012F47;}
	.st12{fill:#B3D136;}
	.st13{fill:#45BDA6;}
	.st14{fill:#F48320;}
	.st15{opacity:0.9;fill:#FFFFFF;}
	.st16{clip-path:url(#SVGID_12_);}
	.st17{clip-path:url(#SVGID_16_);}
	.st18{fill:#121212;}
	.st19{clip-path:url(#SVGID_20_);}
	.st20{clip-path:url(#SVGID_28_);}
	.st21{clip-path:url(#SVGID_32_);}
	.st22{clip-path:url(#SVGID_34_);}
	.st23{clip-path:url(#SVGID_38_);}
	.st24{clip-path:url(#SVGID_42_);}
	.st25{fill:#FF5A67;}
	.st26{fill:#FFEFAE;}
	.st27{clip-path:url(#SVGID_46_);fill:#FFFFFF;}
	.st28{clip-path:url(#SVGID_48_);fill:#FFFFFF;}
	.st29{opacity:0.3;}
	.st30{fill:#329C00;}
	.st31{clip-path:url(#SVGID_50_);fill:#329C00;}
	.st32{opacity:0.8;clip-path:url(#SVGID_52_);fill:#121212;}
	.st33{opacity:0.8;clip-path:url(#SVGID_54_);fill:#121212;}
	.st34{opacity:0.8;fill:#012F47;}
	.st35{opacity:0.8;fill:#45BDA6;}
	.st36{clip-path:url(#SVGID_56_);}
	.st37{fill:none;stroke:#012F47;stroke-width:0.868;stroke-linecap:round;stroke-miterlimit:10;}
	.st38{opacity:0.4;fill:#45BDA6;}
	.st39{opacity:0.4;fill:#F58420;}
	.st40{opacity:0.4;fill:#B4D235;}
	.st41{clip-path:url(#SVGID_60_);fill:#FFFFFF;}
	.st42{clip-path:url(#SVGID_62_);fill:#FFFFFF;}
	.st43{fill:#D7F0F9;}
	.st44{fill:#79C9E8;}
	.st45{fill:#FFBF4D;}
	.st46{fill:#33353B;}
	.st47{fill:#FFF2E2;}
	.st48{fill:#C2C68E;}
	.st49{fill:#375A64;}
	.st50{fill:#C97E67;}
	.st51{fill:#00668E;}
	.st52{fill:#ECECEC;}
	.st53{fill:#E1E1E1;}
	.st54{fill:#1A2E35;}
	.st55{fill:#FF735D;}
	.st56{fill:none;stroke:#44555B;stroke-width:1.861625e-02;stroke-miterlimit:10;}
	.st57{fill:#DABDA5;}
	.st58{fill:#FFB469;}
	.st59{fill:#BF9691;}
	.st60{fill:#7A4A45;}
	.st61{fill:#A2675F;}
	.st62{fill:#05556D;}
</style>
<g>
	<g>
		<path class="st43" d="M234.6,57.2L82.8,58.1c-6.5,0-11.7,5.3-11.7,11.8l0.6,97.1c0,6.5,5.3,11.7,11.8,11.7l151.8-0.9
			c6.5,0,11.7-5.3,11.7-11.8l-0.6-97.1C246.4,62.4,241.1,57.2,234.6,57.2z"/>
		<path class="st12" d="M246.5,78.5l-0.1-9.6c0-6.5-5.3-11.7-11.8-11.7L82.8,58.1c-6.5,0-11.7,5.3-11.7,11.8l0.1,9.6L246.5,78.5z"/>
		<g>
			
				<ellipse transform="matrix(1 -5.696286e-03 5.696286e-03 1 -0.4024 0.4843)" class="st2" cx="84.8" cy="70.9" rx="3.2" ry="3.2"/>
			
				<ellipse transform="matrix(1 -5.696286e-03 5.696286e-03 1 -0.4016 0.5711)" class="st44" cx="100.1" cy="70.8" rx="3.2" ry="3.2"/>
			
				<ellipse transform="matrix(1 -5.682078e-03 5.682078e-03 1 -0.3999 0.6593)" class="st45" cx="115.8" cy="70.7" rx="3.2" ry="3.2"/>
		</g>
	</g>
</g>
<g>
	<g>
		<g>
			<path class="st46" d="M159.5,150.1c-1.4,0.7-2,0.5-2.3,0c-0.3-0.5-0.1-1.2,1.3-1.9c2.5-1.3,4.2-1,4.2-1S162,148.7,159.5,150.1z"
				/>
		</g>
		<g>
			<path class="st46" d="M157.8,159c-1.3,0.8-2,0.6-2.3,0.1c-0.3-0.5-0.2-1.2,1.1-2c2.4-1.5,4.1-1.3,4.1-1.3S160.2,157.5,157.8,159z
				"/>
		</g>
		<g>
			<g>
				<g>
					<path class="st46" d="M159,185.2l-0.3,0c0,0,0.6-4.6-0.6-11.3c-1.1-6.2-4-15.6-11.4-25.2l0.2-0.2c7.5,9.6,10.4,19.1,11.5,25.3
						C159.6,180.6,159,185.2,159,185.2z"/>
				</g>
			</g>
			<g>
				<g>
					<path class="st46" d="M153.1,158.5l-0.2-0.1c4.2-6,2.2-13.5,2.2-13.6l0.2-0.1C155.3,144.8,157.3,152.5,153.1,158.5z"/>
				</g>
			</g>
			<g>
				<g>
					<path class="st46" d="M149.9,155.5c-3-0.1-5.1-1.7-5.1-1.8l0.2-0.2c0,0,2.8,2.1,6.3,1.7l0,0.3
						C150.9,155.5,150.4,155.5,149.9,155.5z"/>
				</g>
			</g>
			<g>
				<g>
					<path class="st46" d="M146.5,147.1c1.5,1.5,1.6,2.3,1.1,2.7c-0.4,0.4-1.2,0.3-2.7-1.1c-2.7-2.7-3.2-4.8-3.2-4.8
						S143.8,144.3,146.5,147.1z"/>
				</g>
			</g>
			<g>
				<g>
					<path class="st46" d="M145.6,152.8c1.8,1,2.2,1.7,1.9,2.2c-0.3,0.5-1,0.7-2.9-0.3c-3.4-1.7-4.5-3.6-4.5-3.6
						S142.2,151.1,145.6,152.8z"/>
				</g>
			</g>
			<g>
				<g>
					<path class="st46" d="M153.2,151c0.3,1.5-0.1,2.1-0.7,2.2c-0.6,0.1-1.2-0.3-1.4-1.8c-0.5-2.8,0.3-4.3,0.3-4.3
						S152.6,148.2,153.2,151z"/>
				</g>
			</g>
			<g>
				<g>
					<path class="st46" d="M155.8,143.9c0.3,1.4,0,1.9-0.4,2c-0.4,0.1-0.8-0.3-1.1-1.7c-0.5-2.6,0-3.9,0-3.9
						S155.3,141.3,155.8,143.9z"/>
				</g>
			</g>
		</g>
	</g>
	<g>
		<path class="st13" d="M162.8,197.5c0,0-9.3-43.5-20.9-40.5c-11.6,3,12.6,27.8,14.9,40.5L162.8,197.5z"/>
	</g>
	<g>
		<g>
			<g>
				<path class="st12" d="M160.5,198c0,0-16.9-37.9-28.8-32.9s17.9,22.9,22.5,34.1L160.5,198z"/>
			</g>
		</g>
		<g>
			<g>
				<path class="st46" d="M156.9,198.7c-5.7-14.9-21.9-28.4-22.1-28.5l0.3-0.4c0.2,0.1,16.5,13.7,22.2,28.7L156.9,198.7z"/>
			</g>
		</g>
	</g>
	<g>
		<g>
			<path class="st46" d="M216.5,161c1.9,0.8,2.7,0.4,3-0.4c0.3-0.7,0-1.6-1.9-2.3c-3.4-1.4-5.6-0.7-5.6-0.7S213,159.6,216.5,161z"/>
		</g>
		<g>
			<path class="st46" d="M219.9,172.4c1.8,0.9,2.7,0.6,3-0.2c0.3-0.7,0.1-1.6-1.8-2.4c-3.3-1.6-5.6-1.1-5.6-1.1
				S216.6,170.8,219.9,172.4z"/>
		</g>
		<g>
			<g>
				<g>
					<path class="st46" d="M222.1,206.9l0.4-0.1c0-0.1-1.4-5.9-0.8-14.8c0.6-8.3,3-21,11.4-34.5l-0.3-0.2
						c-8.5,13.6-10.9,26.4-11.5,34.7C220.7,201,222.1,206.8,222.1,206.9z"/>
				</g>
			</g>
			<g>
				<g>
					<path class="st46" d="M226,171.2l0.2-0.2c-6.3-7.2-4.8-17.4-4.8-17.5l-0.3,0C221.1,153.6,219.6,163.9,226,171.2z"/>
				</g>
			</g>
			<g>
				<g>
					<path class="st46" d="M229.7,166.8c3.8-0.6,6.4-3,6.5-3l-0.3-0.3c0,0-3.4,3.1-8,3.1l0,0.4C228.5,166.9,229.1,166.9,229.7,166.8
						z"/>
				</g>
			</g>
			<g>
				<g>
					<path class="st46" d="M233,155.3c-1.7,2.1-1.7,3.2-1.1,3.7c0.6,0.5,1.6,0.3,3.3-1.9c3.1-3.9,3.5-6.7,3.5-6.7
						S236.1,151.3,233,155.3z"/>
				</g>
			</g>
			<g>
				<g>
					<path class="st46" d="M234.9,162.7c-2.3,1.5-2.6,2.5-2.2,3.2c0.4,0.7,1.5,0.8,3.7-0.8c4.1-2.8,5.4-5.3,5.4-5.3
						S239.2,159.9,234.9,162.7z"/>
				</g>
			</g>
			<g>
				<g>
					<path class="st46" d="M224.9,161.3c-0.1,2,0.5,2.7,1.2,2.8c0.8,0.1,1.5-0.5,1.6-2.5c0.3-3.7-1-5.6-1-5.6
						S225.1,157.6,224.9,161.3z"/>
				</g>
			</g>
			<g>
				<g>
					<path class="st46" d="M220.5,152.5c-0.1,1.9,0.3,2.5,0.8,2.5c0.5,0,1-0.5,1.2-2.4c0.3-3.4-0.6-5.2-0.6-5.2
						S220.7,149,220.5,152.5z"/>
				</g>
			</g>
		</g>
	</g>
	<g>
		<g>
			<path class="st12" d="M219.6,203.2c0,0,10-37.6,20-34.5c10,3.1-12.2,23.7-14.8,34.7L219.6,203.2z"/>
		</g>
	</g>
	<g>
		<g>
			<path class="st13" d="M221.1,202.1c0,0,25.5-38.3,37.7-30.6c12.1,7.6-23.9,21.7-30.9,33.1L221.1,202.1z"/>
		</g>
		<g>
			<g>
				<path class="st46" d="M224.9,203.6c9-15.2,29.3-27,29.5-27.1l-0.3-0.5c-0.2,0.1-20.6,12-29.7,27.3L224.9,203.6z"/>
			</g>
		</g>
	</g>
	<g>
		<g>
			<g>
				<path class="st47" d="M114.8,192.1c0.2,0.1,0.4,0.3,0.6,0.4c1.2,0.8,2.6,1.5,4,2.1c1.5,0.6,2.5,1.7,3.2,2.9c0,0,0,0.1,0.1,0.1
					c1,1.9,1.5,4.1,2.8,5.4c0.1,0.1,0.2,0.2,0.3,0.3c0.8,0.7,1.9,1,3.4,0.9c5.3-0.5,5.8-1.1,7.3,0.4c0.1,0.1,0.2,0.2,0.3,0.3
					c0.3,0.3,0.6,0.7,0.9,1.1c0,0,0.3,0.6,1,0.6c2.1,0.2,7.4-2,13.5-5.6c0.1-0.1,0.2-0.1,0.3-0.2c0.7-0.4,1.3-0.8,2-1.2
					c2-1.2,3.8-2.5,5.5-3.7c-0.3-1.4-1-3.5-3.1-5c-0.8-0.6-1.7-1.1-2.9-1.4c-6.2-1.9-8.6,0.6-12.6-7.1c0-0.1-0.1-0.2-0.1-0.3
					c0-0.1-0.1-0.1-0.1-0.2c-4.1-8.4-12.5,1.6-16.7,0.6c-4.3-1-7.9-2.9-11.9,1.3C109.6,186.4,111.5,189.7,114.8,192.1z"/>
			</g>
		</g>
		<g>
			<g>
				<g>
					<path class="st46" d="M111.5,185.3c6.1,1,11.5,2.3,16.2,3.8c0.2,0,0.3,0.1,0.5,0.1c6.9,2.1,12.2,4.5,16.1,6.6
						c0.1,0.1,0.2,0.1,0.3,0.2c4.2,2.3,6.6,4.1,7.4,4.8c0.1-0.1,0.2-0.1,0.3-0.2c-1.1-0.9-6.6-5.2-17.3-9.4c-0.1,0-0.2-0.1-0.4-0.1
						c-6-2.3-13.7-4.6-23.1-6.1L111.5,185.3z"/>
				</g>
			</g>
			<g>
				<g>
					<path class="st46" d="M136.1,187.5c4.2-2.9,5.2-5.5,5.3-5.6l-0.3-0.1c0,0-1,2.6-5.1,5.4L136.1,187.5z"/>
				</g>
			</g>
			<g>
				<g>
					<path class="st46" d="M134.9,191.4c1.3-1.7,1.6-4.4,0.7-7.8c-0.6-2.5-1.6-4.6-1.6-4.6l-0.3,0.2c0,0.1,3.9,8.1,0.9,12.1
						L134.9,191.4z"/>
				</g>
			</g>
			<g>
				<g>
					<path class="st46" d="M127.5,189.7c0.5-0.3,0.8-0.5,0.8-0.5l-0.2-0.3c-0.1,0-5.8,4.4-13.3,3.1l-0.1,0.4
						C120.7,193.4,125.7,190.8,127.5,189.7z"/>
				</g>
			</g>
			<g>
				<g>
					<path class="st46" d="M122.7,197.7c2-1.7,2.7-3.5,3-4.8c0.3-1.4,0.1-2.3,0.1-2.4l-0.4,0.1c0,0,0.6,3.7-3,6.8L122.7,197.7z"/>
				</g>
			</g>
			<g>
				<g>
					<path class="st46" d="M138.4,203.8c4.7-2.9,6.3-8,6.3-8l-0.4-0.1c0,0.1-2,6.3-8,8.8l0.1,0.3
						C137.2,204.5,137.8,204.2,138.4,203.8z"/>
				</g>
			</g>
			<g>
				<g>
					<path class="st48" d="M142.4,199.8l0.2-0.3c-1.9-0.9-5.3-1.6-11.1,0.5c-3.4,1.2-6.1,2.9-6.1,2.9l0.2,0.3
						C125.6,203.2,136.1,196.7,142.4,199.8z"/>
				</g>
			</g>
		</g>
	</g>
	<g>
		<g>
			<g>
				<path class="st47" d="M197.7,172.1c0,0.2,0.1,0.4,0.1,0.6c0.2,1.4,0.6,2.7,1.1,4c0.6,1.4,0.4,2.7,0,3.9c0,0,0,0.1,0,0.1
					c-0.6,1.8-1.8,3.6-1.8,5.3c0,0.1,0,0.2,0,0.4c0,1,0.5,1.9,1.6,2.9c3.7,3.2,4.4,3.2,4.3,5.1c0,0.1,0,0.2,0,0.4
					c0,0.4-0.1,0.8-0.2,1.3c0,0-0.2,0.5,0.2,1c1.2,1.5,6,3.7,12.3,5.6c0.1,0,0.2,0.1,0.3,0.1c0.7,0.2,1.3,0.4,2,0.6
					c2.1,0.6,4.1,1,5.9,1.4c0.8-1,1.7-2.9,1.4-5.2c-0.1-0.9-0.4-1.8-0.8-2.8c-2.6-5.4-5.8-5.4-3.1-12.9c0-0.1,0.1-0.2,0.1-0.3
					c0-0.1,0.1-0.1,0.1-0.2c3.1-8-8.9-7.4-10.9-10.9c-2-3.5-3-7.1-8.3-7.2C198.3,165,197.2,168.4,197.7,172.1z"/>
			</g>
		</g>
		<g>
			<g>
				<g>
					<path class="st46" d="M200.2,165.7c3.2,4.8,5.6,9.2,7.6,13.3c0.1,0.1,0.1,0.3,0.2,0.4c2.9,6,4.6,11,5.6,14.9
						c0,0.1,0.1,0.2,0.1,0.3c1.1,4.3,1.4,7.1,1.4,8c0.1,0,0.2,0.1,0.3,0.1c-0.1-1.3-0.6-7.7-4.5-17.5c0-0.1-0.1-0.2-0.1-0.3
						c-2.2-5.5-5.5-12.1-10.3-19.4L200.2,165.7z"/>
				</g>
			</g>
			<g>
				<g>
					<path class="st46" d="M214.1,183.6c4.5,1,6.9,0.1,7,0.1l-0.1-0.3c0,0-2.4,0.9-6.8-0.1L214.1,183.6z"/>
				</g>
			</g>
			<g>
				<g>
					<path class="st46" d="M210.7,185.2c2-0.2,3.9-1.7,5.7-4.4c1.3-2,2.1-4,2.1-4l-0.3-0.1c0,0.1-3,7.7-7.5,8.2L210.7,185.2z"/>
				</g>
			</g>
			<g>
				<g>
					<path class="st46" d="M207.3,179.2c0.5,0.1,0.8,0.2,0.8,0.2l0.1-0.3c-0.1,0-6.6-1.1-10.4-7l-0.3,0.2
						C200.5,176.9,205.3,178.6,207.3,179.2z"/>
				</g>
			</g>
			<g>
				<g>
					<path class="st46" d="M198.8,180.9c2.4,0.3,4.1-0.4,5.1-1c1.1-0.7,1.7-1.4,1.7-1.4l-0.3-0.2c0,0-2.1,2.7-6.4,2.2L198.8,180.9z"
						/>
				</g>
			</g>
			<g>
				<g>
					<path class="st46" d="M204.6,195.3c4.9,1.3,9.3-0.8,9.3-0.8l-0.1-0.3c-0.1,0-5.5,2.6-10.9,0.1l-0.1,0.3
						C203.3,194.9,203.9,195.1,204.6,195.3z"/>
				</g>
			</g>
			<g>
				<g>
					<path class="st46" d="M209.7,195.5l0.3-0.1c-0.6-1.8-2.3-4.6-7.3-7.2c-3-1.5-5.8-2.3-5.8-2.3l-0.1,0.3
						C197,186.3,207.9,189.3,209.7,195.5z"/>
				</g>
			</g>
		</g>
	</g>
	<g>
		<ellipse class="st49" cx="184.8" cy="205.8" rx="65" ry="9.8"/>
	</g>
	<g>
		<g>
			<g>
				<path class="st50" d="M167.6,111.6c0,0,1.6-3,3.5-3.5c1.9-0.5,4.8,0.4,3.6,0.9c-0.6,0.3-1.2,0.2-1.8,0.4c-0.6,0.2-1,0.5-1,0.5
					s2.4-0.4,2.5,0.3c0.1,0.6-2.5,1.4-2.5,1.4s3-0.5,2.5,0.3c-0.5,0.8-2.4,1.2-2.4,1.2s4-0.1,3.4,0.8s-3.3,0-3.5,0.9
					c-0.2,0.9-0.2,4-2.7,3.6L167.6,111.6z"/>
			</g>
		</g>
		<g>
			<g>
				<path class="st46" d="M175.1,200.3c0,0-0.1,2-1.5,2.5c-1.4,0.5-5.3,0.9-3.9,2.3c0.8,0.8,4.8,0.4,6,0.4c1.1,0,2.2,0.6,3-0.2
					c0.9-0.8,0.1-5,0.1-5s-1,0.5-1.9,0.4C175.8,200.8,175.1,200.3,175.1,200.3z"/>
			</g>
			<g>
				<path class="st14" d="M165.2,149.5c0.3,4.2,0.8,9.6,1.7,16.3c1.8,12.7,3.9,25.4,4.9,31.5c0.4,2.2,2.2,3.8,4.3,4l1.2,0.1
					c2.3,0.2,4.3-1.8,4.2-4.2l-1.8-41.3l-0.2-6.6C179.6,149.3,164.8,142.7,165.2,149.5z"/>
			</g>
			<g>
				<path class="st46" d="M188.1,200.7c0,0-0.1,2-1.5,2.5c-1.4,0.5-5.3,0.9-3.9,2.3c0.8,0.8,4.8,0.4,6,0.4c1.1,0,2.2,0.6,3-0.2
					c0.9-0.8,0.1-5,0.1-5s-1,0.5-1.9,0.4C188.7,201.1,188.1,200.7,188.1,200.7z"/>
			</g>
			<g>
				<path class="st14" d="M177.9,139.5c0,0-0.5,9.1,1.9,26.6c1.8,12.7,3.9,25.4,4.9,31.5c0.4,2.2,2.2,3.8,4.3,4l1.2,0.1
					c2.3,0.2,4.3-1.8,4.2-4.2l-1.8-41.3l-0.4-13.6L177.9,139.5z"/>
			</g>
			<g>
				<path class="st46" d="M180.4,169.7l-0.2,0c0-0.1,1-7.5,1.8-10.2c0.8-2.7,4.2-5,4.3-5.1l0.1,0.1c0,0-3.5,2.3-4.2,5
					C181.4,162.2,180.4,169.6,180.4,169.7z"/>
			</g>
			<g>
				<path class="st50" d="M180.5,111.5l-0.9-2.7l-0.3-0.8l-1.6-4.7l-0.2,4.6l-0.1,2.8l0,0.9c0,0.6-0.4,0.7-0.9,1.2
					c-0.2,0.2-1.4,1.5,0,2.1c1.7,0.7,5-0.4,6.3-1.8C182.7,113.2,180.8,112.4,180.5,111.5z"/>
			</g>
			<g>
				<path class="st50" d="M173.6,104.6c0.4-2.7,2.7-4.7,5.1-4.4c2.4,0.3,4.1,2.8,3.7,5.5c-0.4,2.7-2.7,4.7-5.1,4.4
					C174.8,109.8,173.2,107.3,173.6,104.6z"/>
			</g>
			<g>
				<path class="st46" d="M175.5,103.4c-2.5,0.1-3.8-1.3-3.8-2.5c0-1.6,1.1-3.1,2.3-2.5c1.3,0.6,0.7-0.9,2-1
					c2.3-0.3,2.7,1.2,4.6,1.3c2.5,0.1,5.3,3.9,3.2,6.7C183.8,105.4,177.5,103.3,175.5,103.4z"/>
			</g>
			<g>
				<path class="st46" d="M173.2,101.7c0,0,2.7,2.4,2.4,3.8c-0.4,1.4-0.3,1.9,1.3,2.6c1.6,0.7,0.2,1.9,2.3,2
					c2.1,0.1,4.7-2.2,4.7-6.1c0-2.1-1.3-3.5-1.3-3.5L173.2,101.7z"/>
			</g>
			<g>
				<path class="st50" d="M174.2,105.5c0.3-0.4,0.9-0.5,1.3-0.3c0.4,0.3,0.5,0.8,0.1,1.2c-0.3,0.4-0.9,0.5-1.3,0.3
					C174,106.4,173.9,105.9,174.2,105.5z"/>
			</g>
			<g>
				<path class="st46" d="M184.8,106.4C184.8,106.4,184.8,106.4,184.8,106.4c-0.2-0.6-0.7-0.9-0.7-0.9c0,0,0-0.1,0-0.1
					c0,0,0.1,0,0.1,0C184.2,105.5,184.8,105.8,184.8,106.4C184.9,106.4,184.9,106.4,184.8,106.4
					C184.8,106.4,184.8,106.4,184.8,106.4z"/>
			</g>
			<g>
				<path class="st46" d="M184.1,105.3C184.1,105.3,184.1,105.3,184.1,105.3c-0.1-0.1,0-0.1,0-0.1c0,0,0.7,0,0.8-0.5
					c0,0,0-0.1,0.1,0c0,0,0.1,0,0,0.1C184.9,105.2,184.2,105.3,184.1,105.3C184.1,105.3,184.1,105.3,184.1,105.3z"/>
			</g>
			<g>
				<path class="st46" d="M174.4,98.3c0,0-0.1,0-0.1,0c-0.2-0.1-0.4-0.2-0.5-0.3c-0.3-0.2-0.5-0.3-1.1-0.2c0,0-0.1,0-0.1,0
					c0,0,0-0.1,0-0.1c0.6-0.2,0.9,0,1.2,0.2c0.1,0.1,0.3,0.2,0.5,0.2c0.1,0,0.2,0,0.3,0c0.3-0.2,0.3-0.8,0.3-0.8c0,0,0-0.1,0.1-0.1
					c0,0,0.1,0,0.1,0.1c0,0-0.1,0.7-0.4,0.9C174.6,98.3,174.5,98.3,174.4,98.3z"/>
			</g>
			<g>
				<path class="st46" d="M180.4,98.4c-0.9,0-1.6-0.6-1.6-0.6c0,0,0-0.1,0-0.1c0,0,0.1,0,0.1,0c0,0,0.8,0.7,1.8,0.6
					c0,0,0.1,0,0.1,0.1c0,0,0,0.1-0.1,0.1C180.6,98.4,180.5,98.4,180.4,98.4z"/>
			</g>
			<g>
				<path class="st46" d="M174.9,106.9c-0.1,0-0.2,0-0.2,0c0,0,0,0,0,0c0,0,0,0,0,0c0,0,0.6,0.2,1-0.6c0,0,0,0,0,0c0,0,0,0,0,0
					C175.5,106.8,175.1,106.9,174.9,106.9z"/>
			</g>
			<g>
				<path class="st46" d="M165.2,149.5c0,0,18.5-1,27.3,1.1l0.1-2.5l-12.3-3.6l-9.9,0.2l-3.1,0.7l-2.2,3.3L165.2,149.5z"/>
			</g>
			<g>
				<path class="st51" d="M190.9,119.1c0,0-1.6-7-11.6-7c-17.3,0-12.5,14.1-14.1,36.6c0,0,11.2-2.4,27.4,0.8c0,0,1.6-12.2-0.5-22.5
					C191.6,124.3,191.7,121.4,190.9,119.1z"/>
			</g>
		</g>
	</g>
	<g>
		<path class="st51" d="M177.3,112.1c0,0-5.6,0.1-9.7,4c-4.1,3.9-9.5,9.3-10.6,12.4c-1.4,3.8,1.2,7.6,4.4,7.7
			c3.3,0.1,6.2-2.3,6.2-2.3L177.3,112.1z"/>
	</g>
	<g>
		<path class="st51" d="M168.1,110.8c0,0-10.8,12-11.3,18.9c-0.4,5.6,14.5-7.3,15.6-9.9c1.1-2.6-0.6-6-0.6-6L168.1,110.8z"/>
	</g>
	<g>
		<path class="st51" d="M201.9,132.6c-1.6-12-15.3-18.8-15.3-18.8l-2.9,15.1l5.7,1.8c2.9,0.9,4.1,4.5,2.4,7
			c-2.3,3.2-3.6,7.5-1.3,6.7C194.5,143.1,202.7,137.9,201.9,132.6z"/>
	</g>
	<g>
		<path class="st46" d="M160.2,127.5l-0.1-0.1c0.1-0.1,5.9-11.5,11.6-14.1l0.1,0.1C166.1,116,160.2,127.4,160.2,127.5z"/>
	</g>
	<g>
		<path class="st46" d="M193.1,144l-0.1,0c0.5-8.8-1.1-17.9-1.1-17.9l0.1,0C192,126.1,193.6,135.2,193.1,144z"/>
	</g>
	<g>
		<path class="st46" d="M165.7,135.1l-0.1-0.1c3.3-1.9,7.5-7,7.6-7.1l0.1,0.1C173.2,128.1,168.9,133.2,165.7,135.1z"/>
	</g>
</g>
<g>
	<path class="st47" d="M175,112.9c0,0,0.6-1.1,1.6-1.2c1-0.1,4.4-0.2,4.9,0c0.5,0.2,1.1,1,1.1,1.2
		C182.5,113.1,178.2,113.9,175,112.9z"/>
</g>
</svg>
