<svg width="151" height="18" viewBox="0 0 151 18" fill="none" xmlns="http://www.w3.org/2000/svg">
<path d="M14.9797 11.732C14.9797 12.2225 14.8598 12.7529 14.6198 13.3335C14.3798 13.904 13.9997 14.4745 13.4797 15.025C12.9597 15.5755 12.2997 16.0259 11.4897 16.3662C10.6797 16.7065 9.7398 16.8866 8.6698 16.8866C7.8498 16.8866 7.10971 16.8066 6.44971 16.6564C5.78971 16.5063 5.17976 16.2561 4.62976 15.9358C4.08976 15.6055 3.57976 15.1751 3.12976 14.6446C2.71976 14.1642 2.36972 13.6137 2.08972 13.0132C1.79972 12.4126 1.5897 11.7721 1.4397 11.0915C1.2897 10.4108 1.21973 9.6802 1.21973 8.91952C1.21973 7.67841 1.39977 6.5574 1.75977 5.57652C2.11977 4.59565 2.6397 3.74488 3.3197 3.05427C3.9897 2.35364 4.7797 1.82317 5.6897 1.45284C6.5997 1.0825 7.55972 0.902344 8.58972 0.902344C9.83972 0.902344 10.9498 1.15257 11.9298 1.65302C12.9098 2.15346 13.6598 2.77402 14.1798 3.50467C14.6998 4.23532 14.9597 4.93595 14.9597 5.58653C14.9597 5.94686 14.8297 6.25713 14.5797 6.53738C14.3297 6.80763 14.0198 6.94775 13.6598 6.94775C13.2598 6.94775 12.9598 6.85767 12.7598 6.6675C12.5598 6.47733 12.3397 6.14703 12.0897 5.68662C11.6797 4.91593 11.1998 4.34542 10.6498 3.96508C10.0998 3.58474 9.41974 3.39457 8.60974 3.39457C7.31974 3.39457 6.2998 3.88501 5.53979 4.85588C4.77979 5.83676 4.39978 7.228 4.39978 9.0196C4.39978 10.2207 4.56979 11.2216 4.90979 12.0223C5.24979 12.823 5.71972 13.4135 6.33972 13.8139C6.95972 14.2042 7.67977 14.4044 8.50977 14.4044C9.40977 14.4044 10.1698 14.1842 10.7898 13.7338C11.4098 13.2834 11.8797 12.6328 12.1997 11.7621C12.3297 11.3517 12.4997 11.0214 12.6897 10.7612C12.8897 10.5009 13.1998 10.3708 13.6398 10.3708C14.0098 10.3708 14.3297 10.5009 14.5997 10.7612C14.8497 11.0214 14.9797 11.3517 14.9797 11.732Z" fill="#141414" stroke="#141414" stroke-width="0.9098" stroke-miterlimit="10"/>
<path d="M25.2698 0.890625C26.8698 0.890625 28.2498 1.22092 29.3998 1.86149C30.5498 2.51208 31.4198 3.4329 32.0098 4.63398C32.5998 5.83505 32.8998 7.24631 32.8998 8.85775C32.8998 10.0488 32.7398 11.1398 32.4198 12.1207C32.0998 13.1015 31.6097 13.9423 30.9697 14.6629C30.3197 15.3836 29.5297 15.9241 28.5897 16.3044C27.6497 16.6848 26.5697 16.8749 25.3497 16.8749C24.1397 16.8749 23.0597 16.6747 22.0997 16.2844C21.1397 15.894 20.3497 15.3436 19.7097 14.6329C19.0697 13.9223 18.5898 13.0715 18.2598 12.0706C17.9298 11.0697 17.7698 9.98876 17.7698 8.82772C17.7698 7.63666 17.9398 6.54568 18.2798 5.5548C18.6198 4.56391 19.1098 3.72316 19.7598 3.02253C20.4098 2.32191 21.1898 1.79143 22.1198 1.4211C23.0398 1.07079 24.0898 0.890625 25.2698 0.890625ZM29.7197 8.83774C29.7197 7.70672 29.5398 6.72584 29.1698 5.8951C28.7998 5.06436 28.2797 4.4338 27.5997 4.01342C26.9197 3.59304 26.1398 3.37285 25.2698 3.37285C24.6398 3.37285 24.0698 3.49295 23.5398 3.72316C23.0098 3.96338 22.5498 4.30368 22.1698 4.75408C21.7898 5.20448 21.4798 5.775 21.2598 6.47562C21.0398 7.17625 20.9298 7.96696 20.9298 8.83774C20.9298 9.71852 21.0398 10.5092 21.2598 11.2199C21.4798 11.9305 21.7897 12.521 22.1997 12.9915C22.5997 13.4619 23.0697 13.8122 23.5897 14.0424C24.1097 14.2726 24.6898 14.3927 25.3098 14.3927C26.1098 14.3927 26.8498 14.1925 27.5198 13.7922C28.1898 13.3918 28.7198 12.7713 29.1198 11.9305C29.5198 11.0998 29.7197 10.0688 29.7197 8.83774Z" fill="#141414" stroke="#141414" stroke-width="0.9098" stroke-miterlimit="10"/>
<path d="M37.9597 1.15234H42.0398C43.0998 1.15234 44.0098 1.25243 44.7698 1.45261C45.5298 1.65279 46.2197 2.02312 46.8397 2.56361C48.4497 3.94484 49.2498 6.03672 49.2498 8.84923C49.2498 9.78007 49.1698 10.6208 49.0098 11.3915C48.8498 12.1622 48.5998 12.8528 48.2598 13.4634C47.9198 14.0739 47.4897 14.6344 46.9597 15.1148C46.5397 15.4852 46.0897 15.7854 45.5997 16.0156C45.1097 16.2458 44.5798 16.396 44.0098 16.4861C43.4398 16.5761 42.8097 16.6262 42.0997 16.6262H38.0198C37.4498 16.6262 37.0197 16.5361 36.7297 16.366C36.4397 16.1958 36.2498 15.9556 36.1698 15.6353C36.0898 15.315 36.0398 14.9147 36.0398 14.4142V3.07406C36.0398 2.40346 36.1897 1.91302 36.4897 1.61275C36.7997 1.30248 37.2897 1.15234 37.9597 1.15234ZM39.1698 3.63456V14.134H41.5398C42.0598 14.134 42.4698 14.124 42.7598 14.0939C43.0598 14.0639 43.3598 13.9938 43.6798 13.8837C43.9998 13.7736 44.2698 13.6135 44.4998 13.4133C45.5498 12.5225 46.0697 11.0012 46.0697 8.83922C46.0697 7.31786 45.8398 6.16683 45.3798 5.40615C44.9198 4.64547 44.3498 4.16504 43.6798 3.95485C43.0098 3.74466 42.1897 3.64457 41.2297 3.64457H39.1698V3.63456Z" fill="#141414" stroke="#141414" stroke-width="0.9098" stroke-miterlimit="10"/>
<path d="M62.5997 3.5645H55.5498V7.35789H62.0398C62.5198 7.35789 62.8697 7.46799 63.1097 7.67818C63.3497 7.89838 63.4597 8.17863 63.4597 8.52895C63.4597 8.87926 63.3397 9.16951 63.1097 9.38971C62.8797 9.60991 62.5198 9.72001 62.0298 9.72001H55.5398V14.1139H62.8297C63.3197 14.1139 63.6897 14.224 63.9397 14.4542C64.1897 14.6845 64.3098 14.9847 64.3098 15.3651C64.3098 15.7354 64.1897 16.0256 63.9397 16.2559C63.6897 16.4861 63.3197 16.5962 62.8297 16.5962H54.3197C53.6397 16.5962 53.1497 16.446 52.8497 16.1458C52.5497 15.8455 52.3998 15.3551 52.3998 14.6744V3.07406C52.3998 2.62366 52.4697 2.25333 52.5997 1.97308C52.7297 1.69283 52.9397 1.48264 53.2297 1.35252C53.5097 1.22241 53.8797 1.15234 54.3197 1.15234H62.5797C63.0797 1.15234 63.4497 1.26244 63.6897 1.48264C63.9297 1.70283 64.0498 1.9931 64.0498 2.35342C64.0498 2.72375 63.9297 3.01401 63.6897 3.2342C63.4697 3.4544 63.0997 3.5645 62.5997 3.5645Z" fill="#141414" stroke="#141414" stroke-width="0.9098" stroke-miterlimit="10"/>
<path d="M77.7397 14.8631L76.9998 12.9214H70.7197L69.9797 14.9032C69.6897 15.6738 69.4497 16.1943 69.2397 16.4746C69.0397 16.7448 68.6997 16.8849 68.2397 16.8849C67.8497 16.8849 67.4997 16.7448 67.1997 16.4545C66.8997 16.1643 66.7498 15.844 66.7498 15.4737C66.7498 15.2635 66.7797 15.0433 66.8597 14.8231C66.9297 14.5929 67.0497 14.2826 67.2097 13.8822L71.1598 3.84327C71.2698 3.55301 71.4097 3.2127 71.5697 2.80233C71.7297 2.40198 71.8997 2.06167 72.0797 1.79143C72.2597 1.52119 72.4898 1.311 72.7898 1.14085C73.0798 0.970697 73.4398 0.890625 73.8698 0.890625C74.2998 0.890625 74.6697 0.970697 74.9597 1.14085C75.2497 1.311 75.4898 1.52119 75.6698 1.78142C75.8498 2.04166 75.9998 2.32191 76.1198 2.62218C76.2398 2.92245 76.3997 3.3228 76.5897 3.82325L80.6298 13.8022C80.9498 14.5629 81.0997 15.1134 81.0997 15.4637C81.0997 15.824 80.9498 16.1543 80.6498 16.4545C80.3498 16.7548 79.9897 16.9049 79.5697 16.9049C79.3197 16.9049 79.1097 16.8649 78.9397 16.7748C78.7697 16.6848 78.6198 16.5646 78.4998 16.4145C78.3798 16.2644 78.2497 16.0342 78.1097 15.7139C77.9497 15.3836 77.8297 15.1033 77.7397 14.8631ZM71.5398 10.5693H76.1598L73.8297 4.18357L71.5398 10.5693Z" fill="#141414" stroke="#141414" stroke-width="0.9098" stroke-miterlimit="10"/>
<path d="M89.1097 14.2841L86.6298 4.42527V15.1048C86.6298 15.6954 86.4997 16.1357 86.2297 16.436C85.9697 16.7363 85.6198 16.8764 85.1798 16.8764C84.7598 16.8764 84.4098 16.7263 84.1498 16.436C83.8798 16.1458 83.7498 15.6954 83.7498 15.1048V2.87389C83.7498 2.20329 83.9298 1.74287 84.2798 1.50266C84.6298 1.26244 85.1097 1.15234 85.6997 1.15234H86.6698C87.2498 1.15234 87.6797 1.20239 87.9397 1.31249C88.1997 1.42259 88.3998 1.61276 88.5198 1.883C88.6498 2.15324 88.7897 2.60364 88.9497 3.2242L91.1997 11.6918L93.4397 3.2242C93.5997 2.60364 93.7498 2.16325 93.8698 1.883C93.9998 1.61276 94.1897 1.42259 94.4497 1.31249C94.7097 1.20239 95.1397 1.15234 95.7197 1.15234H96.6897C97.2897 1.15234 97.7597 1.27245 98.1097 1.50266C98.4597 1.74287 98.6398 2.19328 98.6398 2.87389V15.1148C98.6398 15.7054 98.5097 16.1458 98.2397 16.446C97.9797 16.7463 97.6198 16.8864 97.1798 16.8864C96.7698 16.8864 96.4198 16.7363 96.1598 16.446C95.8898 16.1458 95.7598 15.7054 95.7598 15.1148V4.43528L93.2798 14.2941C93.1198 14.9347 92.9898 15.4051 92.8798 15.7054C92.7698 16.0056 92.5897 16.2759 92.3197 16.5261C92.0497 16.7763 91.6698 16.8964 91.1798 16.8964C90.8098 16.8964 90.5098 16.8164 90.2498 16.6562C89.9998 16.4961 89.7998 16.2959 89.6598 16.0457C89.5198 15.7954 89.4097 15.5252 89.3297 15.2249C89.2797 14.9247 89.1897 14.6144 89.1097 14.2841Z" fill="#141414" stroke="#141414" stroke-width="0.9098" stroke-miterlimit="10"/>
<path d="M109.09 0.890625C110.69 0.890625 112.07 1.22092 113.22 1.86149C114.37 2.51208 115.24 3.4329 115.83 4.63398C116.42 5.83505 116.72 7.24631 116.72 8.85775C116.72 10.0488 116.56 11.1398 116.24 12.1207C115.92 13.1015 115.43 13.9423 114.79 14.6629C114.14 15.3836 113.35 15.9241 112.41 16.3044C111.47 16.6848 110.39 16.8749 109.17 16.8749C107.96 16.8749 106.88 16.6747 105.92 16.2844C104.96 15.894 104.17 15.3436 103.53 14.6329C102.89 13.9223 102.41 13.0715 102.08 12.0706C101.75 11.0697 101.59 9.98876 101.59 8.82772C101.59 7.63666 101.76 6.54568 102.1 5.5548C102.44 4.56391 102.93 3.72316 103.58 3.02253C104.23 2.32191 105.01 1.79143 105.94 1.4211C106.86 1.07079 107.91 0.890625 109.09 0.890625ZM113.54 8.83774C113.54 7.70672 113.36 6.72584 112.99 5.8951C112.62 5.06436 112.1 4.4338 111.43 4.01342C110.75 3.59304 109.97 3.37285 109.09 3.37285C108.46 3.37285 107.89 3.49295 107.36 3.72316C106.83 3.96338 106.37 4.30368 105.99 4.75408C105.61 5.20448 105.3 5.775 105.08 6.47562C104.86 7.17625 104.75 7.96696 104.75 8.83774C104.75 9.71852 104.86 10.5092 105.08 11.2199C105.3 11.9305 105.61 12.521 106.02 12.9915C106.42 13.4619 106.89 13.8122 107.41 14.0424C107.93 14.2726 108.51 14.3927 109.13 14.3927C109.93 14.3927 110.67 14.1925 111.34 13.7922C112.01 13.3918 112.54 12.7713 112.94 11.9305C113.34 11.0998 113.54 10.0688 113.54 8.83774Z" fill="#141414" stroke="#141414" stroke-width="0.9098" stroke-miterlimit="10"/>
<path d="M127.06 0.890625C128.66 0.890625 130.04 1.22092 131.19 1.86149C132.34 2.51208 133.21 3.4329 133.8 4.63398C134.39 5.83505 134.69 7.24631 134.69 8.85775C134.69 10.0488 134.53 11.1398 134.21 12.1207C133.89 13.1015 133.4 13.9423 132.76 14.6629C132.11 15.3836 131.32 15.9241 130.38 16.3044C129.44 16.6848 128.36 16.8749 127.14 16.8749C125.93 16.8749 124.85 16.6747 123.89 16.2844C122.93 15.894 122.14 15.3436 121.5 14.6329C120.86 13.9223 120.38 13.0715 120.05 12.0706C119.72 11.0697 119.56 9.98876 119.56 8.82772C119.56 7.63666 119.73 6.54568 120.07 5.5548C120.41 4.56391 120.9 3.72316 121.55 3.02253C122.2 2.32191 122.98 1.79143 123.91 1.4211C124.82 1.07079 125.88 0.890625 127.06 0.890625ZM131.51 8.83774C131.51 7.70672 131.33 6.72584 130.96 5.8951C130.6 5.06436 130.07 4.4338 129.4 4.01342C128.72 3.59304 127.94 3.37285 127.06 3.37285C126.43 3.37285 125.86 3.49295 125.33 3.72316C124.8 3.96338 124.34 4.30368 123.96 4.75408C123.58 5.20448 123.27 5.775 123.05 6.47562C122.83 7.17625 122.72 7.96696 122.72 8.83774C122.72 9.71852 122.83 10.5092 123.05 11.2199C123.27 11.9305 123.58 12.521 123.99 12.9915C124.39 13.4619 124.86 13.8122 125.38 14.0424C125.9 14.2726 126.48 14.3927 127.1 14.3927C127.9 14.3927 128.64 14.1925 129.31 13.7922C129.98 13.3918 130.51 12.7713 130.91 11.9305C131.31 11.0998 131.51 10.0688 131.51 8.83774Z" fill="#141414" stroke="#141414" stroke-width="0.9098" stroke-miterlimit="10"/>
<path d="M138.07 13.013L146.01 3.50445H139.19C138.71 3.50445 138.35 3.39435 138.11 3.18416C137.87 2.97397 137.75 2.69372 137.75 2.35342C137.75 1.9931 137.87 1.70283 138.11 1.48264C138.35 1.26244 138.71 1.15234 139.19 1.15234H147.98C149.12 1.15234 149.69 1.68282 149.69 2.74377C149.69 3.25422 149.6 3.65458 149.41 3.95485C149.22 4.25512 148.84 4.74556 148.26 5.42617L140.84 14.2641H149.02C149.5 14.2641 149.87 14.3642 150.11 14.5643C150.35 14.7645 150.47 15.0448 150.47 15.4051C150.47 15.7754 150.35 16.0757 150.11 16.2959C149.87 16.5161 149.51 16.6262 149.02 16.6262H138.99C138.31 16.6262 137.8 16.4761 137.45 16.1658C137.11 15.8555 136.93 15.4551 136.93 14.9347C136.93 14.7545 136.96 14.5944 137.01 14.4542C137.07 14.3041 137.14 14.164 137.24 14.0339C137.34 13.9038 137.47 13.7336 137.64 13.5334C137.8 13.3332 137.95 13.1531 138.07 13.013Z" fill="#141414" stroke="#141414" stroke-width="0.9098" stroke-miterlimit="10"/>
</svg>
