<svg width="48" height="42" viewBox="0 0 48 42" fill="none" xmlns="http://www.w3.org/2000/svg">
<path d="M21.0598 36.6116C21.0598 33.679 23.4398 31.2969 26.3698 31.2969H42.3397C45.2697 31.2969 47.6498 33.679 47.6498 36.6116C47.6498 39.5443 45.2697 41.9264 42.3397 41.9264H26.3698C23.4398 41.9264 21.0598 39.5443 21.0598 36.6116Z" fill="#012F47"/>
<path d="M21.0598 5.42413C21.0598 2.4915 23.4398 0.109375 26.3698 0.109375H42.3397C45.2697 0.109375 47.6498 2.4915 47.6498 5.42413C47.6498 8.35675 45.2697 10.7389 42.3397 10.7389H26.3698C23.4398 10.7389 21.0598 8.35675 21.0598 5.42413Z" fill="#B3D136"/>
<path d="M8.96973 28.8148C8.96973 25.8821 11.3498 23.5 14.2798 23.5H30.2498C33.1798 23.5 35.5598 25.8821 35.5598 28.8148C35.5598 31.7474 33.1798 34.1295 30.2498 34.1295H14.2798C11.3398 34.1195 8.96973 31.7474 8.96973 28.8148Z" fill="#196476"/>
<path d="M8.96973 13.1819C8.96973 10.2493 11.3498 7.86719 14.2798 7.86719H30.2498C33.1798 7.86719 35.5598 10.2493 35.5598 13.1819C35.5598 16.1146 33.1798 18.4967 30.2498 18.4967H14.2798C11.3398 18.4867 8.96973 16.1146 8.96973 13.1819Z" fill="#45BDA6"/>
<path d="M0.629761 20.9983C0.629761 18.0657 3.0097 15.6836 5.9397 15.6836H21.9098C24.8398 15.6836 27.2197 18.0657 27.2197 20.9983C27.2197 23.931 24.8398 26.3131 21.9098 26.3131H5.9397C3.0097 26.3031 0.629761 23.931 0.629761 20.9983Z" fill="#F48320"/>
</svg>
