<svg width="162" height="19" viewBox="0 0 162 19" fill="none" xmlns="http://www.w3.org/2000/svg">
    <path
        d="M15.9708 12.516C15.9708 13.0417 15.8422 13.6104 15.5849 14.2327C15.3276 14.8443 14.9202 15.4559 14.3628 16.0461C13.8053 16.6362 13.0978 17.1191 12.2295 17.4839C11.3611 17.8487 10.3535 18.0418 9.2064 18.0418C8.32734 18.0418 7.53394 17.956 6.82641 17.7951C6.11887 17.6341 5.46499 17.3659 4.87537 17.0225C4.29648 16.6684 3.74975 16.207 3.26733 15.6383C2.8278 15.1233 2.45255 14.5332 2.15238 13.8894C1.8415 13.2456 1.61635 12.5589 1.45554 11.8293C1.29474 11.0996 1.21973 10.3163 1.21973 9.50087C1.21973 8.17037 1.41273 6.96862 1.79866 5.91709C2.18459 4.86557 2.74198 3.95353 3.47096 3.21317C4.18921 2.46208 5.03611 1.8934 6.01165 1.49639C6.9872 1.09939 8.01637 0.90625 9.12056 0.90625C10.4606 0.90625 11.6506 1.1745 12.7012 1.71099C13.7518 2.24748 14.5558 2.91273 15.1133 3.69601C15.6707 4.47929 15.9494 5.23039 15.9494 5.92783C15.9494 6.3141 15.81 6.64673 15.542 6.94717C15.274 7.23687 14.9417 7.38709 14.5558 7.38709C14.127 7.38709 13.8054 7.29052 13.591 7.08665C13.3766 6.88278 13.1407 6.5287 12.8727 6.03512C12.4331 5.20892 11.9186 4.59732 11.329 4.18959C10.7394 3.78185 10.0104 3.57798 9.14202 3.57798C7.75911 3.57798 6.6657 4.10375 5.85096 5.14455C5.03622 6.19607 4.62883 7.68753 4.62883 9.60817C4.62883 10.8958 4.81108 11.9687 5.17557 12.8271C5.54006 13.6855 6.04384 14.3186 6.7085 14.7478C7.37315 15.1662 8.14506 15.3808 9.03484 15.3808C9.99967 15.3808 10.8144 15.1448 11.4791 14.6619C12.1438 14.1791 12.6475 13.4816 12.9906 12.5482C13.1299 12.1082 13.3122 11.7541 13.5158 11.4752C13.7302 11.1962 14.0627 11.0567 14.5343 11.0567C14.931 11.0567 15.274 11.1962 15.5634 11.4752C15.8315 11.7541 15.9708 12.1082 15.9708 12.516Z"
        fill="#141414" stroke="#141414" stroke-width="0.9098" stroke-miterlimit="10" />
    <path
        d="M27.002 0.894531C28.7173 0.894531 30.1967 1.24862 31.4295 1.93533C32.6623 2.63277 33.595 3.61992 34.2275 4.9075C34.86 6.19509 35.1816 7.70799 35.1816 9.4355C35.1816 10.7124 35.0101 11.8819 34.667 12.9334C34.324 13.985 33.7986 14.8863 33.1125 15.6588C32.4157 16.4314 31.5688 17.0108 30.5611 17.4185C29.5534 17.8263 28.3956 18.0301 27.0877 18.0301C25.7906 18.0301 24.6328 17.8155 23.6037 17.3971C22.5745 16.9786 21.7276 16.3885 21.0415 15.6266C20.3554 14.8648 19.8409 13.9528 19.4871 12.8798C19.1333 11.8068 18.9618 10.648 18.9618 9.40331C18.9618 8.12646 19.1441 6.9569 19.5086 5.89465C19.8731 4.83239 20.3983 3.93108 21.0952 3.17999C21.792 2.4289 22.6281 1.86022 23.6251 1.46322C24.6114 1.08767 25.737 0.894531 27.002 0.894531ZM31.7725 9.41405C31.7725 8.20157 31.5796 7.15004 31.183 6.25946C30.7863 5.36888 30.2288 4.69291 29.4998 4.24225C28.7708 3.7916 27.9347 3.55554 27.002 3.55554C26.3267 3.55554 25.7156 3.6843 25.1474 3.93108C24.5793 4.1886 24.0861 4.55342 23.6788 5.03626C23.2714 5.5191 22.939 6.13071 22.7032 6.8818C22.4673 7.63289 22.3495 8.48055 22.3495 9.41405C22.3495 10.3583 22.4673 11.2059 22.7032 11.9678C22.939 12.7296 23.2713 13.3626 23.7108 13.8669C24.1396 14.3712 24.6435 14.7468 25.201 14.9936C25.7584 15.2404 26.3803 15.3691 27.045 15.3691C27.9026 15.3691 28.6958 15.1545 29.4141 14.7253C30.1323 14.2961 30.7005 13.6309 31.1293 12.7296C31.5581 11.839 31.7725 10.7338 31.7725 9.41405Z"
        fill="#141414" stroke="#141414" stroke-width="0.9098" stroke-miterlimit="10" />
    <path
        d="M40.606 1.17188H44.9799C46.1163 1.17188 47.0918 1.27917 47.9065 1.49377C48.7213 1.70837 49.4609 2.10537 50.1256 2.68479C51.8516 4.16551 52.7092 6.40805 52.7092 9.42314C52.7092 10.421 52.6235 11.3223 52.4519 12.1485C52.2804 12.9747 52.0124 13.7151 51.6479 14.3696C51.2834 15.0241 50.8224 15.625 50.2542 16.14C49.804 16.537 49.3216 16.8589 48.7963 17.1057C48.271 17.3525 47.7029 17.5135 47.0918 17.61C46.4807 17.7066 45.8053 17.7602 45.0442 17.7602H40.6704C40.0593 17.7602 39.5983 17.6637 39.2874 17.4813C38.9765 17.2989 38.7729 17.0413 38.6871 16.698C38.6014 16.3546 38.5478 15.9254 38.5478 15.3889V3.23201C38.5478 2.51311 38.7085 1.98734 39.0301 1.66545C39.3625 1.33282 39.8877 1.17188 40.606 1.17188ZM41.9032 3.83288V15.0885H44.4439C45.0014 15.0885 45.4409 15.0778 45.7518 15.0456C46.0734 15.0134 46.395 14.9383 46.7381 14.8203C47.0811 14.7022 47.3705 14.5306 47.6171 14.316C48.7427 13.361 49.3001 11.7301 49.3001 9.41241C49.3001 7.78147 49.0536 6.54754 48.5605 5.73207C48.0673 4.9166 47.4563 4.40156 46.7381 4.17624C46.0198 3.95091 45.1407 3.84361 44.1115 3.84361H41.9032V3.83288Z"
        fill="#141414" stroke="#141414" stroke-width="0.9098" stroke-miterlimit="10" />
    <path
        d="M67.0207 3.75777H59.463V7.82439H66.4205C66.9351 7.82439 67.3102 7.94242 67.5675 8.16775C67.8248 8.4038 67.9427 8.70425 67.9427 9.07979C67.9427 9.45534 67.8141 9.7665 67.5675 10.0026C67.3209 10.2386 66.935 10.3566 66.4097 10.3566H59.4523V15.0671H67.2673C67.7926 15.0671 68.1892 15.1851 68.4572 15.4319C68.7252 15.6787 68.854 16.0006 68.854 16.4083C68.854 16.8053 68.7252 17.1165 68.4572 17.3632C68.1892 17.61 67.7926 17.7281 67.2673 17.7281H58.1443C57.4154 17.7281 56.8901 17.5671 56.5685 17.2452C56.2469 16.9233 56.0861 16.3976 56.0861 15.6679V3.23201C56.0861 2.74916 56.1611 2.35216 56.3005 2.05172C56.4398 1.75129 56.665 1.52596 56.9759 1.38647C57.276 1.24698 57.6726 1.17188 58.1443 1.17188H66.9993C67.5353 1.17188 67.9319 1.2899 68.1892 1.52596C68.4465 1.76202 68.5753 2.07318 68.5753 2.45946C68.5753 2.85647 68.4465 3.16763 68.1892 3.40369C67.9534 3.63974 67.5568 3.75777 67.0207 3.75777Z"
        fill="#141414" stroke="#141414" stroke-width="0.9098" stroke-miterlimit="10" />
    <path
        d="M83.2512 15.8734L82.4579 13.7918H75.7256L74.9323 15.9163C74.6214 16.7425 74.3641 17.3005 74.139 17.6009C73.9246 17.8906 73.5601 18.0409 73.067 18.0409C72.6489 18.0409 72.2736 17.8906 71.952 17.5795C71.6304 17.2683 71.4697 16.925 71.4697 16.5279C71.4697 16.3026 71.5018 16.0666 71.5876 15.8305C71.6626 15.5837 71.7912 15.2511 71.9628 14.8219L76.1973 4.05984C76.3153 3.74868 76.4653 3.38386 76.6368 2.94394C76.8083 2.51474 76.9906 2.14993 77.1835 1.86022C77.3765 1.57051 77.6231 1.34519 77.9447 1.16278C78.2556 0.98037 78.6415 0.894531 79.1025 0.894531C79.5635 0.894531 79.9601 0.98037 80.271 1.16278C80.5819 1.34519 80.8392 1.57052 81.0322 1.84949C81.2252 2.12847 81.3859 2.42891 81.5146 2.7508C81.6432 3.0727 81.8147 3.50189 82.0184 4.03838L86.3494 14.7361C86.6925 15.5515 86.8532 16.1417 86.8532 16.5172C86.8532 16.9035 86.6925 17.2576 86.3709 17.5795C86.0493 17.9014 85.6632 18.0623 85.213 18.0623C84.945 18.0623 84.7199 18.0194 84.5376 17.9228C84.3554 17.8263 84.1946 17.6975 84.066 17.5366C83.9373 17.3756 83.798 17.1288 83.6479 16.7855C83.4764 16.4314 83.3477 16.1309 83.2512 15.8734ZM76.6047 11.2703H81.5575L79.0596 4.42466L76.6047 11.2703Z"
        fill="#141414" stroke="#141414" stroke-width="0.9098" stroke-miterlimit="10" />
    <path
        d="M95.4402 15.2495L92.7816 4.68054V16.1293C92.7816 16.7624 92.6422 17.2345 92.3527 17.5564C92.074 17.8783 91.6989 18.0285 91.2272 18.0285C90.7769 18.0285 90.4017 17.8675 90.123 17.5564C89.8335 17.2452 89.6941 16.7624 89.6941 16.1293V3.01741C89.6941 2.29851 89.8871 1.80494 90.2623 1.54742C90.6376 1.2899 91.152 1.17188 91.7845 1.17188H92.8245C93.4463 1.17188 93.9071 1.22552 94.1859 1.34355C94.4646 1.46158 94.6791 1.66545 94.8077 1.95515C94.9471 2.24486 95.0971 2.72771 95.2686 3.39296L97.6807 12.4704L100.082 3.39296C100.254 2.72771 100.414 2.25559 100.543 1.95515C100.682 1.66545 100.886 1.46158 101.165 1.34355C101.443 1.22552 101.904 1.17188 102.526 1.17188H103.566C104.209 1.17188 104.713 1.30063 105.088 1.54742C105.464 1.80494 105.657 2.28778 105.657 3.01741V16.14C105.657 16.7731 105.517 17.2452 105.228 17.5671C104.949 17.889 104.563 18.0392 104.092 18.0392C103.652 18.0392 103.277 17.8783 102.998 17.5671C102.709 17.2452 102.569 16.7731 102.569 16.14V4.69127L99.9106 15.2602C99.7391 15.9469 99.5997 16.4512 99.4817 16.7731C99.3638 17.095 99.1708 17.3847 98.8813 17.653C98.5919 17.9212 98.1846 18.05 97.6594 18.05C97.2627 18.05 96.941 17.9641 96.6623 17.7924C96.3943 17.6208 96.1799 17.4062 96.0299 17.1379C95.8798 16.8697 95.7618 16.58 95.676 16.2581C95.6224 15.9362 95.5259 15.6035 95.4402 15.2495Z"
        fill="#141414" stroke="#141414" stroke-width="0.9098" stroke-miterlimit="10" />
    <path
        d="M116.859 0.894531C118.575 0.894531 120.054 1.24862 121.287 1.93533C122.52 2.63277 123.452 3.61992 124.085 4.9075C124.717 6.19509 125.039 7.70799 125.039 9.4355C125.039 10.7124 124.867 11.8819 124.524 12.9334C124.181 13.985 123.656 14.8863 122.97 15.6588C122.273 16.4314 121.426 17.0108 120.418 17.4185C119.411 17.8263 118.253 18.0301 116.945 18.0301C115.648 18.0301 114.49 17.8155 113.461 17.3971C112.432 16.9786 111.585 16.3885 110.899 15.6266C110.213 14.8648 109.698 13.9528 109.344 12.8798C108.991 11.8068 108.819 10.648 108.819 9.40331C108.819 8.12646 109.001 6.9569 109.366 5.89465C109.73 4.83239 110.256 3.93108 110.952 3.17999C111.649 2.4289 112.485 1.86022 113.482 1.46322C114.469 1.08767 115.594 0.894531 116.859 0.894531ZM121.63 9.41405C121.63 8.20157 121.437 7.15004 121.04 6.25946C120.644 5.36888 120.086 4.69291 119.368 4.24225C118.639 3.7916 117.803 3.55554 116.859 3.55554C116.184 3.55554 115.573 3.6843 115.005 3.93108C114.437 4.1886 113.943 4.55342 113.536 5.03626C113.129 5.5191 112.796 6.13071 112.56 6.8818C112.325 7.63289 112.207 8.48055 112.207 9.41405C112.207 10.3583 112.325 11.2059 112.56 11.9678C112.796 12.7296 113.129 13.3626 113.568 13.8669C113.997 14.3712 114.501 14.7468 115.058 14.9936C115.616 15.2404 116.238 15.3691 116.902 15.3691C117.76 15.3691 118.553 15.1545 119.271 14.7253C119.99 14.2961 120.558 13.6309 120.987 12.7296C121.415 11.839 121.63 10.7338 121.63 9.41405Z"
        fill="#141414" stroke="#141414" stroke-width="0.9098" stroke-miterlimit="10" />
    <path
        d="M136.124 0.894531C137.839 0.894531 139.318 1.24862 140.551 1.93533C141.784 2.63277 142.717 3.61992 143.349 4.9075C143.982 6.19509 144.303 7.70799 144.303 9.4355C144.303 10.7124 144.132 11.8819 143.789 12.9334C143.446 13.985 142.92 14.8863 142.234 15.6588C141.537 16.4314 140.69 17.0108 139.683 17.4185C138.675 17.8263 137.517 18.0301 136.209 18.0301C134.912 18.0301 133.754 17.8155 132.725 17.3971C131.696 16.9786 130.849 16.3885 130.163 15.6266C129.477 14.8648 128.963 13.9528 128.609 12.8798C128.255 11.8068 128.083 10.648 128.083 9.40331C128.083 8.12646 128.266 6.9569 128.63 5.89465C128.995 4.83239 129.52 3.93108 130.217 3.17999C130.914 2.4289 131.75 1.86022 132.747 1.46322C133.722 1.08767 134.859 0.894531 136.124 0.894531ZM140.894 9.41405C140.894 8.20157 140.701 7.15004 140.304 6.25946C139.919 5.36888 139.35 4.69291 138.632 4.24225C137.903 3.7916 137.067 3.55554 136.124 3.55554C135.448 3.55554 134.837 3.6843 134.269 3.93108C133.701 4.1886 133.208 4.55342 132.8 5.03626C132.393 5.5191 132.061 6.13071 131.825 6.8818C131.589 7.63289 131.471 8.48055 131.471 9.41405C131.471 10.3583 131.589 11.2059 131.825 11.9678C132.061 12.7296 132.393 13.3626 132.833 13.8669C133.261 14.3712 133.765 14.7468 134.323 14.9936C134.88 15.2404 135.502 15.3691 136.166 15.3691C137.024 15.3691 137.817 15.1545 138.536 14.7253C139.254 14.2961 139.822 13.6309 140.251 12.7296C140.68 11.839 140.894 10.7338 140.894 9.41405Z"
        fill="#141414" stroke="#141414" stroke-width="0.9098" stroke-miterlimit="10" />
    <path
        d="M147.927 13.8868L156.438 3.69339H149.127C148.613 3.69339 148.227 3.57536 147.969 3.35004C147.712 3.12471 147.584 2.82428 147.584 2.45946C147.584 2.07318 147.712 1.76202 147.969 1.52596C148.227 1.2899 148.613 1.17188 149.127 1.17188H158.55C159.772 1.17188 160.383 1.74056 160.383 2.87792C160.383 3.42515 160.287 3.85434 160.083 4.17624C159.88 4.49813 159.472 5.0239 158.851 5.75353L150.896 15.228H159.665C160.18 15.228 160.576 15.3353 160.834 15.5499C161.091 15.7645 161.22 16.0649 161.22 16.4512C161.22 16.8482 161.091 17.1701 160.834 17.4062C160.576 17.6422 160.191 17.7602 159.665 17.7602H148.913C148.184 17.7602 147.637 17.5993 147.262 17.2667C146.897 16.934 146.705 16.5048 146.705 15.9469C146.705 15.7538 146.737 15.5821 146.79 15.4319C146.855 15.2709 146.93 15.1207 147.037 14.9812C147.144 14.8417 147.283 14.6593 147.466 14.4447C147.637 14.2301 147.798 14.037 147.927 13.8868Z"
        fill="#141414" stroke="#141414" stroke-width="0.9098" stroke-miterlimit="10" />
</svg>