<svg width="129" height="17" viewBox="0 0 129 17" fill="none" xmlns="http://www.w3.org/2000/svg">
    <path
        d="M12.3949 11.0869C12.3949 11.5069 12.2899 11.9644 12.0799 12.4519C11.8699 12.9394 11.5474 13.4269 11.0974 13.8919C10.6549 14.3644 10.0849 14.7469 9.39494 15.0394C8.70496 15.3318 7.89499 15.4818 6.98 15.4818C6.28251 15.4818 5.645 15.4143 5.075 15.2868C4.50501 15.1519 3.98756 14.9494 3.52257 14.6719C3.05758 14.3944 2.63002 14.0269 2.24003 13.5694C1.88753 13.1569 1.59508 12.6919 1.34758 12.1744C1.10009 11.6644 0.920098 11.1094 0.7926 10.5319C0.665102 9.95446 0.605103 9.33198 0.605103 8.67199C0.605103 7.60701 0.762596 6.65453 1.07009 5.81455C1.37759 4.97457 1.82751 4.25458 2.405 3.6546C2.98249 3.05461 3.65754 2.59712 4.43753 2.28963C5.21002 1.97463 6.04246 1.81714 6.91995 1.81714C7.99243 1.81714 8.94496 2.02713 9.77745 2.45462C10.6099 2.88211 11.2549 3.4071 11.6974 4.03709C12.1399 4.66708 12.3649 5.25956 12.3649 5.82205C12.3649 6.12954 12.2599 6.39954 12.0424 6.63203C11.8249 6.86453 11.5624 6.98453 11.2549 6.98453C10.9099 6.98453 10.6549 6.90203 10.4824 6.74453C10.3099 6.57954 10.1224 6.30204 9.91239 5.90455C9.5599 5.25206 9.15489 4.75707 8.6824 4.43458C8.20991 4.11209 7.62495 3.94709 6.93496 3.94709C5.83248 3.94709 4.95498 4.36708 4.30249 5.19956C3.65 6.03954 3.32756 7.22452 3.32756 8.76199C3.32756 9.78946 3.47003 10.6445 3.76252 11.3269C4.04752 12.0094 4.46002 12.5194 4.99252 12.8569C5.52501 13.1944 6.13998 13.3594 6.85247 13.3594C7.62496 13.3594 8.26993 13.1719 8.80242 12.7894C9.33492 12.4069 9.7399 11.8444 10.0099 11.1094C10.1224 10.7644 10.2649 10.4795 10.4299 10.2545C10.5949 10.037 10.8649 9.92446 11.2399 9.92446C11.5624 9.92446 11.8324 10.037 12.0649 10.262C12.2749 10.4794 12.3949 10.7569 12.3949 11.0869Z"
        fill="#141414" stroke="#141414" stroke-width="1.0382" stroke-miterlimit="10" />
    <path
        d="M21.2001 1.80957C22.5726 1.80957 23.7501 2.08706 24.7326 2.64205C25.7151 3.19704 26.4576 3.99202 26.9676 5.012C27.4701 6.03948 27.7251 7.23945 27.7251 8.62692C27.7251 9.6469 27.5902 10.5769 27.3127 11.4169C27.0351 12.2568 26.6226 12.9768 26.0676 13.5918C25.5126 14.2068 24.8376 14.6718 24.0276 15.0018C23.2251 15.3243 22.2951 15.4893 21.2601 15.4893C20.2251 15.4893 19.3026 15.3243 18.4851 14.9868C17.6676 14.6568 16.9851 14.1843 16.4376 13.5768C15.8901 12.9693 15.4776 12.2418 15.2001 11.3869C14.9226 10.5319 14.78 9.6094 14.78 8.61942C14.78 7.60695 14.9226 6.66946 15.2151 5.82198C15.5076 4.9745 15.9275 4.25452 16.4826 3.65453C17.0376 3.06204 17.7126 2.60455 18.5001 2.28956C19.2876 1.96707 20.1876 1.80957 21.2001 1.80957ZM25.0026 8.61192C25.0026 7.64444 24.8451 6.80446 24.5301 6.09198C24.2151 5.37949 23.7726 4.847 23.1876 4.47951C22.6101 4.11952 21.9426 3.93203 21.1926 3.93203C20.6601 3.93203 20.1651 4.02952 19.7076 4.23201C19.2501 4.43451 18.8601 4.72701 18.5376 5.1095C18.2076 5.49199 17.9526 5.98698 17.7651 6.58697C17.5776 7.18696 17.4801 7.86194 17.4801 8.60442C17.4801 9.35441 17.5776 10.0369 17.7651 10.6444C17.9526 11.2519 18.2226 11.7544 18.5676 12.1518C18.9126 12.5493 19.3101 12.8493 19.7601 13.0518C20.2101 13.2468 20.6976 13.3518 21.2376 13.3518C21.9201 13.3518 22.5501 13.1793 23.1276 12.8343C23.7051 12.4893 24.1626 11.9644 24.5001 11.2444C24.8376 10.5394 25.0026 9.6619 25.0026 8.61192Z"
        fill="#141414" stroke="#141414" stroke-width="1.0382" stroke-miterlimit="10" />
    <path
        d="M32.0525 2.03467H35.5476C36.4551 2.03467 37.2351 2.11717 37.8801 2.28967C38.5326 2.46216 39.1176 2.77716 39.6501 3.23465C41.0301 4.41212 41.7126 6.20458 41.7126 8.61203C41.7126 9.40701 41.6451 10.127 41.5026 10.787C41.3676 11.4395 41.1501 12.032 40.8651 12.5569C40.5801 13.0819 40.2051 13.5544 39.7551 13.9669C39.4026 14.2894 39.0126 14.5444 38.5926 14.7319C38.1726 14.9269 37.7226 15.0619 37.2351 15.1369C36.7476 15.2119 36.2076 15.2569 35.6 15.2569H32.1051C31.6176 15.2569 31.25 15.1819 31.0025 15.0394C30.755 14.8894 30.5976 14.6869 30.5226 14.4169C30.4476 14.1469 30.41 13.8019 30.41 13.3744V3.67713C30.41 3.09965 30.5376 2.67966 30.8001 2.42466C31.0626 2.16967 31.475 2.03467 32.0525 2.03467ZM33.095 4.15712V13.1344H35.1275C35.57 13.1344 35.9226 13.1194 36.1776 13.0969C36.4326 13.0744 36.6951 13.0144 36.9651 12.9169C37.2351 12.8194 37.4676 12.6844 37.6701 12.5119C38.5626 11.7545 39.0126 10.4495 39.0126 8.59703C39.0126 7.29206 38.8176 6.31708 38.4201 5.66459C38.0226 5.01211 37.5426 4.59961 36.9651 4.42712C36.3876 4.25462 35.6901 4.16463 34.8726 4.16463H33.095V4.15712Z"
        fill="#141414" stroke="#141414" stroke-width="1.0382" stroke-miterlimit="10" />
    <path
        d="M53.1426 4.10463H47.1052V7.35206H52.6626C53.0676 7.35206 53.3752 7.44206 53.5777 7.62955C53.7802 7.81705 53.8776 8.05704 53.8776 8.35703C53.8776 8.65703 53.7802 8.90452 53.5777 9.09202C53.3827 9.27952 53.0751 9.37701 52.6551 9.37701H47.0977V13.1344H53.3376C53.7576 13.1344 54.0726 13.2319 54.2901 13.4269C54.5001 13.6219 54.6127 13.8844 54.6127 14.2069C54.6127 14.5219 54.5076 14.7769 54.2901 14.9719C54.0801 15.1669 53.7576 15.2644 53.3376 15.2644H46.0551C45.4701 15.2644 45.0501 15.1369 44.7951 14.8744C44.5401 14.6119 44.4126 14.1994 44.4126 13.6219V3.67713C44.4126 3.29464 44.4727 2.97965 44.5852 2.73215C44.6977 2.49216 44.8777 2.31216 45.1252 2.19967C45.3652 2.08717 45.6801 2.03467 46.0551 2.03467H53.1276C53.5551 2.03467 53.8701 2.13217 54.0801 2.31967C54.2901 2.50716 54.3951 2.75465 54.3951 3.06215C54.3951 3.37714 54.2901 3.62464 54.0801 3.81213C53.8851 4.00713 53.5701 4.10463 53.1426 4.10463Z"
        fill="#141414" stroke="#141414" stroke-width="1.0382" stroke-miterlimit="10" />
    <path
        d="M66.0951 13.7643L65.4651 12.1068H60.0876L59.4576 13.8018C59.2101 14.4618 59.0001 14.9118 58.8276 15.1443C58.6551 15.3768 58.3701 15.4893 57.9726 15.4893C57.6351 15.4893 57.3351 15.3693 57.0801 15.1218C56.8251 14.8743 56.6901 14.5968 56.6901 14.2818C56.6901 14.1018 56.7201 13.9143 56.7801 13.7193C56.8401 13.5243 56.9376 13.2618 57.0801 12.9168L60.4626 4.32952C60.5601 4.08202 60.6725 3.78953 60.8075 3.43703C60.9425 3.09204 61.0851 2.80705 61.2426 2.57455C61.4001 2.34956 61.5951 2.16206 61.8501 2.01956C62.0976 1.87707 62.4051 1.80957 62.7726 1.80957C63.1476 1.80957 63.4551 1.87707 63.7026 2.01956C63.9501 2.16206 64.1526 2.34206 64.3101 2.56706C64.4676 2.79205 64.5951 3.03204 64.7001 3.28704C64.8051 3.54203 64.9401 3.88703 65.1051 4.30702L68.5626 12.8418C68.8326 13.4943 68.9675 13.9668 68.9675 14.2593C68.9675 14.5668 68.8401 14.8443 68.5851 15.0993C68.3301 15.3543 68.0225 15.4818 67.6625 15.4818C67.4525 15.4818 67.2726 15.4443 67.1226 15.3693C66.9726 15.2943 66.8451 15.1893 66.7401 15.0618C66.6351 14.9343 66.5301 14.7318 66.4101 14.4693C66.2826 14.1993 66.1776 13.9668 66.0951 13.7643ZM60.7926 10.0894H64.745L62.7501 4.62951L60.7926 10.0894Z"
        fill="#141414" stroke="#141414" stroke-width="1.0382" stroke-miterlimit="10" />
    <path
        d="M75.83 13.2694L73.7075 4.84711V13.9669C73.7075 14.4694 73.595 14.8519 73.37 15.1069C73.145 15.3619 72.845 15.4894 72.47 15.4894C72.11 15.4894 71.8176 15.3619 71.5851 15.1144C71.3526 14.8669 71.24 14.4844 71.24 13.9744V3.50464C71.24 2.92715 71.39 2.53716 71.69 2.33466C71.99 2.13217 72.395 2.03467 72.905 2.03467H73.7375C74.2325 2.03467 74.6 2.07967 74.825 2.16967C75.05 2.25966 75.215 2.42466 75.3275 2.65716C75.4325 2.88965 75.56 3.27214 75.695 3.80463L77.615 11.0495L79.535 3.80463C79.67 3.27214 79.7975 2.89715 79.9025 2.65716C80.0075 2.42466 80.18 2.25966 80.405 2.16967C80.63 2.07967 80.99 2.03467 81.4925 2.03467H82.325C82.835 2.03467 83.24 2.13217 83.54 2.33466C83.84 2.53716 83.99 2.92715 83.99 3.50464V13.9669C83.99 14.4694 83.8775 14.8519 83.6525 15.1069C83.4275 15.3619 83.1275 15.4894 82.745 15.4894C82.3925 15.4894 82.1 15.3619 81.8675 15.1069C81.635 14.8519 81.5226 14.4769 81.5226 13.9669V4.83961L79.4 13.2619C79.265 13.8094 79.1525 14.2069 79.0625 14.4694C78.9725 14.7244 78.815 14.9569 78.5825 15.1669C78.35 15.3769 78.02 15.4819 77.6075 15.4819C77.2925 15.4819 77.03 15.4144 76.8125 15.2794C76.595 15.1444 76.43 14.9719 76.31 14.7619C76.19 14.5519 76.0925 14.3194 76.025 14.0644C75.9725 13.8094 75.8975 13.5394 75.83 13.2694Z"
        fill="#141414" stroke="#141414" stroke-width="1.0382" stroke-miterlimit="10" />
    <path
        d="M92.93 1.80957C94.3025 1.80957 95.48 2.08706 96.4625 2.64205C97.445 3.19704 98.1875 3.99202 98.6975 5.012C99.2 6.03948 99.455 7.23945 99.455 8.62692C99.455 9.6469 99.32 10.5769 99.0425 11.4169C98.765 12.2568 98.3525 12.9768 97.7975 13.5918C97.2425 14.2068 96.5675 14.6718 95.7575 15.0018C94.955 15.3243 94.025 15.4893 92.99 15.4893C91.955 15.4893 91.0325 15.3243 90.215 14.9868C89.3975 14.6568 88.7151 14.1843 88.1676 13.5768C87.6201 12.9693 87.2076 12.2418 86.9301 11.3869C86.6526 10.5319 86.51 9.6094 86.51 8.61942C86.51 7.60695 86.6526 6.66946 86.9451 5.82198C87.2376 4.9745 87.6575 4.25452 88.2125 3.65453C88.7675 3.06204 89.4426 2.60455 90.2301 2.28956C91.0176 1.96707 91.9175 1.80957 92.93 1.80957ZM96.7325 8.61192C96.7325 7.64444 96.575 6.80446 96.26 6.09198C95.945 5.37949 95.5025 4.847 94.9175 4.47951C94.34 4.11952 93.6725 3.93203 92.915 3.93203C92.3825 3.93203 91.8875 4.02952 91.43 4.23201C90.9725 4.43451 90.5825 4.72701 90.26 5.1095C89.93 5.49199 89.6751 5.98698 89.4876 6.58697C89.3001 7.18696 89.2026 7.86194 89.2026 8.60442C89.2026 9.35441 89.3001 10.0369 89.4876 10.6444C89.6751 11.2519 89.945 11.7544 90.29 12.1518C90.635 12.5493 91.0325 12.8493 91.4825 13.0518C91.9325 13.2468 92.4201 13.3518 92.9601 13.3518C93.6425 13.3518 94.2725 13.1793 94.85 12.8343C95.42 12.4893 95.8775 11.9644 96.2225 11.2444C96.56 10.5394 96.7325 9.6619 96.7325 8.61192Z"
        fill="#141414" stroke="#141414" stroke-width="1.0382" stroke-miterlimit="10" />
    <path
        d="M108.305 1.80957C109.678 1.80957 110.855 2.08706 111.837 2.64205C112.82 3.19704 113.562 3.99202 114.072 5.012C114.575 6.03948 114.83 7.23945 114.83 8.62692C114.83 9.6469 114.695 10.5769 114.418 11.4169C114.14 12.2568 113.727 12.9768 113.172 13.5918C112.617 14.2068 111.943 14.6718 111.133 15.0018C110.33 15.3243 109.4 15.4893 108.365 15.4893C107.33 15.4893 106.408 15.3243 105.59 14.9868C104.773 14.6568 104.09 14.1843 103.543 13.5768C102.995 12.9693 102.583 12.2418 102.305 11.3869C102.028 10.5319 101.885 9.6094 101.885 8.61942C101.885 7.60695 102.028 6.66946 102.32 5.82198C102.613 4.9745 103.033 4.25452 103.588 3.65453C104.143 3.05454 104.818 2.60455 105.605 2.28956C106.393 1.96707 107.293 1.80957 108.305 1.80957ZM112.107 8.61192C112.107 7.64444 111.95 6.80446 111.635 6.09198C111.32 5.37949 110.878 4.847 110.293 4.47951C109.715 4.11952 109.048 3.93203 108.29 3.93203C107.758 3.93203 107.263 4.02952 106.805 4.23201C106.348 4.43451 105.957 4.72701 105.635 5.1095C105.305 5.49199 105.05 5.98698 104.863 6.58697C104.675 7.18696 104.578 7.86194 104.578 8.60442C104.578 9.35441 104.675 10.0369 104.863 10.6444C105.05 11.2519 105.32 11.7544 105.665 12.1518C106.01 12.5493 106.407 12.8493 106.857 13.0518C107.307 13.2468 107.795 13.3518 108.335 13.3518C109.018 13.3518 109.647 13.1793 110.225 12.8343C110.795 12.4893 111.253 11.9644 111.598 11.2444C111.943 10.5394 112.107 9.6619 112.107 8.61192Z"
        fill="#141414" stroke="#141414" stroke-width="1.0382" stroke-miterlimit="10" />
    <path
        d="M117.725 12.1745L124.52 4.04463H118.685C118.273 4.04463 117.965 3.95463 117.763 3.77464C117.553 3.59464 117.448 3.35464 117.448 3.06215C117.448 2.75465 117.553 2.50716 117.763 2.31967C117.973 2.13217 118.28 2.03467 118.685 2.03467H126.208C127.183 2.03467 127.67 2.49216 127.67 3.39964C127.67 3.83464 127.588 4.17963 127.43 4.43462C127.265 4.69711 126.943 5.1096 126.448 5.68709L120.095 13.2469H127.093C127.505 13.2469 127.82 13.3294 128.023 13.5019C128.225 13.6744 128.33 13.9144 128.33 14.2219C128.33 14.5444 128.225 14.7919 128.023 14.9794C127.82 15.1669 127.505 15.2569 127.093 15.2569H118.505C117.92 15.2569 117.485 15.1294 117.185 14.8669C116.893 14.6044 116.743 14.2519 116.743 13.8169C116.743 13.6669 116.765 13.5319 116.818 13.4044C116.863 13.2769 116.93 13.1569 117.013 13.0519C117.095 12.9394 117.208 12.7969 117.35 12.6244C117.493 12.4519 117.62 12.302 117.725 12.1745Z"
        fill="#141414" stroke="#141414" stroke-width="1.0382" stroke-miterlimit="10" />
</svg>