<svg width="26" height="24" viewBox="0 0 26 24" fill="none" xmlns="http://www.w3.org/2000/svg">
<path d="M6.66893 19.2345L2.64354 22.6184C2.49777 22.741 2.32004 22.8193 2.13126 22.8443C1.94247 22.8693 1.75048 22.8399 1.57785 22.7595C1.40523 22.6791 1.25915 22.551 1.15679 22.3905C1.05444 22.2299 1.00006 22.0434 1.00006 21.853V2C1.00006 1.73478 1.10542 1.48043 1.29295 1.29289C1.48049 1.10536 1.73484 1 2.00006 1H24.0001C24.2653 1 24.5196 1.10536 24.7072 1.29289C24.8947 1.48043 25.0001 1.73478 25.0001 2V18C25.0001 18.2652 24.8947 18.5196 24.7072 18.7071C24.5196 18.8946 24.2653 19 24.0001 19H7.31241C7.07699 19 6.84913 19.0831 6.66893 19.2345Z" stroke="white" stroke-width="2" stroke-linecap="round" stroke-linejoin="round"/>
</svg>
