<svg width="24" height="28" viewBox="0 0 24 28" fill="none" xmlns="http://www.w3.org/2000/svg">
<path d="M23.5125 4.14558L18.9308 0.2595C18.4656 -0.134277 17.7712 -0.072777 17.38 0.395537C16.9888 0.863851 17.0499 1.56269 17.5152 1.95646L19.7867 3.89953H8.90519C5.45608 3.90337 2.66076 6.71689 2.65689 10.1885V12.1769C2.65689 12.7884 3.14978 13.2845 3.75724 13.2845C4.3647 13.2845 4.8576 12.7884 4.8576 12.1769V10.1691C4.86147 7.92035 6.67094 6.09904 8.90519 6.09514H19.7931L17.5216 8.03821C17.0564 8.43198 16.9952 9.13087 17.3865 9.59913C17.7777 10.0674 18.472 10.1289 18.9373 9.73517L23.519 5.84904C23.9842 5.45588 24.0453 4.75705 23.6547 4.28879C23.6136 4.23955 23.5679 4.19358 23.519 4.15213L23.5125 4.14558Z" fill="white"/>
<path d="M20.1532 13.2852C19.5448 13.2852 19.0512 13.8136 19.0512 14.4648V16.6034C19.0473 18.9985 17.2351 20.9384 14.9975 20.9426H4.093L6.36796 18.873C6.90093 18.5578 7.09428 17.8403 6.79973 17.2698C6.50523 16.6992 5.83498 16.4923 5.30196 16.8076C5.17952 16.88 5.07062 16.9766 4.98229 17.0932L0.393664 21.2323C-0.0722737 21.6511 -0.13352 22.3954 0.257682 22.8942C0.298926 22.9466 0.344667 22.9956 0.393664 23.0397L4.98229 27.1788C5.44823 27.5983 6.14365 27.5328 6.53547 27.034C6.92729 26.5351 6.8661 25.7908 6.40011 25.3714L4.12515 23.3018H14.9973C18.4517 23.2977 21.2513 20.3009 21.2551 16.6033V14.4648C21.2553 13.8129 20.7616 13.2852 20.1532 13.2852Z" fill="white"/>
</svg>
