<svg width="34" height="27" viewBox="0 0 34 27" fill="none" xmlns="http://www.w3.org/2000/svg">
<path d="M24.9479 27H8.04783C6.91623 26.9976 6 26.1283 6 25.0567V12.9433C6 11.8717 6.91623 11.0024 8.04783 11H24.9479C26.0812 11 27 11.8701 27 12.9433V25.0567C27 26.1299 26.0812 27 24.9479 27ZM9 12.9433C8.66758 12.9345 8.00931 13.6852 8 14C8 14.5 7.57077 14.5728 8 14V24C8 24.3148 8.66758 25.0567 9 25.0567L24 25C24.3324 25 25 24.3148 25 24V14C25 13.6852 24.3324 13 24 13L9 12.9433Z" fill="#FEA219"/>
<path d="M16.5139 1.3652L28.2705 12.2917L4.75733 12.2917L16.5139 1.3652Z" stroke="#FEA219" stroke-width="2"/>
<mask id="path-3-inside-1" fill="white">
<rect x="12.5" y="17" width="8" height="9" rx="1"/>
</mask>
<rect x="12.5" y="17" width="8" height="9" rx="1" stroke="#FEA219" stroke-width="4" mask="url(#path-3-inside-1)"/>
</svg>
