<svg width="24" height="24" viewBox="0 0 24 24" fill="none" xmlns="http://www.w3.org/2000/svg">
<path d="M11 12.0466C11 11.2872 11.5714 11.3802 12.7143 11.3804L12.9935 11.3802C14.1429 11.3802 11.8795 11.3779 13.3233 11.3802H20.3591L18.8913 10.2299C18.5474 10.0547 18.4226 9.65596 18.6127 9.33884C18.8027 9.02175 19.2351 8.90671 19.5791 9.08196C19.6581 9.12221 19.7283 9.1759 19.7853 9.24069L22.746 11.5413C23.0466 11.774 23.0862 12.1877 22.8337 12.4649C22.8071 12.4941 22.7776 12.5213 22.746 12.5458L19.7853 14.8464C19.4847 15.0795 19.036 15.0431 18.7832 14.7658C18.5304 14.4886 18.5698 14.0749 18.8705 13.8418L20.3384 12.6915H13.3234C11.0946 12.6892 15.5649 12.6915 12.9935 12.6915H12.7143C11.5714 12.6915 11 12.6915 11 12.0466Z" fill="#FF5A67"/>
<path d="M19.5496 6.81597C19.9292 6.55537 20.0283 6.03381 19.737 5.67728C18.575 4.25525 17.0397 3.17648 15.296 2.56715C13.2892 1.86586 11.111 1.82295 9.07805 2.44465C7.04514 3.06635 5.26352 4.32026 3.9922 6.02407C2.72089 7.72788 2.02615 9.79278 2.009 11.9186C1.99185 14.0443 2.65318 16.1202 3.89684 17.8443C5.14051 19.5684 6.90167 20.8509 8.92428 21.5053C10.9469 22.1597 13.1255 22.1519 15.1434 21.4831C16.8967 20.902 18.4492 19.8481 19.634 18.4451C19.931 18.0933 19.8404 17.5702 19.465 17.3035C19.0897 17.0368 18.5723 17.1281 18.2694 17.4749C17.2944 18.5912 16.0353 19.431 14.6188 19.9005C12.9377 20.4577 11.1226 20.4641 9.43755 19.9189C7.75247 19.3737 6.28521 18.3052 5.24909 16.8689C4.21297 15.4325 3.662 13.703 3.67629 11.932C3.69057 10.161 4.26937 8.44067 5.32853 7.02119C6.38769 5.6017 7.872 4.55704 9.56566 4.03909C11.2593 3.52114 13.074 3.55689 14.746 4.14115C16.1546 4.63341 17.4001 5.4934 18.3569 6.62528C18.6541 6.9769 19.1701 7.07657 19.5496 6.81597Z" fill="#FF5A67"/>
</svg>
