<svg width="17" height="9" viewBox="0 0 17 9" fill="none" xmlns="http://www.w3.org/2000/svg">
<path d="M16.9999 0.900043C17.0033 1.01832 16.9798 1.13589 16.9308 1.24464C16.8819 1.35338 16.8088 1.45071 16.7165 1.52988L9.16056 8.72968C8.98192 8.89313 8.74701 8.98909 8.49961 8.99969C8.37549 9.00296 8.25211 8.98052 8.13799 8.9339C8.02387 8.88728 7.92174 8.8176 7.83865 8.72968L0.283214 1.52989C0.193636 1.44863 0.122317 1.35089 0.0735852 1.24257C0.0248534 1.13426 -0.000275007 1.01764 -0.000275012 0.89979C-0.000275017 0.78194 0.0248534 0.66532 0.0735852 0.557007C0.122317 0.448693 0.193636 0.350945 0.283214 0.269693C0.368479 0.184332 0.471056 0.116369 0.58472 0.069931C0.698384 0.0234937 0.820764 -0.000451124 0.944434 -0.000451129C1.0681 -0.000451135 1.19048 0.0234937 1.30415 0.069931C1.41781 0.116369 1.52039 0.184332 1.60565 0.269693L8.49961 6.83965L15.392 0.270199C15.4772 0.184839 15.5798 0.116877 15.6935 0.0704387C15.8071 0.0240014 15.9295 5.55705e-05 16.0532 5.55651e-05C16.1768 5.55597e-05 16.2992 0.0240014 16.4129 0.0704386C16.5266 0.116877 16.6291 0.184839 16.7144 0.270199C16.8071 0.349188 16.8806 0.44643 16.9299 0.555187C16.9792 0.663944 17.003 0.781614 16.9999 0.900043Z" fill="currentColor" fill-opacity="0.75"/>
</svg>
