<svg width="27" height="50" viewBox="0 0 27 50" fill="none" xmlns="http://www.w3.org/2000/svg">
<path d="M24.2993 50.001C23.9444 50.0112 23.5917 49.9419 23.2655 49.798C22.9392 49.6541 22.6473 49.4391 22.4097 49.1677L0.810346 26.9442C0.320006 26.4188 0.0321105 25.7279 0.000330927 25.0003C-0.00950424 24.6352 0.0578334 24.2723 0.197688 23.9367C0.337544 23.601 0.54658 23.3006 0.810346 23.0563L22.4097 0.834401C22.6535 0.570937 22.9467 0.361175 23.2717 0.217846C23.5966 0.0745174 23.9465 0.000610352 24.3 0.000610352C24.6536 0.000610352 25.0034 0.0745174 25.3284 0.217846C25.6533 0.361175 25.9466 0.570937 26.1903 0.834401C26.4464 1.08518 26.6503 1.38688 26.7896 1.72118C26.9289 2.05549 27.0007 2.41543 27.0007 2.77917C27.0007 3.1429 26.9289 3.50285 26.7896 3.83715C26.6503 4.17146 26.4464 4.47315 26.1903 4.72393L6.48045 25.0003L26.1888 45.2719C26.4449 45.5227 26.6488 45.8244 26.7881 46.1587C26.9274 46.493 26.9992 46.8529 26.9992 47.2166C26.9992 47.5804 26.9274 47.9403 26.7881 48.2746C26.6488 48.6089 26.4449 48.9106 26.1888 49.1614C25.9518 49.4339 25.6601 49.6502 25.3338 49.7951C25.0076 49.9401 24.6545 50.0104 24.2993 50.001V50.001Z" fill="black" fill-opacity="0.7"/>
</svg>
