<svg width="13" height="24" viewBox="0 0 13 24" fill="none" xmlns="http://www.w3.org/2000/svg">
    <path
        d="M11.6999 24.0002C11.5291 24.0051 11.3593 23.9718 11.2022 23.9027C11.0451 23.8337 10.9045 23.7305 10.7902 23.6002L0.390461 12.9329C0.154371 12.6807 0.0157545 12.3491 0.000453208 11.9998C-0.00428224 11.8246 0.0281396 11.6504 0.0954772 11.4893C0.162815 11.3282 0.263462 11.184 0.390461 11.0667L10.7902 0.400219C10.9075 0.273757 11.0487 0.173071 11.2052 0.104273C11.3616 0.0354754 11.5301 0 11.7003 0C11.8705 0 12.039 0.0354754 12.1954 0.104273C12.3519 0.173071 12.4931 0.273757 12.6104 0.400219C12.7337 0.520593 12.8319 0.665408 12.899 0.825875C12.9661 0.986342 13.0007 1.15911 13.0007 1.33371C13.0007 1.5083 12.9661 1.68107 12.899 1.84154C12.8319 2.00201 12.7337 2.14682 12.6104 2.2672L3.12051 11.9998L12.6097 21.7302C12.733 21.8506 12.8312 21.9954 12.8983 22.1559C12.9653 22.3163 12.9999 22.4891 12.9999 22.6637C12.9999 22.8383 12.9653 23.0111 12.8983 23.1715C12.8312 23.332 12.733 23.4768 12.6097 23.5972C12.4956 23.728 12.3552 23.8318 12.1981 23.9014C12.041 23.971 11.871 24.0047 11.6999 24.0002Z"
        fill="currentColor" />
</svg>