<svg width="24" height="24" viewBox="0 0 24 24" fill="none" xmlns="http://www.w3.org/2000/svg">
    <g id="Buy">
        <path id="Combined-Shape" fill-rule="evenodd" clip-rule="evenodd"
            d="M6.18452 20.8202C7.04132 20.8202 7.73852 21.5326 7.73852 22.4095C7.73852 23.2864 7.04132 24 6.18452 24C5.32772 24 4.63171 23.2864 4.63171 22.4095C4.63171 21.5326 5.32772 20.8202 6.18452 20.8202ZM19.7209 20.8202C20.5789 20.8202 21.2761 21.5326 21.2761 22.4095C21.2761 23.2864 20.5789 24 19.7209 24C18.8641 24 18.1681 23.2864 18.1681 22.4095C18.1681 21.5326 18.8641 20.8202 19.7209 20.8202ZM1.05354 0.0116519L3.54955 0.453802C3.95155 0.526265 4.25755 0.867703 4.29235 1.28529L4.57435 4.72546L5.62298 4.72592C5.79409 4.726 5.9634 4.72608 6.1309 4.72615L8.05608 4.72709C8.20953 4.72717 8.36127 4.72725 8.51132 4.72733L10.637 4.72852C10.7705 4.7286 10.9025 4.72868 11.0328 4.72876L12.5224 4.72974C12.6405 4.72982 12.757 4.7299 12.872 4.72998L14.1822 4.73097C14.2856 4.73105 14.3876 4.73113 14.4883 4.73122L15.6306 4.73222C15.7205 4.73231 15.809 4.73239 15.8963 4.73248L16.6471 4.73324C16.7267 4.73332 16.8052 4.73341 16.8824 4.7335L17.7519 4.73453C17.8197 4.73461 17.8863 4.7347 17.9519 4.73479L18.686 4.73584C18.7429 4.73593 18.7988 4.73601 18.8536 4.7361L19.3202 4.7369C19.3691 4.73699 19.417 4.73708 19.464 4.73717L19.9838 4.73824C20.0235 4.73834 20.0624 4.73843 20.1004 4.73852L20.4203 4.73934C20.4534 4.73943 20.4857 4.73952 20.5172 4.73961L20.8602 4.74072C20.8859 4.74081 20.9109 4.7409 20.9352 4.741L21.1365 4.74184C21.157 4.74193 21.1769 4.74202 21.1961 4.74212L21.3998 4.74325C21.4146 4.74335 21.4289 4.74344 21.4426 4.74354L21.5536 4.7444C21.5646 4.7445 21.5751 4.74459 21.5852 4.74469L21.6651 4.74556C21.6728 4.74566 21.6802 4.74576 21.6872 4.74586L21.7416 4.74674C21.7467 4.74684 21.7515 4.74693 21.7561 4.74703L21.7905 4.74792C21.7936 4.74802 21.7966 4.74812 21.7993 4.74822L21.8242 4.74942C21.8258 4.74953 21.8272 4.74963 21.8285 4.74973C21.8402 4.75084 21.8419 4.75105 21.8436 4.75125C22.512 4.85074 23.1 5.20814 23.5008 5.75837C23.9016 6.30737 24.0696 6.98411 23.9736 7.66207L22.8348 15.7166C22.62 17.2494 21.3192 18.4051 19.8072 18.4051H6.70196C5.12155 18.4051 3.78355 17.1425 3.65515 15.5274L2.55594 2.14748L0.747537 1.82815C0.256735 1.73972 -0.0708662 1.26441 0.0131341 0.762078C0.0995345 0.259747 0.573536 -0.0669525 1.05354 0.0116519ZM5.38223 6.56817L4.72555 6.56775L5.44916 15.3764C5.50196 16.0543 6.04316 16.5628 6.70436 16.5628H19.8048C20.43 16.5628 20.964 16.0863 21.0528 15.4537L22.1928 7.39801C22.2192 7.20641 22.1724 7.01481 22.0584 6.86006C21.9456 6.70408 21.78 6.60337 21.5928 6.57635C21.5842 6.57669 21.5634 6.577 21.5312 6.57728L21.4007 6.57804C21.3734 6.57816 21.3434 6.57826 21.3107 6.57837L20.6309 6.57942C20.5735 6.57947 20.5139 6.5795 20.4521 6.57953L18.8537 6.57946C18.7645 6.57943 18.6736 6.57939 18.5811 6.57935L16.757 6.57822C16.6477 6.57813 16.5372 6.57805 16.4256 6.57796L15.3934 6.57712C15.2759 6.57702 15.1574 6.57691 15.0382 6.57681L13.9449 6.57583C13.8214 6.57571 13.6973 6.5756 13.5728 6.57548L12.8197 6.57477C12.6933 6.57465 12.5666 6.57453 12.4395 6.57441L11.2903 6.57331C11.1622 6.57319 11.0339 6.57307 10.9057 6.57294L10.1369 6.57221C10.009 6.57209 9.8812 6.57197 9.75362 6.57185L8.99137 6.57114C8.86496 6.57103 8.73892 6.57091 8.61331 6.5708L7.4967 6.56981C7.37439 6.56971 7.25274 6.56961 7.13182 6.56951L5.7207 6.56841C5.60683 6.56833 5.49398 6.56825 5.38223 6.56817ZM17.8775 9.26523C18.3743 9.26523 18.7775 9.67791 18.7775 10.1864C18.7775 10.6949 18.3743 11.1075 17.8775 11.1075H14.5511C14.0531 11.1075 13.6511 10.6949 13.6511 10.1864C13.6511 9.67791 14.0531 9.26523 14.5511 9.26523H17.8775Z"
            fill="#F5FBFF" />
    </g>
</svg>