<svg width="24" height="19" viewBox="0 0 24 19" fill="none" xmlns="http://www.w3.org/2000/svg">
<path d="M23.8384 5.04276C23.6787 4.82123 23.4228 4.68951 23.1499 4.68853H5.88263L4.94967 0.991635C4.85138 0.603463 4.49667 0.336088 4.09655 0.348041H0.853641C0.382641 0.347526 0.000516146 0.729182 5.21146e-07 1.20065C-0.000515104 1.6716 0.381657 2.05378 0.852657 2.05429C0.853172 2.05429 0.853172 2.05429 0.853641 2.05429H3.45792L7.41427 17.74C7.51008 18.1171 7.84833 18.3821 8.23748 18.3836H18.8892C19.3601 18.3836 19.7423 18.0014 19.7423 17.5304C19.7423 17.0595 19.3601 16.6773 18.8892 16.6773H8.91098L8.51686 15.1157H20.3111C20.6793 15.1142 21.0051 14.8772 21.1193 14.527L23.9581 5.80612C24.0424 5.54718 23.998 5.26326 23.8384 5.04276ZM19.6924 13.4144H8.08781L6.31172 6.39482H21.9774L19.6924 13.4144Z" fill="white"/>
</svg>
