<svg width="28" height="29" viewBox="0 0 28 29" fill="none" xmlns="http://www.w3.org/2000/svg">
    <path
        d="M14.01 2.04004C20.93 2.04004 26.53 7.64003 26.53 14.56C26.53 21.48 20.93 27.08 14.01 27.08C7.09001 27.08 1.48999 21.48 1.48999 14.56C1.48999 7.64003 7.09001 2.04004 14.01 2.04004ZM14.01 0.790039C6.41001 0.790039 0.23999 6.96003 0.23999 14.56C0.23999 22.16 6.41001 28.33 14.01 28.33C21.61 28.33 27.78 22.16 27.78 14.56C27.78 6.96003 21.61 0.790039 14.01 0.790039Z"
        fill="currentColor" />
    <path
        d="M14.0101 4.54004C13.8401 4.54004 13.6801 4.61003 13.5701 4.72003C13.4501 4.84003 13.3901 5.00003 13.3901 5.16003V14.29L8.57013 19.11C8.45013 19.23 8.39014 19.39 8.39014 19.55C8.39014 19.72 8.46013 19.8801 8.57013 19.9901C8.68013 20.1001 8.85013 20.17 9.01013 20.17C9.17013 20.17 9.34013 20.1001 9.45013 19.9901L14.4601 14.98C14.5801 14.86 14.6401 14.7 14.6401 14.54V5.15002C14.6401 4.98002 14.5701 4.82005 14.4601 4.71005C14.3301 4.61005 14.1701 4.54004 14.0101 4.54004Z"
        fill="currentColor" />
</svg>