<?xml version="1.0" encoding="utf-8"?>
<!-- Generator: Adobe Illustrator 21.0.2, SVG Export Plug-In . SVG Version: 6.00 Build 0)  -->
<svg version="1.1" id="Layer_1" xmlns="http://www.w3.org/2000/svg" xmlns:xlink="http://www.w3.org/1999/xlink" x="0px" y="0px"
	 viewBox="0 0 519 553.1" style="enable-background:new 0 0 519 553.1;" xml:space="preserve">
<style type="text/css">
	.st0{fill:#012F47;}
	.st1{fill:#141414;stroke:#141414;stroke-width:0.8771;stroke-miterlimit:10;}
	.st2{fill:#FFFFFF;}
	.st3{fill:#B3D136;}
	.st4{fill:#196476;}
	.st5{fill:#45BDA6;}
	.st6{fill:#F48320;}
	.st7{clip-path:url(#SVGID_2_);}
	.st8{opacity:0.8;fill:#121212;}
	.st9{opacity:0.6;fill:#121212;}
	.st10{clip-path:url(#SVGID_8_);}
	.st11{clip-path:url(#SVGID_12_);}
	.st12{clip-path:url(#SVGID_14_);}
	.st13{fill:#EF8019;}
	.st14{fill:#121212;}
	.st15{fill:#AD3437;}
	.st16{fill:#C22525;}
	.st17{clip-path:url(#SVGID_20_);fill:#FFFFFF;}
	.st18{clip-path:url(#SVGID_22_);fill:#FFFFFF;}
	.st19{opacity:0.55;fill:#90CEDD;}
	.st20{fill:#79C9E8;}
	.st21{fill:#D7F0F9;}
	.st22{fill:#FFBF4D;}
	.st23{fill:#00668E;}
	.st24{fill:#0582C1;}
	.st25{fill:#05556D;}
	.st26{fill:#F98D3D;}
	.st27{fill:#ED701B;}
	.st28{fill:none;}
	.st29{fill:#EFAA3A;}
	.st30{opacity:0.29;fill:#F98D2B;}
	.st31{fill:#49B4D6;}
	.st32{fill:#FF9F50;}
	.st33{fill:#F77E2D;}
	.st34{opacity:0.55;fill:url(#SVGID_23_);}
	.st35{fill:#022F47;}
	.st36{fill:#ECECEC;}
	.st37{fill:#E1E1E1;}
	.st38{fill:#375A64;}
	.st39{fill:#1A2E35;}
	.st40{fill:#FF735D;}
	.st41{opacity:0.3;}
	.st42{fill:none;stroke:#44555B;stroke-width:1.861625e-02;stroke-miterlimit:10;}
	.st43{fill:#DABDA5;}
	.st44{fill:#FFB469;}
	.st45{fill:#BF9691;}
	.st46{fill:#7A4A45;}
	.st47{fill:#A2675F;}
	.st48{clip-path:url(#SVGID_25_);fill:#DAE8F2;}
	.st49{clip-path:url(#SVGID_25_);fill:#FFC661;}
	.st50{clip-path:url(#SVGID_25_);fill:#E585A3;}
	.st51{clip-path:url(#SVGID_25_);fill:#394C9E;}
	.st52{clip-path:url(#SVGID_25_);fill:#425DBC;}
	.st53{clip-path:url(#SVGID_25_);fill:#B3D136;}
	.st54{clip-path:url(#SVGID_25_);fill:#00668E;}
	.st55{clip-path:url(#SVGID_25_);}
	.st56{clip-path:url(#SVGID_25_);fill:#EF599D;}
	.st57{clip-path:url(#SVGID_25_);fill:#020616;}
	.st58{clip-path:url(#SVGID_25_);fill:#FFBF40;}
	.st59{clip-path:url(#SVGID_25_);fill:#F9B4C6;}
	.st60{clip-path:url(#SVGID_25_);fill:#D5F5F7;}
	.st61{clip-path:url(#SVGID_25_);fill:#FFFFFF;}
	.st62{clip-path:url(#SVGID_25_);fill:#45BDA6;}
	.st63{clip-path:url(#SVGID_25_);fill:#F48320;}
	.st64{clip-path:url(#SVGID_25_);fill:#FF9F50;}
</style>
<g>
	<defs>
		<rect id="SVGID_24_" x="45.9" y="53.6" width="427.2" height="427.2"/>
	</defs>
	<clipPath id="SVGID_2_">
		<use xlink:href="#SVGID_24_"  style="overflow:visible;"/>
	</clipPath>
	<path style="clip-path:url(#SVGID_2_);fill:#DAE8F2;" d="M403.1,260.8c0,85.5-69.3,154.8-154.8,154.8S93.5,346.3,93.5,260.8
		S162.8,106,248.3,106S403.1,175.3,403.1,260.8"/>
	<path style="clip-path:url(#SVGID_2_);fill:#FFC661;" d="M147.1,231.3c-2.9,2.1-7,2.4-10,0.5c-2.8-1.7-4.3-5.1-4-8.3
		c1.7,0.4,3.5,0.3,4.9-0.6c1.7-1.1,2.5-3.7,0.8-5.2c-1.7-1.5-4.2-0.8-5.6,0.8c-0.7,0.8-1.2,1.8-1.5,2.8c-1.7-0.9-3.1-2.3-3.9-3.7
		c-1.8-3.6-0.4-8.1,2.9-10.3c0.9-0.6-0.1-2-1-1.4c-3.9,2.6-5.7,8-3.6,12.3c1,2.1,2.7,3.7,4.8,4.7c0.1,0.1,0.3,0.1,0.4,0.2
		c-0.3,2.9,0.6,6,2.4,8.1c3.5,4.2,10,4.8,14.3,1.6C148.9,232,148,230.6,147.1,231.3 M135.8,218.6c0.7-0.2,1.6-0.1,2.1,0.6
		c0.6,0.9-0.3,2-1.1,2.4c-1.1,0.6-2.3,0.6-3.5,0.3C133.6,220.5,134.4,219,135.8,218.6"/>
	<path style="clip-path:url(#SVGID_2_);fill:#FFC661;" d="M386.4,298.4c-1-5.2-7.3-8.2-12.1-6c-1,0.5-0.4,2.1,0.6,1.6
		c3.1-1.4,7.1-0.3,9,2.6c2,3,0.8,7.1-1.9,9.2c0,0-0.1,0-0.1,0.1c-0.8-1.3-1.8-2.3-3.2-3c-2.2-1.2-4.8-0.1-4.7,2.5
		c0.1,2.7,2.9,3.8,5.2,3.4c0.7-0.1,1.3-0.3,1.9-0.5c0.6,1.9,0.6,4-0.2,5.7c-1.8,3.6-6.6,5-10.1,3.1c-1-0.5-1.7,1-0.7,1.5
		c4.2,2.2,9.9,0.6,12.2-3.6c1.3-2.3,1.3-5.2,0.4-7.7C385.4,305.5,387.1,301.8,386.4,298.4 M376.6,306.7c-0.7-0.4-1.1-1.2-0.8-2
		c0.4-1.3,2-0.5,2.8,0c0.7,0.5,1.3,1.2,1.8,2C379.2,307.2,377.7,307.4,376.6,306.7"/>
	<path style="clip-path:url(#SVGID_2_);fill:#FFC661;" d="M326.7,130.1c-0.2-1.1-1.9-0.9-1.7,0.1c0.6,3.5-2.5,7.4-6.2,6.9
		c-1.5-0.2-2.8-1.1-3.7-2.3c1-2.1,0.6-4.6-1.2-6.1c-0.5-0.4-1.2-0.1-1.4,0.5c-0.6,1.9-0.3,3.9,0.6,5.6c-0.2,0.3-0.5,0.6-0.8,0.9
		c-1.6,1.3-3.8,1.5-5.6,0.8c-4.2-1.5-5.1-6.9-2-9.9c0.8-0.8-0.5-1.9-1.3-1.1c-2,2-2.7,5-1.9,7.7c0.7,2.6,3,4.5,5.6,5.2
		c2.5,0.6,5.4-0.1,7.2-2c1.2,1.4,2.8,2.4,4.7,2.6C323.4,139.3,327.6,134.6,326.7,130.1"/>
	<path style="clip-path:url(#SVGID_2_);fill:#FFC661;" d="M288.2,221.7c-2.3-3.7-6-6.4-10.2-7.5c-1.7-0.4-3.4-0.6-5.1-0.5
		c-1.2-2.5-4-4.4-6.5-4.8c-4.8-0.8-9.4,2.8-10,7.6c-0.1,1.1,1.5,1.4,1.7,0.3c0.4-3.1,2.9-5.9,6.1-6.3c2.6-0.3,5.5,1.1,6.8,3.4
		c-1.6,0.3-3.4,1.1-4,2.8c-0.6,1.7,0.6,3.3,2.3,3.5c1.8,0.3,3.4-0.8,3.9-2.5c0.3-0.8,0.3-1.7,0.1-2.4c1.8,0,3.8,0.4,5.3,0.9
		c3.4,1.2,6.3,3.4,8.1,6.5C287.4,223.6,288.8,222.7,288.2,221.7 M270.1,218.6c-0.5,0-1.1-0.1-1.3-0.6c-0.3-0.8,0.4-1.4,1-1.8
		c0.6-0.4,1.3-0.6,2-0.7C271.9,216.8,271.7,218.5,270.1,218.6"/>
	<path style="clip-path:url(#SVGID_2_);fill:#FFC661;" d="M120,287.1c-2.9-0.6-5.6,0.9-7,3.5c-1.2,2.2-1,4.9,0.5,6.9
		c-1.5,0.6-2.9,1.6-3.9,3c-2.7,3.8-2,9.2,1.4,12.3c0.8,0.7,1.9-0.6,1.1-1.3c-2.8-2.5-3.4-7.1-1.1-10.1c1-1.3,2.3-2.1,3.8-2.5
		c2,1.4,4.6,1.8,6.8,0.7c0.7-0.3,0.7-1.2,0.1-1.6c-1.9-1.1-4.3-1.4-6.5-1c-1.5-1.4-1.8-3.5-0.9-5.4c0.9-1.9,2.9-3.2,5-2.8
		c2.2,0.4,4.1,2.2,4.3,4.4c0.1,1.1,1.8,0.9,1.7-0.1C125.1,290.2,122.8,287.8,120,287.1"/>
	<path style="clip-path:url(#SVGID_2_);fill:#E585A3;" d="M136.8,179.6c-1.8,1.8-4.8,2.4-7.2,1.4c-1.8-0.7-3.3-2.3-3.9-4.1
		c0.9-0.1,1.7-0.5,2.4-1.1c1.1-1,1.5-2.8,0.5-4.1c-1-1.3-2.8-1.1-3.8,0c-0.9,1-1.2,2.2-1.2,3.4c-1.6-0.3-3.1-1.3-4-2.3
		c-2.1-2.4-2.2-6-0.4-8.5c0.6-0.9-0.7-2-1.3-1.1c-2.3,3.2-2.3,7.7,0.4,10.7c1.3,1.4,3.5,2.7,5.6,3c0.5,1.7,1.6,3.4,2.8,4.4
		c3.3,2.8,8.2,2.3,11.3-0.6C138.9,179.9,137.6,178.8,136.8,179.6 M126.8,172.5c0.5,0,0.7,0.6,0.7,1c0,0.6-0.4,1-0.9,1.3
		c-0.4,0.2-0.8,0.4-1.3,0.4c0,0,0,0,0,0C125.3,174.4,125.7,172.5,126.8,172.5"/>
	<path style="clip-path:url(#SVGID_2_);fill:#E585A3;" d="M108.5,253.7c-0.7-1.4-1.8-2.5-3.2-3.2c1.9-1.9,2-4.9,0.9-7.2
		c-1.3-2.6-4-4.2-6.9-4.5c-3.4-0.3-6.5,0.9-9.3,2.7c-0.9,0.6,0.1,2,1,1.4c3.8-2.4,9.9-4.1,13.1,0.2c1.2,1.6,1.6,4.1,0.4,5.8
		c-0.3,0.4-0.6,0.7-0.9,0.9c-1.6-0.5-3.4-0.5-5,0.1c-0.6,0.2-0.8,1.1-0.3,1.5c1.7,1.1,3.7,1.1,5.5,0.3c1.4,0.5,2.5,1.5,3.2,2.9
		c1.4,2.8,0.4,6.4-2.1,8.1c-0.9,0.6,0.1,2,1,1.4C109.1,261.8,110.4,257.2,108.5,253.7"/>
	<path style="clip-path:url(#SVGID_2_);fill:#E585A3;" d="M315.8,109.5c-2.1,2.7-6.4,3.4-9.2,1.3c-1.6-1.2-2.5-3.2-2.6-5.2
		c1-1.3,1.5-2.9,1.3-4.6c-0.1-0.7-1.1-1.1-1.5-0.5c-0.9,1.3-1.4,2.9-1.5,4.5c-1.4,1.5-3.7,2.1-5.8,0.9c-3.4-1.9-3-6.6,0.2-8.4
		c1-0.5,0-1.9-1-1.4c-2,1.1-3.3,3.3-3.3,5.6c-0.1,2.5,1.3,4.6,3.4,5.8c2.3,1.3,4.8,0.9,6.7-0.4c0.4,1.9,1.4,3.8,3,5
		c3.5,2.6,8.9,1.9,11.6-1.5C317.8,109.7,316.5,108.6,315.8,109.5"/>
	<path style="clip-path:url(#SVGID_2_);fill:#E585A3;" d="M410.2,286.6c-0.7-1.6-2-3.4-3.7-4.7c1.1-2.5,0.7-5.6-0.8-7.8
		c-2.5-3.5-7.8-4.1-11.1-1.5c-0.9,0.7,0.1,2.1,1,1.4c2.1-1.6,5.1-1.8,7.3-0.3c2.2,1.4,3,4.3,2.4,6.8c0,0.2-0.1,0.4-0.2,0.5
		c-1.1-0.5-2.3-0.8-3.5-0.5c-1.6,0.4-2.6,2.1-1.6,3.6c1.2,1.7,3.4,1.5,4.8,0.2c0.3-0.3,0.6-0.6,0.8-0.9c1.5,1.1,2.6,2.7,3.2,4.3
		c1.2,3.2,0.3,6.8-2,9.3c-0.7,0.8,0.6,1.9,1.3,1.1C411,295.1,411.9,290.5,410.2,286.6 M402.6,283.6c-0.7,0.1-1.8-0.7-1-1.3
		c0.4-0.3,1.2-0.2,1.7,0c0.3,0.1,0.6,0.2,0.9,0.3C403.8,283.1,403.2,283.6,402.6,283.6"/>
	<path style="clip-path:url(#SVGID_2_);fill:#394C9E;" d="M121.8,257.4c-0.7-0.3-1.4,0-1.7,0.6c-1.7,3-3.4,6.1-5.1,9.1
		c-0.3,0.6,0,1.4,0.6,1.7c0.7,0.3,1.4,0,1.7-0.6c1.7-3,3.4-6.1,5.1-9.1C122.7,258.5,122.4,257.7,121.8,257.4"/>
	<path style="clip-path:url(#SVGID_2_);fill:#E585A3;" d="M132.9,252.3c-2.4-0.9-4.8-1.7-7.2-2.6c-0.6-0.2-1.4-0.1-1.7,0.6
		c-0.2,0.6-0.1,1.5,0.6,1.7c2.4,0.9,4.8,1.7,7.2,2.6c0.6,0.2,1.4,0.1,1.7-0.6C133.8,253.4,133.6,252.5,132.9,252.3"/>
	<path style="clip-path:url(#SVGID_2_);fill:#E585A3;" d="M132.2,262.1c-0.6-0.3-1.4-0.1-1.7,0.6c-0.9,2.4-1.9,4.8-2.8,7.1
		c-0.2,0.6-0.1,1.4,0.6,1.7c0.6,0.3,1.4,0.1,1.7-0.6c0.9-2.4,1.9-4.8,2.8-7.1C133,263.2,132.8,262.4,132.2,262.1"/>
	<path style="clip-path:url(#SVGID_2_);fill:#394C9E;" d="M115.8,220.1c-0.4-0.6-1.2-0.6-1.8-0.3c0.3-0.1,0,0-0.1,0
		c-0.1,0-0.2,0.1-0.3,0.1c-0.1,0-0.2,0.1-0.3,0.1c0,0-0.1,0-0.2,0c-0.1,0-0.2,0-0.2,0c-0.1,0-0.2,0-0.3,0c-0.2,0-0.4,0-0.6,0
		c0,0-0.1,0-0.1,0c-0.1,0-0.2,0-0.3,0c-0.2,0-0.4-0.1-0.6-0.1c-0.1,0-0.1,0-0.2,0c0,0-0.2,0-0.2-0.1c-0.2-0.1-0.4-0.2-0.6-0.3
		c-0.2-0.1-0.4-0.2-0.5-0.3c0,0,0,0,0,0c0,0,0,0-0.1,0c-0.1-0.1-0.2-0.1-0.3-0.2c-0.2-0.1-0.3-0.3-0.5-0.4c0,0-0.1-0.1-0.1-0.1
		c0,0-0.1-0.1-0.1-0.1c-0.1-0.2-0.2-0.3-0.4-0.5c0,0-0.1-0.1-0.1-0.1c0,0-0.1-0.1-0.1-0.2c-0.1-0.2-0.2-0.4-0.2-0.6
		c0,0,0-0.1-0.1-0.2c0-0.1,0-0.2,0-0.3c-0.1-0.7-0.7-1.3-1.4-1.2c-0.7,0.1-1.3,0.7-1.2,1.4c0.3,2.3,1.9,4.1,3.9,5.1
		c2.1,1,4.5,1,6.5-0.1C116.1,221.5,116.2,220.6,115.8,220.1"/>
	<path style="clip-path:url(#SVGID_2_);fill:#E585A3;" d="M274.7,190.7c-0.7-0.1-1.3,0.3-1.5,1c0,0,0,0,0,0c0,0.1-0.1,0.2-0.1,0.2
		c-0.1,0.2-0.1,0.3-0.2,0.5c-0.1,0.3-0.3,0.6-0.4,0.8c0,0,0,0,0,0c-0.1,0.1-0.1,0.1-0.2,0.2c-0.1,0.1-0.2,0.3-0.3,0.4
		c-0.1,0.1-0.2,0.2-0.3,0.4c-0.1,0.1-0.1,0.1-0.2,0.2c0,0-0.3,0.2-0.1,0.1c0.2-0.1,0,0-0.1,0.1c-0.1,0.1-0.1,0.1-0.2,0.2
		c-0.1,0.1-0.3,0.2-0.4,0.3c-0.1,0.1-0.3,0.2-0.4,0.3c-0.1,0-0.1,0.1-0.2,0.1c0,0,0,0,0,0c-0.3,0.1-0.6,0.3-0.9,0.4
		c-0.2,0.1-0.3,0.1-0.5,0.2c-0.1,0-0.1,0-0.2,0.1c0,0,0,0-0.1,0c-0.7,0.1-1.3,0.7-1.2,1.4c0.1,0.6,0.7,1.3,1.4,1.2
		c3.5-0.7,6.2-3.2,7.2-6.6C275.9,191.5,275.3,190.8,274.7,190.7"/>
	<path style="clip-path:url(#SVGID_2_);fill:#E585A3;" d="M264.4,190.7l-3.7-8.1c-0.3-0.6-1-1-1.6-0.8c-0.6,0.3-1,1-0.8,1.6l3.7,8.1
		c0.3,0.6,1,1,1.6,0.8C264.2,192.1,264.7,191.4,264.4,190.7"/>
	<path style="clip-path:url(#SVGID_2_);fill:#E585A3;" d="M316.3,149.2c-0.4-0.6-1.2-0.7-1.8-0.3c-0.1,0.1-0.2,0.1-0.3,0.2
		c0,0,0,0,0,0c0,0,0,0-0.1,0c-0.2,0.1-0.4,0.2-0.6,0.2c-0.1,0-0.2,0.1-0.3,0.1c0,0-0.1,0-0.2,0c-0.2,0-0.4,0.1-0.6,0.1
		c-0.2,0-0.4,0-0.6,0c0,0,0,0,0,0c0,0,0,0,0,0c-0.1,0-0.2,0-0.3,0c-0.2,0-0.4-0.1-0.7-0.1c-0.1,0-0.2,0-0.3-0.1c0,0-0.2-0.1-0.2-0.1
		c-0.1,0-0.1-0.1-0.2-0.1c-0.1,0-0.2-0.1-0.3-0.1c-0.2-0.1-0.4-0.2-0.6-0.3c0,0-0.1-0.1-0.2-0.1c0,0-0.1-0.1-0.1-0.1
		c-0.2-0.1-0.4-0.3-0.5-0.4c-0.1-0.1-0.2-0.1-0.2-0.2c0,0-0.1-0.1-0.1-0.1c0,0-0.1-0.2-0.1-0.2c-0.1-0.1-0.1-0.1-0.2-0.2
		c-0.1-0.2-0.2-0.3-0.3-0.5c0,0-0.1-0.1-0.1-0.2c0-0.1-0.1-0.2-0.1-0.3c-0.6-1.5-3-0.7-2.4,0.9c1.6,4.3,7.3,6.1,11.2,3.6
		C316.6,150.7,316.7,149.8,316.3,149.2"/>
	<path style="clip-path:url(#SVGID_2_);fill:#E585A3;" d="M399.5,258.3c-0.7-0.3-1.4,0-1.7,0.6c-0.1,0.1-0.2,0.3-0.2,0.4
		c0,0,0,0.1-0.1,0.1c0,0-0.1,0.1-0.1,0.1c-0.2,0.3-0.4,0.5-0.6,0.8c-0.1,0.1-0.2,0.2-0.3,0.4c-0.1,0.1-0.1,0.1-0.2,0.2
		c-0.3,0.2-0.5,0.4-0.8,0.6c-0.3,0.2-0.6,0.4-0.8,0.5c-0.1,0-0.3,0.1,0,0c-0.1,0-0.1,0.1-0.2,0.1c-0.2,0.1-0.3,0.1-0.5,0.2
		c-0.3,0.1-0.6,0.2-0.9,0.3c-0.1,0-0.2,0-0.2,0.1c0,0-0.1,0-0.2,0c0,0-0.1,0-0.1,0c-0.1,0-0.2,0-0.3,0c-0.7,0.1-1.3,0.7-1.2,1.4
		c0.1,0.7,0.7,1.3,1.4,1.2c3.3-0.5,6.2-2.5,7.7-5.5C400.4,259.4,400.1,258.5,399.5,258.3"/>
	<path style="clip-path:url(#SVGID_2_);fill:#394C9E;" d="M384.8,269.6c-0.3-0.6-1.3-0.7-1.8-0.3c-0.6,0.5-0.7,1.2-0.3,1.8
		c0,0,0.1,0.1,0.1,0.1c0,0,0,0.1,0,0.1c0.1,0.1,0.1,0.3,0.2,0.4c0.1,0.1,0.1,0.3,0.1,0.5c0,0,0,0,0,0.1c0,0,0,0.2,0,0.2
		c0.1,0.3,0.1,0.6,0.1,1c0,0.1,0,0.1,0,0.2c0,0,0,0,0,0c0,0.2,0,0.3,0,0.5c0,0.3-0.1,0.6-0.2,0.9c0,0,0,0,0,0.1c0,0.1,0,0.1-0.1,0.2
		c-0.1,0.1-0.1,0.3-0.2,0.4c-0.1,0.1-0.1,0.3-0.2,0.4c0,0,0,0,0,0c0,0.1-0.1,0.1-0.1,0.2c-0.2,0.3-0.4,0.5-0.7,0.8
		c-0.5,0.5-0.4,1.4,0.2,1.8c0.6,0.5,1.3,0.3,1.8-0.2C386.2,276.4,386.5,272.5,384.8,269.6"/>
	<path style="clip-path:url(#SVGID_2_);fill:#E585A3;" d="M394.5,288c-1.7-2.4-3.4-4.8-5.1-7.2c-0.4-0.5-1.2-0.7-1.8-0.3
		c-0.5,0.4-0.7,1.2-0.3,1.8c1.7,2.4,3.4,4.8,5.1,7.2c0.4,0.5,1.2,0.7,1.8,0.3C394.8,289.3,394.9,288.6,394.5,288"/>
	<path style="clip-path:url(#SVGID_2_);fill:#425DBC;" d="M151.2,157.8c-0.2-0.1-0.3-0.2-0.4-0.4c-0.1-0.1-0.1-0.1-0.2-0.2
		c0.2,0.2,0,0-0.1-0.1c-0.1-0.1-0.2-0.3-0.3-0.4c-0.1-0.1-0.1-0.2-0.1-0.2c0,0,0,0,0-0.1c-0.2-0.3-0.3-0.7-0.4-1c0,0,0,0,0,0
		c0,0,0,0,0,0c0-0.1,0-0.2,0-0.3c0-0.2,0-0.4-0.1-0.6c0-0.1,0-0.2,0-0.3c0,0,0-0.1,0-0.1c0-0.2,0-0.4,0.1-0.5c0-0.2,0.1-0.4,0.1-0.6
		c0,0,0-0.1,0-0.1c0-0.1,0-0.1,0-0.1c0.1-0.2,0.1-0.4,0.2-0.5c0-0.1,0.1-0.2,0.1-0.2c0,0,0,0,0,0c0,0,0,0,0,0
		c0.1-0.1,0.2-0.3,0.3-0.4c0.1-0.1,0.1-0.2,0.2-0.2c0,0,0,0,0,0c0,0,0,0,0.1,0c0.5-0.4,0.7-1.2,0.3-1.8c-0.4-0.5-1.3-0.8-1.8-0.3
		c-1.6,1.4-2.4,3.3-2.3,5.4c0.1,2,1,4,2.6,5.1c0.6,0.4,1.3,0.4,1.8-0.2C151.8,159.1,151.8,158.2,151.2,157.8"/>
	<path style="clip-path:url(#SVGID_2_);fill:#425DBC;" d="M139.5,193.1C139.5,193.1,139.5,193.1,139.5,193.1
		C139.5,193.1,139.5,193.1,139.5,193.1C139.5,193.1,139.5,193.1,139.5,193.1"/>
	<path style="clip-path:url(#SVGID_2_);fill:#425DBC;" d="M141.6,191.7c-0.3-0.6-1.3-0.7-1.8-0.3c-0.6,0.4-0.7,1.1-0.3,1.8
		c0,0,0,0,0,0.1c0,0,0,0,0-0.1c0,0,0,0,0,0c0,0,0,0,0,0c0,0,0,0.1,0,0.1c0,0.1,0.1,0.2,0.1,0.3c0,0.1,0,0.1,0,0.2c0,0.1,0,0.2,0,0.3
		c0,0,0,0.1,0,0.1c0,0.1,0,0.2-0.1,0.4c0,0,0,0.1,0,0.1c0,0.1-0.1,0.2-0.1,0.3c0,0.1-0.1,0.2-0.2,0.3c0,0-0.1,0.1-0.1,0.1
		c-0.1,0.1-0.2,0.2-0.2,0.3l0,0c0,0,0,0,0,0c0,0-0.1,0.1-0.1,0.1c0,0,0,0,0-0.1c-0.1,0.1-0.2,0.1-0.3,0.2c0,0-0.1,0-0.1,0.1
		c-0.1,0-0.2,0.1-0.3,0.1c0,0-0.1,0-0.1,0c0,0,0,0,0,0c-0.7,0.1-1.3,0.7-1.2,1.4c0.1,0.7,0.7,1.3,1.4,1.2c1.6-0.2,2.8-1.3,3.5-2.7
		C142.4,194.7,142.4,193,141.6,191.7"/>
	<path style="clip-path:url(#SVGID_2_);fill:#425DBC;" d="M138.9,195.8C138.9,195.8,138.9,195.8,138.9,195.8
		C139,195.7,139,195.7,138.9,195.8C138.9,195.8,138.9,195.8,138.9,195.8C138.9,195.8,138.9,195.8,138.9,195.8"/>
	<path style="clip-path:url(#SVGID_2_);fill:#425DBC;" d="M400.5,306.2c-0.6-0.3-1.5,0-1.7,0.6c-0.7,1.7-1.8,3-3.3,3.9
		c-0.4,0.2-0.6,0.3-1,0.5c-0.4,0.2-0.9,0.3-1.3,0.4c0,0-0.1,0-0.2,0c-0.1,0-0.2,0-0.3,0.1c-0.2,0-0.4,0.1-0.7,0.1
		c-0.2,0-0.5,0-0.7,0c0,0,0,0-0.1,0c0,0,0,0-0.1,0c-0.1,0-0.3,0-0.4,0c-0.7-0.1-1.4,0.3-1.5,1c-0.1,0.6,0.3,1.4,1,1.5
		c4.5,0.5,9.2-2.1,10.9-6.4C401.3,307.3,401.1,306.6,400.5,306.2"/>
	<path style="clip-path:url(#SVGID_2_);fill:#425DBC;" d="M386.3,328.1c-0.2,0.1-0.3,0.2-0.5,0.3c0,0-0.1,0.1-0.1,0.1
		c-0.1,0-0.2,0.1-0.3,0.1c-0.2,0.1-0.4,0.1-0.6,0.2c-0.1,0-0.2,0-0.2,0.1c0,0-0.1,0-0.1,0c0,0,0,0-0.1,0c-0.4,0.1-0.8,0.1-1.2,0.1
		c-0.1,0-0.2,0-0.3,0c0,0-0.1,0-0.2,0c-0.2,0-0.4,0-0.6-0.1c-0.2,0-0.4-0.1-0.6-0.1c-0.1,0-0.2-0.1-0.3-0.1c0,0,0,0,0,0
		c0,0-0.1,0-0.1,0c-0.4-0.2-0.8-0.3-1.2-0.5c0,0-0.1-0.1-0.2-0.1c0,0-0.2-0.1-0.2-0.1c-0.2-0.1-0.3-0.3-0.5-0.4
		c-0.1-0.1-0.1-0.1-0.2-0.2c0,0-0.1-0.1-0.2-0.2c0,0-0.1-0.1-0.1-0.2c-0.1-0.1-0.2-0.2-0.2-0.3c-1-1.3-3.1,0.1-2.1,1.5
		c2.6,3.5,7.9,4.4,11.5,2C389.2,329.3,387.7,327.2,386.3,328.1"/>
	<path style="clip-path:url(#SVGID_2_);fill:#425DBC;" d="M327.8,106.6c-0.6-0.1-1.4,0.3-1.5,1c0,0.4-0.1,0.7-0.2,1.1
		c0,0.1,0,0.2-0.1,0.3c0,0,0,0,0,0c0,0.1-0.1,0.3-0.2,0.5c-0.1,0.3-0.3,0.6-0.5,0.9c0,0,0,0,0,0c0,0,0,0,0,0
		c-0.1,0.1-0.1,0.2-0.2,0.2c-0.1,0.1-0.2,0.3-0.3,0.4c-0.1,0.1-0.2,0.3-0.4,0.4c0,0-0.1,0.1-0.1,0.1c0,0,0,0,0,0
		c-0.3,0.2-0.5,0.4-0.8,0.6c-0.1,0-0.2,0.1-0.2,0.1c0,0-0.1,0-0.1,0c0,0,0,0,0.1,0c-0.2,0-0.3,0.2-0.5,0.2c-0.2,0.1-0.3,0.1-0.5,0.2
		c-0.1,0-0.1,0-0.2,0.1c-0.1,0-0.4,0.1-0.1,0c-0.7,0.1-1.3,0.6-1.2,1.4c0.1,0.6,0.7,1.3,1.4,1.2c1.8-0.4,3.4-1.3,4.6-2.7
		c1.1-1.3,1.9-3,2-4.7C328.9,107.4,328.5,106.7,327.8,106.6"/>
	<path style="clip-path:url(#SVGID_2_);fill:#425DBC;" d="M323.2,112.5C323.1,112.5,323.1,112.5,323.2,112.5"/>
	<path style="clip-path:url(#SVGID_2_);fill:#425DBC;" d="M338.5,113.6c-0.3-0.2-0.6-0.5-0.9-0.7c0,0-0.1-0.1-0.1-0.1
		c0,0-0.1-0.1-0.1-0.1c-0.1-0.1-0.2-0.3-0.3-0.5c-0.1-0.1-0.2-0.3-0.3-0.4c0,0-0.1-0.1-0.1-0.1c0-0.1-0.1-0.1-0.1-0.2
		c-0.2-0.3-0.3-0.7-0.4-1.1c0-0.1,0-0.1-0.1-0.2c0,0,0,0,0-0.1c0-0.2-0.1-0.4-0.1-0.6c0-0.2,0-0.4,0-0.6c0-0.1,0-0.2,0-0.3
		c0,0,0,0,0,0c0,0,0,0,0,0c0-0.4,0.1-0.8,0.2-1.1c0,0,0-0.1,0-0.1c0,0,0-0.1,0.1-0.2c0.1-0.2,0.2-0.4,0.3-0.6c0.3-0.6,0-1.4-0.6-1.7
		c-0.6-0.3-1.4,0-1.7,0.6c-1.7,3.4-0.5,8,2.6,10.1c0.6,0.4,1.3,0.4,1.8-0.2C339,114.9,339.1,114,338.5,113.6"/>
	<path style="clip-path:url(#SVGID_2_);fill:#425DBC;" d="M260.2,158.6c-0.1-0.7-0.7-1.2-1.4-1.2c-0.6,0.1-1.3,0.7-1.2,1.4
		c0.6,3.4-0.3,6.9-2.7,9.5c-1.1,1.2,0.9,2.9,2,1.6C259.7,166.9,260.9,162.6,260.2,158.6"/>
	<path style="clip-path:url(#SVGID_2_);fill:#425DBC;" d="M250.1,188.1c-0.2-0.1-0.3-0.3-0.5-0.4c-0.1-0.1-0.2-0.2-0.2-0.2
		c0,0,0,0-0.1-0.1c-0.3-0.3-0.5-0.6-0.7-1c-0.1-0.1-0.1-0.2-0.2-0.3c0,0,0,0,0-0.1c-0.1-0.2-0.2-0.4-0.2-0.5
		c-0.2-0.4-0.3-0.8-0.4-1.2c0,0.1,0,0,0-0.1c0-0.1,0-0.2-0.1-0.3c0-0.2-0.1-0.4-0.1-0.6c0-0.2,0-0.4,0-0.6c0-0.1,0-0.2,0-0.3
		c0,0,0-0.1,0-0.1c0-0.4,0.1-0.8,0.2-1.2c0-0.1,0-0.2,0.1-0.3c0-0.1,0,0.1,0-0.1c0.1-0.2,0.2-0.4,0.3-0.6c0.7-1.5-1.6-2.6-2.3-1.1
		c-1.7,3.7-0.6,8.5,2.6,11C249.8,191.1,251.4,189.2,250.1,188.1"/>
	<path style="clip-path:url(#SVGID_2_);fill:#B3D136;" d="M254.7,365.6c-5.4,0-9.1-5.4-6.9-10.2c1.7-3.7,5-7,11.7-7h60.8
		c0,0,8.6-1.6,15.7-6.3h15.7c0,0,4.9,2.5,5.3,9.1c0.5,7.9-6.3,14.4-14.5,14.4L254.7,365.6z"/>
	<path style="clip-path:url(#SVGID_2_);fill:#00668E;" d="M351.7,342c0,0,9.3-11.1,9.9-30.6c0.6-19.5,6.7-55.2,19.8-64.8h-61.7
		c0,0-15.8,15.8-12.3,37.7C311.1,306.2,294,342,294,342H351.7z"/>
	<rect x="263.3" y="365.6" style="clip-path:url(#SVGID_2_);fill:#394C9E;" width="71" height="4.8"/>
	<path class="st7" d="M360.4,289.5c-3.9,10.5-2.7,21.9-4.5,32.8c-0.5,3.1-1.2,6.2-2.4,9.1c-0.2,0.5,0.6,0.8,0.8,0.4
		c4.1-10.5,3-21.8,4.6-32.7c0.5-3.1,1.2-6.2,2.2-9.2C361.4,289.4,360.6,289,360.4,289.5"/>
	<path class="st7" d="M351.2,335.7c-0.2-0.1-0.5,0-0.6,0.2c-0.5,1-0.9,2-1.4,3c-0.1,0.2,0,0.5,0.2,0.5c0.2,0.1,0.5,0,0.6-0.2
		c0.5-1,1-2,1.4-3C351.5,336.1,351.4,335.8,351.2,335.7"/>
	<path class="st7" d="M254.8,352.1c0.4-0.4-0.3-0.9-0.7-0.5c-1.5,1.6-2.9,3.4-3.4,5.6c-0.5,2-0.1,4.2,1.2,5.8c0.3,0.4,1-0.1,0.7-0.5
		c-1.2-1.5-1.5-3.5-1-5.4C252.2,355.2,253.4,353.6,254.8,352.1"/>
	<path class="st7" d="M256.1,354.3c-1.2,2.6-2.4,5.7-0.5,8.3c0.3,0.4,1,0,0.7-0.5c-1.6-2.3-0.4-5.2,0.6-7.5
		C257.1,354.1,256.3,353.8,256.1,354.3"/>
	<rect x="271.8" y="370.4" class="st7" width="50.7" height="7"/>
	<rect x="292.3" y="377.4" class="st7" width="9.8" height="62.6"/>
	<path class="st7" d="M342,445.7h-8.5c0-3.2-2.7-5.7-5.9-5.7h-60.6c-3.3,0-5.9,2.6-5.9,5.7h-8.5c0-7.7,6.5-14,14.5-14h60.6
		C335.5,431.7,342,438,342,445.7"/>
	<path style="clip-path:url(#SVGID_2_);fill:#394C9E;" d="M263.9,447.5c2.2,5.1,1,10.4-2.5,11.8c-3.5,1.4-8.1-1.7-10.3-6.8
		c-2.2-5.1-1-10.4,2.5-11.8C257.1,439.3,261.7,442.3,263.9,447.5"/>
	<path style="clip-path:url(#SVGID_2_);fill:#EF599D;" d="M261.5,448.4c1.3,3.2,0.6,6.5-1.6,7.3s-5.1-1-6.4-4.2
		c-1.3-3.2-0.6-6.5,1.6-7.3C257.3,443.3,260.1,445.2,261.5,448.4"/>
	<path style="clip-path:url(#SVGID_2_);fill:#394C9E;" d="M344.1,443.1c2.2,5.1,1,10.4-2.5,11.8c-3.5,1.4-8.1-1.7-10.3-6.8
		c-2.2-5.1-1-10.4,2.5-11.8C337.4,434.9,342,437.9,344.1,443.1"/>
	<path style="clip-path:url(#SVGID_2_);fill:#EF599D;" d="M341.7,444c1.3,3.2,0.6,6.5-1.6,7.3c-2.2,0.9-5.1-1-6.4-4.2
		c-1.3-3.2-0.6-6.5,1.6-7.3C337.5,438.9,340.4,440.8,341.7,444"/>
	<path style="clip-path:url(#SVGID_2_);fill:#394C9E;" d="M371.4,162.1l-5.3,11.3c0,0-10.8-7-20.9-5.4
		c-1.3-10.1-11.1-18.5-11.1-18.5l8.7-7.9l-14.3-17.5l34.2,17.1l6.9,7.3l19.3,20.5l-17.4-7.2L371.4,162.1z"/>
	<polygon style="clip-path:url(#SVGID_2_);fill:#020616;" points="371.5,161.9 371.4,162.1 351.3,159.9 345.3,144.8 353,154.3 	"/>
	<polygon style="clip-path:url(#SVGID_2_);fill:#020616;" points="369.5,148.6 328.5,124.2 362.7,141.3 	"/>
	<path style="clip-path:url(#SVGID_2_);fill:#FFBF40;" d="M400.3,188.9c-3.4,2.2-7.7,2.2-11.4,0.6c-3.9-1.7-6.8-5.1-8.6-8.9
		c-2-4.2-2.6-8.7-3.1-13.2c-0.2-2.1-0.6-4.3-1.3-6.3c-0.7-1.8-1.6-3.4-2.7-4.9c-2.4-3.2-5.8-5.5-9.5-6.7c-0.1-0.2-0.2-0.4-0.4-0.6
		c0-0.1,0-0.1-0.1-0.2c-0.3-0.3-0.6-0.6-1-0.9c-0.2-0.1-0.4-0.3-0.7-0.4c0,0-0.1,0-0.1-0.1c-0.3-0.2-0.7-0.3-1.1-0.3
		c-0.4,0-0.8,0.2-0.9,0.6c-0.3,0.6,0.2,1.2,0.5,1.7c0.4,0.5,0.9,0.9,1.5,1.2c0.6,0.3,1.3,0.5,2,0.3c0.1,0,0.2-0.1,0.3-0.1
		c3.4,1.2,6.4,3.4,8.6,6.2c1.2,1.6,2.1,3.3,2.8,5.1c0.7,2.2,1,4.5,1.2,6.7c0.5,4.5,1.3,9.1,3.4,13.1c1.9,3.7,4.9,6.9,8.7,8.6
		c4,1.8,8.8,1.7,12.5-0.7C401.4,189.4,400.8,188.6,400.3,188.9"/>
	<path style="clip-path:url(#SVGID_2_);fill:#FFBF40;" d="M401.6,188.1c0.1-0.2,0.2-0.4,0.3-0.6c0-0.1,0.1-0.2,0.1-0.3
		c0,0,0,0,0-0.1c0,0,0.1-0.1,0.1-0.1c0.2-0.4,0.5-0.7,0.8-1c0.2-0.2,0.1-0.6-0.1-0.7c-0.2-0.2-0.5-0.1-0.7,0.1
		c-0.6,0.7-1.2,1.5-1.5,2.3c-0.1,0.2,0,0.6,0.3,0.7C401.2,188.5,401.5,188.4,401.6,188.1"/>
	<path style="clip-path:url(#SVGID_2_);fill:#FFBF40;" d="M403.9,185.1c0.7-0.8,1.6-1.5,2.5-1.9c0.2-0.1,0.4-0.4,0.3-0.7
		c-0.1-0.2-0.4-0.4-0.7-0.3c-1.1,0.6-2.1,1.3-3,2.2c-0.2,0.2-0.1,0.6,0.1,0.7C403.4,185.4,403.7,185.3,403.9,185.1"/>
	<path style="clip-path:url(#SVGID_2_);fill:#FFBF40;" d="M410.3,181c-0.1-0.3-0.4-0.4-0.7-0.3c-0.7,0.2-1.5,0.5-2.2,0.7
		c-0.3,0.1-0.4,0.4-0.3,0.7c0.1,0.3,0.4,0.4,0.7,0.3c0.7-0.2,1.5-0.5,2.2-0.7C410.2,181.6,410.4,181.2,410.3,181"/>
	<path style="clip-path:url(#SVGID_2_);fill:#FFBF40;" d="M405.1,187c0.2-0.2,0.3-0.5,0.1-0.7c-0.2-0.2-0.5-0.3-0.7-0.1
		c-0.8,0.6-1.5,1.3-2.3,1.9c-0.2,0.2-0.3,0.5-0.1,0.7c0.2,0.2,0.5,0.3,0.7,0.1C403.6,188.3,404.4,187.6,405.1,187"/>
	<path style="clip-path:url(#SVGID_2_);fill:#FFBF40;" d="M408.7,184.5c-0.1-0.3-0.4-0.4-0.7-0.3c-0.8,0.3-1.5,0.6-2.2,1
		c-0.1,0.1-0.2,0.1-0.3,0.3c0,0.1-0.1,0.3,0,0.4c0.1,0.2,0.4,0.4,0.7,0.3c0.7-0.4,1.4-0.7,2.2-1
		C408.7,185.1,408.8,184.8,408.7,184.5"/>
	<path style="clip-path:url(#SVGID_2_);fill:#FFBF40;" d="M412.5,184c0.1-0.1,0.1-0.2,0.1-0.4c0-0.3-0.3-0.5-0.6-0.5
		c-0.5,0-0.9,0.1-1.4,0.1c-0.1,0-0.3,0.1-0.4,0.2c-0.1,0.1-0.1,0.2-0.1,0.4c0,0.3,0.3,0.5,0.6,0.5c0.5,0,0.9-0.1,1.4-0.1
		C412.3,184.2,412.4,184.1,412.5,184"/>
	<path style="clip-path:url(#SVGID_2_);fill:#FFBF40;" d="M412.7,185.9c-0.1-0.3-0.4-0.4-0.7-0.3c-0.9,0.3-1.7,0.6-2.6,0.9
		c-0.3,0.1-0.4,0.4-0.3,0.7c0.1,0.3,0.4,0.4,0.7,0.3c0.9-0.3,1.7-0.6,2.6-0.9C412.6,186.5,412.8,186.1,412.7,185.9"/>
	<path style="clip-path:url(#SVGID_2_);fill:#FFBF40;" d="M407.5,188.2c0-0.1,0.1-0.3,0-0.4c-0.1-0.2-0.4-0.4-0.7-0.3
		c-0.7,0.4-1.4,0.7-2.1,1.1c-0.1,0.1-0.2,0.1-0.3,0.3c0,0.1-0.1,0.3,0,0.4c0.1,0.2,0.4,0.4,0.7,0.3c0.7-0.4,1.4-0.7,2.1-1.1
		C407.3,188.4,407.4,188.3,407.5,188.2"/>
	<path style="clip-path:url(#SVGID_2_);fill:#FFBF40;" d="M403.6,190.2c0-0.1,0.1-0.3,0-0.4c-0.1-0.1-0.1-0.2-0.3-0.3
		c-0.1,0-0.3-0.1-0.4,0c-0.2,0.1-0.3,0.1-0.5,0.2c-0.2,0-0.5,0.1-0.7,0.1c0,0,0,0,0.1,0c-0.1,0-0.3,0-0.4,0.1
		c-0.1,0.1-0.2,0.2-0.2,0.3c0,0.1,0,0.3,0.1,0.4c0.1,0.1,0.2,0.2,0.3,0.2c0.6,0,1.1-0.1,1.7-0.3
		C403.4,190.4,403.5,190.3,403.6,190.2"/>
	<path style="clip-path:url(#SVGID_2_);fill:#F9B4C6;" d="M281.8,126.9c0.6-1.5,1.5-2.8,2.6-3.9c0.2-0.2,0.5-0.4,0.7-0.2
		c0.1,0.1,0.2,0.3,0.2,0.4c0.1,0.7-0.1,1.4-0.2,2.1c-1.4,7.6-2.2,15.3-1.8,23l-9.8,6.2c0.1-2.9,0.1-5.8,0.2-8.6h-0.1
		c-3.8-7.2-5.4-15.4-4.5-23.5c0.1-0.8,0.2-1.5,0.4-2.2c0-0.2,0.1-0.4,0.2-0.5c0.3-0.3,0.7-0.1,1,0.1c0.2,0.3,0.3,0.7,0.4,1
		c0.5,2.8,1.1,5.5,2.1,8.2l0.2-0.1c-0.2-4.6,0.1-9.5,2.2-13.6c0.2-0.5,0.7-1,1.2-0.8c0.3,0.1,0.4,0.4,0.4,0.7
		c0.2,0.7,0.2,1.5,0.2,2.2c0.4-1.2,1.1-2.3,1.9-3.4c0.1-0.1,0.2-0.2,0.3-0.2c0.2,0,0.4,0.2,0.4,0.4c0.4,1.1,0.4,2.2,0.3,3.3
		c0.5-0.9,1-1.8,1.6-2.7c0.1-0.2,0.2-0.3,0.4-0.4c0.3-0.1,0.6,0.2,0.7,0.5c0.5,0.8,0.4,1.8,0.2,2.8
		C282.8,120.9,282.3,123.9,281.8,126.9"/>
	<path class="st7" d="M276.9,117c-0.5,3.9-1,7.8-1.5,11.6c-0.1,0.5,0.8,0.7,0.8,0.2c0.5-3.9,1-7.8,1.5-11.6
		C277.8,116.7,276.9,116.5,276.9,117"/>
	<path class="st7" d="M279.5,117.1c-0.3,3.8-0.7,7.6-1,11.4c0,0.5,0.8,0.7,0.8,0.2c0.3-3.8,0.7-7.6,1-11.4
		C280.4,116.7,279.6,116.5,279.5,117.1"/>
	<path class="st7" d="M282.1,125.9c-0.2,0-0.5,0.1-0.5,0.3c-0.1,1.2-0.3,2.5-0.4,3.7c0,0.2,0.1,0.5,0.3,0.5c0.2,0,0.5-0.1,0.5-0.3
		c0.1-1.2,0.3-2.5,0.4-3.7C282.5,126.1,282.3,125.9,282.1,125.9"/>
	<path class="st7" d="M274.1,131l-0.8-2.1c-0.1-0.2-0.3-0.3-0.5-0.3c-0.2,0.1-0.3,0.3-0.3,0.5l0.8,2.1c0.1,0.2,0.3,0.3,0.5,0.3
		C274,131.5,274.2,131.2,274.1,131"/>
	<path style="clip-path:url(#SVGID_2_);fill:#F9B4C6;" d="M428.5,155.9c0.4,0.5,1.1,0.7,1.7,0.6c-2.2,2.6-9.7,8.1-9.7,8.1l-4.7,7.8
		c-3.3-4-7.3-7.7-9.5-9.6v0l6-5.5c0,0,1.5-16.5,4.4-21.4c2.9-4.9,3.8,5.7,3.8,5.7l0.1,0.1c-0.5,0.6-1,1.4-1.3,2.1
		c-0.3,0.6-0.4,1.4,0,1.9c0.4,0.6,1.3,0.6,2,0.4c1.2-0.2,2.3-0.7,3.3-1.4c-0.9,1.3-1.4,2.8-1.6,4.3c0,0.4,0,0.9,0.4,1.1
		c0.2,0.1,0.5,0,0.8-0.1c1-0.4,2-1,2.9-1.6c-0.8,1.1-1.3,2.3-1.5,3.7c-0.1,0.4-0.1,0.8,0.1,1.2c0.3,0.8,1.3,1.1,2.1,0.8
		c0.2-0.1,0.5-0.2,0.7-0.3C428.1,154.5,428,155.3,428.5,155.9"/>
	<path style="clip-path:url(#SVGID_2_);fill:#D5F5F7;" d="M409.9,133.1l33.7,25.1c1.8,1.3,2.2,3.9,0.8,5.6l-0.6,0.9
		c-1.3,1.8-3.9,2.2-5.7,0.8l-33.7-25.1c-1.8-1.3-2.2-3.9-0.8-5.6l0.6-0.9C405.6,132.1,408.2,131.7,409.9,133.1"/>
	<path class="st7" d="M403,138c0.7,0.8,1.7,0.1,2.4-0.4c0.8-0.6,1.7-1.6,2-2.5c0.1-0.4,0-0.9-0.5-1.1c-0.6-0.2-1.1,0.4-1.4,0.8
		c-0.5,0.4,0.1,1.1,0.6,0.7c0.1-0.1,0.2-0.1,0.2-0.2c-0.1,0.1-0.2,0.3-0.3,0.4c-0.4,0.6-0.9,1-1.4,1.4c-0.2,0.1-0.6,0.4-0.8,0.3
		c-0.3-0.1-0.3-0.6-0.2-0.9c0.1-0.7,0.6-1.4,1-1.9c0.4-0.5,1-1,1.6-1.4c0.4-0.3,1.2-0.9,1.8-0.6c0.5,0.3,0.6,1,0.5,1.5
		c-0.1,0.6-0.3,1.2-0.5,1.7c-0.7,1.4-1.9,2.9-3.3,3.4c-0.6,0.2-0.2,1,0.4,0.8c1-0.3,1.7-1.1,2.4-1.8c0.7-0.8,1.3-1.7,1.7-2.7
		c0.3-0.7,0.5-1.6,0.3-2.4c-0.2-0.8-0.9-1.6-1.8-1.5c-0.9,0-1.9,0.7-2.6,1.3c-0.8,0.6-1.5,1.4-1.9,2.3
		C402.6,136.1,402.3,137.2,403,138"/>
	<path style="clip-path:url(#SVGID_2_);fill:#F9B4C6;" d="M430.2,156.5c-0.7,0.1-1.3-0.1-1.7-0.6c-0.5-0.6-0.4-1.4-0.1-2.2
		c-0.2,0.1-0.5,0.2-0.7,0.3c-0.8,0.2-1.8,0-2.1-0.8c-0.1-0.4-0.1-0.8-0.1-1.2c0.2-1.3,0.8-2.6,1.5-3.7c-0.9,0.6-1.9,1.2-2.9,1.6
		c-0.2,0.1-0.5,0.2-0.8,0.1c-0.4-0.2-0.4-0.7-0.4-1.1c0.2-1.5,0.7-3,1.6-4.3c-1,0.7-2.1,1.2-3.3,1.4c-0.7,0.1-1.5,0.1-2-0.4
		c-0.4-0.5-0.2-1.3,0-1.9c0.3-0.8,0.7-1.5,1.3-2.1c1.4-1.7,3.4-2.9,5.5-3.3c0.3,0,0.6-0.1,0.8,0c0.4,0.2,0.6,0.7,0.6,1.1
		c0.1,0.7,0.1,1.5-0.1,2.2c0.9-0.4,1.7-0.8,2.6-1.1c0.2-0.1,0.5-0.2,0.7-0.1c0.5,0.1,0.7,0.7,0.7,1.2c0,1.2-0.3,2.5-0.9,3.6
		c0.7-0.2,1.4-0.7,2.1-0.9c0.7-0.3,1.7-0.1,2,0.6c0.2,0.4,0.1,0.9-0.1,1.3c-0.4,1.2-1,2.3-1.7,3.4c0.6-0.3,1.3-0.6,1.8-0.2
		c0.6,0.4,0.4,1.3,0.2,1.9c-0.6,1.8-1.5,3.5-3.1,4.6C431.3,156.2,430.7,156.4,430.2,156.5"/>
	<path class="st7" d="M427.3,141.7c-0.2-0.2-0.4-0.1-0.6,0.1c-0.9,1-1.8,1.9-2.7,2.9c-0.2,0.2-0.1,0.5,0.1,0.6
		c0.2,0.2,0.4,0.1,0.6-0.1c0.9-1,1.8-1.9,2.7-2.9C427.5,142.2,427.5,141.9,427.3,141.7"/>
	<path class="st7" d="M430.7,145.3c-0.2-0.2-0.4-0.1-0.6,0.1c-1.1,1.1-2.2,2.2-3.3,3.2c-0.2,0.2-0.1,0.5,0.1,0.6
		c0.2,0.2,0.4,0.1,0.6-0.1c1.1-1.1,2.2-2.2,3.3-3.2C430.9,145.7,430.9,145.4,430.7,145.3"/>
	<path class="st7" d="M432.5,149.7c-0.2-0.2-0.4-0.1-0.6,0.1c-1.2,1.1-2.3,2.3-3.5,3.4c-0.2,0.2-0.1,0.5,0.1,0.6
		c0.2,0.2,0.4,0.1,0.6-0.1c1.2-1.1,2.3-2.3,3.5-3.4C432.7,150.2,432.6,149.9,432.5,149.7"/>
	<path class="st7" d="M399.2,240.9c-1.3,2.2-3.2,4.1-4.9,6c-1.9,2.2-3.8,4.4-5.7,6.6c-1.9,2.2-3.8,4.3-5.7,6.5
		c-1.5,1.7-3.2,3.5-5.4,4.2c-2.4,0.8-5,0.3-7.4-0.3c-1.3-0.3-2.5-0.7-3.8-0.9c-1.4-0.3-2.8-0.4-4.3-0.4c-5,0-10.1,0.8-14.9-0.9
		c-1.9-0.7-3.6-1.7-5-3.2c-1.4-1.6-2.1-3.7-2.3-5.8c-0.3-4.4,1.5-9.3-0.8-13.5c-1.7-3.1-5.1-4.9-8.1-6.6c-3-1.8-6.1-3.7-7.5-7
		c-1.6-3.7-0.4-7.8,0.7-11.4c1.1-3.7,2.7-7.8,1.6-11.7c-1.4-4.7-6.3-7.1-9.4-10.6c-1.4-1.6-2.5-3.6-2.6-5.8c0-0.7,0-1.4,0.2-2
		c-1.4,0.2-2.7,0.3-4.1,0c-0.2,0-0.5-0.1-0.7-0.2c-2.1-0.5-3.9-1.9-5.1-3.7l-0.6-1l0-0.1c-0.1-0.2-0.2-0.3-0.2-0.5
		c-0.3-0.8-0.5-1.8,0-2.5c0.7-0.9,2.1-0.8,3.2-0.7c2.3,0,4.6-0.9,6.6-2.1c2-1.2,3.8-2.7,5.8-4c2.3-1.5,4.8-2.7,7.4-3.6
		c3-1,6.3-1.6,9.3-0.7c2.9,0.9,5.4,3.4,5.6,6.3c0.6-0.3,1.3-0.6,2-0.7c3.7-0.9,7.6,0.5,9.6,3.8c0.3,0.5,0.5,1,0.8,1.6
		c1.1,2.1,1.6,4.5,2.3,6.8c0.6,2.1,1.5,4.3,2.8,6c2.6,2.1,6.2,2.9,9.5,3.5c4.2,0.7,8.8,1.2,12.1,4.1c7,6,1.9,16.3,6,23.5
		c2.4,4.2,7.1,6,10.4,9.2c1.6,1.5,3.1,3.4,3.6,5.6C400.9,236.8,400.4,239,399.2,240.9"/>
	<path style="clip-path:url(#SVGID_2_);fill:#F9B4C6;" d="M343.4,200.7l4.1,12.5c0,0-25.4,22.3-32.2,36.8l7.5-21v-4.9
		c0,0,9.9-3.5,15.7-15.3c-2.4,3.7-7.5,8.3-15.7,6.9h0c-1.2-0.2-2.5-0.5-3.9-1c-8.7-3.1-10-17.8-9.9-26c0-2.3,0.1-4.1,0.2-4.9
		c0.2,0.1,0.4,0.1,0.7,0.2c1.4,0.3,2.9,0.1,4.4-0.1c2.1-0.3,4.3-0.9,6.3-1.7c2.6-1,5.1-2.4,7.3-4c0.8-0.6,1.5-1.2,2.4-1.6
		c0.9-0.4,1.9-0.5,2.8-0.1c0.8,0.4,1.4,1.2,1.8,2c1.2,2.1,2,4.3,3.2,6.5c1.1,2.1,2.5,4.1,4.6,5.4c0.6-0.8,1.9-2.3,3.7-1.9
		c0.6,0.1,1.3,0.4,2,1C351.8,192.6,343.4,200.7,343.4,200.7"/>
	<path style="clip-path:url(#SVGID_2_);fill:#E585A3;" d="M346.3,190.3c0.1,0.2,0.1,0.5-0.1,0.6c-0.7,0.4-1.3,0.9-1.8,1.6
		c-0.5,0.6-1,1.4-1,2.2c0,0.3,0.1,0.7,0.4,0.8c0.3,0.1,0.7-0.2,0.9-0.4c0.3-0.2,0.6-0.6,0.7-0.9c0-0.1,0.1-0.2,0-0.3
		c0,0-0.1-0.1-0.1-0.1l0,0c-0.5,0.4-1-0.4-0.5-0.7c0.4-0.3,0.9-0.2,1.3,0.2c0.4,0.4,0.3,1,0.1,1.4c-0.4,0.8-1.2,1.6-2.1,1.7
		c-1.1,0.1-1.7-0.9-1.6-1.9c0.1-0.9,0.6-1.9,1.2-2.6c0.5-0.7,1.2-1.3,2-1.8C345.9,190.1,346.1,190.1,346.3,190.3"/>
	<path class="st7" d="M338.5,208.9c-5.7,11.8-15.7,15.3-15.7,15.3v-8.4C331,217.2,336.1,212.6,338.5,208.9"/>
	<path style="clip-path:url(#SVGID_2_);fill:#FFFFFF;" d="M329,202.4c0,0,1.4,4.1-3.4,6c-4.9,1.9-5.7-2.4-5.7-2.4L329,202.4z"/>
	<path style="clip-path:url(#SVGID_2_);fill:#45BDA6;" d="M367.9,243.1l-25.3,44.3c0,0,23.4,68.9-29.2,68.9h-73
		c-10.8-11.4-16.2-20.6-19-26.8c-2.6-5.9-2.8-9.3-2.8-9.3l68.4-16.7c0,0,26.8,0.7,35.9,11.4c-0.2-0.5-7.4-17.9-34.4-20.6h0
		c3.4-13.5,11.3-34.6,11.3-34.6c-7.4-10.7,0.5-23.5,7-31.1c3.5-4.1,6.5-6.7,6.5-6.7L294,206.3h0l-27.6-47.2l7.1-4.5l9.8-6.2l1.9-1.2
		l18.3,32l0,0.1c0.2,0.4,0.4,0.7,0.6,1l4.9,8.6c0,8.2,1.2,22.9,9.9,26c1.4,0.5,2.6,0.8,3.9,1c-11.9,19.7-7.5,34.2-7.5,34.2
		c8.6-8.9,36-25.3,36-25.3l-0.2-0.5l23.6-27.9l29.9-35.1c0,0,0.7,0.5,1.7,1.5c2.2,1.9,6.2,5.6,9.5,9.6c2.9,3.5,5.3,7.3,5.6,10.5
		L367.9,243.1z"/>
	<path style="clip-path:url(#SVGID_2_);fill:#FFC661;" d="M351.1,224.2l0.2,0.5c0,0-27.3,16.4-36,25.3c6.8-14.5,32.2-36.8,32.2-36.8
		L351.1,224.2z"/>
	<path class="st7" d="M331.7,272.8l-26.7-7.1C309.2,252.2,331.7,272.8,331.7,272.8"/>
	<path style="clip-path:url(#SVGID_2_);fill:#FFC661;" d="M322.8,224.2v4.9l-7.5,21c0,0-4.4-14.5,7.5-34.2h0V224.2z"/>
	<path class="st7" d="M288.7,294.3c27.1,2.7,34.2,20.1,34.4,20.6c-9.2-10.7-35.9-11.4-35.9-11.4
		C287.1,301.6,287.7,298.2,288.7,294.3L288.7,294.3z"/>
	<path class="st7" d="M294,206.3l19.5,15.6c0,0-3,2.6-6.5,6.7L294,206.3L294,206.3z"/>
	<path style="clip-path:url(#SVGID_2_);fill:#EF599D;" d="M303.5,179.3l0.6,1C303.9,179.9,303.7,179.6,303.5,179.3"/>
	<path style="clip-path:url(#SVGID_2_);fill:#F48320;" d="M256.6,459.3l-0.1,3.1l-46.7,0.5c0,0-8-7.6,0.3-12.7
		c0,0-11.8-11.9-7.7-15.8c5.4-5.2,11.4,13.5,11.4,13.5l3.4-0.7c0,0,4-17.9,9.2-17.3c5.6,0.7-0.3,10.7-3.4,15.3
		c-1,1.4-1.6,2.4-1.6,2.4s4.6,2,5.7,9.8c0.1,0.4,0.1,0.8,0.1,1.2L256.6,459.3z"/>
	<path style="clip-path:url(#SVGID_2_);fill:#F9B4C6;" d="M247.5,420.3c0,0,5.7,14.9,5,16.5s-17.1,19.1-17.1,19.1l-8.4,1.7
		c-1.1-7.8-5.7-9.8-5.7-9.8s0.7-0.9,1.6-2.4h1.5l8.9-20.6c4,0,10.9-0.7,13.8-4.6L247.5,420.3z"/>
	<path style="clip-path:url(#SVGID_2_);fill:#FFC661;" d="M233.3,424.7c-1.8,0-3.1-0.1-3.1-0.1l-14.3-46.3l14-18.6l10.7-3.3l7.1,63
		c-0.2,0.3-0.3,0.6-0.5,0.8C244.2,424,237.3,424.7,233.3,424.7"/>
	<polygon class="st7" points="240.5,356.3 229.8,359.7 215.8,378.3 227.9,356.3 	"/>
	<path style="clip-path:url(#SVGID_2_);fill:#FFC661;" d="M189.9,421.7c-3.1-0.5-9.2-2.2-12.4-7.1c-0.5-0.8-1-1.7-1.3-2.7
		c0,0,25.9-74.3,31.8-77.4c4.1-2.1,10.2-4,13.6-5c2.7,6.3,8.2,15.5,19,26.8h-12.6l-12.1,22l-24,43.6
		C191.8,421.9,191.1,421.9,189.9,421.7"/>
	<path style="clip-path:url(#SVGID_2_);fill:#F9B4C6;" d="M189.9,421.7c-1.1,4.5-3.8,15.1-5.5,15.6c-2.1,0.6-21.9,4.4-22.4,4.5h0
		l-8.5-8.3c2.5-3.3,3.5-6.1,3.7-8.3l17.3-5.5l2.9-5.1C180.7,419.5,186.8,421.1,189.9,421.7"/>
	<path style="clip-path:url(#SVGID_2_);fill:#F48320;" d="M175.7,455.1l-2.3,2.3l-36.3-33.1c0,0-0.7-11.6,9.3-9.6
		c0,0-0.6-17.6,5.4-17.7c7.9-0.1-0.9,18.6-0.9,18.6l3.1,1.9c0,0,15.9-10.9,19.4-6.7c0.3,0.4,0.5,0.8,0.7,1.1
		c1.6,5.3-17.2,8.9-17.2,8.9s0.7,1.7,0.4,4.4c-0.3,2.2-1.2,5-3.7,8.3l8.5,8.3h0L175.7,455.1z"/>
	<path style="clip-path:url(#SVGID_2_);fill:#FFFFFF;" d="M146.1,420c-0.8,0.6-1.7,0.7-2.2,0.1c-0.4-0.5-0.2-1.5,0.6-2.1
		c0.8-0.6,1.7-0.7,2.2-0.1C147.1,418.4,146.8,419.3,146.1,420"/>
	<path class="st7" d="M146.1,423.5c0.1-0.2,0.1-0.3,0.1-0.5c0-0.2-0.1-0.4-0.2-0.5c-0.1-0.1-0.2-0.2-0.3-0.3c0,0,0,0,0,0
		c0,0,0,0,0,0c-0.1-0.1-0.3-0.1-0.4-0.1c0,0,0,0,0,0c0,0,0,0,0,0c-0.2,0-0.4,0.1-0.5,0.2c-0.3,0.2-0.5,0.5-0.5,0.9
		c0,0.3,0.2,0.7,0.6,0.8c0.3,0.2,0.7,0.2,1-0.1C145.9,423.8,146.1,423.6,146.1,423.5"/>
	<path style="clip-path:url(#SVGID_2_);fill:#F9B4C6;" d="M141.7,420.6c0.1-0.7-0.4-1.4-1-1.6c-0.6-0.2-1.3,0.2-1.6,0.8
		c0,0,0,0.1,0,0.1c-0.1,0.2-0.1,0.4-0.1,0.5c0,0.7,0.7,1.4,1.4,1.4C141,421.8,141.6,421.2,141.7,420.6"/>
	<path class="st7" d="M146.7,426c-0.1-0.2-0.4-0.2-0.6-0.1c-0.5,0.2-1.1,0.5-1.4-0.1c-0.3-0.6,0.1-1.3,0.4-1.8
		c0.1-0.2,0-0.4-0.1-0.5c-0.2-0.1-0.4-0.1-0.6,0.1c-0.4,0.3-0.9,0.7-1.4,0.7c-0.3,0-0.7-0.3-0.5-0.7c0.1-0.2,0-0.5-0.2-0.6
		c-0.2-0.1-0.4,0-0.6,0.2c-0.5,0.7,0.1,1.6,0.8,1.9c0.4,0.1,0.8,0.1,1.2-0.1c-0.1,0.5-0.1,1,0.2,1.5c0.3,0.4,0.7,0.7,1.2,0.7
		c0.5,0,0.9-0.2,1.3-0.4C146.7,426.5,146.8,426.2,146.7,426"/>
	<rect x="131.5" y="294.3" style="clip-path:url(#SVGID_2_);fill:#FF9F50;" width="200.2" height="10.3"/>
	<path class="st7" d="M221.7,300.3h-86.5c-0.6,0-0.5,0.9,0.1,0.9h86.5C222.3,301.2,222.3,300.3,221.7,300.3"/>
	<path class="st7" d="M303.9,300.8h-76c-0.5,0-0.5,0.9,0.1,0.9h76C304.5,301.6,304.5,300.8,303.9,300.8"/>
	<rect x="131.5" y="304.6" class="st7" width="200.2" height="2.4"/>
	<polygon class="st7" points="133.1,306.9 141,459.6 149.2,459.6 149.2,306.9 	"/>
	<polygon class="st7" points="323.6,306.9 315.8,459.6 307.5,459.6 307.5,306.9 	"/>
	<polygon style="clip-path:url(#SVGID_2_);fill:#00668E;" points="165.9,294.3 156.5,245.9 224.9,245.9 236.6,289.9 268.8,289.9 
		268.1,294.3 	"/>
	<polygon style="clip-path:url(#SVGID_2_);fill:#B3D136;" points="156.5,245.9 236.6,289.9 224.9,245.9 	"/>
	<polygon style="clip-path:url(#SVGID_2_);fill:#E585A3;" points="268.8,289.9 164.7,289.9 165.9,294.3 268.1,294.3 	"/>
	<path class="st7" d="M164,263.8c-0.1-0.5-1-0.5-0.9,0.1c0.8,4.5,1.7,9,2.5,13.5c0.1,0.5,1,0.5,0.9-0.1
		C165.6,272.8,164.8,268.3,164,263.8"/>
	<path class="st7" d="M167.2,282.2c-0.1-0.5-0.9-0.5-0.9,0.1c0.3,1.8,0.6,3.6,0.9,5.4c0.1,0.5,0.9,0.5,0.9-0.1
		C167.8,285.8,167.5,284,167.2,282.2"/>
	<path class="st7" d="M169.3,277.9c0-0.2-0.2-0.4-0.5-0.4c-0.2,0-0.4,0.2-0.4,0.5c0.3,1.6,0.6,3.2,1,4.7c0,0.2,0.2,0.4,0.5,0.4
		c0.2,0,0.4-0.2,0.4-0.5C170,281.1,169.7,279.5,169.3,277.9"/>
	<path class="st7" d="M231.6,279.7c-1.5-6.2-3.1-12.4-4.6-18.5c-0.1-0.5-0.9-0.2-0.8,0.3c1.5,6.2,3.1,12.4,4.6,18.5
		C231,280.5,231.8,280.2,231.6,279.7"/>
	<path class="st7" d="M233.4,285.4c-0.3-0.8-0.5-1.7-0.8-2.5c-0.1-0.2-0.3-0.3-0.5-0.3c-0.2,0.1-0.3,0.3-0.3,0.6
		c0.3,0.8,0.5,1.7,0.8,2.5c0.1,0.2,0.3,0.3,0.5,0.3C233.4,285.9,233.5,285.6,233.4,285.4"/>
	<path style="clip-path:url(#SVGID_2_);fill:#E585A3;" d="M251.1,261.6c-0.1-2.4,1.2-4.5,1.8-6.8c0.5-2,0.5-4.2-0.8-5.9
		c-1.1-1.4-2.8-2.3-3.9-3.7c-1.5-1.9-1-4.2-1.1-6.4c-0.2-3.9-2.6-8-6.9-8.3c-1.8-0.1-3.6,0.5-4.7,2c-1,1.3-1.4,3.1-0.7,4.7
		c0.7,1.8,2.6,2.4,3.7,3.9c1.4,2-0.2,4.5-1,6.5c-0.7,1.8-0.9,3.7,0.3,5.3c1,1.2,2.3,2,3.6,2.8c1.3,0.9,2.7,1.9,3,3.6
		c0.3,1.8-0.4,3.6-0.9,5.3c-0.5,1.7-0.9,3.5-0.2,5.2c0.8,1.9,2.7,3.1,3.9,4.8c0.2,0.3,0.4,0.7,0.6,1.1c-0.2,0-0.4,0.2-0.4,0.4
		c0.1,0.5,0.3,1,0.5,1.3c0,0.1,0,0.1,0,0.2c-0.1,0.4,0.4,0.6,0.6,0.4c0.7,0.6,1.7,0.8,2.6,0.6c1.9-0.4,3.2-2.3,3.5-4.1
		C255.2,269.7,251.2,266.1,251.1,261.6 M253.7,274.3c-0.3,1.8-1.8,3.9-3.9,3.3c-0.4-0.1-0.8-0.3-1.1-0.6c0.4-3.8-4.9-5.5-5.1-9.2
		c-0.2-3.3,2.6-6.6,1.2-9.9c-1.2-2.8-4.5-3.4-6.3-5.6c-2.9-3.5,2.6-7.4,0.9-11.3c-0.7-1.6-2.5-2.3-3.6-3.6c-1-1.3-0.7-3.2,0.2-4.5
		c1.1-1.5,3.1-1.9,4.8-1.5c1.9,0.5,3.5,1.9,4.3,3.7c0.9,1.9,0.9,3.9,0.9,5.9c0,1,0.1,2.1,0.4,3.1c0.3,0.8,0.8,1.5,1.3,2.1
		c1.2,1.2,2.7,2.1,3.7,3.6c1.3,1.9,0.7,4.2,0,6.2c-0.7,2-1.6,4-1.4,6.2c0.2,2.1,1.2,4.1,2,6C253.2,270,254,272.2,253.7,274.3"/>
	<path style="clip-path:url(#SVGID_2_);fill:#00668E;" d="M294,242.6c-0.2,4.9-5.3,6.8-8.8,8.9c-2.1,1.2-3.8,2.8-4.6,5.1
		c-0.7,2-0.9,4.2-1.6,6.2c-0.7,1.9-1.9,3.5-3.7,4.5c-1.7,0.9-3.5,1.4-5.3,2.1c-1.8,0.7-3.6,1.7-4.6,3.5c-0.6,1.1-0.9,2.2-1.3,3.3
		c-0.4,1.1-1.1,2-1.9,2.8c-1.4,1.3-3.6,2.5-5.6,2.1c-0.9-0.2-1.7-0.7-1.8-1.6c0-0.2,0-0.4,0-0.5c-0.1-0.2-0.1-0.4,0.1-0.6
		c0,0,0.1-0.1,0.1-0.1c0.2-0.5,0.7-1,1.1-1.4c0.2-0.4,0.4-0.8,0.5-1.2c1.5-4.6-1.6-10,1.5-14.2c1.4-1.9,3.6-2.3,5.7-3.1
		c1-0.4,1.8-0.9,2.4-1.7c0.6-0.8,0.9-1.7,1.1-2.6c0.5-1.8,0.7-3.8,1.5-5.5c0.9-1.9,2.5-3,4.4-3.5c2.1-0.5,4.4-0.5,6.3-1.5
		c2.2-1.1,3.7-3.1,5.7-4.5c1.7-1.2,4.1-2,6.1-1.2C293.3,238.7,294.1,240.7,294,242.6"/>
	<path style="clip-path:url(#SVGID_2_);fill:#45BDA6;" d="M267.3,249.6c-0.1,1.1,0.2,2.2,0.5,3.2c0.6,2.1,1.3,4.1,0.3,6.2
		c-0.9,1.9-2.7,3.2-4.3,4.6c-0.9,0.7-1.8,1.5-2.4,2.4c-0.7,1-1.1,2.2-1.3,3.3c-0.1,0.5-0.1,1-0.2,1.4c0,0.6,0,1.2-0.1,1.8
		c-0.2,2.2-0.9,4.6-2.3,6.4c-1.1,1.5-3.1,2.7-4.9,1.6c-1.7-1-2.3-3.2-2.9-5c-0.3-1.1-0.6-2.4-0.4-3.6c0.2-1,0.6-1.9,1.3-2.6
		c1.4-1.6,3.1-2.9,3.5-5.1c0.4-2.4-0.5-4.8-1.1-7.2c-0.6-2.2-0.8-4.5,0.3-6.7c0.9-1.8,2.2-3.2,3.2-4.9c0.5-0.8,0.8-1.7,0.9-2.6
		c0.1-1.2-0.3-2.4-0.7-3.6c-0.6-1.8-1.1-3.8-0.3-5.7c0.8-1.9,2.8-2.3,4.6-1.6c1.1,0.5,2.1,1.2,3.1,1.9l3.4,2.3
		c1.6,1.1,3.8,2.3,4.2,4.5c0.4,2.3-1.5,4.2-2.9,5.8C268.1,247.5,267.5,248.5,267.3,249.6"/>
	<path style="clip-path:url(#SVGID_2_);fill:#E585A3;" d="M267,242.5c0.4-0.3-0.1-1-0.5-0.7c-1.3,0.9-2.5,1.9-3.8,2.8
		c-0.2-2.1,0.1-4.2,2-5.4c0.5-0.3,0-1-0.5-0.7c-2,1.2-2.5,3.4-2.4,5.6c-0.7-1-1.4-2-2.2-3c-0.3-0.4-1,0-0.7,0.5c1,1.4,2,2.8,3,4.2
		c0.2,1.6,0.6,3.2,0.5,4.8c-0.1,1.4-0.7,2.5-1.6,3.6c-0.1,0.1-0.3,0.3-0.4,0.4c-0.7-1.5-1.5-2.9-2.2-4.4c-0.2-0.5-1-0.2-0.8,0.3
		l2.4,4.7c-0.5,0.5-1,1.1-1.5,1.7c-0.7,1-1.1,2.2-1,3.4c0.1,1.2,0.4,2.4,0.6,3.6c-0.6-0.5-1.3-1.1-1.9-1.6c-0.2-0.1-0.5-0.1-0.6,0.1
		c-0.1,0.2-0.1,0.4,0.1,0.6c0.9,0.7,1.7,1.4,2.6,2.1c0,1.4-0.6,2.7-1.4,3.9c-0.4,0.7-0.9,1.3-1.4,2c-0.2-1.2-0.5-2.4-0.7-3.7
		c0-0.2-0.2-0.4-0.5-0.4c-0.2,0-0.4,0.2-0.4,0.5c0.3,1.5,0.6,3.1,0.9,4.6c-1,1.7-1.7,3.6-0.9,5.6c0.2,0.5,1,0.2,0.8-0.3
		c-1.1-2.9,1.3-5.5,2.8-7.8c0.7-1.1,1.4-2.3,1.6-3.7c0-0.3,0.1-0.7,0-1c0,0,0.1,0,0.1,0c1.3-0.8,2.7-1.7,4-2.5
		c0.2-0.1,0.2-0.4,0.1-0.6c-0.1-0.2-0.4-0.2-0.6-0.1c-1.2,0.8-2.5,1.5-3.7,2.3c-0.1-0.7-0.3-1.4-0.4-2.2c-0.3-1.4-0.3-2.7,0.5-4
		c0.4-0.7,1-1.3,1.6-1.9c0,0,0,0,0.1,0c1.8-0.6,3.5-1.1,5.3-1.7c0.5-0.2,0.2-1-0.3-0.8l-3.9,1.2c0.6-0.7,1.1-1.5,1.4-2.4
		c0.4-1.3,0.4-2.7,0.2-4.1c-0.1-0.7-0.2-1.5-0.3-2.3c0-0.1,0-0.2,0-0.2c0.1,0,0.1,0,0.2-0.1C264.3,244.5,265.7,243.5,267,242.5"/>
	<path style="clip-path:url(#SVGID_2_);fill:#F9B4C6;" d="M291.3,241.2c-1.5-1.2-3.5-0.6-4.8,0.6c-1.5,1.4-2.1,3.5-3.4,5
		c-2.2,2.6-6.2,2.1-8.8,4.2c-1.4,1.2-1.8,2.8-1.9,4.6c-0.1,1.9,0.1,3.9-1,5.6c-0.9,1.4-2.5,2.2-3.9,3c-1.5,0.9-2.9,1.8-3.9,3.2
		c-1.3,1.9-1.6,4.1-2.2,6.3c-0.5,2-1.3,4.2-3.2,5.3c-0.5,0.3,0,1,0.5,0.7c3.4-2,3.4-6.4,4.6-9.7c0.6-1.8,1.7-3.2,3.3-4.2
		c1.4-0.9,2.9-1.6,4.1-2.6c1.3-1.1,2.1-2.4,2.3-4.1c0.2-1.8-0.1-3.8,0.6-5.6c1.2-3.2,5.4-3.1,8.1-4.4c0.8-0.4,1.6-1,2.2-1.7
		c0.7-0.9,1.2-1.8,1.7-2.8c0.5-0.9,1.2-1.9,2.1-2.5c0.9-0.6,2.2-0.8,3.1-0.1C291.2,242.2,291.8,241.6,291.3,241.2"/>
	<polygon style="clip-path:url(#SVGID_2_);fill:#FFC661;" points="265.3,294.3 248.7,294.3 245,275.9 268.9,275.9 	"/>
	<path class="st7" d="M268.9,275.6h-24.2c-0.6,0-0.5,0.9,0.1,0.9H269C269.5,276.5,269.5,275.6,268.9,275.6"/>
	<path style="clip-path:url(#SVGID_2_);fill:#FFFFFF;" d="M229.4,194.4c0,17.5-12.2,32.2-28.5,36.1l-8.5,11.6l-10.5-12.1v0
		c-15.4-4.5-26.6-18.7-26.6-35.6c0-20.5,16.6-37.1,37.1-37.1C212.8,157.3,229.4,173.9,229.4,194.4"/>
	<rect x="164.2" y="179.4" style="clip-path:url(#SVGID_2_);fill:#FFFFFF;" width="56.3" height="33.1"/>
	<path style="clip-path:url(#SVGID_2_);fill:#FFC661;" d="M221.3,213.4h-58v-34.8h58V213.4z M165,211.7h54.6v-31.4H165V211.7z"/>
	<polygon style="clip-path:url(#SVGID_2_);fill:#FFC661;" points="206.4,205.1 206,210 209.3,208.3 212.4,210 211.5,205.1 	"/>
	<path style="clip-path:url(#SVGID_2_);fill:#FFC661;" d="M209.3,206.9c-3.6,0-6.5-2.9-6.5-6.5c0-3.6,2.9-6.5,6.5-6.5
		c3.6,0,6.5,2.9,6.5,6.5C215.8,204,212.9,206.9,209.3,206.9 M209.3,195.8c-2.6,0-4.6,2.1-4.6,4.6c0,2.6,2.1,4.6,4.6,4.6
		c2.6,0,4.6-2.1,4.6-4.6C214,197.8,211.9,195.8,209.3,195.8"/>
	<path style="clip-path:url(#SVGID_2_);fill:#F9B4C6;" d="M214.9,200.4c0,3.1-2.5,5.6-5.6,5.6c-3.1,0-5.6-2.5-5.6-5.6
		c0-3.1,2.5-5.6,5.6-5.6C212.4,194.8,214.9,197.3,214.9,200.4"/>
	<path style="clip-path:url(#SVGID_2_);fill:#E585A3;" d="M212.4,200.4c0,2.2-1.8,4-4,4c-2.2,0-4-1.8-4-4c0-2.2,1.8-4,4-4
		C210.7,196.4,212.4,198.2,212.4,200.4"/>
	<rect x="170.4" y="183.2" style="clip-path:url(#SVGID_2_);fill:#394C9E;" width="45.4" height="2.5"/>
	<rect x="170.4" y="189.7" style="clip-path:url(#SVGID_2_);fill:#394C9E;" width="28.9" height="1.8"/>
	<rect x="170.4" y="194.9" style="clip-path:url(#SVGID_2_);fill:#394C9E;" width="28.9" height="1.8"/>
	<rect x="170.4" y="199" style="clip-path:url(#SVGID_2_);fill:#394C9E;" width="28.9" height="1.8"/>
	<rect x="170.4" y="204.1" style="clip-path:url(#SVGID_2_);fill:#394C9E;" width="28.9" height="1.8"/>
	<path style="clip-path:url(#SVGID_2_);fill:#FFC661;" d="M192.1,163.6c0-1.1-1.7-0.9-1.7,0.1c0.1,3.8,0.1,7.6,0.2,11.4
		c0,1.1,1.7,0.9,1.7-0.1C192.2,171.2,192.2,167.4,192.1,163.6"/>
	<path style="clip-path:url(#SVGID_2_);fill:#FFC661;" d="M185.6,174.5l-4.7-5.6c-0.3-0.4-0.8-0.5-1.2-0.2c-0.4,0.2-0.5,0.8-0.2,1.2
		l4.7,5.6c0.3,0.4,0.8,0.5,1.2,0.2C185.8,175.5,185.9,174.9,185.6,174.5"/>
	<path style="clip-path:url(#SVGID_2_);fill:#FFC661;" d="M203.8,168.6c-0.4-0.2-0.9,0-1.1,0.4c-1,1.9-2.1,3.8-3.1,5.7
		c-0.2,0.4,0,0.9,0.4,1.1c0.4,0.2,0.9,0,1.1-0.4l3.1-5.7C204.5,169.4,204.2,168.8,203.8,168.6"/>
</g>
</svg>
