<svg width="35" height="36" viewBox="0 0 35 36" fill="none" xmlns="http://www.w3.org/2000/svg">
<path d="M18.6999 26.9975C20.5999 26.9975 22.5 26.9975 24.4 26.9975C25.8 26.9975 26.1999 27.4975 26.1999 28.8975C26.1999 32.0975 25.3 33.4975 22.3 34.3975C20.3 35.0975 18.0999 35.1975 15.9999 34.8975C12.3999 34.3975 9.69994 33.0975 9.69994 29.7975C9.69994 27.2975 9.59991 24.8975 9.79991 22.3975C9.99991 19.7975 11.5999 18.3975 14.1999 18.2975C16.5999 18.2975 18.9 18.2975 21.3 18.2975C24.3 18.1975 26.7 15.7975 26.8 12.7975C26.8 9.3975 26.9 9.29752 30.4 9.59752C32.1 9.79752 33.2 10.7975 33.8 12.2975C35.3 16.0975 35.3999 19.8975 33.6999 23.6975C32.8999 25.3975 31.5999 26.2975 29.6999 26.2975C26.5999 26.2975 23.5 26.2975 20.4 26.2975C19.8 26.2975 19.2999 26.3975 18.6999 26.3975C18.5999 26.5975 18.6999 26.7975 18.6999 26.9975ZM24.4 30.6975C23.4 30.0975 22.9 29.5975 22.4 29.5975C22 29.5975 21.3 30.3975 21.3 30.6975C21.4 31.1975 21.9999 31.8975 22.4999 31.9975C22.9999 32.0975 23.5 31.3975 24.4 30.6975Z" fill="black"/>
<path d="M16.8 8.39833C15.1 8.39833 13.3999 8.39833 11.6999 8.39833C9.39994 8.39833 9.29992 8.29834 9.29992 5.99834C9.29992 2.29834 10.0999 1.19832 13.6999 0.798324C16.1999 0.498324 18.8 0.59833 21.4 0.89833C24.2 1.19833 25.5999 2.99832 25.5999 5.79832C25.5999 7.99832 25.5999 10.0983 25.5999 12.2983C25.4999 14.8983 23.4 16.8983 20.9 16.8983C18.6 16.8983 16.2 16.8983 13.9 16.9983C10.6 17.0983 8.69993 19.0983 8.49993 22.3983C8.39993 23.4983 8.19994 25.1983 7.69994 25.3983C6.09994 25.9983 4.19995 25.7983 2.89995 24.3983C2.39995 23.7983 1.89994 23.0983 1.69994 22.2983C0.699939 19.2983 0.499952 16.2983 1.39995 13.1983C2.19995 10.4983 3.7999 9.19834 6.5999 9.09834C9.4999 8.99834 12.2999 9.09834 15.1999 9.09834C15.7999 9.09834 16.3999 8.99834 16.9999 8.99834C16.7999 8.79834 16.8 8.59833 16.8 8.39833ZM12.9999 6.39833C13.5999 5.59833 14.1999 5.09835 14.0999 4.69835C13.9999 4.19835 13.3999 3.79833 12.9999 3.39833C12.5999 3.79833 11.8999 4.29832 11.7999 4.79832C11.6999 5.09832 12.3999 5.59833 12.9999 6.39833Z" fill="black"/>
</svg>
