<svg width="15" height="17" viewBox="0 0 15 17" fill="none" xmlns="http://www.w3.org/2000/svg">
<path d="M7.79993 0.900391C10.0999 0.900391 12.4 0.900391 14.7 0.900391H14.7999C14.8999 0.900391 14.9 0.900366 14.9 1.00037C14.9 1.20037 14.9 1.40037 14.9 1.50037C14.9 1.80037 14.7999 2.20037 14.7999 2.50037C14.7999 2.80037 14.7 3.20037 14.7 3.50037C14.7 3.80037 14.5999 4.20037 14.5999 4.50037C14.5999 4.80037 14.4999 5.10037 14.4999 5.50037C14.4999 5.80037 14.4 6.20037 14.4 6.50037C14.4 6.80037 14.2999 7.20037 14.2999 7.50037C14.2999 7.80037 14.2 8.20037 14.2 8.50037C14.2 8.80037 14.0999 9.20037 14.0999 9.50037C14.0999 9.80037 13.9999 10.2004 13.9999 10.5004C13.9999 10.8004 13.9 11.2004 13.9 11.5004C13.9 11.8004 13.7999 12.2004 13.7999 12.5004C13.7999 12.8004 13.7 13.2004 13.7 13.5004C13.7 13.8004 13.5999 14.2004 13.5999 14.5004C13.5999 14.8004 13.4999 15.1004 13.4999 15.4004C13.4999 15.5004 13.5 15.5004 13.4 15.5004C13.1 15.6004 12.8999 15.6004 12.5999 15.7004C10.9999 16.1004 9.39993 16.6004 7.79993 17.0004C7.69993 17.0004 7.69991 17.0004 7.59991 17.0004C5.79991 16.5004 3.89991 16.0004 2.09991 15.5004C1.89991 15.5004 1.89996 15.5004 1.89996 15.3004C1.89996 15.0004 1.79993 14.6004 1.79993 14.3004C1.79993 14.0004 1.69995 13.6004 1.69995 13.3004C1.69995 13.0004 1.59991 12.6004 1.59991 12.3004C1.59991 12.0004 1.49994 11.6004 1.49994 11.3004C1.49994 11.0004 1.39996 10.6004 1.39996 10.3004C1.39996 10.0004 1.29993 9.70035 1.29993 9.30035C1.29993 9.00035 1.19995 8.60035 1.19995 8.30035C1.19995 8.00035 1.09991 7.70035 1.09991 7.30035C1.09991 7.00035 0.999939 6.60035 0.999939 6.30035C0.999939 6.00035 0.899963 5.70035 0.899963 5.30035C0.899963 5.00035 0.799927 4.60035 0.799927 4.30035C0.799927 4.00035 0.699951 3.70035 0.699951 3.30035C0.699951 3.00035 0.599915 2.60035 0.599915 2.30035C0.599915 2.00035 0.499939 1.60035 0.499939 1.30035C0.499939 1.20035 0.499939 1.10037 0.499939 1.00037C0.499939 0.900366 0.499915 0.900391 0.599915 0.900391H0.699951C3.29995 0.900391 5.49993 0.900391 7.79993 0.900391ZM12.2999 3.80035C12.1999 3.80035 12.1999 3.80035 12.0999 3.80035C9.19991 3.80035 6.39994 3.80035 3.49994 3.80035H3.39996C3.29996 3.80035 3.29993 3.80039 3.29993 3.90039C3.29993 4.20039 3.29996 4.50038 3.39996 4.70038C3.39996 5.20038 3.49994 5.60034 3.49994 6.10034C3.49994 6.60034 3.59991 7.10037 3.59991 7.50037C3.59991 8.00037 3.69995 8.40039 3.69995 8.90039C3.69995 9.10039 3.69996 9.10034 3.89996 9.10034C5.79996 9.10034 7.69995 9.10034 9.69995 9.10034H9.79993C9.89993 9.10034 9.89996 9.10038 9.89996 9.20038C9.89996 9.30038 9.89996 9.40037 9.89996 9.50037C9.89996 9.80037 9.79993 10.2004 9.79993 10.5004C9.79993 10.8004 9.69995 11.0004 9.69995 11.3004C9.69995 11.4004 9.69991 11.4004 9.59991 11.4004C8.99991 11.6004 8.39993 11.7004 7.79993 11.9004C7.79993 11.9004 7.69991 11.9004 7.59991 11.9004C7.39991 11.9004 7.19991 11.8004 7.09991 11.8004C6.69991 11.7004 6.29996 11.6004 5.89996 11.5004C5.79996 11.5004 5.79993 11.5004 5.79993 11.3004C5.79993 11.2004 5.79993 11.1004 5.79993 11.0004C5.79993 10.7004 5.69995 10.4003 5.69995 10.1003C5.69995 10.0003 5.69991 10.0004 5.59991 10.0004C5.09991 10.0004 4.59991 10.0004 4.09991 10.0004H3.99994V10.1003C3.99994 10.2003 3.99994 10.4004 3.99994 10.5004C4.09994 11.2004 4.09995 11.9003 4.19995 12.6003C4.19995 12.8003 4.19996 12.8004 4.39996 12.8004C5.49996 13.1004 6.59993 13.4004 7.79993 13.7004C7.89993 13.7004 7.99991 13.7004 8.09991 13.7004C8.79991 13.5004 9.49995 13.3003 10.2 13.1003C10.6 13.0003 11.0999 12.9004 11.4999 12.7004C11.5999 12.7004 11.5999 12.7003 11.5999 12.6003C11.5999 12.5003 11.5999 12.3004 11.5999 12.2004C11.5999 11.8004 11.7 11.4004 11.7 11.0004C11.7 10.6004 11.7999 10.2004 11.7999 9.80035C11.7999 9.40035 11.9 9.00034 11.9 8.60034C11.9 8.20034 11.9999 7.80039 11.9999 7.40039V7.30035C11.8999 7.30035 11.8999 7.30035 11.7999 7.30035C9.79993 7.30035 7.79995 7.30035 5.69995 7.30035H5.59991C5.49991 7.30035 5.49994 7.30038 5.49994 7.20038C5.49994 7.00038 5.49994 6.80038 5.49994 6.70038C5.49994 6.40038 5.39996 6.00038 5.39996 5.70038C5.39996 5.50038 5.39991 5.50037 5.59991 5.50037C7.69991 5.50037 9.89994 5.50037 11.9999 5.50037H12.0999C12.1999 5.50037 12.2 5.50039 12.2 5.40039C12.2 5.30039 12.2 5.30038 12.2 5.20038C12.2 4.80038 12.2999 4.40039 12.2999 3.90039C12.2999 4.00039 12.2999 3.90035 12.2999 3.80035Z" fill="black"/>
</svg>
