<svg width="45" height="45" viewBox="0 0 45 45" fill="none" xmlns="http://www.w3.org/2000/svg">
    <path
        d="M30.5529 35.8264H14.447C13.0489 35.8249 11.7084 35.2688 10.7198 34.2802C9.73117 33.2915 9.17509 31.9511 9.17358 30.5529V14.447C9.17509 13.0489 9.73117 11.7084 10.7198 10.7198C11.7084 9.73117 13.0489 9.17509 14.447 9.17358H30.5529C31.9511 9.17509 33.2915 9.73117 34.2802 10.7198C35.2688 11.7084 35.8249 13.0489 35.8264 14.447V30.5529C35.8249 31.9511 35.2688 33.2915 34.2802 34.2802C33.2915 35.2688 31.9511 35.8249 30.5529 35.8264ZM14.447 11.283C13.6081 11.2839 12.8039 11.6175 12.2107 12.2107C11.6175 12.8039 11.2839 13.6081 11.283 14.447V30.5529C11.2839 31.3918 11.6175 32.1961 12.2107 32.7893C12.8039 33.3824 13.6081 33.7161 14.447 33.717H30.5529C31.3918 33.7161 32.1961 33.3824 32.7893 32.7893C33.3824 32.1961 33.7161 31.3918 33.717 30.5529V14.447C33.7161 13.6081 33.3824 12.8039 32.7893 12.2107C32.1961 11.6175 31.3918 11.2839 30.5529 11.283H14.447Z"
        fill="currentColor" />
    <path
        d="M27.4721 28.5267C27.3335 28.5269 27.1963 28.4996 27.0683 28.4465C26.9403 28.3934 26.8241 28.3155 26.7263 28.2174L16.7824 18.2738C16.5893 18.075 16.4822 17.8083 16.4842 17.5312C16.4862 17.2541 16.5971 16.989 16.793 16.793C16.989 16.5971 17.2541 16.4862 17.5312 16.4842C17.8083 16.4822 18.075 16.5893 18.2738 16.7824L28.2177 26.7263C28.3652 26.8738 28.4656 27.0617 28.5063 27.2662C28.547 27.4707 28.5262 27.6828 28.4464 27.8755C28.3666 28.0681 28.2315 28.2329 28.0581 28.3488C27.8848 28.4647 27.681 28.5266 27.4724 28.5267H27.4721Z"
        fill="currentColor" />
    <path
        d="M17.5279 28.5267C17.3194 28.5266 17.1155 28.4647 16.9422 28.3488C16.7688 28.2329 16.6337 28.0681 16.554 27.8755C16.4742 27.6828 16.4533 27.4707 16.494 27.2662C16.5347 27.0617 16.6352 26.8738 16.7826 26.7263L26.7262 16.7824C26.925 16.5893 27.1917 16.4822 27.4688 16.4842C27.7458 16.4862 28.011 16.5971 28.2069 16.793C28.4029 16.989 28.5138 17.2541 28.5158 17.5312C28.5178 17.8083 28.4107 18.075 28.2176 18.2738L18.2737 28.2177C18.1759 28.3158 18.0596 28.3936 17.9316 28.4466C17.8037 28.4997 17.6665 28.5269 17.5279 28.5267Z"
        fill="currentColor" />
</svg>