<svg width="26" height="26" viewBox="0 0 26 26" fill="none" xmlns="http://www.w3.org/2000/svg">
    <path
        d="M12.9984 0C5.82075 0 7.50177e-06 5.96773 7.50177e-06 13.3295C-0.002925 16.1234 0.853968 18.8476 2.44958 21.1171C4.0452 23.3866 6.29884 25.0866 8.892 25.9769C9.542 26.0997 9.77925 25.6881 9.77925 25.3346C9.77925 25.0177 9.76788 24.1796 9.76138 23.0677C6.14575 23.8726 5.382 21.2804 5.382 21.2804C4.79213 19.7403 3.93901 19.3304 3.93901 19.3304C2.75763 18.5039 4.02675 18.5205 4.02675 18.5205C5.33163 18.6151 6.01738 19.8946 6.01738 19.8946C7.17763 21.9309 9.061 21.3434 9.802 21.0016C9.919 20.1403 10.2554 19.5528 10.6275 19.2192C7.7415 18.8823 4.706 17.7389 4.706 12.6325C4.706 11.177 5.213 9.98715 6.045 9.05449C5.91013 8.7176 5.46488 7.36175 6.17175 5.52795C6.17175 5.52795 7.26375 5.16949 9.74675 6.89376C10.8075 6.59771 11.902 6.44703 13.0016 6.44568C14.1013 6.44791 15.1958 6.59914 16.2565 6.89542C18.7379 5.17115 19.8282 5.52961 19.8282 5.52961C20.5367 7.36507 20.0915 8.71926 19.9582 9.05614C20.7919 9.98881 21.294 11.1787 21.294 12.6341C21.294 17.7538 18.2552 18.8807 15.3595 19.2109C15.8259 19.6225 16.2419 20.4357 16.2419 21.6787C16.2419 23.461 16.2256 24.8982 16.2256 25.3346C16.2256 25.6914 16.4596 26.1063 17.1194 25.9752C19.71 25.0829 21.9609 23.3822 23.5543 21.1133C25.1477 18.8443 26.0031 16.1216 26 13.3295C26 5.96773 20.1792 0 12.9984 0Z"
        fill="#5C6BC0" />

</svg>