<svg width="18" height="16" viewBox="0 0 18 16" fill="none" xmlns="http://www.w3.org/2000/svg">
<path d="M8.985 15.0536C8.985 15.0536 1 10.582 1 5.15221C1.00016 4.19252 1.3327 3.2625 1.94107 2.52028C2.54944 1.77806 3.39609 1.26945 4.33708 1.08093C5.27807 0.8924 6.25531 1.03559 7.10266 1.48616C7.95001 1.93673 8.61515 2.66686 8.98501 3.55241L8.98499 3.55242C9.35485 2.66686 10.02 1.93673 10.8673 1.48616C11.7147 1.03559 12.6919 0.892401 13.6329 1.08093C14.5739 1.26945 15.4206 1.77806 16.0289 2.52028C16.6373 3.2625 16.9698 4.19252 16.97 5.15221C16.97 10.582 8.985 15.0536 8.985 15.0536Z" stroke="#1A6577" stroke-linecap="round" stroke-linejoin="round"/>
</svg>
