<svg width="62" height="52" viewBox="0 0 62 52" fill="none" xmlns="http://www.w3.org/2000/svg">
<path d="M27.3406 43.3519H1V1H61V43.3519H31.6048" stroke="#373449"/>
<path d="M49.3871 1.96265V5.81282M1.96774 6.77536H60.0323H1.96774ZM57.129 1.96265V5.81282V1.96265ZM53.2581 1.96265V5.81282V1.96265Z" stroke="#373449" stroke-linecap="round" stroke-linejoin="round"/>
<path d="M29.457 39.5018H4.87097V10.6255H57.129V39.5018H33.8621" stroke="#373449"/>
<path d="M20.3548 23.1386V38.5393M5.83871 31.8015H10.6471L20.3397 22.176L28.0968 28.0096V38.5393L5.83871 31.8015ZM54.6477 22.176H56.1613H54.6477ZM10.6774 32.764V38.5393V32.764Z" stroke="#373449" stroke-linecap="round" stroke-linejoin="round"/>
<path d="M39.7097 19.2883V32.532" stroke="#373449" stroke-width="2"/>
<path d="M49.3871 34.749V38.5393" stroke="#373449" stroke-linejoin="round"/>
<path d="M10.6174 33.5946C11.6863 33.5946 12.5529 32.7327 12.5529 31.6695C12.5529 30.6063 11.6863 29.7444 10.6174 29.7444C9.54846 29.7444 8.68192 30.6063 8.68192 31.6695C8.68192 32.7327 9.54846 33.5946 10.6174 33.5946Z" fill="#373449"/>
<path d="M33.3934 23.7626L39.6188 19.4688L48.8427 23.2588" stroke="#373449" stroke-width="2" stroke-linecap="round" stroke-linejoin="round"/>
<path d="M39.6691 25.6344C42.0357 25.6344 43.9542 23.7261 43.9542 21.3722C43.9542 19.0183 42.0357 17.1101 39.6691 17.1101C37.3024 17.1101 35.3839 19.0183 35.3839 21.3722C35.3839 23.7261 37.3024 25.6344 39.6691 25.6344Z" fill="#373449"/>
<path d="M20.3394 24.2657C21.4083 24.2657 22.2748 23.4038 22.2748 22.3406C22.2748 21.2774 21.4083 20.4155 20.3394 20.4155C19.2704 20.4155 18.4039 21.2774 18.4039 22.3406C18.4039 23.4038 19.2704 24.2657 20.3394 24.2657Z" fill="#373449"/>
<path d="M32.0761 35.0362L24.4868 48.1104C23.9507 49.0341 24.2666 50.2073 25.1952 50.7405C26.1238 51.2738 27.303 50.9592 27.8392 50.0355L35.4285 36.9613L32.0761 35.0362ZM41.4893 10.6232C43.6729 10.679 45.8759 11.2652 47.9005 12.428C54.3796 16.1486 56.6009 24.3924 52.8602 30.8366C49.1196 37.2808 40.8312 39.4902 34.3522 35.7696C27.8731 32.049 25.6518 23.8052 29.3925 17.361C31.9642 12.9306 36.6854 10.499 41.4893 10.6232ZM42.2151 15.4961C38.8473 15.0802 35.3694 16.6603 33.5659 19.7673C31.1612 23.9101 32.6065 29.2267 36.7715 31.6187C40.9366 34.0104 46.2821 32.573 48.6868 28.4302C51.0916 24.2875 49.6463 19.0308 45.4812 16.6391C44.4399 16.0411 43.3377 15.6345 42.2151 15.4961Z" fill="#FEA219" stroke="#373449" stroke-linecap="round" stroke-linejoin="round"/>
</svg>
