<svg width="46" height="28" viewBox="0 0 46 28" fill="none" xmlns="http://www.w3.org/2000/svg">
<path d="M24.8427 4.5111L27.4694 1.25325C27.9323 0.678875 28.8229 0.549323 29.4661 0.962761L32.9341 3.1915C33.5774 3.60494 33.7224 4.40011 33.2594 4.97449L30.6328 8.23234" fill="#FF5A67"/>
<path d="M24.8427 4.5111L27.4694 1.25325C27.9323 0.678875 28.8229 0.549323 29.4661 0.962761L32.9341 3.1915C33.5774 3.60494 33.7224 4.40011 33.2594 4.97449L30.6328 8.23234" stroke="#373449"/>
<path d="M24.8746 4.53247L12.3374 20.0031L11.0624 27.0458L18.1376 23.7309L30.6628 8.19467L24.8746 4.53247Z" fill="#FEA219" stroke="#373449"/>
<path d="M13.0176 19.5085L19.2601 23.5207M38.4688 0.905568C39.6424 0.905568 42.2573 0.819656 42.2573 2.44747C42.2573 5.46591 42.2573 8.12765 42.2573 10.2614C42.2573 11.1919 44.7074 12.8453 44.7074 13.3639C44.7074 13.8825 42.2192 15.1469 42.2192 16.5097C42.2192 17.8723 42.2192 23.4645 42.2192 24.3685C42.2192 26.0935 39.0752 25.898 38.4688 25.898M7.19603 0.905568C6.02243 0.905568 3.40753 0.819656 3.40753 2.44747C3.40753 5.46591 3.40753 8.12765 3.40753 10.2614C3.40753 11.1919 0.957436 12.8453 0.957436 13.3639C0.957436 13.8825 3.44566 15.1469 3.44566 16.5097C3.44566 17.8723 3.44566 23.4645 3.44566 24.3685C3.44566 26.0935 6.58967 25.898 7.19603 25.898V0.905568Z" stroke="#373449"/>
<path d="M7.19602 25.904C6.02241 25.904 3.40752 25.9899 3.40752 24.3621C3.40752 21.3437 3.40752 18.6819 3.40752 16.5482C3.40752 15.6177 0.957419 13.9643 0.957419 13.4457C0.957419 12.9271 3.44565 11.6627 3.44565 10.2999C3.44565 8.93723 3.44565 3.3451 3.44565 2.44104C3.44565 0.716043 6.58966 0.911539 7.19601 0.911539M38.4688 25.904C39.6424 25.904 42.2573 25.9899 42.2573 24.3621C42.2573 21.3437 42.2573 18.6819 42.2573 16.5482C42.2573 15.6177 44.7074 13.9643 44.7074 13.4457C44.7074 12.9271 42.2192 11.6627 42.2192 10.2999C42.2192 8.93723 42.2192 3.3451 42.2192 2.44104C42.2192 0.716039 39.0752 0.911537 38.4688 0.911537L38.4688 25.904Z" stroke="#373449"/>
</svg>
