<svg width="457" height="327" viewBox="0 0 457 327" fill="none" xmlns="http://www.w3.org/2000/svg">
<g clip-path="url(#clip0_0_46)">
<path opacity="0.8" d="M276.778 321.607L239.784 321.672C239.254 321.672 238.815 321.137 238.785 320.476C238.755 319.815 239.145 319.24 239.669 319.195L276.513 315.877C279.504 315.606 282.23 316.768 282.305 318.479C282.39 320.196 279.784 321.602 276.778 321.607Z" fill="#F37E2E"/>
<path d="M228.879 316.357C230.152 316.037 232.494 309.044 232.494 309.044C232.494 309.044 205.781 300.016 194.446 294.13L178.663 312.433C198.941 317.493 227.935 316.592 228.879 316.357Z" fill="#EF995A"/>
<path d="M224.77 306.272C231.345 307.979 241.806 303.714 243.758 304.14C245.711 304.565 253.884 308.825 255.842 310.956C257.794 313.088 264.725 319.691 263.481 320.116C262.238 320.541 253.53 314.15 252.466 313.939C251.398 313.724 250.868 315.216 242.161 316.922C233.453 318.624 222.927 314.225 222.927 314.225L224.77 306.272Z" fill="#EF995A"/>
<path d="M235.23 312.878C235.23 312.878 245.356 310.321 246.604 310.746C247.848 311.172 255.397 312.878 260.64 318.844C255.667 317.353 248.557 316.928 246.604 316.928C244.647 316.928 235.23 312.878 235.23 312.878Z" fill="#E2833C"/>
<path d="M237.652 308.614C241.976 314.155 252.956 315.857 254.619 317.773C256.281 319.691 250.619 318.874 247.633 318.624C240.029 317.983 234.716 321.077 228.565 319.155C222.408 317.238 221.02 312.658 221.02 312.658L237.652 308.614Z" fill="#EF995A"/>
<path d="M156.594 210.286C137.086 219.896 128.158 226.923 122.102 253.129C116.045 279.33 116.025 303.144 119.216 321.677C140.87 322.308 202.63 321.322 202.63 321.322C202.63 321.322 201.447 287.713 195.105 257.603C189.049 228.845 180.441 217.659 173.106 212.543C165.781 207.428 156.594 210.286 156.594 210.286Z" fill="#47BEA7"/>
<path opacity="0.3" d="M161.317 299.465C154.327 292.438 156.215 244.821 144.74 223.409L123.38 263.354L116.923 296.592C116.869 306.191 117.588 315.05 118.916 322.793C118.991 323.233 119.395 323.529 119.829 323.494C137.46 321.948 138.444 314.265 194.766 305.742C196.099 305.536 166.076 304.245 161.317 299.465Z" fill="#243E4D"/>
<path d="M154.741 210.296C152.27 216.077 157.293 223.649 165.227 229.611C173.161 235.576 177.979 232.308 177.555 227.623C177.13 222.939 176.706 217.964 174.863 214.981C173.021 211.998 158.286 209.44 158.286 209.44C158.286 209.44 155.166 209.3 154.741 210.296Z" fill="white"/>
<path d="M164.163 181.317L156.599 210.286C155.855 212.223 156.06 214.4 157.148 216.167C160.229 221.157 166.855 230.741 171.603 229.47C177.979 227.763 173.73 215.837 173.73 215.837L182.233 185.797L164.163 181.317Z" fill="#EF995A"/>
<path d="M175.752 183.104L168.198 180.041L165.931 185.957C166.97 211.132 170.17 221.412 175.083 224.275C175.348 220.391 173.725 215.837 173.725 215.837L179.887 193.465L175.752 183.104Z" fill="#E2833C"/>
<path d="M196.733 194.456C195.26 204.455 191.331 213.024 184.206 211.968C177.081 210.912 164.848 202.543 166.32 192.548C167.794 182.549 183.786 170.577 190.911 171.632C198.037 172.683 198.206 184.455 196.733 194.456Z" fill="#EF995A"/>
<path d="M142.508 232.038C143.077 229.766 134 228.409 132.557 230.251C118.281 248.449 96.0774 297.613 101.061 306.497C106.797 316.722 168.622 303.294 169.896 302.973C171.168 302.653 167.663 293.069 167.663 293.069C167.663 293.069 133.021 293.709 127.175 289.765C145.349 255.571 138.204 249.245 142.508 232.038Z" fill="#EF995A"/>
<path d="M138.998 221.813C124.004 228.55 107.757 272.303 107.757 272.303C107.757 272.303 111.581 273.264 124.014 277.418C129.182 279.145 134.189 280.746 134.189 280.746C134.189 280.746 146.094 265.266 149.838 253.134C154.661 237.498 148.245 217.659 138.998 221.813Z" fill="#47BEA7"/>
<path d="M109.364 268.194C123.39 270.006 131.768 274.901 136.027 278.244C136.666 277.353 137.44 276.252 138.299 274.991C135.348 272.218 128.932 267.278 119.595 265.972C115.805 265.441 112.919 265.096 110.727 264.881C110.213 266.107 109.758 267.223 109.364 268.194Z" fill="white"/>
<path d="M112.585 260.576C112.345 261.122 112.11 261.657 111.886 262.173C124.203 261.677 136.027 267.694 139.013 271.367C139.362 271.798 139.672 272.178 139.947 272.518C140.256 272.043 140.571 271.557 140.885 271.052C138.863 269.055 135.273 265.852 131.643 264.265C124.203 261.012 113.543 260.606 112.585 260.576Z" fill="white"/>
<path opacity="0.6" d="M195.191 305.596H179.462L177.126 276.162H197.742L195.191 305.596Z" fill="#243E4D"/>
<path d="M165.756 293.169C170.115 293.063 177.235 288.054 179.677 286.672C182.123 285.286 195.935 282.303 196.574 283.795C197.213 285.286 184.989 288.374 184.989 288.374L194.127 288.8C194.127 288.8 196.784 292.848 196.998 295.511C197.213 298.174 196.149 302.008 196.149 302.008L192.109 298.384C192.109 298.384 188.814 300.196 184.67 302.643C180.525 305.091 173.086 303.604 169.901 302.963C166.71 302.323 159.275 299.98 159.275 299.98L165.756 293.169Z" fill="#EF995A"/>
<path d="M108.795 291.787C108.795 291.787 115.845 287.703 122.93 288.7C126.989 289.27 127.429 289.931 127.179 289.765C128.058 288.114 128.872 286.527 129.636 285.006C125.946 285.171 116.484 286.172 108.795 291.787Z" fill="#E2833C"/>
<path d="M325.485 240.431V312.974C325.485 315.386 323.219 317.343 320.422 317.343H305.229C302.637 317.343 300.535 319.155 300.535 321.392H322.4C327.109 321.392 330.923 318.104 330.923 314.039V240.431H325.485Z" fill="#47BEA7"/>
<path opacity="0.8" d="M314.371 302.558L311.959 302.098C310.366 301.792 309.353 300.421 309.707 299.05L328.616 225.416C328.971 224.045 330.558 223.169 332.152 223.474L334.563 223.935C336.156 224.24 337.169 225.611 336.815 226.983L317.906 300.616C317.556 301.988 315.964 302.863 314.371 302.558Z" fill="#F37E2E"/>
<path d="M315.031 302.683L314.746 302.628C313.517 302.393 312.734 301.332 313.003 300.276L332.207 225.501C332.481 224.44 333.709 223.765 334.938 224L335.223 224.055C336.451 224.29 337.235 225.351 336.965 226.407L317.761 301.182C317.492 302.243 316.264 302.919 315.031 302.683Z" fill="#47BEA7"/>
<path d="M454.637 326.772H46.3707C44.8681 326.772 43.6498 325.551 43.6498 324.044C43.6498 322.538 44.8681 321.317 46.3707 321.317H454.637C456.141 321.317 457.359 322.538 457.359 324.044C457.359 325.551 456.141 326.772 454.637 326.772Z" fill="#1A6577"/>
<path d="M167.439 168.825C152.719 177.974 162.036 187.874 158.122 204.865C160.528 205.692 163.149 200.941 164.827 197.208C166.505 193.475 167.993 188.059 168.552 188.244C169.111 188.429 170.04 196.833 170.04 196.833L172.277 197.954C172.277 197.954 175.442 192.353 175.258 191.042C175.073 189.735 172.462 183.384 175.632 180.397C177.669 178.475 186.063 182.639 186.063 182.639L177.864 170.872L167.439 168.825Z" fill="#EF995A"/>
<path d="M164.643 166.022C149.923 175.171 162.036 187.874 158.122 204.865C160.528 205.692 163.149 200.941 164.827 197.208C166.505 193.475 167.993 188.059 168.552 188.244C169.111 188.429 170.04 196.833 170.04 196.833L172.277 197.954C172.277 197.954 175.442 192.353 175.258 191.042C175.073 189.735 172.462 183.384 175.632 180.397C177.669 178.475 186.063 182.639 186.063 182.639L177.864 170.872L164.643 166.022Z" fill="#8A5E3C"/>
<path d="M199.67 178.724C198.926 187.689 185.06 184.886 178.619 176.858C172.472 169.2 167.414 174.481 161.293 177.043C151.047 181.337 162.596 156.502 183.277 160.422C198.791 163.365 200.164 172.759 199.67 178.724Z" fill="#8A5E3C"/>
<path d="M168.857 188.244C169.491 191.587 168.248 194.635 166.076 195.051C163.904 195.466 161.627 193.094 160.988 189.751C160.353 186.407 161.597 183.359 163.769 182.944C165.941 182.528 168.223 184.9 168.857 188.244Z" fill="#EF995A"/>
<path d="M114.056 85.2263H71.4746C71.0752 85.2263 70.7503 84.9013 70.7503 84.5009V60.7119C70.7503 60.3115 71.0752 59.9862 71.4746 59.9862H114.056C114.455 59.9862 114.78 60.3115 114.78 60.7119V84.5009C114.78 84.9059 114.455 85.2263 114.056 85.2263Z" fill="#243E4D"/>
<path opacity="0.8" d="M113.137 84.1151H72.3934C72.0186 84.1151 71.719 83.8148 71.719 83.4397V61.7779C71.719 61.4025 72.0239 61.1022 72.3934 61.1022H113.137C113.511 61.1022 113.811 61.4075 113.811 61.7779V83.4397C113.811 83.8148 113.511 84.1151 113.137 84.1151Z" fill="white"/>
<path opacity="0.5" d="M111.889 82.709H73.637C73.2176 82.709 72.8781 82.3686 72.8781 81.9482V63.2794C72.8781 62.859 73.2176 62.5187 73.637 62.5187H111.889C112.308 62.5187 112.648 62.859 112.648 63.2794V81.9482C112.648 82.3633 112.308 82.709 111.889 82.709Z" fill="#FAC947"/>
<path d="M92.7653 79.6158C88.9046 79.6158 85.7749 76.4786 85.7749 72.6087C85.7749 68.7388 88.9046 65.6017 92.7653 65.6017C96.6259 65.6017 99.7556 68.7388 99.7556 72.6087C99.7556 76.4786 96.6259 79.6158 92.7653 79.6158Z" fill="white"/>
<path opacity="0.7" d="M98.7816 72.6087C98.7816 75.9421 96.0853 78.6395 92.7652 78.6395C89.4398 78.6395 86.7482 75.9368 86.7482 72.6087C86.7482 69.2807 89.4445 66.5776 92.7652 66.5776C96.0906 66.5776 98.7816 69.2807 98.7816 72.6087Z" fill="#F37E2E"/>
<path d="M95.7311 72.2884L93.5341 73.5596L91.3318 74.8356V72.2884V69.7411L93.5341 71.0171L95.7311 72.2884Z" fill="white"/>
<path d="M292.037 248.003H263.98C263.281 248.003 262.707 247.428 262.707 246.727C262.707 246.027 263.281 245.452 263.98 245.452H292.037C292.736 245.452 293.31 246.027 293.31 246.727C293.31 247.428 292.736 248.003 292.037 248.003Z" fill="#1A6577"/>
<path d="M292.037 252.688H263.98C263.281 252.688 262.707 252.113 262.707 251.412C262.707 250.712 263.281 250.136 263.98 250.136H292.037C292.736 250.136 293.31 250.712 293.31 251.412C293.31 252.113 292.736 252.688 292.037 252.688Z" fill="#1A6577"/>
<path d="M292.037 257.803H263.98C263.281 257.803 262.707 257.228 262.707 256.527C262.707 255.827 263.281 255.251 263.98 255.251H292.037C292.736 255.251 293.31 255.827 293.31 256.527C293.31 257.228 292.736 257.803 292.037 257.803Z" fill="#1A6577"/>
<path d="M103.038 171.722H74.9819C74.2829 171.722 73.7084 171.147 73.7084 170.446C73.7084 169.746 74.2829 169.17 74.9819 169.17H103.038C103.737 169.17 104.311 169.746 104.311 170.446C104.311 171.147 103.742 171.722 103.038 171.722Z" fill="#1A6577"/>
<path d="M121.103 176.623H74.9818C74.2821 176.623 73.7083 176.047 73.7083 175.346C73.7083 174.645 74.2821 174.07 74.9818 174.07H121.103C121.802 174.07 122.376 174.645 122.376 175.346C122.381 176.047 121.807 176.623 121.103 176.623Z" fill="#1A6577"/>
<path d="M57.7056 215.737C50.375 222.448 53.5607 229.16 58.9785 241.622C64.3957 254.085 65.3544 300.101 65.3544 300.101L60.8912 299.46C60.8912 299.46 61.5297 252.168 55.4734 239.385C49.4164 226.602 46.8652 220.211 41.4474 224.365C36.0302 228.519 57.7056 215.737 57.7056 215.737Z" fill="#42A789"/>
<path d="M61.7348 207.048C60.846 203.069 55.5586 198.77 48.4831 195.116C49.5369 200.982 52.907 210.571 49.4171 212.539C44.7129 215.191 48.9577 201.803 47.1449 194.44C40.5041 191.192 32.5151 188.534 25.1599 187.213C25.1699 187.243 25.1806 187.268 25.1905 187.293C29.3348 197.839 34.752 201.993 32.5197 203.59C30.8421 204.791 25.375 192.608 18.1483 186.367C12.7291 186.077 8.14209 186.812 5.43249 188.965C1.23828 192.293 -1.57122 195.246 2.64296 205.376C5.04631 207.103 8.1687 208.339 11.7904 208.705C21.3572 209.666 25.8196 209.981 19.1202 213.179C15.8447 214.746 10.3523 213.089 5.89848 212.083C7.3365 214.751 9.11406 217.773 11.2777 221.217C12.6492 223.399 14.1538 225.296 15.7582 226.933C18.8406 227.523 21.5302 227.533 22.9529 226.918C27.4168 225.001 38.8916 218.93 41.7623 221.487C44.5684 223.99 20.505 225.577 22.176 231.933C33.8386 238.669 47.1848 235.461 49.5416 229.28C52.7172 220.972 64.4164 219.02 61.7348 207.048Z" fill="#B5D336"/>
<path opacity="0.5" d="M37.6227 252.483C50.3751 242.899 63.4471 251.843 70.1378 262.068C76.8339 272.293 72.0505 295.301 72.0505 295.301C72.0505 295.301 69.4987 295.301 69.4987 294.34C69.4987 293.379 76.5144 267.178 59.9373 255.356C49.5662 247.959 42.0819 251.522 41.1279 255.036C40.1692 258.55 45.2722 264.941 45.2722 264.941L37.6227 252.483Z" fill="#243E4D"/>
<path d="M66.9529 232.779C54.2005 232.779 50.0556 252.593 53.5608 264.095C57.0659 275.601 61.8493 297.007 61.8493 297.007L65.0349 293.81C65.0349 293.81 52.9216 263.77 55.7877 250.351C58.659 236.928 65.6694 234.691 66.9476 234.691C68.2258 234.695 66.9529 232.779 66.9529 232.779Z" fill="#42A789"/>
<path d="M56.2571 264.185C55.3583 262.993 54.2498 262.008 52.9017 261.357C53.0768 262.308 53.3012 263.224 53.5662 264.095C55.164 269.335 57.026 276.632 58.5792 283.024C58.719 282.203 58.9387 280.946 59.2729 279C59.3528 278.539 59.4127 278.039 59.458 277.513C58.2097 273.254 57.026 268.619 56.2571 264.185Z" fill="#73B46F"/>
<path opacity="0.7" d="M52.7718 264.28C28.5452 254.055 41.3076 240.021 19.9457 249.29C18.4478 249.941 16.6103 251.587 14.7729 253.859C16.6769 254.4 18.9804 254.79 21.5368 254.405C27.916 253.444 25.6845 258.56 15.1657 259.836C13.1817 260.076 11.5706 260.406 10.2324 260.877C5.21936 270.526 2.96249 283.224 13.5679 287.633C15.665 288.504 18.2414 289 21.1174 289.185C24.3962 286.577 20.3185 271.487 25.3696 273.57C30.2129 275.571 23.8517 286.502 24.7258 289.26C29.5092 289.175 34.8019 288.389 39.8602 287.133C41.8621 286.007 43.39 284.5 43.8594 282.518C45.4525 275.807 34.9317 271.652 34.6121 265.902C34.3172 260.616 38.4668 277.533 49.4616 280.025C59.3979 275.376 64.0961 269.06 52.7718 264.28Z" fill="#47BEA7"/>
<path d="M70.0334 246.202C67.4816 240.771 74.1776 239.49 73.8581 243.644C73.5731 247.323 73.5432 256.272 77.308 258.71C83.8044 258.004 92.6422 255.381 99.3229 251.382C99.4075 250.842 99.3276 250.286 99.0433 249.715C96.172 243.965 77.6828 239.17 83.4196 237.253C87.9886 235.726 95.9975 244.741 102.449 249.28C106.323 246.332 108.92 242.819 108.92 238.895C108.92 233.584 102.483 227.579 94.1601 224.706C90.4152 225.086 86.9347 227.138 81.5022 230.221C73.4733 234.781 75.3307 227.409 82.9202 223.034C76.3693 223.374 69.8336 226.182 65.0149 232.883C65.0149 232.883 65.4696 235.752 62.4438 240.181C54.1899 252.273 63.7167 259.335 75.101 258.875C74.4719 255.691 71.7956 249.956 70.0334 246.202Z" fill="#B5D336"/>
<path d="M38.3918 251.943C32.1557 256.772 25.2299 262.418 16.7303 266.252C8.22873 270.086 9.93303 282.583 9.93303 282.583C9.93303 282.583 8.66148 271.788 15.745 268.094C22.8286 264.4 27.5021 259.996 32.8893 259.145C38.2719 258.294 41.2478 257.438 41.2478 257.438C41.2478 257.438 39.5455 254.03 40.5388 252.748C41.5228 251.482 38.3918 251.943 38.3918 251.943Z" fill="#42A789"/>
<path d="M7.66271 195.236C30.4726 201.342 47.1895 215.971 50.3105 219.525C53.4262 223.074 53.4262 224.07 53.4262 224.07L51.0195 228.614L49.8858 228.044C49.8858 228.044 51.7285 224.21 46.9099 219.24C38.6013 210.667 28.4906 203.9 21.5435 200.917C14.6064 197.934 7.66271 195.236 7.66271 195.236Z" fill="#42A789"/>
<path opacity="0.8" d="M71.9853 321.812H60.5564C55.1093 321.812 50.6901 317.383 50.6901 311.923V290.491H81.847V311.923C81.8517 317.383 77.4378 321.812 71.9853 321.812Z" fill="#F68521"/>
<path d="M192.05 193.314C192.175 193.054 192.564 193.134 192.57 193.425L192.739 200.566C192.759 201.187 192.215 201.678 191.601 201.592L188.949 200.651C188.795 200.597 188.725 200.421 188.795 200.276L192.05 193.314Z" fill="#F37E2E"/>
<g opacity="0.81">
<g opacity="0.81">
<path opacity="0.81" d="M155.683 97.1083V131.027C155.683 132.383 154.59 133.479 153.236 133.479H99.241C97.8882 133.479 96.7943 132.383 96.7943 131.027V97.1083H155.683Z" fill="#B5D336"/>
<path opacity="0.81" d="M155.683 97.1083H96.7898L96.62 130.466C96.6101 132.223 98.0281 133.65 99.781 133.65H152.687C154.44 133.65 155.858 132.223 155.848 130.466L155.683 97.1083Z" fill="#B5D336"/>
</g>
<g opacity="0.7">
<path opacity="0.7" d="M155.683 96.6826V97.0329H96.7896V96.6826C96.7896 94.9308 98.2023 93.5146 99.9499 93.5146H152.523C154.27 93.5146 155.683 94.9361 155.683 96.6826Z" fill="#F37E2E"/>
</g>
<g opacity="0.81">
<path opacity="0.81" d="M100.085 95.3011C100.085 95.7916 99.6904 96.1873 99.2011 96.1873C98.7118 96.1873 98.3176 95.7916 98.3176 95.3011C98.3176 94.8113 98.7118 94.4155 99.2011 94.4155C99.6904 94.4155 100.085 94.8113 100.085 95.3011Z" fill="#A6A5A5"/>
<path opacity="0.81" d="M102.811 96.1873C102.323 96.1873 101.927 95.7909 101.927 95.3011C101.927 94.8119 102.323 94.4155 102.811 94.4155C103.299 94.4155 103.695 94.8119 103.695 95.3011C103.695 95.7909 103.299 96.1873 102.811 96.1873Z" fill="#EBEAEA"/>
<path opacity="0.81" d="M107.3 95.3011C107.3 95.7916 106.906 96.1873 106.416 96.1873C105.927 96.1873 105.532 95.7916 105.532 95.3011C105.532 94.8113 105.927 94.4155 106.416 94.4155C106.906 94.4155 107.3 94.8113 107.3 95.3011Z" fill="white"/>
</g>
<g opacity="0.81">
<path opacity="0.81" d="M102.435 104.72H100.558V104.035H102.435V104.72Z" fill="#EBEAEA"/>
<path opacity="0.81" d="M114.964 104.72H103.8V104.035H114.964V104.72Z" fill="#EBEAEA"/>
<path opacity="0.81" d="M146.981 104.72H142.368V104.035H146.981V104.72Z" fill="white"/>
<path opacity="0.81" d="M119.679 104.72H116.114V104.035H119.679V104.72Z" fill="white"/>
<path opacity="0.81" d="M141.468 104.72H127.702V104.035H141.468V104.72Z" fill="#EBEAEA"/>
<path opacity="0.81" d="M145.525 113.916H134.636V113.231H145.525V113.916Z" fill="#EBEAEA"/>
<path opacity="0.81" d="M126.617 104.72H120.456V104.035H126.617V104.72Z" fill="#A6A5A5"/>
<path opacity="0.81" d="M104.311 106.561H102.434V105.876H104.311V106.561Z" fill="#EBEAEA"/>
<path opacity="0.81" d="M119.757 106.561H105.631V105.876H119.757V106.561Z" fill="#A6A5A5"/>
<path opacity="0.81" d="M133.79 113.916H125.517V113.231H133.79V113.916Z" fill="#A6A5A5"/>
<path opacity="0.81" d="M117.296 112.075H103.8V111.39H117.296V112.075Z" fill="#A6A5A5"/>
<path opacity="0.81" d="M115.095 108.398H105.628V107.712H115.095V108.398Z" fill="white"/>
<path opacity="0.81" d="M148.364 108.398H138.897V107.712H148.364V108.398Z" fill="white"/>
<path opacity="0.81" d="M132.477 110.239H128.867V109.553H132.477V110.239Z" fill="#A6A5A5"/>
<path opacity="0.81" d="M131.265 108.398H116.146V107.712H131.265V108.398Z" fill="#A6A5A5"/>
<path opacity="0.81" d="M121.847 113.916H103.802V113.231H121.847V113.916Z" fill="white"/>
<path opacity="0.81" d="M134.609 106.561H124.828V105.876H134.609V106.561Z" fill="white"/>
<path opacity="0.81" d="M124.052 106.561H120.646V105.876H124.052V106.561Z" fill="#EBEAEA"/>
<path opacity="0.81" d="M149.954 106.561H135.728V105.876H149.954V106.561Z" fill="#EBEAEA"/>
<path opacity="0.81" d="M138.052 108.398H131.975V107.712H138.052V108.398Z" fill="#EBEAEA"/>
<path opacity="0.81" d="M104.311 108.398H102.434V107.712H104.311V108.398Z" fill="#EBEAEA"/>
<path opacity="0.81" d="M102.435 110.239H100.558V109.553H102.435V110.239Z" fill="#A6A5A5"/>
<path opacity="0.81" d="M114.888 110.239H103.799V109.553H114.888V110.239Z" fill="#EBEAEA"/>
<path opacity="0.81" d="M144.234 110.239H133.144V109.553H144.234V110.239Z" fill="#EBEAEA"/>
<path opacity="0.81" d="M116.72 115.757H105.63V115.072H116.72V115.757Z" fill="#EBEAEA"/>
<path opacity="0.81" d="M129.732 117.594H121.299V116.909H129.732V117.594Z" fill="white"/>
<path opacity="0.81" d="M128.747 115.757H117.622V115.072H128.747V115.757Z" fill="white"/>
<path opacity="0.81" d="M119.939 117.594H110.257V116.909H119.939V117.594Z" fill="#EBEAEA"/>
<path opacity="0.81" d="M108.841 117.594H105.63V116.909H108.841V117.594Z" fill="#A6A5A5"/>
<path opacity="0.81" d="M138.449 117.594H130.6V116.909H138.449V117.594Z" fill="#A6A5A5"/>
<path opacity="0.81" d="M130.045 112.075H118.056V111.39H130.045V112.075Z" fill="#EBEAEA"/>
<path opacity="0.81" d="M138.453 112.075H130.824V111.39H138.453V112.075Z" fill="white"/>
<path opacity="0.81" d="M127.995 110.239H116.022V109.553H127.995V110.239Z" fill="white"/>
<path opacity="0.81" d="M102.435 112.075H100.558V111.39H102.435V112.075Z" fill="#EBEAEA"/>
<path opacity="0.81" d="M102.435 113.916H100.558V113.231H102.435V113.916Z" fill="#EBEAEA"/>
<path opacity="0.81" d="M104.311 115.757H102.434V115.072H104.311V115.757Z" fill="#A6A5A5"/>
<path opacity="0.81" d="M140.989 115.757H129.66V115.072H140.989V115.757Z" fill="#A6A5A5"/>
<path opacity="0.81" d="M104.311 117.594H102.434V116.909H104.311V117.594Z" fill="#EBEAEA"/>
<path opacity="0.81" d="M102.435 119.133H100.558V118.448H102.435V119.133Z" fill="#EBEAEA"/>
<path opacity="0.81" d="M125.33 119.133H103.799V118.448H125.33V119.133Z" fill="#EBEAEA"/>
<path opacity="0.81" d="M104.311 120.974H102.434V120.289H104.311V120.974Z" fill="#EBEAEA"/>
<path opacity="0.81" d="M119.757 120.974H105.631V120.289H119.757V120.974Z" fill="#A6A5A5"/>
<path opacity="0.81" d="M117.296 126.493H103.8V125.807H117.296V126.493Z" fill="#A6A5A5"/>
<path opacity="0.81" d="M115.095 122.811H105.628V122.125H115.095V122.811Z" fill="white"/>
<path opacity="0.81" d="M131.265 122.811H116.146V122.125H131.265V122.811Z" fill="#A6A5A5"/>
<path opacity="0.81" d="M121.847 128.33H103.802V127.644H121.847V128.33Z" fill="white"/>
<path opacity="0.81" d="M140.205 120.974H130.423V120.289H140.205V120.974Z" fill="white"/>
<path opacity="0.81" d="M129.648 120.974H120.646V120.289H129.648V120.974Z" fill="#EBEAEA"/>
<path opacity="0.81" d="M138.052 122.811H131.975V122.125H138.052V122.811Z" fill="#EBEAEA"/>
<path opacity="0.81" d="M104.311 122.811H102.434V122.125H104.311V122.811Z" fill="#EBEAEA"/>
<path opacity="0.81" d="M102.435 124.652H100.558V123.966H102.435V124.652Z" fill="#A6A5A5"/>
<path opacity="0.81" d="M136.104 124.652H128.794V123.966H136.104V124.652Z" fill="#A6A5A5"/>
<path opacity="0.81" d="M114.888 124.652H103.799V123.966H114.888V124.652Z" fill="#EBEAEA"/>
<path opacity="0.81" d="M143.431 124.652H137.259V123.966H143.431V124.652Z" fill="#EBEAEA"/>
<path opacity="0.81" d="M130.045 126.493H118.056V125.807H130.045V126.493Z" fill="#EBEAEA"/>
<path opacity="0.81" d="M127.995 124.652H116.022V123.966H127.995V124.652Z" fill="white"/>
<path opacity="0.81" d="M102.435 126.493H100.558V125.807H102.435V126.493Z" fill="#EBEAEA"/>
<g opacity="0.81">
<path opacity="0.81" d="M101.104 101.608L101.713 100.992C101.778 100.927 101.778 100.822 101.713 100.762C101.653 100.702 101.543 100.702 101.483 100.762L100.759 101.498C100.749 101.503 100.744 101.513 100.744 101.518C100.739 101.518 100.74 101.523 100.74 101.523C100.734 101.528 100.729 101.538 100.724 101.548C100.724 101.553 100.719 101.553 100.719 101.553C100.714 101.563 100.714 101.568 100.714 101.573C100.714 101.578 100.709 101.578 100.709 101.583C100.709 101.588 100.709 101.598 100.709 101.603C100.709 101.603 100.704 101.613 100.704 101.618C100.704 101.628 100.709 101.628 100.709 101.633C100.709 101.638 100.709 101.643 100.709 101.653C100.709 101.658 100.714 101.658 100.714 101.668C100.719 101.673 100.719 101.678 100.719 101.683C100.719 101.688 100.724 101.693 100.729 101.693C100.734 101.703 100.734 101.708 100.74 101.713C100.74 101.713 100.744 101.718 100.749 101.718C100.754 101.728 100.754 101.733 100.764 101.733L101.489 102.468C101.523 102.499 101.563 102.514 101.608 102.514C101.648 102.514 101.688 102.499 101.723 102.468C101.788 102.404 101.788 102.304 101.723 102.238L101.104 101.608Z" fill="white"/>
<path opacity="0.81" d="M102.447 102.494C102.462 102.504 102.482 102.504 102.497 102.504C102.552 102.504 102.606 102.474 102.626 102.418L103.256 100.912C103.285 100.842 103.251 100.757 103.186 100.727C103.111 100.697 103.031 100.732 102.996 100.802L102.367 102.308C102.342 102.378 102.372 102.464 102.447 102.494Z" fill="white"/>
<path opacity="0.81" d="M104.524 101.678C104.524 101.673 104.524 101.673 104.524 101.668C104.529 101.663 104.529 101.653 104.534 101.643C104.534 101.638 104.534 101.638 104.534 101.638C104.534 101.628 104.534 101.623 104.534 101.618C104.534 101.618 104.539 101.608 104.539 101.603C104.539 101.598 104.534 101.593 104.534 101.588C104.534 101.583 104.534 101.573 104.534 101.568C104.534 101.563 104.534 101.563 104.534 101.558C104.529 101.548 104.529 101.543 104.524 101.533C104.524 101.533 104.524 101.533 104.524 101.528C104.519 101.518 104.514 101.513 104.509 101.503L104.504 101.498C104.499 101.493 104.494 101.483 104.484 101.477L103.76 100.742C103.696 100.682 103.59 100.682 103.531 100.742C103.466 100.807 103.466 100.912 103.531 100.972L104.14 101.588L103.531 102.204C103.466 102.268 103.466 102.374 103.531 102.434C103.566 102.464 103.6 102.479 103.646 102.479C103.686 102.479 103.73 102.464 103.76 102.434L104.484 101.698C104.494 101.693 104.499 101.683 104.504 101.678L104.509 101.673C104.514 101.688 104.519 101.683 104.524 101.678Z" fill="white"/>
</g>
</g>
</g>
<path d="M133.988 41.3826L137.069 43.1643C137.728 43.5447 137.728 44.5006 137.069 44.886L133.988 46.6678C133.329 47.0482 132.5 46.5727 132.5 45.807V42.2434C132.5 41.4777 133.329 41.0022 133.988 41.3826Z" fill="#6E6F71"/>
<path d="M133.923 44.0253H122.229C121.5 44.0253 120.911 44.6158 120.911 45.3466V64.796" stroke="#6E6F71" stroke-width="2.1712" stroke-miterlimit="10" stroke-linecap="round"/>
<path d="M190.048 203.694C190.048 203.694 186.992 204.21 186.068 201.838" stroke="#243E4D" stroke-width="2.2752" stroke-miterlimit="10" stroke-linecap="round"/>
<path d="M191.995 192.458C192.559 188.76 191.066 185.566 188.6 185.186C187.376 184.996 186.133 185.546 185.099 186.723C184.13 187.834 183.451 189.386 183.187 191.102C182.623 194.801 184.116 197.994 186.582 198.374C186.742 198.4 186.902 198.41 187.062 198.41C189.353 198.414 191.466 195.917 191.995 192.458ZM188.425 186.317C190.197 186.588 191.316 189.32 190.861 192.283C190.407 195.241 188.53 197.519 186.752 197.243C184.979 196.973 183.861 194.24 184.316 191.277C184.545 189.776 185.129 188.425 185.953 187.478C186.627 186.708 187.391 186.297 188.125 186.297C188.23 186.297 188.325 186.303 188.425 186.317Z" fill="#593725"/>
<path d="M198.74 193.044C198.97 191.547 198.916 190.091 198.591 188.945C198.231 187.684 197.577 186.918 196.743 186.793C195.131 186.537 193.468 188.9 192.974 192.158C192.474 195.417 193.353 198.159 194.971 198.41C195.051 198.42 195.125 198.43 195.205 198.43C196.743 198.43 198.266 196.142 198.74 193.044ZM196.613 187.649C197.088 187.724 197.502 188.279 197.757 189.18C198.047 190.211 198.091 191.533 197.882 192.909C197.438 195.827 196.064 197.694 195.095 197.549C194.137 197.403 193.378 195.206 193.823 192.283C194.252 189.47 195.55 187.634 196.499 187.634C196.539 187.644 196.579 187.644 196.613 187.649Z" fill="#593725"/>
<path d="M184.356 188.664C184.306 188.664 184.25 188.66 184.196 188.644L165.017 183.149C164.713 183.064 164.538 182.744 164.623 182.439C164.707 182.133 165.027 181.958 165.332 182.043L184.515 187.538C184.82 187.623 184.995 187.944 184.909 188.249C184.835 188.499 184.605 188.664 184.356 188.664Z" fill="#593725"/>
<g opacity="0.6">
<path opacity="0.6" d="M208.605 36.8931V81.4977C208.605 83.2242 207.207 84.6256 205.484 84.6256H148.169C146.447 84.6256 145.048 83.2242 145.048 81.4977V36.8931H208.605Z" fill="#47BEA7"/>
<path opacity="0.6" d="M208.605 36.8931H145.053L144.829 81.2575C144.819 83.2342 146.417 84.8458 148.388 84.8458H205.265C207.237 84.8458 208.835 83.2395 208.825 81.2575L208.605 36.8931Z" fill="#47BEA7"/>
</g>
<g opacity="0.7">
<path opacity="0.7" d="M208.605 35.8521V36.8931H145.053V35.8521C145.053 33.8801 146.646 32.2836 148.614 32.2836H205.045C207.012 32.2836 208.605 33.8801 208.605 35.8521Z" fill="#F37E2E"/>
</g>
<path d="M149.367 34.6209C149.367 35.2616 148.848 35.7821 148.209 35.7821C147.57 35.7821 147.05 35.2616 147.05 34.6209C147.05 33.9802 147.57 33.4597 148.209 33.4597C148.848 33.4597 149.367 33.9802 149.367 34.6209Z" fill="#A6A5A5"/>
<path d="M154.091 34.6209C154.091 35.2616 153.571 35.7821 152.932 35.7821C152.293 35.7821 151.774 35.2616 151.774 34.6209C151.774 33.9802 152.293 33.4597 152.932 33.4597C153.571 33.4597 154.091 33.9802 154.091 34.6209Z" fill="#EBEAEA"/>
<path d="M158.814 34.6209C158.814 35.2616 158.295 35.7821 157.656 35.7821C157.017 35.7821 156.497 35.2616 156.497 34.6209C156.497 33.9802 157.017 33.4597 157.656 33.4597C158.295 33.4597 158.814 33.9802 158.814 34.6209Z" fill="white"/>
<path d="M152.442 46.96H149.985V46.0591H152.442V46.96Z" fill="#EBEAEA"/>
<path d="M182.427 46.96H154.231V46.0591H182.427V46.96Z" fill="#EBEAEA"/>
<path d="M188.606 46.96H183.937V46.0591H188.606V46.96Z" fill="white"/>
<path d="M199.282 59.0027H194.613V58.1018H199.282V59.0027Z" fill="#EBEAEA"/>
<path d="M197.687 46.96H189.618V46.0591H197.687V46.96Z" fill="#A6A5A5"/>
<path d="M154.896 49.3695H152.439V48.4686H154.896V49.3695Z" fill="#EBEAEA"/>
<path d="M175.131 49.3695H156.626V48.4686H175.131V49.3695Z" fill="#A6A5A5"/>
<path d="M193.506 59.0027H182.67V58.1018H193.506V59.0027Z" fill="#A6A5A5"/>
<path d="M171.901 56.5931H154.23V55.6923H171.901V56.5931Z" fill="#A6A5A5"/>
<path d="M169.027 51.774H156.629V50.873H169.027V51.774Z" fill="white"/>
<path d="M191.784 54.1837H187.056V53.2828H191.784V54.1837Z" fill="#A6A5A5"/>
<path d="M190.199 51.774H170.401V50.873H190.199V51.774Z" fill="#A6A5A5"/>
<path d="M177.867 59.0027H154.234V58.1018H177.867V59.0027Z" fill="white"/>
<path d="M201.908 49.3695H189.1V48.4686H201.908V49.3695Z" fill="white"/>
<path d="M188.086 49.3695H176.292V48.4686H188.086V49.3695Z" fill="#EBEAEA"/>
<path d="M199.089 51.774H191.13V50.873H199.089V51.774Z" fill="#EBEAEA"/>
<path d="M154.896 51.774H152.439V50.873H154.896V51.774Z" fill="#EBEAEA"/>
<path d="M152.442 54.1837H149.985V53.2828H152.442V54.1837Z" fill="#A6A5A5"/>
<path d="M168.759 54.1837H154.234V53.2828H168.759V54.1837Z" fill="#EBEAEA"/>
<path d="M171.154 61.4073H156.63V60.5063H171.154V61.4073Z" fill="#EBEAEA"/>
<path d="M194.76 63.817H183.716V62.9161H194.76V63.817Z" fill="#A6A5A5"/>
<path d="M186.897 61.4073H172.333V60.5063H186.897V61.4073Z" fill="white"/>
<path d="M182.444 63.817H169.766V62.9161H182.444V63.817Z" fill="white"/>
<path d="M168.755 63.825L161.93 63.82V62.9192L168.755 62.9242V63.825Z" fill="#EBEAEA"/>
<path d="M160.829 63.817H156.625V62.9161H160.829V63.817Z" fill="#A6A5A5"/>
<path d="M188.604 56.5931H172.906V55.6923H188.604V56.5931Z" fill="#EBEAEA"/>
<path d="M199.611 56.5931H189.62V55.6923H199.611V56.5931Z" fill="white"/>
<path d="M185.916 54.1837H170.233V53.2828H185.916V54.1837Z" fill="white"/>
<path d="M152.442 56.5931H149.985V55.6923H152.442V56.5931Z" fill="#EBEAEA"/>
<path d="M152.442 59.0027H149.985V58.1018H152.442V59.0027Z" fill="#EBEAEA"/>
<path d="M154.896 61.4073H152.439V60.5063H154.896V61.4073Z" fill="#A6A5A5"/>
<path d="M154.896 63.817H152.439V62.9161H154.896V63.817Z" fill="#EBEAEA"/>
<path d="M152.442 65.8342H149.985V64.9333H152.442V65.8342Z" fill="#EBEAEA"/>
<path d="M171.426 65.8342H154.23V64.9333H171.426V65.8342Z" fill="#EBEAEA"/>
<path d="M154.896 68.2436H152.439V67.3427H154.896V68.2436Z" fill="#EBEAEA"/>
<path d="M175.131 68.2436H156.626V67.3427H175.131V68.2436Z" fill="#A6A5A5"/>
<path d="M171.901 75.4676H154.23V74.5667H171.901V75.4676Z" fill="#A6A5A5"/>
<path d="M169.027 70.6534H156.629V69.7524H169.027V70.6534Z" fill="white"/>
<path d="M190.199 70.6534H170.401V69.7524H190.199V70.6534Z" fill="#A6A5A5"/>
<path d="M177.867 77.8774H154.234V76.9764H177.867V77.8774Z" fill="white"/>
<path d="M201.908 68.2436H189.1V67.3427H201.908V68.2436Z" fill="white"/>
<path d="M188.086 68.2436H176.292V67.3427H188.086V68.2436Z" fill="#EBEAEA"/>
<path d="M199.089 70.6534H191.13V69.7524H199.089V70.6534Z" fill="#EBEAEA"/>
<path d="M154.896 70.6534H152.439V69.7524H154.896V70.6534Z" fill="#EBEAEA"/>
<path d="M152.442 73.0631H149.985V72.1622H152.442V73.0631Z" fill="#A6A5A5"/>
<path d="M168.759 73.0631H154.234V72.1622H168.759V73.0631Z" fill="#EBEAEA"/>
<path d="M188.604 75.4676H172.906V74.5667H188.604V75.4676Z" fill="#EBEAEA"/>
<path d="M185.916 73.0631H170.233V72.1622H185.916V73.0631Z" fill="white"/>
<path d="M152.442 75.4676H149.985V74.5667H152.442V75.4676Z" fill="#EBEAEA"/>
<path d="M150.701 42.8791L151.499 42.0733C151.584 41.9882 151.584 41.853 151.499 41.7679C151.419 41.6879 151.279 41.6879 151.195 41.7679L150.246 42.7339C150.236 42.7389 150.231 42.7489 150.226 42.759C150.221 42.759 150.221 42.764 150.221 42.764C150.216 42.769 150.211 42.784 150.206 42.794C150.206 42.799 150.201 42.799 150.201 42.799C150.196 42.809 150.196 42.814 150.196 42.824C150.196 42.829 150.191 42.829 150.191 42.839C150.191 42.844 150.191 42.8541 150.191 42.8641C150.191 42.8691 150.186 42.8791 150.186 42.8791C150.186 42.8891 150.191 42.8941 150.191 42.8991C150.191 42.9041 150.191 42.9141 150.191 42.9241C150.191 42.9291 150.196 42.9291 150.196 42.9391C150.201 42.9441 150.201 42.9542 150.201 42.9592C150.201 42.9642 150.206 42.9692 150.211 42.9742C150.216 42.9842 150.216 42.9892 150.221 42.9992C150.221 42.9992 150.226 43.0042 150.231 43.0042C150.236 43.0142 150.236 43.0192 150.246 43.0242L151.195 43.9902C151.239 44.0303 151.295 44.0503 151.35 44.0503C151.404 44.0503 151.454 44.0303 151.499 43.9902C151.584 43.9051 151.584 43.775 151.499 43.6849L150.701 42.8791Z" fill="white"/>
<path d="M152.463 44.0402C152.483 44.0502 152.508 44.0553 152.528 44.0553C152.598 44.0553 152.668 44.0152 152.698 43.9451L153.527 41.9681C153.567 41.878 153.521 41.7629 153.432 41.7279C153.332 41.6878 153.227 41.7329 153.187 41.828L152.358 43.8C152.318 43.8901 152.363 44.0052 152.463 44.0402Z" fill="white"/>
<path d="M155.174 42.9692C155.174 42.9642 155.179 42.9642 155.179 42.9592C155.184 42.9542 155.184 42.9441 155.189 42.9291C155.189 42.9241 155.194 42.9241 155.194 42.9241C155.194 42.9141 155.194 42.9091 155.194 42.8991C155.194 42.8941 155.199 42.8841 155.199 42.8841C155.199 42.8791 155.194 42.8691 155.194 42.8691C155.194 42.8641 155.194 42.8541 155.194 42.844C155.194 42.839 155.189 42.839 155.189 42.834C155.184 42.819 155.184 42.814 155.179 42.804C155.179 42.799 155.174 42.799 155.174 42.799C155.169 42.789 155.164 42.784 155.159 42.769C155.159 42.769 155.159 42.764 155.154 42.764C155.149 42.759 155.139 42.7489 155.129 42.7389L154.181 41.773C154.095 41.6929 153.955 41.6929 153.876 41.773C153.791 41.858 153.791 41.9932 153.876 42.0783L154.675 42.8841L153.876 43.6898C153.791 43.7799 153.791 43.9101 153.876 43.9951C153.921 44.0352 153.971 44.0552 154.026 44.0552C154.081 44.0552 154.135 44.0352 154.175 43.9951L155.125 43.0292C155.135 43.0242 155.139 43.0142 155.149 43.0042C155.154 43.0042 155.154 42.9992 155.154 42.9992C155.164 42.9892 155.174 42.9792 155.174 42.9692Z" fill="white"/>
</g>
<defs>
<clipPath id="clip0_0_46">
<rect width="457" height="327" fill="white" transform="matrix(-1 0 0 1 457 0)"/>
</clipPath>
</defs>
</svg>
