<svg width="48" height="44" viewBox="0 0 48 44" fill="none" xmlns="http://www.w3.org/2000/svg">
<path d="M0.71875 25.8438V31.66C0.71875 32.7334 1.58287 33.5975 2.65625 33.5975H45.2812C46.3546 33.5975 47.2188 32.7334 47.2188 31.66V25.8438H0.71875Z" fill="#FEA219" stroke="#373449" stroke-linecap="round" stroke-linejoin="round"/>
<path d="M45.2812 0.65625H2.65625C1.5862 0.65625 0.71875 1.5237 0.71875 2.59375V31.6562C0.71875 32.7263 1.5862 33.5938 2.65625 33.5938H45.2812C46.3513 33.5938 47.2188 32.7263 47.2188 31.6562V2.59375C47.2188 1.5237 46.3513 0.65625 45.2812 0.65625Z" stroke="#373449" stroke-linecap="round" stroke-linejoin="round"/>
<path d="M18.1562 33.6289H29.7812C27.9645 39.0983 30.9268 41.1067 33.6562 43.2839H14.2812C17.6368 40.8587 20.2229 38.1282 18.1562 33.6289Z" stroke="#373449" stroke-linecap="round" stroke-linejoin="round"/>
<path d="M0.71875 25.8464H47.2188" stroke="#373449"/>
<path d="M10.4062 43.2839H37.5312" stroke="#373449" stroke-linecap="round" stroke-linejoin="round"/>
<path d="M19.125 10.3463H28.8125M16.185 6.47186C15.6113 6.47186 14.333 6.42536 14.333 7.30828C14.333 8.94566 14.333 10.3897 14.333 11.5472C14.333 12.0521 13.1353 12.9492 13.1353 13.2303C13.1353 13.5118 14.3517 14.1977 14.3517 14.9371C14.3517 15.6764 14.3517 18.7099 14.3517 19.2003C14.3517 20.1361 15.8886 20.0301 16.185 20.0301V6.47186ZM31.8193 6.47186C32.393 6.47186 33.6711 6.42536 33.6711 7.30828C33.6711 8.94566 33.6711 10.3897 33.6711 11.5472C33.6711 12.0521 34.8688 12.9492 34.8688 13.2303C34.8688 13.5118 33.6526 14.1977 33.6526 14.9371C33.6526 15.6764 33.6526 18.7099 33.6526 19.2003C33.6526 20.1361 32.1157 20.0301 31.8193 20.0301V6.47186ZM19.125 16.1588H28.8125H19.125Z" stroke="#373449"/>
<path d="M23.6045 31.0285C24.3942 31.0285 25.0343 30.3882 25.0343 29.5985C25.0343 28.8088 24.3942 28.1687 23.6045 28.1687C22.8148 28.1687 22.1746 28.8088 22.1746 29.5985C22.1746 30.3882 22.8148 31.0285 23.6045 31.0285Z" fill="#373449"/>
</svg>
