<svg width="51" height="40" viewBox="0 0 51 40" fill="none" xmlns="http://www.w3.org/2000/svg">
<path d="M35.1043 25.5119H40.1198L46.9411 32.3537V25.5119H49.5326C50.0087 25.5119 50.392 25.1154 50.392 24.6228V2.30877C50.392 1.81635 50.0087 1.41992 49.5326 1.41992H16.8764C16.4003 1.41992 16.017 1.81635 16.017 2.30877V6.53862" stroke="#373449" stroke-linecap="round" stroke-linejoin="round"/>
<path d="M1.46722 6.60571H34.1234C34.5995 6.60571 34.9828 7.00225 34.9828 7.49467V31.4979C34.9828 31.9905 34.5995 32.387 34.1234 32.387H16.0229L9.2016 39.2288V32.387H1.46722C0.991113 32.387 0.607849 31.9905 0.607849 31.4979V7.49467C0.607849 7.00225 0.991113 6.60571 1.46722 6.60571Z" fill="#FEA219" stroke="#373449" stroke-linecap="round" stroke-linejoin="round"/>
<path d="M12.6302 19.4963V11.762H16.0677V19.4963M10.0458 11.762H5.78793V15.1995C5.78793 15.1995 8.32647 15.1995 9.21043 15.1995V18.637H4.95258L10.0458 11.762Z" stroke="#373449"/>
<path d="M13.4896 15.1995H15.2172" stroke="#373449" stroke-linecap="round" stroke-linejoin="round"/>
<path d="M26.416 15.1995H28.9941M4.90472 22.0745H30.686M4.90472 25.512H28.9672M4.90472 28.9495H25.5297M44.3715 11.762H34.8384M44.3715 15.1995H34.9143M44.3715 18.637H34.8764M44.3715 22.0745H35.3321M44.3764 8.32446C44.3764 8.32446 35.5182 8.32446 35.004 8.32446M19.5052 10.9026V18.637C19.5052 18.637 23.0805 18.637 23.8021 18.637L19.5052 10.9026ZM30.686 11.762H26.3891V18.637H30.686V11.762Z" stroke="#373449"/>
</svg>
