<svg width="66" height="43" viewBox="0 0 66 43" fill="none" xmlns="http://www.w3.org/2000/svg">
<path d="M58.8064 1H7.19354V37.9H58.8064V1Z" stroke="#373449"/>
<path d="M62.9355 37.8999H3.06452C1.92432 37.8999 1 38.8177 1 39.9499C1 41.0821 1.92432 41.9999 3.06452 41.9999H62.9355C64.0757 41.9999 65 41.0821 65 39.9499C65 38.8177 64.0757 37.8999 62.9355 37.8999Z" fill="#FF5A67" stroke="#373449"/>
<path d="M25.7748 38.9249V35.8499H40.2265V38.9249" fill="#373449"/>
<path d="M25.7748 38.9249V35.8499H40.2265V38.9249" stroke="#373449"/>
<path d="M6.16193 7.14966H59.8394" stroke="#373449"/>
<path d="M20.6129 22.5249H14.4194V26.6249H20.6129V22.5249Z" fill="#FF5A67" stroke="#373449"/>
<path d="M26.8065 12.2749H14.4194V16.3749H26.8065V12.2749Z" fill="#FEA219" stroke="#373449"/>
<path d="M41.2581 22.5249H24.7419V26.6249H41.2581V22.5249Z" fill="#FEA219" stroke="#373449"/>
<path d="M49.5342 22.1168C49.4952 22.0533 49.475 21.8497 49.4789 21.552C49.4828 21.2545 49.5184 20.7771 49.6388 20.4667C49.7592 20.1563 49.9351 19.8938 50.1319 19.6597C50.3287 19.4255 50.6951 19.1896 51.128 18.8103C51.5609 18.4311 51.5182 18.3516 51.8349 17.9034C52.1516 17.4553 52.0602 16.5344 51.6196 16.2105C50.7044 15.5088 49.4175 16.1449 49.3573 17.3179H47.4516C47.5673 16.3753 47.9111 15.5779 48.4829 15.0767C49.0546 14.5757 49.8105 14.325 50.7503 14.325C51.7457 14.325 52.33 14.594 52.9226 15.1317C53.5152 15.6697 53.8115 16.3202 53.8115 17.0834C53.8115 17.5248 53.7074 17.9313 53.499 18.3038C53.2907 18.6761 53.0929 19.129 52.4865 19.6624C52.079 20.021 51.8128 20.2853 51.6878 20.4554C51.5628 20.6256 51.4702 20.8209 51.41 21.0415C51.3499 21.2623 51.3151 21.6208 51.3059 22.1173L49.5342 22.1168ZM49.5281 24.6062V23.1926H51.3227V24.6062H49.5281Z" fill="#373449"/>
</svg>
