<svg width="27" height="27" viewBox="0 0 27 27" fill="none" xmlns="http://www.w3.org/2000/svg">
    <path
        d="M21.9479 27H5.04783C3.91623 26.9976 3 26.1283 3 25.0567V12.9433C3 11.8717 3.91623 11.0024 5.04783 11H21.9479C23.0812 11 24 11.8701 24 12.9433V25.0567C24 26.1299 23.0812 27 21.9479 27ZM6 12.9433C5.66758 12.9345 5.00931 13.6852 5 14C5 14.5 4.57077 14.5728 5 14V24C5 24.3148 5.66758 25.0567 6 25.0567L21 25C21.3324 25 22 24.3148 22 24V14C22 13.6852 21.3324 13 21 13L6 12.9433Z"
        fill="currentColor" />
    <path d="M10.5 18H16.5L16.5 25H10.5V18ZM13.5139 1.36523L25.2704 12.2917L1.75732 12.2917L13.5139 1.36523Z"
        stroke="currentColor" stroke-width="2" />
</svg>