<svg width="67" height="68" viewBox="0 0 67 68" fill="none" xmlns="http://www.w3.org/2000/svg">
<path d="M33.4017 67.0756C51.809 67.0756 66.731 52.1536 66.731 33.7463C66.731 15.339 51.809 0.416901 33.4017 0.416901C14.9944 0.416901 0.0722656 15.339 0.0722656 33.7463C0.0722656 52.1536 14.9944 67.0756 33.4017 67.0756Z" fill="white"/>
<path d="M33.4019 15.9224C38.9639 15.9224 44.5364 15.9224 50.0984 15.9224C50.1835 15.9224 50.2686 15.9224 50.3643 15.9224C50.6408 15.9224 50.6727 15.9543 50.6514 16.2308C50.6195 16.6562 50.577 17.0816 50.5345 17.5176C50.46 18.3365 50.3856 19.1447 50.3112 19.9636C50.2367 20.7612 50.1729 21.5588 50.0984 22.3564C50.024 23.1647 49.9602 23.9729 49.8858 24.7812C49.8113 25.5681 49.7474 26.3445 49.673 27.1315C49.5985 27.9504 49.5241 28.7586 49.4497 29.5775C49.3753 30.3751 49.3115 31.1727 49.2371 31.9703C49.1626 32.7679 49.0987 33.5655 49.0243 34.3631C48.9498 35.1714 48.8755 35.9796 48.8116 36.7878C48.7372 37.5854 48.6733 38.383 48.5989 39.1807C48.5244 39.9889 48.45 40.7971 48.3862 41.6054C48.3118 42.3924 48.248 43.19 48.1736 43.9769C48.0991 44.7958 48.0246 45.6041 47.9502 46.4229C47.8757 47.2205 47.812 48.0182 47.7375 48.8264C47.6737 49.5496 47.6098 50.2621 47.546 50.9853C47.5354 51.1448 47.4397 51.1979 47.3121 51.2405C46.6953 51.4106 46.0678 51.5808 45.451 51.7616C41.5268 52.8464 37.592 53.9417 33.6677 55.0265C33.4869 55.0796 33.3168 55.0796 33.136 55.0265C28.6481 53.7822 24.1602 52.5379 19.6723 51.283C19.2682 51.1767 19.2788 51.166 19.2469 50.7513C19.1831 49.9218 19.0981 49.0923 19.0236 48.2628C18.9492 47.4758 18.8853 46.6782 18.8109 45.8912C18.7364 45.083 18.662 44.2747 18.5982 43.4665C18.5238 42.6795 18.46 41.8819 18.3856 41.0949C18.3111 40.276 18.2366 39.4678 18.1622 38.6489C18.0877 37.8619 18.024 37.0856 17.9495 36.2986C17.8751 35.4798 17.8007 34.6502 17.7262 33.8314C17.6518 33.0444 17.5879 32.2681 17.5135 31.4811C17.439 30.6622 17.3646 29.8327 17.2902 29.0138C17.2157 28.2268 17.152 27.4505 17.0775 26.6635C17.0031 25.8447 16.9285 25.0152 16.8541 24.1963C16.7797 23.4093 16.7159 22.633 16.6415 21.846C16.567 21.0271 16.4925 20.2189 16.418 19.4C16.3436 18.613 16.2798 17.8154 16.2054 17.0284C16.1841 16.7519 16.1523 16.4754 16.131 16.1989C16.1097 15.9756 16.1416 15.9331 16.3756 15.9331C16.4713 15.9331 16.567 15.9331 16.6627 15.9331C22.2566 15.9224 27.8292 15.9224 33.4019 15.9224ZM44.2599 23.1009C44.0898 23.0903 43.9515 23.0796 43.8132 23.0796C36.8687 23.0796 29.9349 23.0796 22.9904 23.0796C22.9159 23.0796 22.8309 23.0796 22.7565 23.0796C22.5438 23.0903 22.5224 23.1222 22.5437 23.3242C22.5969 24.0048 22.6607 24.6855 22.7245 25.3661C22.8309 26.5147 22.9373 27.6632 23.033 28.8118C23.1393 29.9709 23.2349 31.1408 23.3413 32.3C23.4476 33.4592 23.5647 34.6077 23.6497 35.7669C23.6923 36.3199 23.7135 36.2455 24.1602 36.2455C28.8288 36.2455 33.4976 36.2455 38.1662 36.2455C38.2619 36.2455 38.3577 36.2455 38.4534 36.2455C38.6554 36.2561 38.698 36.2986 38.6873 36.4901C38.6767 36.724 38.6447 36.9686 38.6234 37.2026C38.549 38.0108 38.4746 38.8191 38.4108 39.6273C38.347 40.2761 38.2832 40.9248 38.2406 41.5735C38.23 41.7436 38.1556 41.8287 37.996 41.8713C36.5284 42.2647 35.0608 42.6582 33.5932 43.0517C33.4762 43.0836 33.338 43.0836 33.221 43.0517C32.785 42.9454 32.3597 42.8284 31.9343 42.7114C30.924 42.4349 29.9242 42.169 28.9139 41.8925C28.6268 41.8181 28.6162 41.8074 28.5843 41.5097C28.5524 41.2544 28.5418 40.9886 28.5099 40.7227C28.4461 39.9995 28.3822 39.287 28.3184 38.5639C28.2971 38.3831 28.2759 38.3618 28.0951 38.3511C28.0526 38.3511 28.0207 38.3511 27.9782 38.3511C26.7339 38.3511 25.479 38.3511 24.2347 38.3511C24.139 38.3511 24.0326 38.3724 23.9156 38.3937C23.9156 38.5107 23.905 38.6064 23.9156 38.7021C23.9475 39.0637 23.9794 39.4146 24.0113 39.7656C24.1602 41.4565 24.3197 43.1474 24.4686 44.849C24.5005 45.2744 24.5218 45.2212 24.8728 45.3169C27.6059 46.0826 30.339 46.8377 33.0721 47.6034C33.3061 47.6672 33.5188 47.6672 33.7421 47.6034C35.4437 47.1248 37.1453 46.6569 38.8469 46.189C39.921 45.8912 40.9951 45.5934 42.0586 45.2956C42.2181 45.2531 42.3245 45.1893 42.3351 44.9979C42.3564 44.6363 42.3989 44.2853 42.4308 43.9344C42.5159 42.956 42.6009 41.9882 42.686 41.0098C42.7711 40.0314 42.8668 39.0424 42.9519 38.064C43.037 37.0856 43.122 36.1179 43.2071 35.1395C43.2922 34.1611 43.3879 33.1933 43.473 32.2149C43.4836 32.1192 43.473 32.0128 43.473 31.8746C43.3028 31.8639 43.1539 31.8427 43.005 31.8427C38.0811 31.8427 33.1573 31.8427 28.244 31.8427C28.1483 31.8427 28.0526 31.8427 27.9569 31.8427C27.7335 31.832 27.7016 31.8108 27.6804 31.5768C27.6378 31.1408 27.5953 30.7047 27.5634 30.2687C27.4889 29.4711 27.4251 28.6735 27.3506 27.8653C27.3187 27.4718 27.2762 27.4612 27.7335 27.4612C32.9445 27.4612 38.1663 27.4612 43.3773 27.4612C43.4836 27.4612 43.5793 27.4612 43.6856 27.4612C43.8558 27.4505 43.8771 27.4292 43.8984 27.2697C43.9197 27.1208 43.9302 26.9719 43.9408 26.8231C44.0365 25.7915 44.1216 24.7706 44.2174 23.739C44.2386 23.5369 44.2387 23.3349 44.2599 23.1009Z" fill="black"/>
</svg>
