<svg width="24" height="25" viewBox="0 0 24 25" fill="none" xmlns="http://www.w3.org/2000/svg">
<path fill-rule="evenodd" clip-rule="evenodd" d="M12 0.0576172C8.7408 0.0576172 8.3328 0.0715791 7.0528 0.131533C5.7752 0.191487 4.9024 0.400093 4.1392 0.704791C3.3392 1.01359 2.6136 1.49815 2.0136 2.12562C1.40338 2.74087 0.931087 3.48525 0.6296 4.30695C0.3344 5.09046 0.1304 5.9873 0.072 7.2989C0.0144 8.61213 0 9.03017 0 12.3769C0 15.7236 0.0136 16.1417 0.072 17.4557C0.1304 18.7673 0.3336 19.6634 0.6304 20.4469C0.9312 21.2682 1.4032 22.0131 2.0144 22.629C2.61372 23.2555 3.33881 23.7403 4.1392 24.0498C4.9024 24.3537 5.7752 24.5623 7.0528 24.6223C8.3328 24.6822 8.7408 24.6962 12 24.6962C15.2592 24.6962 15.6672 24.6822 16.9472 24.6223C18.2248 24.5623 19.0976 24.3537 19.8608 24.049C20.6608 23.7402 21.3864 23.2557 21.9864 22.6282C22.5966 22.0129 23.0689 21.2686 23.3704 20.4469C23.6664 19.6634 23.8696 18.7673 23.928 17.4557C23.9864 16.1417 24 15.7228 24 12.3769C24 9.03099 23.9864 8.61213 23.928 7.29807C23.8696 5.98648 23.6664 5.09046 23.3696 4.30695C23.0683 3.4849 22.596 2.7402 21.9856 2.12479C21.3863 1.49833 20.6612 1.01348 19.8608 0.703969C19.0976 0.400915 18.224 0.191487 16.9464 0.131533C15.6672 0.0724003 15.26 0.0576172 12 0.0576172ZM12 2.27755C15.204 2.27755 15.584 2.28987 16.8496 2.34901C18.0192 2.40403 18.6544 2.6036 19.0776 2.77361C19.6376 2.99618 20.0376 3.26392 20.4576 3.69427C20.8776 4.12545 21.1376 4.53609 21.3544 5.11099C21.5192 5.54545 21.7144 6.19755 21.768 7.39827C21.8256 8.69755 21.8376 9.08766 21.8376 12.3769C21.8376 15.6662 21.8256 16.0563 21.768 17.3555C21.7144 18.5563 21.52 19.2084 21.3544 19.6428C21.1623 20.1779 20.8559 20.662 20.4576 21.0595C20.0705 21.4685 19.5989 21.7831 19.0776 21.9802C18.6544 22.1494 18.0192 22.3498 16.8496 22.4048C15.584 22.4639 15.2048 22.4763 12 22.4763C8.7952 22.4763 8.416 22.4639 7.1504 22.4048C5.9808 22.3498 5.3456 22.1502 4.9224 21.9802C4.40116 21.783 3.92961 21.4684 3.5424 21.0595C3.14414 20.662 2.8377 20.1779 2.6456 19.6428C2.4808 19.2084 2.2856 18.5563 2.232 17.3555C2.1744 16.0563 2.1624 15.6662 2.1624 12.3769C2.1624 9.08766 2.1744 8.69755 2.232 7.39827C2.2856 6.19755 2.48 5.54545 2.6456 5.11099C2.8624 4.53609 3.1232 4.12545 3.5424 3.69427C3.92955 3.28531 4.40113 2.9707 4.9224 2.77361C5.3456 2.60443 5.9808 2.40403 7.1504 2.34901C8.416 2.28987 8.796 2.27755 12 2.27755V2.27755Z" fill="#F5FBFF"/>
<path fill-rule="evenodd" clip-rule="evenodd" d="M12 16.4875C11.4742 16.4875 10.9535 16.3812 10.4677 16.1746C9.98192 15.9681 9.54052 15.6653 9.16871 15.2836C8.79691 14.9019 8.50198 14.4487 8.30076 13.95C8.09954 13.4513 7.99597 12.9168 7.99597 12.377C7.99597 11.8372 8.09954 11.3027 8.30076 10.804C8.50198 10.3052 8.79691 9.85211 9.16871 9.47041C9.54052 9.08871 9.98192 8.78593 10.4677 8.57935C10.9535 8.37278 11.4742 8.26646 12 8.26646C13.0619 8.26646 14.0803 8.69953 14.8312 9.47041C15.5821 10.2413 16.004 11.2868 16.004 12.377C16.004 13.4672 15.5821 14.5127 14.8312 15.2836C14.0803 16.0545 13.0619 16.4875 12 16.4875V16.4875ZM12 6.04488C10.3641 6.04488 8.79526 6.71201 7.63853 7.89951C6.48181 9.08701 5.83197 10.6976 5.83197 12.377C5.83197 14.0564 6.48181 15.667 7.63853 16.8545C8.79526 18.042 10.3641 18.7091 12 18.7091C13.6358 18.7091 15.2047 18.042 16.3614 16.8545C17.5181 15.667 18.168 14.0564 18.168 12.377C18.168 10.6976 17.5181 9.08701 16.3614 7.89951C15.2047 6.71201 13.6358 6.04488 12 6.04488V6.04488ZM19.9624 5.9299C19.9624 6.32687 19.8088 6.70759 19.5353 6.98829C19.2619 7.269 18.8911 7.42669 18.5044 7.42669C18.1177 7.42669 17.7468 7.269 17.4734 6.98829C17.2 6.70759 17.0464 6.32687 17.0464 5.9299C17.0464 5.53293 17.2 5.15221 17.4734 4.87151C17.7468 4.5908 18.1177 4.43311 18.5044 4.43311C18.8911 4.43311 19.2619 4.5908 19.5353 4.87151C19.8088 5.15221 19.9624 5.53293 19.9624 5.9299" fill="#F5FBFF"/>
</svg>
