<svg width="43" height="33" viewBox="0 0 43 33" fill="none" xmlns="http://www.w3.org/2000/svg">
<g opacity="0.8">
<path d="M29.6746 20.939H33.8641L39.5619 26.654V20.939H41.7266C42.1242 20.939 42.4444 20.6078 42.4444 20.1964V1.55754C42.4444 1.1462 42.1242 0.815063 41.7266 0.815063H14.4489C14.0512 0.815063 13.7311 1.1462 13.7311 1.55754V5.09068" stroke="#F5FBFF" stroke-linecap="round" stroke-linejoin="round"/>
<path d="M1.57769 5.1467H28.8553C29.253 5.1467 29.5732 5.47789 29.5732 5.88928V25.9391C29.5732 26.3506 29.253 26.6818 28.8553 26.6818H13.736L8.0382 32.3967V26.6818H1.57769C1.18 26.6818 0.859863 26.3506 0.859863 25.9391V5.88928C0.859863 5.47789 1.18 5.1467 1.57769 5.1467Z" fill="#FEA219" stroke="#F5FBFF" stroke-linecap="round" stroke-linejoin="round"/>
<path d="M10.9022 15.9142V9.45374H13.7735V15.9142M8.74343 9.45374H5.18684V12.3251C5.18684 12.3251 7.3073 12.3251 8.04562 12.3251V15.1964H4.48907L8.74343 9.45374Z" stroke="#F5FBFF"/>
<path d="M11.62 12.3252H13.0631" stroke="#F5FBFF" stroke-linecap="round" stroke-linejoin="round"/>
<path d="M22.4171 12.3251H24.5706M4.44879 18.0678H25.9838M4.44879 20.9391H24.5481M4.44879 23.8104H21.6768M37.4153 9.45376H29.4523M37.4153 12.3251H29.5157M37.4153 15.1964H29.4841M37.4153 18.0678H29.8647M37.4194 6.58243C37.4194 6.58243 30.0202 6.58243 29.5906 6.58243M16.6445 8.73591V15.1964C16.6445 15.1964 19.631 15.1964 20.2337 15.1964L16.6445 8.73591ZM25.9838 9.45376H22.3946V15.1964H25.9838V9.45376Z" stroke="#F5FBFF"/>
</g>
</svg>
