<svg width="22" height="21" viewBox="0 0 22 21" fill="none" xmlns="http://www.w3.org/2000/svg">
<path fill-rule="evenodd" clip-rule="evenodd" d="M12.4881 8.59068C13.7236 7.16749 15.1209 6.44564 16.8876 6.53277C19.7619 6.67432 21.7848 8.67902 21.9302 11.8087C22.0579 14.5652 21.9674 17.3314 21.9869 20.0927C21.9918 20.7553 21.682 21.0029 21.0473 20.9869C20.197 20.9654 19.3437 20.9457 18.4955 20.9953C17.654 21.0446 17.334 20.7062 17.3484 19.8688C17.3816 17.9941 17.3611 16.1181 17.3575 14.2427C17.3563 13.7316 17.3627 13.2181 17.3228 12.7094C17.1999 11.1351 16.2778 10.1849 14.9107 10.1956C13.5056 10.2064 12.3688 11.3377 12.3441 12.8429C12.3078 15.0587 12.3297 17.2754 12.325 19.4917C12.3218 20.9757 12.3205 20.9757 10.8581 20.9853C7.69558 21.0057 7.69678 21.0057 7.69558 17.8366C7.69438 14.5974 7.71792 11.3574 7.67083 8.11887C7.65725 7.18109 7.97023 6.80553 8.90351 6.89318C9.4432 6.94397 9.99165 6.89886 10.5365 6.9011C12.1621 6.90833 12.1621 6.90919 12.4881 8.59068ZM0.33024 13.8843C0.33024 11.9416 0.365818 9.99804 0.3146 8.05688C0.291053 7.14906 0.637036 6.8348 1.5105 6.8887C2.35784 6.9407 3.21137 6.91797 4.06112 6.89989C4.69946 6.88663 4.98804 7.14699 4.98563 7.80737C4.97051 11.8972 4.96845 15.9865 4.97635 20.0763C4.97755 20.731 4.69499 21.0008 4.05235 20.9872C3.13437 20.9676 2.21467 20.9604 1.29738 20.9909C0.593208 21.0145 0.328693 20.7129 0.336256 20.0186C0.3586 17.974 0.344162 15.9288 0.344162 13.8842C0.339865 13.8843 0.335053 13.8843 0.33024 13.8843ZM2.60947 4.87246C1.11622 4.86609 0.0102099 3.83584 6.9316e-05 2.44174C-0.0102432 1.0714 1.13135 0.00103374 2.60345 5.61649e-07C4.20532 -0.000860418 5.29019 0.988233 5.28384 2.44346C5.27696 3.92538 4.22681 4.87883 2.60947 4.87246Z" fill="#01579B"/>
</svg>
