<svg width="24" height="25" viewBox="0 0 24 25" fill="none" xmlns="http://www.w3.org/2000/svg">
<path d="M24 1.86928V22.8845C24 23.365 23.8141 23.8258 23.4831 24.1656C23.1522 24.5053 22.7033 24.6962 22.2353 24.6962H1.76471C1.29668 24.6962 0.847817 24.5053 0.51687 24.1656C0.185924 23.8258 0 23.365 0 22.8845L0 1.86928C0 1.3888 0.185924 0.927992 0.51687 0.58824C0.847817 0.248488 1.29668 0.0576172 1.76471 0.0576172L22.2353 0.0576172C22.7033 0.0576172 23.1522 0.248488 23.4831 0.58824C23.8141 0.927992 24 1.3888 24 1.86928V1.86928ZM7.05882 9.47825H3.52941V21.0729H7.05882V9.47825ZM7.37647 5.4926C7.37833 5.21852 7.32759 4.94676 7.22714 4.69281C7.12669 4.43887 6.9785 4.20773 6.79103 4.01258C6.60357 3.81744 6.38049 3.66211 6.13455 3.55547C5.88861 3.44883 5.62462 3.39297 5.35765 3.39107H5.29412C4.7512 3.39107 4.23053 3.61248 3.84663 4.0066C3.46273 4.40071 3.24706 4.93524 3.24706 5.4926C3.24706 6.04996 3.46273 6.58449 3.84663 6.9786C4.23053 7.37271 4.7512 7.59412 5.29412 7.59412V7.59412C5.56111 7.60087 5.82678 7.55354 6.07594 7.45484C6.32511 7.35614 6.55289 7.208 6.74627 7.0189C6.93965 6.8298 7.09484 6.60343 7.20297 6.35273C7.3111 6.10203 7.37006 5.83192 7.37647 5.55782V5.4926ZM20.4706 14.0291C20.4706 10.5435 18.3106 9.18839 16.1647 9.18839C15.4621 9.15227 14.7625 9.3059 14.1358 9.63395C13.5091 9.96201 12.9771 10.453 12.5929 11.058H12.4941V9.47825H9.17647V21.0729H12.7059V14.906C12.6549 14.2744 12.8487 13.6476 13.2452 13.1619C13.6417 12.6761 14.2089 12.3706 14.8235 12.3117H14.9576C16.08 12.3117 16.9129 13.0364 16.9129 14.8625V21.0729H20.4424L20.4706 14.0291Z" fill="#F5FBFF"/>
</svg>
