<svg width="51" height="51" viewBox="0 0 51 51" fill="none" xmlns="http://www.w3.org/2000/svg">
<path opacity="0.7" d="M42.1444 0.101562C42.3444 0.401563 42.5444 0.801562 42.5444 1.10156C42.6444 2.40156 42.5444 3.70156 42.5444 5.00156C42.5444 5.60156 42.5444 6.20157 42.4444 6.70157C33.0444 6.70157 23.6444 6.70157 14.2444 6.70157C13.9444 6.70157 13.7444 6.70157 13.4444 6.70157C13.4444 4.50157 13.4444 2.30156 13.4444 0.101562C23.1444 0.101563 32.6444 0.101562 42.1444 0.101562Z" fill="#455EA0"/>
<path d="M3.54443 44.6992C2.84443 44.6992 2.24443 44.6992 1.54443 44.6992C0.844434 44.6992 0.444434 44.3992 0.0444336 43.8992C0.0444336 31.4992 0.0444336 19.1992 0.0444336 6.79922C0.944434 6.79922 1.84438 6.69922 2.74438 6.69922V6.79922C2.74438 18.8992 2.74438 30.8992 2.74438 42.9992C2.74438 43.6992 2.94443 44.2992 3.54443 44.6992Z" fill="#C3DDF3"/>
<path opacity="0.7" d="M13.6444 0.101562C13.6444 2.30156 13.6444 4.50157 13.6444 6.70157C10.8444 6.70157 8.14442 6.70157 5.34442 6.70157C4.44442 6.70157 3.64438 6.70157 2.74438 6.70157V6.60156C2.74438 4.90156 2.74438 3.10155 2.74438 1.40155C2.74438 1.00155 2.8444 0.501563 2.9444 0.101562C6.5444 0.101562 10.1444 0.101562 13.6444 0.101562ZM7.04443 4.20157C7.54443 4.20157 7.94442 3.80157 7.84442 3.30157C7.84442 2.80157 7.4444 2.40156 6.9444 2.50156C6.4444 2.50156 6.14441 2.90155 6.14441 3.40155C6.14441 3.80155 6.64443 4.20157 7.04443 4.20157ZM4.14441 2.50156C3.64441 2.50156 3.24438 2.90157 3.24438 3.30157C3.24438 3.80157 3.64441 4.20157 4.14441 4.20157C4.64441 4.20157 4.9444 3.80157 4.9444 3.30157C5.0444 2.80157 4.64441 2.50156 4.14441 2.50156ZM9.9444 4.20157C10.4444 4.20157 10.8444 3.70157 10.8444 3.30157C10.8444 2.90157 10.4444 2.50156 10.0444 2.50156C9.54443 2.50156 9.14441 2.80155 9.14441 3.40155C9.04441 3.80155 9.4444 4.20157 9.9444 4.20157Z" fill="#293D7B"/>
<path opacity="0.7" d="M3.04443 0.100006C2.94443 0.500006 2.84442 0.999994 2.84442 1.39999C2.84442 3.09999 2.84442 4.90001 2.84442 6.60001C1.94442 6.60001 1.04441 6.70001 0.144409 6.70001C0.144409 4.50001 0.144409 2.3 0.144409 0C1.04441 0.1 2.04443 0.100006 3.04443 0.100006Z" fill="#1A2B63"/>
<path d="M2.74438 6.80078C3.64438 6.80078 4.44442 6.80078 5.34442 6.80078C8.14442 6.80078 10.8444 6.80078 13.6444 6.80078C13.9444 6.80078 14.1444 6.80078 14.4444 6.80078C23.8444 6.80078 33.2444 6.80078 42.6444 6.80078C42.6444 13.3008 42.6444 19.8008 42.6444 26.3008C41.7444 25.9008 40.7444 25.5008 39.7444 25.2008C37.7444 24.6008 35.7444 24.7008 33.7444 25.1008C33.6444 25.1008 33.6444 25.1008 33.5444 25.1008C23.9444 25.1008 14.4444 25.1008 4.84442 25.1008C3.94442 25.1008 3.4444 25.4008 3.4444 26.0008C3.4444 26.6008 3.84442 26.8008 4.84442 26.8008C13.1444 26.8008 21.4444 26.8008 29.8444 26.8008C29.1444 27.4008 28.4444 28.1008 27.7444 28.7008C27.5444 28.7008 27.4444 28.7008 27.2444 28.7008C19.7444 28.7008 12.2444 28.7008 4.74438 28.7008C4.64438 28.7008 4.54442 28.7008 4.34442 28.7008C3.84442 28.7008 3.64443 29.0008 3.54443 29.4008C3.44443 29.8008 3.64443 30.2008 4.04443 30.3008C4.34443 30.4008 4.6444 30.4008 4.9444 30.4008C12.0444 30.4008 19.2444 30.4008 26.3444 30.4008C25.9444 31.3008 25.5444 32.2008 25.1444 33.1008C23.8444 33.1008 22.5444 33.1008 21.1444 33.1008C16.5444 33.1008 11.8444 33.1008 7.24438 33.1008C6.54438 33.1008 5.74443 33.1008 5.04443 33.1008C4.54443 33.1008 4.34442 33.3008 4.34442 33.9008C4.34442 35.7008 4.34442 37.4008 4.34442 39.2008C4.34442 39.7008 4.64441 40.0008 5.14441 40.0008C5.84441 40.0008 6.54441 40.0008 7.14441 40.0008C11.8444 40.0008 16.5444 40.0008 21.1444 40.0008C22.4444 40.0008 23.7444 40.0008 24.9444 40.0008C25.4444 41.8008 26.3444 43.4008 27.5444 44.8008C27.2444 44.8008 27.0444 44.8008 26.7444 44.8008C20.0444 44.8008 13.2444 44.8008 6.54443 44.8008C6.24443 44.8008 6.04438 44.8008 5.74438 44.8008C4.94438 44.8008 4.14442 44.8008 3.34442 44.8008C2.64442 44.4008 2.54443 43.9008 2.54443 43.1008C2.74443 30.9008 2.74438 18.9008 2.74438 6.80078ZM17.7444 21.6008C18.3444 21.6008 18.5444 21.4008 18.5444 20.7008C18.5444 17.9008 14.3444 21.6008 17.7444 21.6008ZM30.3444 19.0008C32.6444 19.0008 35.0444 19.0008 37.3444 19.0008C37.9444 19.0008 38.3444 18.7008 38.3444 18.2008C38.3444 17.6008 37.9444 17.3008 37.2444 17.3008C32.6444 17.3008 27.9444 17.3008 23.3444 17.3008C22.6444 17.3008 22.2444 17.6008 22.2444 18.2008C22.2444 18.8008 22.6444 19.1008 23.3444 19.1008C25.7444 19.0008 28.0444 19.0008 30.3444 19.0008ZM30.3444 22.5008C32.6444 22.5008 34.9444 22.5008 37.3444 22.5008C38.0444 22.5008 38.4444 22.2008 38.4444 21.7008C38.4444 21.1008 38.0444 20.8008 37.3444 20.8008C32.7444 20.8008 28.1444 20.8008 23.4444 20.8008C22.7444 20.8008 22.3444 21.1008 22.3444 21.7008C22.3444 22.3008 22.7444 22.6008 23.4444 22.6008C25.7444 22.5008 28.0444 22.5008 30.3444 22.5008ZM30.3444 12.0008C32.6444 12.0008 34.9444 12.0008 37.3444 12.0008C38.0444 12.0008 38.4444 11.7008 38.4444 11.2008C38.4444 10.6008 38.0444 10.3008 37.3444 10.3008C32.7444 10.3008 28.0444 10.3008 23.4444 10.3008C22.7444 10.3008 22.3444 10.6008 22.3444 11.2008C22.3444 11.8008 22.7444 12.1008 23.4444 12.1008C25.7444 12.0008 28.0444 12.0008 30.3444 12.0008ZM30.4444 15.5008C31.1444 15.5008 31.9444 15.5008 32.6444 15.5008C34.2444 15.5008 35.9444 15.5008 37.5444 15.5008C38.0444 15.5008 38.3444 15.2008 38.4444 14.8008C38.5444 14.3008 38.3444 14.0008 37.8444 13.8008C37.6444 13.8008 37.4444 13.7008 37.2444 13.7008C35.3444 13.7008 33.4444 13.7008 31.5444 13.7008C28.9444 13.7008 26.2444 13.7008 23.6444 13.7008C22.9444 13.7008 22.5444 14.0008 22.5444 14.6008C22.5444 15.2008 22.9444 15.5008 23.6444 15.5008C25.8444 15.5008 28.1444 15.5008 30.4444 15.5008Z" fill="#ECF4FD"/>
<path opacity="0.7" d="M7.04443 4.20001C6.64443 4.20001 6.14441 3.79999 6.14441 3.39999C6.14441 2.89999 6.4444 2.5 6.9444 2.5C7.4444 2.5 7.84442 2.90002 7.84442 3.30002C7.94442 3.80002 7.54443 4.20001 7.04443 4.20001Z" fill="#F8AB13"/>
<path opacity="0.7" d="M4.14439 2.5C4.64439 2.5 4.94442 2.80002 5.04442 3.30002C5.04442 3.80002 4.74437 4.20001 4.24437 4.20001C3.74437 4.20001 3.34441 3.80002 3.34441 3.30002C3.24441 2.80002 3.64439 2.5 4.14439 2.5Z" fill="#DC6492"/>
<path opacity="0.7" d="M9.9444 4.19846C9.4444 4.19846 9.14441 3.79846 9.14441 3.29846C9.14441 2.79846 9.44443 2.39844 10.0444 2.39844C10.4444 2.39844 10.8444 2.79846 10.8444 3.19846C10.8444 3.69846 10.3444 4.19846 9.9444 4.19846Z" fill="#36C07A"/>
<path d="M21.2444 39.8C16.5444 39.8 11.8444 39.8 7.24438 39.8C7.24438 39.5 7.14441 39.2 7.14441 38.9C7.14441 37.2 7.14441 35.5 7.14441 33.8C7.14441 33.5 7.24442 33.3 7.34442 33C11.9444 33 16.6444 33 21.2444 33C21.2444 35.4 21.2444 37.6 21.2444 39.8Z" fill="#ECF4FD"/>
<path d="M33.7444 25.0992C32.4444 25.6992 31.1444 26.2992 29.8444 26.8992C21.5444 26.8992 13.2444 26.8992 4.84442 26.8992C3.94442 26.8992 3.4444 26.5992 3.4444 26.0992C3.4444 25.4992 3.84442 25.1992 4.84442 25.1992C14.4444 25.1992 23.9444 25.1992 33.5444 25.1992C33.6444 24.9992 33.7444 25.0992 33.7444 25.0992Z" fill="#ECF4FD"/>
<path d="M27.7444 28.6992C27.3444 29.2992 26.8444 29.8992 26.4444 30.3992C19.3444 30.3992 12.1444 30.3992 5.0444 30.3992C4.7444 30.3992 4.44438 30.3992 4.14438 30.2992C3.74438 30.1992 3.54438 29.7992 3.64438 29.3992C3.74438 28.9992 3.94437 28.6992 4.44437 28.6992C4.54437 28.6992 4.64439 28.6992 4.84439 28.6992C12.3444 28.6992 19.8444 28.6992 27.3444 28.6992C27.3444 28.6992 27.5444 28.6992 27.7444 28.6992Z" fill="#ECF4FD"/>
<path d="M30.3444 18.9992C28.0444 18.9992 25.7444 18.9992 23.4444 18.9992C22.7444 18.9992 22.3444 18.6992 22.3444 18.0992C22.3444 17.4992 22.7444 17.1992 23.4444 17.1992C28.0444 17.1992 32.7444 17.1992 37.3444 17.1992C38.0444 17.1992 38.4444 17.4992 38.4444 18.0992C38.4444 18.5992 38.0444 18.8992 37.4444 18.8992C35.0444 18.9992 32.7444 18.9992 30.3444 18.9992Z" fill="#ECF4FD"/>
<path d="M30.3444 22.4992C28.0444 22.4992 25.7444 22.4992 23.4444 22.4992C22.7444 22.4992 22.3444 22.1992 22.3444 21.5992C22.3444 20.9992 22.7444 20.6992 23.4444 20.6992C28.0444 20.6992 32.6444 20.6992 37.3444 20.6992C38.0444 20.6992 38.4444 20.9992 38.4444 21.5992C38.4444 22.0992 38.0444 22.3992 37.3444 22.3992C35.0444 22.4992 32.6444 22.4992 30.3444 22.4992Z" fill="#ECF4FD"/>
<path d="M30.3444 11.9992C28.0444 11.9992 25.7444 11.9992 23.4444 11.9992C22.7444 11.9992 22.3444 11.6992 22.3444 11.0992C22.3444 10.5992 22.7444 10.1992 23.4444 10.1992C28.0444 10.1992 32.7444 10.1992 37.3444 10.1992C38.0444 10.1992 38.4444 10.5992 38.4444 11.0992C38.4444 11.5992 38.0444 11.8992 37.3444 11.8992C35.0444 11.9992 32.7444 11.9992 30.3444 11.9992Z" fill="#ECF4FD"/>
<path d="M30.4444 15.4992C28.1444 15.4992 25.8444 15.4992 23.5444 15.4992C22.8444 15.4992 22.4444 15.1992 22.4444 14.5992C22.4444 13.9992 22.8444 13.6992 23.5444 13.6992C26.1444 13.6992 28.8444 13.6992 31.4444 13.6992C33.3444 13.6992 35.2444 13.6992 37.1444 13.6992C37.3444 13.6992 37.5444 13.6992 37.7444 13.7992C38.2444 13.8992 38.4444 14.2992 38.3444 14.7992C38.2444 15.1992 37.9444 15.4992 37.4444 15.4992C35.8444 15.4992 34.1444 15.4992 32.5444 15.4992C31.9444 15.4992 31.1444 15.4992 30.4444 15.4992Z" fill="#ECF4FD"/>
<path d="M21.2444 39.8016C21.2444 37.6016 21.2444 35.3016 21.2444 33.1016C22.5444 33.1016 23.8444 33.1016 25.2444 33.1016C24.6444 35.4016 24.5444 37.6016 25.1444 39.9016C23.8444 39.9016 22.5444 39.9016 21.2444 39.8016Z" fill="#ECF4FD"/>
<path d="M7.34442 33.1C7.24442 33.4 7.14441 33.6 7.14441 33.9C7.14441 35.6 7.14441 37.3 7.14441 39C7.14441 39.3 7.24438 39.6 7.24438 39.9C6.54438 39.9 5.84438 39.9 5.24438 39.9C4.74438 39.9 4.4444 39.7 4.4444 39.1C4.4444 37.3 4.4444 35.6 4.4444 33.8C4.4444 33.3 4.64441 33 5.14441 33C5.84441 33.1 6.54442 33.1 7.34442 33.1Z" fill="#ECF4FD"/>
<path d="M26.9444 36.5008H17.6444C12.2444 36.5008 7.84442 32.1008 7.84442 26.7008V23.6008C7.84442 18.2008 12.2444 13.8008 17.6444 13.8008H26.9444C32.3444 13.8008 36.7444 18.2008 36.7444 23.6008V26.7008C36.8444 32.1008 32.4444 36.5008 26.9444 36.5008Z" fill="white"/>
<path d="M26.1444 20.1016C27.1444 21.6016 27.3444 23.3016 26.5444 25.0016C25.7444 26.6016 24.4444 27.6016 22.6444 27.8016C20.6444 28.0016 18.9444 27.3016 17.8444 25.6016C16.7444 23.9016 16.7444 22.1016 17.8444 20.3016C19.1444 20.3016 20.5444 20.3016 21.8444 20.3016C23.2444 20.2016 24.7444 20.1016 26.1444 20.1016Z" fill="#F8C582"/>
<path d="M16.3444 34.1015C16.4444 30.7015 19.1444 28.3014 22.2444 28.4014C25.4444 28.5014 27.9444 31.1015 27.8444 34.1015C23.9444 34.1015 20.1444 34.1015 16.3444 34.1015Z" fill="#5997D0"/>
<path d="M26.1444 20.1007C24.7444 20.2007 23.2444 20.2007 21.8444 20.3007C20.5444 20.3007 19.1444 20.3007 17.8444 20.3007C17.7444 18.4007 19.2444 16.2007 21.9444 16.2007C24.2444 16.1007 26.5444 16.2007 28.8444 16.2007C28.9444 16.2007 28.9444 16.2007 29.0444 16.3007C28.9444 18.1007 27.9444 19.4007 26.1444 20.1007Z" fill="#353B6F"/>
<path d="M29.9444 23.4018C30.2444 23.8018 30.4444 23.8018 30.9444 23.6018C36.0444 21.5018 40.7444 22.2018 44.9444 25.8018C47.4444 27.9018 48.8444 30.7018 49.3444 34.0018C49.6444 36.4018 49.3444 38.7018 48.3444 41.0018C48.3444 41.1018 48.2444 41.2018 48.1444 41.3018C47.2444 41.0018 46.3444 40.7018 45.3444 40.4018C46.7444 37.4018 46.8444 34.4018 45.4444 31.3018C44.4444 29.2018 42.9444 27.6018 40.8444 26.5018C36.7444 24.4018 31.6444 25.3018 28.5444 28.8018C25.3444 32.3018 25.0444 37.4018 27.6444 41.4018C30.1444 45.2018 35.0444 47.1018 39.8444 45.3018C40.1444 46.2018 40.4444 47.1018 40.7444 48.1018C40.1444 48.3018 39.6444 48.5018 39.0444 48.6018C33.4444 49.8018 28.0444 47.5018 25.0444 42.7018C23.5444 40.3018 22.9444 37.7018 23.1444 34.9018C23.3444 31.7018 24.6444 28.9018 26.8444 26.6018C27.1444 26.2018 27.2444 26.0018 26.9444 25.6018C27.2444 25.4018 27.5444 25.1018 27.8444 24.9018C28.1444 25.2018 28.4444 25.2018 28.7444 25.0018C29.0444 24.8018 29.0444 24.5018 28.8444 24.1018C29.1444 23.8018 29.5444 23.6018 29.9444 23.4018Z" fill="#90DCF3"/>
<path d="M38.7444 41.8015C38.9444 42.5015 39.2444 43.3015 39.4444 44.0015C36.7444 45.2015 32.1444 44.9015 29.2444 41.3015C26.3444 37.7015 26.6444 32.4015 29.9444 29.2015C33.2444 26.0015 38.4444 25.7015 42.0444 28.6015C45.7444 31.7015 46.0444 36.6015 44.2444 39.9015C43.5444 39.7015 42.7444 39.4015 42.0444 39.1015C44.0444 35.7015 42.7444 32.0015 40.3444 30.2015C37.8444 28.3015 34.3444 28.4015 31.9444 30.5015C29.6444 32.5015 28.9444 35.9015 30.4444 38.6015C31.7444 41.4015 35.0444 43.2015 38.7444 41.8015Z" fill="#D5D4D6"/>
<path d="M40.6444 38.8016C40.2444 38.7016 39.8444 38.5016 39.3444 38.4016C38.9444 38.3016 38.5444 38.3016 38.1444 38.6016C37.8444 38.9016 37.7444 39.3016 37.9444 39.7016C38.0444 40.0016 38.1444 40.3016 38.2444 40.6016C36.6444 41.5016 33.7444 41.3016 31.9444 39.1016C30.1444 36.9016 30.3444 33.8016 32.3444 31.8016C34.3444 29.8016 37.5444 29.7016 39.6444 31.5016C41.8444 33.3016 42.2444 36.5016 40.6444 38.8016Z" fill="#F3727E"/>
<path d="M50.7444 49.1C50.0444 49.8 49.4444 50.4 48.7444 51C48.6444 51 48.6444 50.9 48.5444 50.8C47.6444 49.9 46.7444 49 45.8444 48.1C45.3444 47.6 45.1444 47.6 44.6444 48.1C44.0444 48.7 43.3444 49.4 42.7444 50C41.5444 46.5 40.4444 43 39.2444 39.5C42.7444 40.7 46.2444 41.8 49.7444 43C49.2444 43.5 48.7444 44 48.3444 44.4C48.1444 44.6 47.9444 44.8 47.7444 45C47.4444 45.3 47.4444 45.7 47.7444 46C48.8444 47.1 49.7444 48.1 50.7444 49.1Z" fill="#DFE1E7"/>
</svg>
