<svg width="55" height="57" viewBox="0 0 55 57" fill="none" xmlns="http://www.w3.org/2000/svg">
<path d="M2.74438 56.9016C2.64438 56.0016 2.24442 55.6016 1.34442 55.6016C0.944421 55.6016 0.544434 55.6016 0.0444336 55.6016C0.144434 55.4016 0.244385 55.3016 0.244385 55.1016C1.84438 52.6016 3.44443 50.0016 5.04443 47.5016C5.24443 47.2016 5.44442 47.1016 5.84442 47.1016C6.44442 47.1016 7.04438 47.1016 7.74438 47.1016C7.54438 47.5016 7.34441 47.9016 7.14441 48.3016C6.54441 49.5016 5.94442 50.7016 5.34442 51.9016C4.84442 53.0016 5.34443 53.9016 6.54443 53.9016C7.14443 53.9016 7.74438 53.9016 8.24438 53.9016C21.3444 53.9016 34.5444 53.9016 47.6444 53.9016C47.8444 53.9016 48.0444 53.9016 48.2444 53.9016C49.3444 53.9016 49.9445 53.0016 49.4445 52.0016C48.7445 50.6016 48.0444 49.1015 47.2444 47.7015C47.1444 47.5015 47.0445 47.3016 46.9445 47.1016C47.7445 47.1016 48.4444 47.1016 49.1444 47.1016C49.2444 47.1016 49.4444 47.2016 49.5444 47.3016C51.2444 50.0016 52.8445 52.6016 54.4445 55.3016C54.4445 55.3016 54.4445 55.4016 54.4445 55.5016C54.2445 55.5016 53.9444 55.5016 53.7444 55.5016C39.8444 55.5016 25.8444 55.5016 11.9444 55.5016C11.7444 55.5016 11.5444 55.5016 11.3444 55.5016C10.4444 55.5016 10.0444 55.9016 9.9444 56.8016C9.1444 56.8016 8.34443 56.8016 7.54443 56.8016C7.44443 56.0016 7.04442 55.5016 6.34442 55.5016C5.64442 55.5016 5.24441 56.0016 5.14441 56.8016C4.24441 56.9016 3.54438 56.9016 2.74438 56.9016Z" fill="#858FA5"/>
<path d="M10.2444 40.5008C10.2444 34.7008 10.2444 29.0008 10.2444 23.3008C10.4444 23.3008 10.6444 23.3008 10.7444 23.3008C15.5444 23.3008 20.2444 23.3008 25.0444 23.3008C25.4444 23.3008 25.6444 23.4007 25.8444 23.7007C26.7444 25.2007 28.5445 25.2007 29.4445 23.7007C29.5445 23.4007 29.7444 23.3008 30.0444 23.3008C34.7444 23.3008 39.4444 23.3008 44.0444 23.3008C44.1444 23.3008 44.2444 23.3008 44.3444 23.3008C44.3444 29.0008 44.3444 34.7008 44.3444 40.5008C33.0444 40.5008 21.6444 40.5008 10.2444 40.5008ZM27.3444 38.5008C30.0444 38.5008 32.7444 38.5008 35.5444 38.5008C36.6444 38.5008 37.0444 38.1008 37.0444 37.0008C37.0444 33.6008 37.0444 30.2008 37.0444 26.8008C37.0444 25.7008 36.6444 25.3008 35.5444 25.3008C30.1444 25.3008 24.7444 25.3008 19.2444 25.3008C18.1444 25.3008 17.7444 25.7008 17.7444 26.8008C17.7444 30.2008 17.7444 33.6008 17.7444 37.0008C17.7444 38.1008 18.1444 38.5008 19.2444 38.5008C21.9444 38.6008 24.6444 38.5008 27.3444 38.5008Z" fill="#FAB18B"/>
<path d="M16.5444 5C23.9444 5 31.2444 5 38.5444 5C38.5444 9.2 38.5444 13.4 38.5444 17.6C37.7444 17.6 36.9444 17.6 36.2444 17.6C34.6444 17.6 33.0444 17.6 31.5444 17.6C30.5444 17.6 29.8445 18 29.4445 18.9C28.9445 19.9 28.3444 21 27.7444 22C27.1444 20.9 26.4444 19.9 25.8444 18.8C25.3444 17.9 24.6444 17.6 23.7444 17.6C21.6444 17.6 19.4444 17.6 17.3444 17.6C17.1444 17.6 16.9444 17.6 16.6444 17.6C16.5444 13.4 16.5444 9.2 16.5444 5Z" fill="#90DCF3"/>
<path d="M5.84436 44.7015C5.84436 36.2015 5.84436 27.7016 5.84436 19.1016C6.04436 19.1016 6.14436 19.1016 6.34436 19.1016C8.74436 19.1016 11.1443 19.1016 13.6443 19.1016C13.9443 19.1016 14.1444 19.1016 14.3444 19.5016C14.5444 20.0016 15.0444 20.1016 15.5444 20.1016C17.9444 20.1016 20.4444 20.1016 22.8444 20.1016C23.5444 20.1016 23.8444 20.3016 24.0444 21.0016C23.8444 21.0016 23.6444 21.0016 23.4444 21.0016C18.7444 21.0016 14.0443 21.0016 9.24432 21.0016C8.04432 21.0016 7.74432 21.4016 7.74432 22.6016C7.74432 28.9016 7.74432 35.2016 7.74432 41.6016C7.74432 42.7016 8.14436 43.2015 9.34436 43.2015C21.3444 43.2015 33.3443 43.2015 45.3443 43.2015C46.4443 43.2015 46.9444 42.8016 46.9444 41.6016C46.9444 35.3016 46.9444 29.0016 46.9444 22.6016C46.9444 21.4016 46.5444 21.0016 45.4444 21.0016C40.7444 21.0016 35.9443 21.0016 31.2443 21.0016C31.4443 20.2016 31.4443 20.1016 32.2443 20.1016C34.6443 20.1016 37.1444 20.1016 39.5444 20.1016C40.1444 20.1016 40.6444 20.0016 41.0444 19.4016C41.0444 19.3016 41.2443 19.2015 41.3443 19.2015C43.8443 19.2015 46.3443 19.2015 48.8443 19.2015C48.8443 27.8015 48.8443 36.3016 48.8443 44.8016C34.5443 44.7016 20.2444 44.7015 5.84436 44.7015Z" fill="#C2C3C4"/>
<path d="M8.24438 51.5032C8.74438 50.5032 9.34438 49.5032 9.74438 48.5032C10.1444 47.4032 10.7444 47.2031 11.8444 47.2031C22.4444 47.3031 33.0444 47.2031 43.5444 47.2031C43.9444 47.2031 44.2445 47.3031 44.4445 47.7031C45.0445 49.0031 45.6444 50.2032 46.3444 51.5032C33.6444 51.5032 21.0444 51.5032 8.24438 51.5032ZM13.0444 50.4031C13.4444 50.4031 13.7444 50.4031 14.1444 50.4031C14.8444 50.4031 15.3444 49.9031 15.3444 49.2031C15.3444 48.5031 14.8444 48.0032 14.2444 48.0032C13.5444 48.0032 12.8444 48.0032 12.1444 48.0032C11.4444 48.0032 10.9444 48.6031 10.9444 49.2031C10.9444 49.9031 11.4444 50.4031 12.0444 50.4031C12.2444 50.5031 12.6444 50.4031 13.0444 50.4031ZM41.6444 50.4031C42.0444 50.4031 42.3444 50.4031 42.7444 50.4031C43.4444 50.4031 43.8445 49.9032 43.9445 49.3032C43.9445 48.6032 43.5444 48.1032 42.8444 48.0032C42.0444 48.0032 41.3444 48.0032 40.5444 48.0032C39.9444 48.0032 39.4445 48.6031 39.4445 49.2031C39.4445 49.9031 39.9444 50.4031 40.6444 50.4031C40.9444 50.5031 41.3444 50.4031 41.6444 50.4031ZM35.9445 50.4031C36.3445 50.4031 36.6444 50.4031 37.0444 50.4031C37.7444 50.4031 38.1444 49.9032 38.1444 49.3032C38.1444 48.6032 37.7444 48.1032 37.0444 48.0032C36.2444 48.0032 35.5444 48.0032 34.7444 48.0032C34.1444 48.0032 33.6444 48.6031 33.6444 49.2031C33.6444 49.9031 34.1444 50.4031 34.8444 50.4031C35.2444 50.5031 35.6445 50.4031 35.9445 50.4031ZM18.7444 50.4031C19.1444 50.4031 19.4444 50.4031 19.8444 50.4031C20.5444 50.4031 21.0444 49.9031 21.0444 49.2031C21.0444 48.6031 20.5444 48.0032 19.9444 48.0032C19.1444 48.0032 18.4444 48.0032 17.6444 48.0032C16.9444 48.0032 16.5444 48.6032 16.5444 49.3032C16.5444 49.9032 17.0444 50.4031 17.7444 50.4031C18.0444 50.5031 18.3444 50.4031 18.7444 50.4031ZM24.4445 50.4031C24.8445 50.4031 25.2444 50.4031 25.5444 50.4031C26.1444 50.4031 26.6444 49.8031 26.6444 49.2031C26.6444 48.6031 26.1444 48.0032 25.5444 48.0032C24.7444 48.0032 24.0444 48.0032 23.2444 48.0032C22.6444 48.0032 22.1444 48.6031 22.1444 49.2031C22.1444 49.8031 22.6444 50.3031 23.2444 50.4031C23.7444 50.5031 24.0445 50.4031 24.4445 50.4031ZM30.2444 48.0032C29.8444 48.0032 29.4444 48.0032 29.1444 48.0032C28.4444 48.0032 27.9445 48.6031 27.9445 49.2031C27.9445 49.8031 28.4444 50.3031 29.0444 50.4031C29.7444 50.4031 30.4444 50.4031 31.2444 50.4031C31.9444 50.4031 32.4445 49.9031 32.4445 49.2031C32.4445 48.5031 31.9444 48.0032 31.2444 48.0032C30.9444 48.0032 30.6444 48.0032 30.2444 48.0032Z" fill="#B7B6B6"/>
<path d="M34.5444 36.1008C29.7444 36.1008 24.9444 36.1008 20.1444 36.1008C20.1444 33.7008 20.1444 31.2008 20.1444 28.8008C20.6444 29.1008 21.1444 29.5008 21.6444 29.8008C23.2444 30.8008 24.8445 31.8008 26.4445 32.9008C27.0445 33.3008 27.5444 33.3008 28.1444 32.9008C30.0444 31.7008 31.9444 30.4007 33.8444 29.2007C34.0444 29.1007 34.2445 29.0008 34.4445 28.8008C34.5445 31.3008 34.5444 33.7008 34.5444 36.1008Z" fill="#99B1B1"/>
<path d="M31.5444 27.8008C30.1444 28.7008 28.9444 29.5008 27.6444 30.3008C27.4444 30.4008 27.1444 30.4008 27.0444 30.3008C25.7444 29.5008 24.4444 28.7008 23.1444 27.8008C25.9444 27.8008 28.7444 27.8008 31.5444 27.8008Z" fill="#99B1B1"/>
<g opacity="0.7">
<path opacity="0.7" d="M23.5444 2.10156L32.1444 10.2015" stroke="#CF4E27" stroke-width="3" stroke-miterlimit="10" stroke-linecap="round"/>
<path opacity="0.7" d="M32.2444 2.30078L23.2444 10.0008" stroke="#CF4E27" stroke-width="3" stroke-miterlimit="10" stroke-linecap="round"/>
</g>
</svg>
