<svg width="127" height="155" viewBox="0 0 127 155" fill="none" xmlns="http://www.w3.org/2000/svg">
<path d="M86.3692 30C94.9846 30 103.385 30 112 30C112 33.041 112 35.6476 112 38.4713C111.138 55.8484 110.277 73.2254 109.415 90.6025C109.2 94.7295 108.985 98.6393 108.554 102.766C104.031 101.246 99.5077 100.377 94.7692 101.029C84.6462 102.332 75.3847 110.369 72.8 120.578C71.5077 125.791 71.7231 131.004 73.2308 136C68.2769 136 63.3231 136 58.3692 136C46.9539 136 35.3231 136 23.9077 136C12.7077 136 4.52313 127.963 4.09236 116.668C3.23082 95.8156 2.15385 74.9631 1.07692 54.1107C0.646154 46.9426 0.430769 39.7746 0 32.6066C0 31.7377 0 30.8689 0 30C8.83077 30 17.2308 30 25.8462 30C25.8462 34.127 25.8462 38.0369 25.8462 42.1639C25.8462 44.3361 26.9231 45.6394 28.8616 45.6394C30.8001 45.6394 31.6616 44.3361 31.6616 42.1639C31.6616 38.0369 31.6616 34.127 31.6616 30C47.8154 30 63.9693 30 80.1231 30C80.1231 30.6516 80.3385 31.3033 80.3385 32.1721C80.3385 35.4303 80.3385 38.6885 80.3385 41.9467C80.3385 42.8156 80.3385 43.4672 80.5539 44.1189C81.2001 45.4221 82.277 46.0738 83.7847 45.6394C85.2924 45.4222 85.9385 44.3361 85.9385 42.8156C86.1539 38.6885 86.1539 34.3443 86.3692 30Z" fill="#B3DAF3"/>
<path d="M87.2084 152.274C82.4844 149.473 78.4046 146.025 75.6131 141.285C70.0302 132.02 71.1039 119.308 77.5457 110.689C80.5519 106.595 84.6317 104.01 89.1409 101.855C94.7238 100.131 100.307 99.2695 106.104 100.778C121.565 104.656 130.583 121.031 125.644 136.114C120.706 151.412 103.742 158.953 88.9262 152.92C88.282 152.489 87.8526 152.274 87.2084 152.274ZM103.742 127.28C106.319 124.694 108.681 122.54 110.828 120.17C112.117 118.877 112.117 117.369 110.828 116.076C109.755 114.783 108.252 114.783 106.963 115.645C106.104 116.291 105.46 116.938 104.816 117.584C103.098 119.308 101.166 121.031 99.4478 122.971C97.0858 120.6 94.7238 118.23 92.5766 116.076C91.2882 114.783 89.7851 114.783 88.282 116.076C86.9937 117.153 86.9937 118.877 88.282 120.385C88.9262 121.031 89.5704 121.678 90.2146 122.324C91.9324 124.048 93.6502 125.772 95.368 127.495C93.006 129.865 90.8587 132.02 88.7114 134.175C86.9936 135.898 86.9937 137.622 88.282 138.915C89.5704 140.208 91.2882 139.992 93.006 138.269C95.1532 136.114 97.3005 133.959 99.6625 131.589C102.024 133.959 104.172 136.114 106.319 138.269C108.037 139.992 109.755 140.208 111.043 138.699C112.546 137.407 112.331 135.683 110.614 133.959C108.252 131.805 106.104 129.65 103.742 127.28Z" fill="#B05439"/>
<path opacity="0.9" d="M86 30.3237C86 34.6634 85.7857 38.7862 85.7857 43.1259C85.7857 44.6448 85.1428 45.7297 83.6428 45.9467C82.1428 46.1637 81.0714 45.7297 80.4286 44.4278C80.2143 43.7768 80.2143 42.9089 80.2143 42.2579C80.2143 39.0032 80.2143 35.7484 80.2143 32.4936C80.2143 31.8426 80.2143 31.1917 80 30.3237C80 26.635 80.2143 22.9462 80 19.2575C79.7857 12.097 74 6.23833 66.9286 6.02134C59.6429 5.80436 52.3571 5.80436 45.0714 6.02134C38.6428 6.23833 33.0714 11.012 32.2143 17.3046C31.5714 21.6443 32 25.984 31.7857 30.3237C31.7857 34.4465 31.7857 38.3522 31.7857 42.4749C31.7857 44.8618 30.7143 45.9467 29 45.9467C27.0714 45.9467 26 44.6448 26 42.4749C26 38.3522 26 34.4465 26 30.3237C26.2143 25.767 26 21.2104 26.4286 16.6537C27.7143 7.32328 35.8571 0.162739 45.0714 0.162739C52.3571 -0.0542464 59.6429 -0.0542464 66.9286 0.162739C77.2143 0.379725 85.3571 8.62517 86 19.0405C86 22.9462 85.7857 26.635 86 30.3237Z" fill="#554F56"/>
<path d="M104.109 126.756C106.648 129.402 108.975 131.828 111.514 134.474C113.418 136.459 113.418 138.223 111.937 139.987C110.456 141.531 108.552 141.31 106.648 139.325C104.321 136.9 101.993 134.474 99.4545 131.828C96.9157 134.474 94.5884 136.9 92.2612 139.325C90.357 141.31 88.4529 141.531 86.9719 139.987C85.4909 138.443 85.7025 136.459 87.6066 134.474C89.9339 132.049 92.2612 129.623 94.8 126.977C92.8959 124.992 90.9917 123.007 89.0876 121.023C88.4529 120.361 87.6066 119.7 87.1835 118.818C85.9141 117.274 85.9141 115.069 87.1835 113.966C88.6645 112.643 90.357 112.643 91.838 114.187C94.3768 116.613 96.7041 119.259 99.4545 122.125C101.57 119.92 103.474 117.936 105.379 115.951C106.013 115.289 106.859 114.407 107.706 113.746C109.187 112.643 110.879 112.864 111.937 114.187C113.207 115.73 113.207 117.274 111.937 118.818C109.398 121.243 106.86 123.889 104.109 126.756Z" fill="#FBF8E1"/>
<path opacity="0.7" d="M16 67H95" stroke="#42BDA8" stroke-width="5" stroke-miterlimit="10" stroke-linecap="round"/>
<path opacity="0.7" d="M16 83H95" stroke="#42BDA8" stroke-width="5" stroke-miterlimit="10" stroke-linecap="round"/>
</svg>
