<svg width="90" height="91" viewBox="0 0 90 91" fill="none" xmlns="http://www.w3.org/2000/svg">
<path d="M44.7124 0.000787945C40.9803 0.0177202 37.4167 0.332982 34.2814 0.882877C25.044 2.4995 23.3668 5.88192 23.3668 12.121V20.3606H45.196V23.1068H15.1739C8.83003 23.1068 3.27422 26.8835 1.5368 34.0676C-0.467655 42.3023 -0.556399 47.4409 1.5368 56.0392C3.08859 62.4396 6.79463 67 13.1386 67H20.6443V57.1229C20.6443 49.9871 26.8783 43.6932 34.2814 43.6932H56.0854C62.1549 43.6932 67 38.7441 67 32.7074V12.1202C67 6.26168 62.0092 1.86011 56.0854 0.882071C52.3346 0.264447 48.4445 -0.0169506 44.7124 0.000787945ZM32.9071 6.62693C35.1623 6.62693 37.0032 8.48061 37.0032 10.7592C37.0032 13.0297 35.1615 14.8665 32.9071 14.8665C30.6446 14.8665 28.8111 13.0305 28.8111 10.7592C28.8111 8.48061 30.6446 6.62693 32.9071 6.62693Z" fill="#F5FBFF"/>
<path d="M69.2618 23V32.6691C69.2618 40.1657 62.9031 46.4751 55.6523 46.4751H33.8925C27.9319 46.4751 23 51.5736 23 57.5402V78.2744C23 84.1761 28.1334 87.6471 33.8925 89.3395C40.7883 91.3666 47.4013 91.7328 55.6523 89.3395C61.1367 87.7526 66.5448 84.5578 66.5448 78.2744V69.9762H44.785V67.2101H77.4373C83.7692 67.2101 86.1279 62.7954 88.3298 56.1702C90.6048 49.35 90.5081 42.7897 88.3298 34.0399C86.7649 27.7403 83.7765 23 77.4373 23H69.2618ZM57.023 75.5083C59.281 75.5083 61.1107 77.3575 61.1107 79.6453C61.1107 81.9403 59.281 83.8074 57.023 83.8074C54.7724 83.8074 52.9353 81.9403 52.9353 79.6453C52.9353 77.3583 54.7732 75.5083 57.023 75.5083Z" fill="#F5FBFF"/>
</svg>
