<svg width="267" height="80" viewBox="0 0 267 80" fill="none" xmlns="http://www.w3.org/2000/svg">
<path d="M0.700055 33.0201C0.700055 28.84 0.600085 25.11 0.480085 21.86C0.420085 20.28 1.68005 18.98 3.26005 18.98H9.15007C10.5801 18.98 11.77 20.06 11.92 21.48L12.2601 24.8H12.43C15.51 20.35 20.31 18.04 26.38 18.04C35.54 18.04 43.7601 26 43.7601 39.36C43.7601 54.6 34.09 61.79 24.75 61.79C19.7 61.79 15.76 59.74 13.88 57H13.7101V75.0201C13.7101 76.5601 12.46 77.8 10.93 77.8H3.48008C1.94008 77.8 0.700055 76.55 0.700055 75.0201V33.0201ZM13.7101 42.86C13.7101 43.89 13.8001 44.83 13.9701 45.6C14.8301 49.11 17.8201 51.76 21.5901 51.76C27.2401 51.76 30.5801 47.05 30.5801 39.95C30.5801 33.27 27.5801 28.22 21.7601 28.22C18.0801 28.22 14.8301 30.96 13.9701 34.81C13.8001 35.5 13.7101 36.35 13.7101 37.12V42.86Z" fill="white"/>
<path d="M58.8201 18.9801C60.0401 18.9801 61.1301 19.7801 61.4801 20.9501L67.1301 39.5201C67.8101 42.0001 68.6701 45.0801 69.1801 47.3101H69.4401C70.0401 45.0801 70.7201 41.9201 71.3201 39.5201L75.9301 21.0801C76.2401 19.8401 77.3501 18.9701 78.6301 18.9701H86.4801C88.4001 18.9701 89.7401 20.8701 89.1001 22.6801L80.6501 46.5401C74.6601 63.1501 70.6301 69.8301 65.9201 74.0201C62.5501 76.9401 59.0501 78.4501 56.1301 79.2101C54.6201 79.6001 53.0701 78.7101 52.7001 77.1901L51.2601 71.3801C50.9201 70.0001 51.6401 68.5601 52.9801 68.0701C54.0401 67.6801 55.1601 67.1501 56.2501 66.4801C58.2201 65.4501 60.3601 63.4001 61.6401 61.2601C62.0701 60.6601 62.3201 59.9801 62.3201 59.3801C62.3201 58.9501 62.2301 58.2701 61.7201 57.2401L47.9201 22.7901C47.1901 20.9601 48.5301 18.9701 50.5001 18.9701H58.8201V18.9801Z" fill="white"/>
<path d="M110.45 10.4801V16.1901C110.45 17.7301 111.7 18.9701 113.23 18.9701H117C118.54 18.9701 119.78 20.2201 119.78 21.7501V25.7701C119.78 27.3101 118.53 28.5501 117 28.5501H113.23C111.69 28.5501 110.45 29.8001 110.45 31.3301V43.7001C110.45 48.7501 111.65 51.0601 115.59 51.0601C115.93 51.0601 116.26 51.0501 116.57 51.0401C118.14 50.9701 119.46 52.2201 119.47 53.7901L119.51 58.4201C119.52 59.7801 118.55 60.9401 117.22 61.1801C115.55 61.4901 113.43 61.6701 111.05 61.6701C106.86 61.6701 103.35 60.2101 101.29 58.0701C98.89 55.5901 97.6901 51.5601 97.6901 45.6601V31.3201C97.6901 29.7801 96.44 28.5401 94.91 28.5401C93.37 28.5401 92.1301 27.2901 92.1301 25.7601V21.7401C92.1301 20.2001 93.38 18.9601 94.91 18.9601C96.45 18.9601 97.6901 17.7101 97.6901 16.1801V12.1101C97.6901 10.8101 98.5901 9.69006 99.8501 9.40006L107.04 7.76008C108.79 7.37008 110.45 8.69008 110.45 10.4801Z" fill="white"/>
<path d="M130.1 0.0600586H137.55C139.09 0.0600586 140.33 1.31006 140.33 2.84006V23.9401H140.5C141.87 22.1401 143.58 20.7701 145.64 19.6601C147.52 18.6301 150.01 18.0301 152.4 18.0301C160.7 18.0301 167.04 23.7701 167.04 36.3501V58.0501C167.04 59.5901 165.79 60.8301 164.26 60.8301H156.81C155.27 60.8301 154.03 59.5801 154.03 58.0501V37.8001C154.03 32.3201 152.15 28.5501 147.27 28.5501C143.85 28.5501 141.71 30.7801 140.76 33.0901C140.42 33.9501 140.33 35.0601 140.33 36.0001V58.0401C140.33 59.5801 139.08 60.8201 137.55 60.8201H130.1C128.56 60.8201 127.32 59.5701 127.32 58.0401V2.82007C127.31 1.30007 128.56 0.0600586 130.1 0.0600586Z" fill="white"/>
<path d="M218.83 39.44C218.83 54.76 207.96 61.78 196.74 61.78C184.5 61.78 175.08 53.7301 175.08 40.2101C175.08 26.6901 183.98 18.04 197.42 18.04C210.27 18.03 218.83 26.85 218.83 39.44ZM188.52 39.87C188.52 47.06 191.52 52.4501 197.08 52.4501C202.13 52.4501 205.38 47.4 205.38 39.87C205.38 33.62 202.98 27.29 197.08 27.29C190.83 27.28 188.52 33.7 188.52 39.87Z" fill="white"/>
<path d="M226.87 32.33C226.87 28.4 226.77 24.91 226.65 21.86C226.59 20.28 227.85 18.98 229.43 18.98H235.32C236.74 18.98 237.94 20.06 238.09 21.47L238.43 24.7101H238.69C240.4 22.0601 244.68 18.03 251.62 18.03C260.18 18.03 266.6 23.68 266.6 36.01V58.05C266.6 59.59 265.35 60.83 263.82 60.83H256.37C254.83 60.83 253.59 59.58 253.59 58.05V37.63C253.59 32.24 251.71 28.56 247 28.56C243.4 28.56 241.26 31.04 240.41 33.44C240.07 34.21 239.9 35.49 239.9 36.69V58.05C239.9 59.59 238.65 60.83 237.12 60.83H229.67C228.13 60.83 226.89 59.58 226.89 58.05V32.33H226.87Z" fill="white"/>
</svg>
