<svg width="37" height="35" viewBox="0 0 37 35" fill="CurrentColor" xmlns="http://www.w3.org/2000/svg">
<path d="M35.8187 16.9498C36.3413 16.4685 36.7121 15.8493 36.887 15.1661C37.0618 14.483 37.0333 13.7647 36.8048 13.0971C36.5892 12.4285 36.1851 11.834 35.6395 11.3829C35.0939 10.9317 34.4293 10.6424 33.7232 10.5488L25.9575 9.42638C25.8387 9.41207 25.7256 9.36841 25.6286 9.29945C25.5316 9.23049 25.4539 9.13849 25.4028 9.03201L21.9206 2.08496C21.6038 1.45866 21.1159 0.931752 20.5116 0.563436C19.9073 0.195121 19.2107 0 18.5 0C17.7893 0 17.0927 0.195121 16.4884 0.563436C15.8841 0.931752 15.3962 1.45866 15.0794 2.08496L11.5972 9.03201C11.5461 9.13849 11.4684 9.23049 11.3714 9.29945C11.2744 9.36841 11.1613 9.41207 11.0425 9.42638L3.27684 10.5488C2.57068 10.6424 1.90609 10.9317 1.3605 11.3829C0.814912 11.834 0.410793 12.4285 0.195231 13.0971C-0.033303 13.7647 -0.0618449 14.483 0.113012 15.1661C0.28787 15.8493 0.658739 16.4685 1.18135 16.9498L6.78988 22.3194C6.87034 22.4101 6.931 22.5162 6.96811 22.631C7.00521 22.7458 7.01797 22.8669 7.00559 22.9868L5.6805 30.6012C5.55637 31.2904 5.63165 32.0001 5.89774 32.6491C6.16384 33.2982 6.61002 33.8605 7.18531 34.2718C7.7606 34.6831 8.44181 34.9269 9.15112 34.9752C9.86044 35.0234 10.5692 34.8744 11.1966 34.545L18.161 30.9653C18.2641 30.9067 18.381 30.8758 18.5 30.8758C18.619 30.8758 18.7359 30.9067 18.839 30.9653L25.8034 34.545C26.3404 34.8405 26.9448 34.997 27.5599 35C28.116 34.9991 28.6651 34.8787 29.169 34.6473C29.6729 34.4159 30.1194 34.079 30.4774 33.6601C30.8354 33.2413 31.0962 32.7506 31.2417 32.2222C31.3871 31.6939 31.4137 31.1407 31.3195 30.6012L29.9944 22.9868C29.9805 22.8715 29.9927 22.7546 30.03 22.6445C30.0672 22.5344 30.1288 22.4337 30.2101 22.3497L35.8187 16.9498ZM28.053 20.1655C27.6118 20.5939 27.2831 21.1216 27.0952 21.7029C26.9073 22.2842 26.8659 22.9019 26.9744 23.5025L28.2995 31.1169C28.3223 31.2501 28.3053 31.3869 28.2505 31.5108C28.1958 31.6346 28.1058 31.7402 27.9914 31.8147C27.8781 31.8916 27.7438 31.9329 27.6062 31.9329C27.4686 31.9329 27.3342 31.8916 27.221 31.8147L20.2873 28.2653C19.7343 27.9858 19.1216 27.8401 18.5 27.8401C17.8784 27.8401 17.2657 27.9858 16.7127 28.2653L9.77904 31.8753C9.6658 31.9523 9.53145 31.9935 9.39384 31.9935C9.25623 31.9935 9.12188 31.9523 9.00864 31.8753C8.89419 31.8009 8.80415 31.6953 8.74945 31.5715C8.69475 31.4476 8.67774 31.3108 8.70048 31.1776L10.0256 23.5632C10.1341 22.9625 10.0927 22.3449 9.90479 21.7636C9.71689 21.1822 9.38818 20.6546 8.94701 20.2262L3.30766 14.7656C3.20995 14.6735 3.13858 14.5578 3.10072 14.43C3.06285 14.3022 3.05983 14.1668 3.09195 14.0375C3.13271 13.9019 3.21269 13.7809 3.32214 13.6894C3.43159 13.5978 3.56576 13.5396 3.70827 13.5218L11.4739 12.4297C12.0855 12.3398 12.6658 12.1051 13.165 11.7458C13.6642 11.3865 14.0673 10.9133 14.3398 10.3668L17.8529 3.4501C17.9087 3.32707 17.9995 3.22259 18.1143 3.14928C18.2292 3.07596 18.3631 3.03694 18.5 3.03694C18.6369 3.03694 18.7708 3.07596 18.8857 3.14928C19.0005 3.22259 19.0913 3.32707 19.1471 3.4501L22.6294 10.3668C22.9018 10.9133 23.305 11.3865 23.8042 11.7458C24.3033 12.1051 24.8837 12.3398 25.4953 12.4297L33.2609 13.5218C33.4034 13.5396 33.5376 13.5978 33.647 13.6894C33.7565 13.7809 33.8365 13.9019 33.8772 14.0375C33.9132 14.1642 33.9151 14.298 33.8827 14.4256C33.8503 14.5533 33.7847 14.6705 33.6923 14.7656L28.053 20.1655Z" fill="#F68521"/>
</svg>
