<svg width="26" height="26" viewBox="0 0 26 26" fill="none" xmlns="http://www.w3.org/2000/svg">
    <path fill-rule="evenodd" clip-rule="evenodd"
        d="M18.4063 16.6237L25.1313 23.3487C25.3676 23.5852 25.5004 23.906 25.5002 24.2404C25.5001 24.5748 25.3672 24.8954 25.1306 25.1318C24.8941 25.3682 24.5733 25.5009 24.2389 25.5008C23.9045 25.5007 23.5839 25.3677 23.3475 25.1312L16.6225 18.4062C14.6122 19.9633 12.0841 20.696 9.55267 20.4554C7.02123 20.2147 4.67655 19.0187 2.99562 17.1107C1.31468 15.2027 0.423753 12.7259 0.50408 10.1844C0.584407 7.64277 1.62995 5.22725 3.42802 3.42918C5.22609 1.63111 7.64161 0.585566 10.1832 0.50524C12.7248 0.424913 15.2015 1.31584 17.1095 2.99678C19.0175 4.67771 20.2135 7.02239 20.4542 9.55383C20.6949 12.0853 19.9621 14.6133 18.405 16.6237H18.4063ZM10.5 17.9999C12.4891 17.9999 14.3968 17.2097 15.8033 15.8032C17.2098 14.3967 18 12.489 18 10.4999C18 8.5108 17.2098 6.60315 15.8033 5.19662C14.3968 3.7901 12.4891 2.99992 10.5 2.99992C8.51089 2.99992 6.60324 3.7901 5.19671 5.19662C3.79019 6.60315 3.00002 8.5108 3.00001 10.4999C3.00002 12.489 3.79019 14.3967 5.19671 15.8032C6.60324 17.2097 8.51089 17.9999 10.5 17.9999Z"
        fill="currentColor" />
</svg>