<svg width="24" height="25" viewBox="0 0 24 25" fill="none" xmlns="http://www.w3.org/2000/svg">
<path d="M7.63636 0.170898C3.41525 0.170898 0 3.58615 0 7.80726V16.5345C0 20.7556 3.41525 24.1709 7.63636 24.1709H16.3636C20.5847 24.1709 24 20.7556 24 16.5345V7.80726C24 3.58615 20.5847 0.170898 16.3636 0.170898H7.63636ZM7.63636 1.26181H16.3636C19.9993 1.26181 22.9091 4.17164 22.9091 7.80726V16.5345C22.9091 20.1702 19.9993 23.08 16.3636 23.08H7.63636C4.00075 23.08 1.09091 20.1702 1.09091 16.5345V7.80726C1.09091 4.17164 4.00075 1.26181 7.63636 1.26181Z" fill="black"/>
<path d="M9.27271 11.625C9.12805 11.625 8.98931 11.6824 8.88701 11.7847C8.78472 11.887 8.72725 12.0258 8.72725 12.1704C8.72725 12.3151 8.78472 12.4538 8.88701 12.5561C8.98931 12.6584 9.12805 12.7159 9.27271 12.7159H20.1818C20.3265 12.7159 20.4652 12.6584 20.5675 12.5561C20.6698 12.4538 20.7273 12.3151 20.7273 12.1704C20.7273 12.0258 20.6698 11.887 20.5675 11.7847C20.4652 11.6824 20.3265 11.625 20.1818 11.625H9.27271ZM9.27271 15.9886C9.12805 15.9886 8.98931 16.0461 8.88701 16.1484C8.78472 16.2507 8.72725 16.3894 8.72725 16.5341C8.72725 16.6787 8.78472 16.8175 8.88701 16.9197C8.98931 17.022 9.12805 17.0795 9.27271 17.0795H20.1818C20.3265 17.0795 20.4652 17.022 20.5675 16.9197C20.6698 16.8175 20.7273 16.6787 20.7273 16.5341C20.7273 16.3894 20.6698 16.2507 20.5675 16.1484C20.4652 16.0461 20.3265 15.9886 20.1818 15.9886H9.27271ZM9.27271 7.26132C9.12805 7.26132 8.98931 7.31879 8.88701 7.42108C8.78472 7.52337 8.72725 7.66211 8.72725 7.80677C8.72725 7.95144 8.78472 8.09018 8.88701 8.19247C8.98931 8.29476 9.12805 8.35223 9.27271 8.35223H20.1818C20.3265 8.35223 20.4652 8.29476 20.5675 8.19247C20.6698 8.09018 20.7273 7.95144 20.7273 7.80677C20.7273 7.66211 20.6698 7.52337 20.5675 7.42108C20.4652 7.31879 20.3265 7.26132 20.1818 7.26132H9.27271ZM4.90907 6.17041C4.0118 6.17041 3.27271 6.9095 3.27271 7.80677C3.27271 8.70405 4.0118 9.44314 4.90907 9.44314C5.80634 9.44314 6.54543 8.70405 6.54543 7.80677C6.54543 6.9095 5.80634 6.17041 4.90907 6.17041ZM4.90907 7.26132C5.21678 7.26132 5.45452 7.49907 5.45452 7.80677C5.45452 8.11448 5.21678 8.35223 4.90907 8.35223C4.60136 8.35223 4.36361 8.11448 4.36361 7.80677C4.36361 7.49907 4.60136 7.26132 4.90907 7.26132ZM4.90907 10.534C4.0118 10.534 3.27271 11.2731 3.27271 12.1704C3.27271 13.0677 4.0118 13.8068 4.90907 13.8068C5.80634 13.8068 6.54543 13.0677 6.54543 12.1704C6.54543 11.2731 5.80634 10.534 4.90907 10.534ZM4.90907 11.625C5.21678 11.625 5.45452 11.8627 5.45452 12.1704C5.45452 12.4781 5.21678 12.7159 4.90907 12.7159C4.60136 12.7159 4.36361 12.4781 4.36361 12.1704C4.36361 11.8627 4.60136 11.625 4.90907 11.625ZM4.90907 14.8977C4.0118 14.8977 3.27271 15.6368 3.27271 16.5341C3.27271 17.4313 4.0118 18.1704 4.90907 18.1704C5.80634 18.1704 6.54543 17.4313 6.54543 16.5341C6.54543 15.6368 5.80634 14.8977 4.90907 14.8977ZM4.90907 15.9886C5.21678 15.9886 5.45452 16.2263 5.45452 16.5341C5.45452 16.8418 5.21678 17.0795 4.90907 17.0795C4.60136 17.0795 4.36361 16.8418 4.36361 16.5341C4.36361 16.2263 4.60136 15.9886 4.90907 15.9886Z" fill="black"/>
</svg>
