<svg width="24" height="24" viewBox="0 0 24 24" fill="none" xmlns="http://www.w3.org/2000/svg">
<path d="M6 14.9996C7.65685 14.9996 9 13.6564 9 11.9995C9 10.3427 7.65685 8.99951 6 8.99951C4.34315 8.99951 3 10.3427 3 11.9995C3 13.6564 4.34315 14.9996 6 14.9996Z" stroke="#121212" stroke-opacity="0.7" stroke-linecap="round" stroke-linejoin="round"/>
<path d="M16.5 21.7495C18.1569 21.7495 19.5 20.4063 19.5 18.7495C19.5 17.0926 18.1569 15.7495 16.5 15.7495C14.8431 15.7495 13.5 17.0926 13.5 18.7495C13.5 20.4063 14.8431 21.7495 16.5 21.7495Z" stroke="#121212" stroke-opacity="0.7" stroke-linecap="round" stroke-linejoin="round"/>
<path d="M16.5 8.2505C18.1569 8.2505 19.5 6.90735 19.5 5.25049C19.5 3.59364 18.1569 2.25049 16.5 2.25049C14.8431 2.25049 13.5 3.59364 13.5 5.25049C13.5 6.90735 14.8431 8.2505 16.5 8.2505Z" stroke="#121212" stroke-opacity="0.7" stroke-linecap="round" stroke-linejoin="round"/>
<path d="M13.9766 6.87207L8.52307 10.378" stroke="#121212" stroke-opacity="0.7" stroke-linecap="round" stroke-linejoin="round"/>
<path d="M8.52307 13.6221L13.9766 17.1279" stroke="#121212" stroke-opacity="0.7" stroke-linecap="round" stroke-linejoin="round"/>
</svg>
