<svg width="24" height="24" viewBox="0 0 24 24" fill="none" xmlns="http://www.w3.org/2000/svg">
    <g clip-path="url(#clip0_86:3504)">
        <path
            d="M23.8384 6.04325C23.6787 5.82172 23.4228 5.69 23.1499 5.68901H5.88263L4.94967 1.99212C4.85138 1.60395 4.49667 1.33658 4.09655 1.34853H0.853641C0.382641 1.34801 0.000516146 1.72967 5.21146e-07 2.20114C-0.000515104 2.67209 0.381657 3.05426 0.852657 3.05478C0.853172 3.05478 0.853172 3.05478 0.853641 3.05478H3.45792L7.41427 18.7405C7.51008 19.1176 7.84833 19.3826 8.23748 19.3841H18.8892C19.3601 19.3841 19.7423 19.0019 19.7423 18.5309C19.7423 18.06 19.3601 17.6778 18.8892 17.6778H8.91098L8.51686 16.1162H20.3111C20.6793 16.1147 21.0051 15.8777 21.1193 15.5275L23.9581 6.80661C24.0424 6.54767 23.998 6.26375 23.8384 6.04325ZM19.6924 14.4149H8.08781L6.31172 7.39531H21.9774L19.6924 14.4149Z"
            fill="currentColor" />
        <path
            d="M8.13271 21.7972C9.09433 21.7972 9.87388 21.0176 9.87388 20.056C9.87388 19.0944 9.09433 18.3148 8.13271 18.3148C7.17109 18.3148 6.39154 19.0944 6.39154 20.056C6.39154 21.0176 7.17109 21.7972 8.13271 21.7972Z"
            fill="currentColor" />
        <path
            d="M8.13272 22.6522C6.70285 22.6522 5.5434 21.4927 5.5434 20.0628C5.5434 18.633 6.70285 17.4735 8.13272 17.4735C9.5626 17.4735 10.7221 18.633 10.7221 20.0628C10.7191 21.4917 9.56157 22.6492 8.13272 22.6522ZM8.13272 19.1598C7.64232 19.1598 7.24468 19.5575 7.24468 20.0479C7.24468 20.5383 7.64232 20.9359 8.13272 20.9359C8.62313 20.9359 9.02077 20.5383 9.02077 20.0479C9.0128 19.5634 8.61713 19.1748 8.13272 19.1748V19.1598Z"
            fill="currentColor" />
        <path
            d="M18.8891 21.7972C19.8507 21.7972 20.6303 21.0176 20.6303 20.056C20.6303 19.0944 19.8507 18.3148 18.8891 18.3148C17.9275 18.3148 17.1479 19.0944 17.1479 20.056C17.1479 21.0176 17.9275 21.7972 18.8891 21.7972Z"
            fill="currentColor" />
        <path
            d="M18.8892 22.6516C17.4593 22.6486 16.3018 21.4871 16.3048 20.0573C16.3078 18.6274 17.4693 17.4699 18.8992 17.4729C20.327 17.4759 21.4835 18.6344 21.4835 20.0622C21.4805 21.4931 20.32 22.6516 18.8892 22.6516ZM18.8892 19.1593C18.3988 19.1593 18.0011 19.5569 18.0011 20.0473C18.0011 20.5377 18.3988 20.9354 18.8892 20.9354C19.3796 20.9354 19.7772 20.5377 19.7772 20.0473C19.7693 19.5629 19.3736 19.1742 18.8892 19.1742V19.1593Z"
            fill="currentColor" />
    </g>
    <defs>
        <clipPath id="clip0_86:3504">
            <rect width="24" height="24" fill="white" />
        </clipPath>
    </defs>
</svg>