<svg width="19" height="19" viewBox="0 0 19 19" fill="none" xmlns="http://www.w3.org/2000/svg">
<path d="M13.6562 13.6562H5.18182L3.11137 2.26879C3.0865 2.13198 3.0144 2.00824 2.90764 1.91915C2.80089 1.83005 2.66625 1.78125 2.5272 1.78125H1.1875" stroke="#1A6577" stroke-linecap="round" stroke-linejoin="round"/>
<path d="M5.9375 16.625C6.7573 16.625 7.42188 15.9604 7.42188 15.1406C7.42188 14.3208 6.7573 13.6562 5.9375 13.6562C5.1177 13.6562 4.45312 14.3208 4.45312 15.1406C4.45312 15.9604 5.1177 16.625 5.9375 16.625Z" stroke="#1A6577" stroke-linecap="round" stroke-linejoin="round"/>
<path d="M13.6562 16.625C14.476 16.625 15.1406 15.9604 15.1406 15.1406C15.1406 14.3208 14.476 13.6562 13.6562 13.6562C12.8365 13.6562 12.1719 14.3208 12.1719 15.1406C12.1719 15.9604 12.8365 16.625 13.6562 16.625Z" stroke="#1A6577" stroke-linecap="round" stroke-linejoin="round"/>
<path d="M4.64204 10.6875H13.9606C14.2387 10.6875 14.508 10.5899 14.7215 10.4117C14.935 10.2335 15.0792 9.98604 15.129 9.71243L16.0312 4.75H3.5625" stroke="#1A6577" stroke-linecap="round" stroke-linejoin="round"/>
</svg>
