<svg width="28" height="26" viewBox="0 0 28 26" fill="currentColor" xmlns="http://www.w3.org/2000/svg">
    <path
        d="M26.5147 10.1273L26.5056 10.1725L26.5028 10.1739L26.3911 10.2822L20.816 15.6871L20.4351 16.0564L20.5273 16.5789L21.8862 24.2756C21.9218 24.4965 21.7996 24.6669 21.6517 24.7284H21.6517H21.6513H21.6509H21.6505H21.6501H21.6497H21.6493H21.6489H21.6485H21.6481H21.6477H21.6473H21.6469H21.6465H21.6461H21.6457H21.6453H21.6449H21.6445H21.6441H21.6437H21.6433H21.6429H21.6425H21.6421H21.6417H21.6413H21.6409H21.6405H21.6401H21.6397H21.6393H21.6389H21.6385H21.6381H21.6377H21.6373H21.6369H21.6365H21.6361H21.6357H21.6353H21.6348H21.6344H21.634H21.6336H21.6332H21.6328H21.6324H21.632H21.6316H21.6312H21.6308H21.6304H21.63H21.6295H21.6291H21.6287H21.6283H21.6279H21.6275H21.6271H21.6267H21.6262H21.6258H21.6254H21.625H21.6246H21.6241H21.6237H21.6233H21.6229H21.6225H21.622H21.6216H21.6212H21.6208H21.6203H21.6199H21.6195H21.6191H21.6186H21.6182H21.6178H21.6173H21.6169H21.6165H21.616H21.6156H21.6152H21.6147H21.6143H21.6138H21.6134H21.613H21.6125H21.6121H21.6116H21.6112H21.6107H21.6103H21.6098H21.6094H21.6089H21.6085H21.608H21.6076H21.6071H21.6067H21.6062H21.6057H21.6053H21.6048H21.6044H21.6039H21.6034H21.603H21.6025H21.602H21.6016H21.6011H21.6006H21.6001H21.5997H21.5992H21.5987H21.5982H21.5977H21.5972H21.5968H21.5963H21.5958H21.5953H21.5948H21.5943H21.5938H21.5933H21.5928H21.5923H21.5918H21.5913H21.5908H21.5903H21.5898H21.5893H21.5888H21.5883H21.5878H21.5873H21.5867H21.5862H21.5857H21.5852H21.5847H21.5841H21.5836H21.5831H21.5825H21.582H21.5815H21.5809H21.5804H21.5799H21.5793H21.5788H21.5782H21.5777H21.5771H21.5766H21.576H21.5755H21.5749H21.5744H21.5738H21.5732H21.5727H21.5721H21.5715H21.571H21.5704H21.5698H21.5692H21.5687H21.5681H21.5675H21.5669H21.5663H21.5657H21.5651H21.5645H21.5639H21.5634H21.5627H21.5621H21.5615H21.5609H21.5603H21.5597H21.5591H21.5585H21.5579H21.5572H21.5566H21.556H21.5554H21.5547H21.5541H21.5535H21.5528H21.5522H21.5515H21.5509H21.5503H21.5496H21.5489H21.5483H21.5476H21.547H21.5463H21.5456H21.545H21.5443H21.5436H21.543H21.5423H21.5416H21.5409H21.5402H21.5395H21.5389H21.5382H21.5375H21.5368H21.5361H21.5354H21.5346H21.5339H21.5332H21.5325H21.5318H21.5311H21.5303H21.5296H21.5289H21.5282H21.5274H21.5267H21.5259H21.5252H21.5245H21.5237H21.5229H21.5222H21.5214H21.5207H21.5199H21.5191H21.5184H21.5176H21.5168H21.516H21.5153H21.5145H21.5137H21.5129H21.5121C21.4411 24.7284 21.3893 24.7284 21.3423 24.7268C21.3389 24.7267 21.3356 24.7266 21.3324 24.7265L21.2978 24.7083L14.363 21.06L13.8974 20.8151L13.4318 21.06L6.49705 24.7083L6.47344 24.7207L6.45053 24.7344C6.35861 24.7892 6.27504 24.7941 6.19451 24.7701C6.11533 24.7465 6.02062 24.6873 5.9426 24.5779C5.93903 24.5654 5.93534 24.5479 5.93217 24.5227C5.92602 24.4738 5.92389 24.4189 5.92324 24.3283L7.26753 16.714L7.35978 16.1915L6.97882 15.8222L1.40935 10.4227C1.32228 10.3347 1.2998 10.2509 1.2998 10.1895C1.2998 10.1273 1.32284 10.0421 1.41261 9.95294L1.52794 9.83833L1.52799 9.83824H1.59299L1.66172 9.82866L9.41237 8.74768L9.94167 8.67386L10.1744 8.19279L13.5491 1.21756C13.6286 1.10067 13.7272 1.0381 13.8092 1.01366C13.8897 0.989652 13.9733 0.994575 14.0652 1.04938L14.0981 1.06898L14.1323 1.08601C14.1656 1.10252 14.1847 1.11385 14.1944 1.12012C14.2006 1.12966 14.2117 1.14827 14.2279 1.18042L17.7633 8.20674L17.999 8.67524L18.5185 8.74768L26.2691 9.82866L26.3378 9.83824H26.3767C26.3912 9.84865 26.4155 9.87014 26.4418 9.90717C26.4731 9.95115 26.4959 10.0016 26.5076 10.0485C26.5192 10.0953 26.5158 10.1219 26.5147 10.1273ZM14.2028 1.12594C14.2028 1.12594 14.2022 1.12551 14.2011 1.12465C14.2023 1.12551 14.2028 1.12594 14.2028 1.12594ZM14.1899 1.11344C14.189 1.11239 14.1886 1.11179 14.1886 1.11175C14.1886 1.11171 14.189 1.11223 14.1899 1.11344Z"
        stroke="#F68521" stroke-width="2" />
</svg>

