<svg width="32" height="32" viewBox="0 0 32 32" fill="none" xmlns="http://www.w3.org/2000/svg">
<path d="M4 8V18" stroke="black" stroke-width="2" stroke-linecap="round" stroke-linejoin="round"/>
<path d="M6.77899 26.9999C7.77833 25.4648 9.1451 24.2035 10.7553 23.3304C12.3655 22.4573 14.1683 22 16 22C17.8317 22 19.6344 22.4573 21.2446 23.3304C22.8549 24.2035 24.2216 25.4648 25.221 26.9999" stroke="black" stroke-width="2" stroke-linecap="round" stroke-linejoin="round"/>
<path d="M28 8L16 12L4 8L16 4L28 8Z" stroke="black" stroke-width="2" stroke-linecap="round" stroke-linejoin="round"/>
<path d="M21.1671 10.2773C22.083 11.2795 22.6878 12.5265 22.9076 13.8662C23.1275 15.206 22.953 16.5808 22.4053 17.8231C21.8577 19.0655 20.9606 20.1218 19.8234 20.8633C18.6861 21.6049 17.3577 21.9997 16 21.9997C14.6423 21.9997 13.3139 21.6049 12.1766 20.8633C11.0394 20.1218 10.1423 19.0655 9.59467 17.8231C9.04705 16.5808 8.87254 15.206 9.09239 13.8662C9.31224 12.5265 9.91696 11.2795 10.8329 10.2773" stroke="black" stroke-width="2" stroke-linecap="round" stroke-linejoin="round"/>
</svg>
