<svg width="28" height="29" viewBox="0 0 28 29" fill="none" xmlns="http://www.w3.org/2000/svg">
<path fill-rule="evenodd" clip-rule="evenodd" d="M27.3334 14.3768C27.3334 21.9366 21.3638 28.0649 14 28.0649C6.63622 28.0649 0.666687 21.9366 0.666687 14.3768C0.666687 6.81709 6.63622 0.688721 14 0.688721C21.3638 0.688721 27.3334 6.81709 27.3334 14.3768ZM14.4778 10.7939C13.1809 11.3477 10.589 12.4938 6.7021 14.2323C6.07092 14.49 5.74028 14.7421 5.71018 14.9886C5.65931 15.4052 6.16745 15.5692 6.85941 15.7926C6.95353 15.8229 7.05106 15.8544 7.15104 15.8878C7.83181 16.115 8.74758 16.3808 9.22365 16.3913C9.65549 16.4009 10.1375 16.2181 10.6696 15.843C14.3013 13.3263 16.176 12.0542 16.2937 12.0268C16.3767 12.0074 16.4918 11.9831 16.5697 12.0542C16.6477 12.1254 16.64 12.2601 16.6318 12.2963C16.5814 12.5166 14.5868 14.4203 13.5546 15.4055C13.2328 15.7126 13.0045 15.9305 12.9579 15.9802C12.8533 16.0917 12.7468 16.1971 12.6444 16.2984C12.012 16.9243 11.5377 17.3937 12.6707 18.1602C13.2151 18.5286 13.6508 18.8332 14.0855 19.137C14.5602 19.4689 15.0336 19.7999 15.6462 20.2122C15.8023 20.3172 15.9514 20.4263 16.0965 20.5325C16.649 20.9368 17.1453 21.3001 17.7584 21.2422C18.1147 21.2085 18.4827 20.8646 18.6696 19.8388C19.1113 17.4146 19.9796 12.1622 20.1802 9.99775C20.1978 9.80812 20.1757 9.56543 20.1579 9.4589C20.1402 9.35236 20.1031 9.20057 19.9682 9.08821C19.8084 8.95513 19.5618 8.92707 19.4515 8.92907C18.95 8.93813 18.1806 9.21279 14.4778 10.7939Z" fill="#F5FBFF"/>
</svg>
