<svg width="24" height="26" viewBox="0 0 24 26" fill="none" xmlns="http://www.w3.org/2000/svg">
    <path
        d="M15.8279 13.4202C19.2229 11.2878 20.248 6.8037 18.1174 3.40479C15.9867 0.00587642 11.5084 -1.02044 8.11335 1.11202C4.71832 3.24449 3.69317 7.7292 5.82384 11.1281C6.40504 12.0549 7.18764 12.8384 8.11335 13.4202C3.26232 15.088 0.00389493 19.6545 0 24.7892V24.8808C0 25.4987 0.500817 26 1.11799 26H22.8821C23.4993 26 24 25.4986 24 24.8808V24.7892C23.9876 19.6388 20.7017 15.0676 15.8279 13.4202ZM11.9706 2.24759C14.7472 2.24759 16.9981 4.50108 16.9981 7.28084C16.9981 10.0606 14.7472 12.3141 11.9706 12.3141C9.19402 12.3141 6.9431 10.0606 6.9431 7.28084C6.9431 7.27886 6.9431 7.27624 6.9431 7.27432C6.947 4.49718 9.19664 2.24759 11.9706 2.24759ZM2.25552 23.7616C2.8132 18.39 7.61452 14.4878 12.98 15.046C17.5761 15.5238 21.2084 19.1603 21.6857 23.7616H2.25552Z"
        fill="currentColor" />
</svg>