<svg width="24" height="25" viewBox="0 0 24 25" fill="none" xmlns="http://www.w3.org/2000/svg">
<path d="M12.0503 0.455078C5.46348 0.455078 0.102968 5.75555 0.100645 12.2697C0.0990968 14.3528 0.650323 16.3859 1.69548 18.1766L0 24.2989L6.33523 22.656C8.09746 23.6024 10.0569 24.096 12.0457 24.0946H12.0503C18.6372 24.0946 23.9977 18.7933 24 12.2792C24.0015 9.12388 22.7597 6.15374 20.503 3.92117C18.247 1.6878 15.247 0.455873 12.0503 0.455078ZM12.0503 22.0989H12.0465C10.2643 22.0989 8.51613 21.6252 6.99097 20.7302L6.6271 20.5172L2.86916 21.4917L3.87252 17.8674L3.63639 17.4962C2.64457 15.9433 2.11659 14.1266 2.11742 12.2697C2.11974 6.85475 6.576 2.4508 12.0542 2.4508C14.7066 2.4516 17.2003 3.4745 19.0761 5.33034C20.952 7.18618 21.984 9.65401 21.9825 12.2784C21.9801 17.6933 17.5246 22.0989 12.0495 22.0989H12.0503ZM17.4983 14.7431C17.1995 14.596 15.7316 13.8815 15.4575 13.7822C15.1843 13.6844 14.9853 13.6335 14.7863 13.9292C14.5881 14.2249 14.0152 14.8901 13.8418 15.0864C13.6668 15.2835 13.4926 15.3074 13.1938 15.1603C12.895 15.0125 11.9326 14.7009 10.793 13.6947C9.90503 12.9127 9.30581 11.9462 9.13161 11.6497C8.95742 11.3549 9.11303 11.1951 9.26245 11.0481C9.39639 10.9169 9.56129 10.7039 9.70994 10.5315C9.85858 10.359 9.90813 10.2358 10.0088 10.0387C10.1079 9.84238 10.0583 9.66911 9.98323 9.52208C9.90813 9.37345 9.312 7.92057 9.06194 7.33004C8.82039 6.75461 8.57419 6.8317 8.39071 6.82216C8.21652 6.81422 8.01832 6.81183 7.81781 6.81183C7.62039 6.81183 7.296 6.88575 7.02194 7.18141C6.74864 7.47707 5.97677 8.1908 5.97677 9.64368C5.97677 11.0974 7.04671 12.501 7.19613 12.6981C7.34555 12.8944 9.30194 15.8772 12.2973 17.1569C13.0095 17.4597 13.5654 17.6417 13.9997 17.7784C14.7151 18.0033 15.3662 17.9707 15.8803 17.8952C16.4532 17.8102 17.647 17.1815 17.8947 16.4924C18.144 15.8033 18.144 15.212 18.0697 15.0888C17.9969 14.9656 17.7972 14.8917 17.4983 14.7431V14.7431Z" fill="#F5FBFF"/>
</svg>
