<svg width="57" height="56" viewBox="0 0 57 56" fill="none" xmlns="http://www.w3.org/2000/svg">
<path d="M41.6427 0.393921C43.7577 1.22641 44.5002 2.78635 44.4252 5.03632C44.2902 8.74878 44.3652 12.4613 44.3502 16.1738C43.6527 16.1738 42.9552 16.1738 42.2652 16.1738C42.2502 12.4538 42.2352 8.74127 42.2277 5.02131C42.2202 2.93633 41.9052 2.62137 39.7827 2.62137C38.1102 2.62137 36.4377 2.62137 34.7652 2.62137C33.8202 2.62137 32.8752 2.62137 31.9152 2.62137C31.9152 3.37886 31.9152 4.00136 31.9152 4.69136C34.2327 4.69136 36.4827 4.69885 38.7252 4.68385C39.6552 4.67635 40.0977 5.08139 40.0902 6.04138C40.0602 9.82883 40.0527 13.6162 40.0452 17.3962C39.3478 17.3962 38.6577 17.3962 37.9602 17.3962C37.9602 13.9312 37.9602 10.4663 37.9602 6.91881C35.9877 6.91881 34.1802 6.88885 32.3802 6.95635C32.1252 6.96385 31.7427 7.40635 31.6602 7.71384C31.1652 9.49882 30.1827 10.3388 28.3153 10.3463C24.5653 10.3688 20.8153 10.3613 17.0653 10.3463C15.1603 10.3388 14.0278 9.41638 13.5253 7.5864C13.4578 7.33891 13.2178 6.95635 13.0453 6.95635C11.1853 6.91135 9.32527 6.92632 7.38277 6.92632C7.38277 11.4038 7.38277 15.7312 7.38277 20.0512C6.67027 20.0512 5.95777 20.0437 5.24527 20.0437C5.23027 15.3712 5.20776 10.6988 5.19276 6.02636C5.19276 5.08887 5.65776 4.66885 6.59526 4.68385C8.53775 4.69885 10.4803 4.69135 12.4302 4.68385C12.7527 4.68385 13.0753 4.65381 13.3753 4.63881C13.3753 3.91131 13.3753 3.31136 13.3753 2.61387C10.6228 2.61387 7.93777 2.61387 5.25277 2.61387C3.55777 2.61387 3.13025 3.03389 3.12276 4.70637C3.10775 10.3688 3.09276 16.0313 3.08526 21.6863C2.45526 21.6863 1.81776 21.6863 1.08276 21.6863C1.08276 20.1113 1.09026 18.6937 1.08276 17.2687C1.06026 12.6413 1.03776 8.00632 1.01526 3.37887C1.21026 1.83389 2.35027 1.0914 3.53527 0.378906C16.2253 0.393906 28.9377 0.393921 41.6427 0.393921ZM15.6478 2.67392C15.6478 4.12141 15.6177 5.47893 15.6627 6.83641C15.6927 7.6764 16.1952 8.1489 17.0502 8.1489C20.8077 8.1564 24.5578 8.1564 28.3153 8.1489C29.0203 8.1489 29.5527 7.79628 29.5902 7.08379C29.6502 5.6288 29.6127 4.17391 29.6127 2.67392C24.9252 2.67392 20.3652 2.67392 15.6478 2.67392Z" fill="#F68521"/>
<path d="M44.3277 44.8681C44.3802 45.6031 44.4627 46.338 44.4702 47.0805C44.4927 48.6479 44.5077 50.2154 44.4627 51.7828C44.4102 54.0478 42.8727 55.5252 40.6227 55.5252C28.9602 55.5252 17.2977 55.4803 5.62772 55.5628C3.28772 55.5778 1.68271 54.8727 0.842712 52.6528C0.842712 42.8131 0.842712 32.9735 0.842712 23.1338C0.910212 23.5238 1.03021 23.9138 1.03021 24.2963C1.04521 29.5761 1.0452 34.8484 1.0602 40.1282C1.0602 40.5182 1.0902 40.9158 1.1127 41.3658C1.8477 41.3658 2.46271 41.3658 3.07021 41.3658C3.07771 44.6807 3.0927 47.988 3.1002 51.3029C3.1077 52.7879 3.58771 53.2978 5.03521 53.2978C16.7877 53.3053 28.5402 53.3053 40.2927 53.2978C41.7327 53.2978 42.2202 52.7804 42.2352 51.3029C42.2502 49.1505 42.2577 46.998 42.2727 44.8531C42.9627 44.8681 43.6452 44.8681 44.3277 44.8681Z" fill="#F68521"/>
<path d="M3.07773 41.373C2.47023 41.373 1.85524 41.373 1.12023 41.373C1.09773 40.9231 1.06773 40.533 1.06773 40.1355C1.06023 34.8556 1.06022 29.5833 1.03772 24.3035C1.03772 23.9135 0.91772 23.5235 0.85022 23.141C0.85022 16.5786 0.85022 10.0238 0.85022 3.46148L0.902725 3.37891L1.00023 3.38641C1.02273 8.01379 1.04523 12.6487 1.06773 17.2761C1.07523 18.701 1.06773 20.1261 1.06773 21.6936C1.80273 21.6936 2.44024 21.6936 3.07024 21.6936C3.07024 28.2634 3.07773 34.8182 3.07773 41.373Z" fill="#F68521"/>
<path d="M1.00023 3.39392L0.902725 3.38642L0.85022 3.46899C0.85022 2.44153 0.85022 1.4215 0.85022 0.394043C1.73522 0.394043 2.62773 0.394043 3.51273 0.394043C2.33523 1.09901 1.18773 1.84899 1.00023 3.39392Z" fill="#F68521"/>
<path d="M44.3277 44.8679C43.6452 44.8679 42.9552 44.8679 42.2727 44.8604C42.2727 41.088 42.2727 37.3155 42.2727 33.5206C40.1502 34.0006 40.0527 34.1207 40.0527 36.0707C40.0452 37.9831 40.0453 39.888 40.0378 41.8004C39.3477 41.8004 38.6577 41.8004 37.9677 41.7929C37.9677 39.693 37.9677 37.6006 37.9677 35.3132C36.8877 35.7782 36.0102 36.1381 35.1627 36.5356C34.5777 36.813 33.9027 37.0982 33.5127 36.4682C33.2652 36.0707 33.2802 35.3431 33.4677 34.8706C34.1802 33.0632 34.9602 31.2858 35.8152 29.5384C36.2877 28.5784 36.9777 27.7233 37.5102 26.7933C37.7277 26.4033 37.9002 25.9308 37.9077 25.4959C37.9527 22.8034 37.9527 20.1035 37.9602 17.411C38.6577 17.411 39.3478 17.411 40.0453 17.411C40.0453 19.5635 40.0453 21.7085 40.0453 24.0034C41.9278 22.7809 42.2202 22.271 42.2277 20.456C42.2352 19.031 42.2577 17.6061 42.2652 16.1812C42.9627 16.1812 43.6603 16.1812 44.3503 16.1812C44.3878 17.0886 44.4028 17.996 44.4778 18.896C44.5003 19.1585 44.7177 19.3985 44.8452 19.646C45.3252 19.721 45.8127 19.7735 46.2927 19.8785C46.6152 19.9535 46.9152 20.1185 47.2227 20.2385C44.5302 22.9759 41.8378 25.7134 39.2352 28.3533C39.9777 29.2908 40.6677 30.1459 41.2528 30.8733C44.6503 27.4984 47.8078 24.3484 50.9953 21.1835C50.7628 20.906 50.4853 20.5685 50.2003 20.231C50.5078 20.111 50.8153 19.946 51.1303 19.871C51.6028 19.7585 52.0903 19.7136 52.5778 19.6311C52.6903 19.6161 52.8103 19.6011 52.9228 19.5861C53.7553 19.6911 54.5953 19.7885 55.4278 19.8935C55.1653 20.2385 54.9328 20.6211 54.6253 20.9286C51.3327 24.2285 48.0253 27.5059 44.7477 30.8208C44.5077 31.0608 44.3727 31.5182 44.3727 31.8782C44.3427 36.2131 44.3427 40.5405 44.3277 44.8679ZM36.8127 33.2808C37.7052 32.9283 38.5902 32.5757 39.4902 32.2232C38.9052 31.5557 38.4252 31.0157 37.8327 30.3407C37.3977 31.4132 37.0452 32.2832 36.6852 33.1531C36.6477 33.1981 36.6177 33.2508 36.5802 33.2958C36.6552 33.2883 36.7302 33.2883 36.8127 33.2808Z" fill="#F68521"/>
<path d="M52.5852 19.6385C52.1052 19.7135 51.6177 19.766 51.1377 19.8785C50.8152 19.9535 50.5152 20.1185 50.2077 20.2385C49.7202 19.781 49.2252 19.3236 48.7152 18.8512C48.2052 19.3236 47.7177 19.781 47.2227 20.2385C46.9152 20.1185 46.6152 19.9535 46.2927 19.8785C45.8202 19.766 45.3327 19.721 44.8452 19.646C46.3677 18.0935 47.8677 16.5111 49.4277 14.9961C50.8827 13.5936 53.0652 13.5711 54.6402 14.8461C56.0952 16.0236 56.4327 18.1836 55.4352 19.9086C54.6027 19.8036 53.7627 19.7061 52.9302 19.6011C53.1252 19.3686 53.3577 19.151 53.5152 18.896C53.9877 18.1085 53.9727 17.336 53.3127 16.661C52.6752 16.0086 51.7452 15.9786 51.0027 16.5561C50.7402 16.7586 50.4927 16.9687 49.9902 17.3737C50.9502 18.1987 51.7677 18.9185 52.5852 19.6385Z" fill="#F68521"/>
<path d="M7.37527 20.0585C7.38277 24.1385 7.40527 28.2185 7.40527 32.2984C7.40527 35.7334 7.39027 39.1683 7.37527 42.6033C6.66276 42.5958 5.94273 42.5958 5.23022 42.5883C5.23022 35.0734 5.23023 27.5584 5.23773 20.051C5.95024 20.051 6.66276 20.0585 7.37527 20.0585Z" fill="#F68521"/>
<path d="M40.0377 41.8007C40.0827 42.0632 40.1727 42.3257 40.1802 42.5807C40.1877 44.9357 40.1952 47.2906 40.1802 49.6456C40.1727 50.8756 39.8052 51.2357 38.5977 51.2432C34.8777 51.2507 31.1577 51.2507 27.4302 51.2432C26.3277 51.2432 25.8028 50.8606 25.8778 50.0806C25.9678 49.1281 26.6803 49.0007 27.4453 49.0007C30.5203 49.0007 33.5878 49.0007 36.6627 49.0007C37.0302 49.0007 37.4052 49.0007 37.9677 49.0007C37.9677 46.5407 37.9677 44.1632 37.9677 41.7932C38.6502 41.7932 39.3477 41.8007 40.0377 41.8007Z" fill="#F68521"/>
<path d="M36.8127 33.2809C36.7377 33.2884 36.6627 33.2884 36.5802 33.2959C36.6177 33.2509 36.6477 33.1983 36.6852 33.1533C36.7302 33.1908 36.7677 33.2359 36.8127 33.2809Z" fill="#F68521"/>
<path d="M5.23022 42.5884C5.94271 42.5959 6.66272 42.5959 7.37522 42.6034C7.37522 44.6733 7.37522 46.7506 7.37522 48.9255C7.84771 48.948 8.20771 48.978 8.56771 48.978C11.5677 48.9855 14.5677 48.978 17.5677 48.9855C17.9052 48.9855 18.3402 48.9029 18.5652 49.0754C18.9477 49.3754 19.4577 49.8629 19.4277 50.2304C19.3977 50.5904 18.7602 51.1753 18.3777 51.1828C14.3577 51.2503 10.3377 51.2354 6.31021 51.2204C5.57522 51.2204 5.17773 50.7704 5.17773 50.0504C5.18523 47.5605 5.21522 45.0782 5.23022 42.5884Z" fill="#F68521"/>
<path d="M10.4502 16.1887C10.3077 13.301 10.3077 13.3009 13.1952 13.3009C14.8377 13.3009 16.4727 13.3084 18.1152 13.3009C18.9552 13.2934 19.3827 13.6235 19.3152 14.5311C19.2552 15.2811 19.2777 16.0312 19.2702 16.7812C18.6102 16.7812 17.9502 16.7812 17.2902 16.7812C17.2602 16.3837 17.2302 15.9936 17.2002 15.5285C15.7827 15.5285 14.4327 15.5061 13.0827 15.5586C12.8952 15.5661 12.7152 15.9636 12.5352 16.1737C11.8377 16.1812 11.1477 16.1887 10.4502 16.1887Z" fill="#F68521"/>
<path d="M10.4652 40.7808C10.4427 39.9257 10.4277 39.0781 10.4052 38.2231C10.3827 37.4206 10.7877 37.0007 11.5677 37.0007C13.7802 36.9857 15.9927 36.9707 18.2127 37.0082C18.9927 37.0232 19.4802 37.4581 19.4727 38.2982C19.4727 38.7032 19.4502 39.1156 19.4352 39.5206C18.7152 39.5206 17.9952 39.5281 17.2827 39.5281C17.1552 39.4081 17.0277 39.1756 16.9002 39.1756C15.4902 39.1531 14.0802 39.1606 12.6102 39.1606C12.5802 39.7681 12.5502 40.2632 12.5202 40.7657C11.8377 40.7732 11.1477 40.7733 10.4652 40.7808Z" fill="#F68521"/>
<path d="M19.4353 31.9383C19.4503 32.4108 19.6378 33.0032 19.4278 33.3332C19.1728 33.7457 18.5878 34.1733 18.1303 34.1883C16.1203 34.2783 14.1103 34.2333 12.1003 34.2258C10.6303 34.2258 10.3078 33.8957 10.3228 32.4182C10.3228 32.1182 10.3903 31.8182 10.4278 31.5107C11.1328 31.5182 11.8378 31.5333 12.5428 31.5408C12.7978 31.6908 13.0528 31.9533 13.3153 31.9608C14.6353 31.9983 15.9553 31.9608 17.2678 31.9533C17.9878 31.9533 18.7078 31.9458 19.4353 31.9383Z" fill="#F68521"/>
<path d="M10.4277 27.2135C10.2702 25.4434 10.5252 25.1584 12.2577 25.1584C14.1027 25.1584 15.9402 25.1584 17.7852 25.1584C19.1952 25.1584 19.4727 25.4359 19.4652 26.816C19.4652 27.296 19.4352 27.7686 19.4202 28.2486C18.7077 28.2486 17.9877 28.2559 17.2752 28.2634C17.2452 27.9709 17.2152 27.6786 17.1702 27.3036C15.6777 27.3036 14.2377 27.3036 12.7977 27.3036C12.0177 27.2736 11.2227 27.2435 10.4277 27.2135Z" fill="#F68521"/>
<path d="M19.4352 43.8257C19.6302 45.8282 19.3902 46.1057 17.4027 46.1057C15.6402 46.1057 13.8701 46.1057 12.1076 46.1057C10.5026 46.1057 10.0601 45.5057 10.4576 43.8482C11.1626 43.8482 11.8676 43.8482 12.5726 43.8482C14.1326 43.8482 15.6852 43.8482 17.2452 43.8557C17.9727 43.8407 18.7077 43.8332 19.4352 43.8257Z" fill="#F68521"/>
<path d="M19.4352 20.2537C19.6227 22.0986 19.3827 22.3611 17.5602 22.3611C15.7602 22.3611 13.9527 22.3611 12.1527 22.3611C10.4577 22.3611 10.0452 21.8061 10.4502 20.0662C11.1477 20.0662 11.8452 20.0662 12.5352 20.0737C14.0877 20.1412 15.6402 20.2012 17.2002 20.2687C17.9427 20.2612 18.6852 20.2537 19.4352 20.2537Z" fill="#F68521"/>
<path d="M25.0676 20.0512C24.5801 19.5787 23.9576 19.1813 23.6576 18.6188C23.4476 18.2213 23.4851 17.4564 23.7401 17.0964C24.1151 16.5564 24.7976 16.6989 25.2626 17.1564C25.7651 17.6514 26.2076 18.2213 26.7177 18.7988C27.5352 18.0263 28.1951 17.4039 28.8551 16.7814C29.7701 16.8564 30.6852 16.924 31.6002 16.999C30.5727 18.0264 29.5452 19.0463 28.5177 20.0737C27.3701 20.0662 26.2226 20.0587 25.0676 20.0512Z" fill="#F68521"/>
<path d="M26.0427 40.9909C25.6452 40.6159 25.2327 40.2634 24.8652 39.8734C24.3927 39.3784 24.3852 38.8083 24.8577 38.3283C25.3377 37.8483 25.9227 37.8708 26.4027 38.3358C26.9277 38.8458 27.3852 39.4232 28.1577 40.2933C28.7052 39.5807 29.1102 38.9958 29.5752 38.4632C30.0702 37.8932 30.6927 37.7733 31.2627 38.3283C31.8102 38.8533 31.6752 39.4232 31.1652 39.9257C30.7602 40.3308 30.3477 40.7359 29.9427 41.1409C29.7552 41.0209 29.5602 40.7884 29.3727 40.7959C28.2627 40.8334 27.1527 40.9234 26.0427 40.9909Z" fill="#F68521"/>
<path d="M24.5877 31.3909C24.2877 31.1059 23.8527 30.8808 23.7327 30.5357C23.5677 30.0557 23.4252 29.3584 23.6577 28.9983C24.0402 28.3983 24.7452 28.5108 25.2552 28.9908C25.7502 29.4558 26.1777 29.9882 26.7027 30.5583C27.4602 29.8607 28.0977 29.2682 28.7277 28.6832C29.5527 28.8182 30.3777 28.9608 31.2027 29.0958C30.5052 29.8383 29.8152 30.5808 29.1177 31.3308C27.6102 31.3533 26.1027 31.3759 24.5877 31.3909Z" fill="#F68521"/>
<path d="M26.0427 40.9908C27.1527 40.9158 28.2627 40.8258 29.3727 40.7958C29.5602 40.7883 29.7552 41.0208 29.9427 41.1408C30.0402 41.5007 30.0477 41.9132 30.2427 42.2056C30.5577 42.6631 30.9927 43.0382 31.3752 43.4432C30.9552 43.5107 30.5352 43.548 30.1302 43.6455C29.7702 43.728 29.4327 43.8781 29.0802 44.0056C28.5477 43.8481 28.2702 42.6182 27.4602 43.6306C26.5452 43.5706 25.6302 43.5032 24.7152 43.4432C25.1202 42.9932 25.4877 42.5057 25.9302 42.1007C26.3577 41.7258 26.3877 41.3958 26.0427 40.9908Z" fill="#F68521"/>
<path d="M10.4277 27.2134C11.2227 27.2434 12.0177 27.2735 12.8127 27.3035C12.7227 28.7209 12.6252 30.1384 12.5352 31.5483C11.8302 31.5408 11.1252 31.5258 10.4202 31.5183C10.4202 30.0858 10.4277 28.6459 10.4277 27.2134Z" fill="#F68521"/>
<path d="M19.4352 43.8254C18.7077 43.8329 17.9727 43.8404 17.2452 43.8479C17.2602 42.408 17.2677 40.9757 17.2827 39.5358C18.0027 39.5358 18.7227 39.5283 19.4352 39.5283C19.4352 40.9607 19.4352 42.393 19.4352 43.8254Z" fill="#F68521"/>
<path d="M17.2827 28.2634C17.9952 28.2559 18.7152 28.256 19.4277 28.2485C19.4277 29.4785 19.4352 30.7084 19.4352 31.9384C18.7077 31.9459 17.9877 31.9534 17.2602 31.9609C17.2677 30.731 17.2752 29.4933 17.2827 28.2634Z" fill="#F68521"/>
<path d="M12.5427 20.0737C11.8452 20.0737 11.1552 20.0737 10.4577 20.0662C10.4577 18.7762 10.4577 17.4863 10.4577 16.1888C11.1477 16.1813 11.8452 16.1738 12.5352 16.1738C12.5352 17.4713 12.5352 18.7688 12.5427 20.0737Z" fill="#F68521"/>
<path d="M19.4352 20.2535C18.6927 20.261 17.9502 20.2611 17.2077 20.2686C17.2377 19.106 17.2677 17.9436 17.2902 16.7886C17.9502 16.7886 18.6102 16.7886 19.2702 16.7886C19.3227 17.9361 19.3752 19.0985 19.4352 20.2535Z" fill="#F68521"/>
<path d="M31.2102 29.0959C30.3852 28.961 29.5602 28.8184 28.7352 28.6834C29.4177 27.9785 30.1002 27.2735 30.7902 26.5761C31.3302 26.0361 31.9602 25.9762 32.4927 26.5312C33.0102 27.0637 32.8602 27.6635 32.3502 28.151C31.9902 28.4885 31.5927 28.781 31.2102 29.0959Z" fill="#F68521"/>
<path d="M31.6002 16.9988C30.6852 16.9238 29.7702 16.8563 28.8552 16.7813C29.4627 16.1438 30.0627 15.5064 30.6702 14.8689C31.2027 14.3065 31.7877 14.0665 32.4402 14.6364C33.1002 15.2139 32.7552 15.7913 32.3352 16.3087C32.1252 16.5637 31.8477 16.7663 31.6002 16.9988Z" fill="#F68521"/>
<path d="M12.5727 43.8406C11.8677 43.8406 11.1627 43.8406 10.4577 43.8406C10.4652 42.8206 10.4652 41.8008 10.4727 40.7809C11.1552 40.7734 11.8377 40.7734 12.5277 40.7659C12.5352 41.7933 12.5502 42.8206 12.5727 43.8406Z" fill="#F68521"/>
<path d="M24.5876 31.3909C26.1027 31.3684 27.6102 31.3533 29.1252 31.3308C28.6752 31.8183 28.2327 32.3133 27.7677 32.7858C27.1977 33.3633 26.5826 33.3859 25.9976 32.8308C25.5026 32.3733 25.0527 31.8709 24.5876 31.3909Z" fill="#F68521"/>
<path d="M24.7302 43.4431C25.6452 43.5031 26.5602 43.5706 27.4752 43.6306C27.0927 44.0356 26.7702 44.5604 26.2977 44.8004C25.9377 44.9879 25.3002 44.9954 24.9477 44.7929C24.4977 44.5304 24.2202 43.9831 24.7302 43.4431Z" fill="#F68521"/>
<path d="M25.0677 20.051C26.2152 20.0585 27.3702 20.0585 28.5177 20.066C28.3227 20.2911 28.1427 20.5387 27.9327 20.7487C27.0177 21.6563 26.5677 21.6563 25.6452 20.7412C25.4352 20.5312 25.2627 20.2835 25.0677 20.051Z" fill="#F68521"/>
<path d="M29.0952 44.0057C29.4477 43.8857 29.7852 43.7355 30.1452 43.6455C30.5502 43.548 30.9777 43.5106 31.3902 43.4431C31.8477 44.0582 31.5927 44.6206 31.0377 44.8607C30.6777 45.0182 30.1152 44.8306 29.6877 44.6731C29.4402 44.5831 29.2827 44.2382 29.0952 44.0057Z" fill="#F68521"/>
<path d="M21.7601 50.2004C21.8501 49.878 21.8726 49.3381 22.0526 49.2782C22.4352 49.1507 22.9226 49.2107 23.3277 49.3232C23.5077 49.3757 23.6052 49.7357 23.7402 49.9606C23.0802 50.0356 22.4201 50.118 21.7601 50.2004Z" fill="#F68521"/>
<path d="M21.7602 50.2005C22.4202 50.118 23.0803 50.0356 23.7403 49.9531C23.8753 50.8305 23.4102 51.2279 22.6227 51.2054C22.0677 51.1904 21.4977 51.0104 21.7602 50.2005Z" fill="#F68521"/>
</svg>
