<svg width="53" height="53" viewBox="0 0 53 53" fill="none" xmlns="http://www.w3.org/2000/svg">
<path d="M3.07773 0.507324C18.5428 0.507324 34.0153 0.507324 49.4803 0.507324C50.7403 0.95733 51.4528 1.94746 52.0378 3.06498C52.0378 3.75498 52.0378 4.45232 52.0378 5.14233C51.5278 5.14233 51.0103 5.14233 50.5003 5.14233C50.4853 4.98483 50.4479 4.81991 50.4704 4.66241C50.6504 2.84738 49.9154 2.04488 47.8379 2.04488C33.5503 2.09738 19.2628 2.08989 4.96775 2.05239C2.74025 2.04489 1.99777 2.44234 2.08777 4.81237C1.62277 4.81237 1.15027 4.81237 0.685273 4.81237C0.625272 4.27987 0.572695 3.74745 0.512695 3.21494C0.512695 3.16244 0.512695 3.10997 0.512695 3.05747C1.0077 1.84995 1.86273 0.994831 3.07773 0.507324Z" fill="#F68521"/>
<path d="M50.4629 12.3421C50.4629 11.8471 50.4629 11.3446 50.4629 10.8046C34.3003 10.8046 18.2503 10.8046 2.14777 10.8046C2.12527 11.2921 2.1103 11.7347 2.0878 12.1771C1.6228 12.1771 1.1503 12.1771 0.685303 12.1771C0.685303 10.6847 0.685303 9.19219 0.685303 7.69971C1.1503 7.69971 1.6228 7.69971 2.0878 7.69971C2.0878 8.1947 2.0878 8.69724 2.0878 9.23723C18.2578 9.23723 34.3153 9.23723 50.4103 9.23723C50.4403 8.80223 50.4703 8.41215 50.5003 8.02215C51.0103 8.02215 51.5278 8.02215 52.0378 8.02215C52.0378 9.46214 52.0378 10.9021 52.0378 12.3421C51.5128 12.3496 50.9879 12.3421 50.4629 12.3421Z" fill="#F68521"/>
<path d="M50.5002 33.7769C50.5002 32.1794 50.5002 30.5819 50.5002 28.9844C51.0103 28.9844 51.5278 28.9844 52.0378 28.9844C52.0378 30.5819 52.0378 32.1869 52.0378 33.7844C51.5278 33.7844 51.0103 33.7844 50.5002 33.7769Z" fill="#F68521"/>
<path d="M50.5003 33.7766C51.0103 33.7766 51.5278 33.7841 52.0378 33.7841C52.0378 35.2766 52.0378 36.769 52.0378 38.2615C51.5203 38.2615 51.0103 38.2615 50.4928 38.254C50.4928 36.769 50.5003 35.2766 50.5003 33.7766Z" fill="#F68521"/>
<path d="M52.0378 28.9844C51.5278 28.9844 51.0103 28.9844 50.5002 28.9844C50.5002 27.4919 50.5002 25.9994 50.5002 24.5068C51.0103 24.5068 51.5278 24.5068 52.0378 24.5068C52.0378 25.9994 52.0378 27.4919 52.0378 28.9844Z" fill="#F68521"/>
<path d="M52.0378 24.5068C51.5278 24.5068 51.0103 24.5068 50.5002 24.5068C50.5002 23.0668 50.5002 21.6268 50.5002 20.1868C51.0103 20.1868 51.5278 20.1868 52.0378 20.1868C52.0378 21.6268 52.0378 23.0668 52.0378 24.5068Z" fill="#F68521"/>
<path d="M50.4928 38.2615C51.0103 38.2615 51.5203 38.2615 52.0378 38.269C52.0378 39.604 52.0378 40.9389 52.0378 42.2664C51.5203 42.2664 51.0103 42.2664 50.4928 42.2664C50.4928 40.9314 50.4928 39.5965 50.4928 38.2615Z" fill="#F68521"/>
<path d="M52.0378 20.1868C51.5278 20.1868 51.0103 20.1868 50.5002 20.1868C50.5002 18.8519 50.5002 17.5171 50.5002 16.1897C51.0103 16.1897 51.5278 16.1897 52.0378 16.1897C52.0378 17.5171 52.0378 18.8519 52.0378 20.1868Z" fill="#F68521"/>
<path d="M50.4928 42.2664C51.0103 42.2664 51.5203 42.2664 52.0378 42.2664C52.0378 43.5488 52.0378 44.8238 52.0378 46.1062C51.5203 46.1062 51.0103 46.1062 50.4928 46.0987C50.4928 44.8238 50.4928 43.5413 50.4928 42.2664Z" fill="#F68521"/>
<path d="M52.0378 16.1897C51.5278 16.1897 51.0103 16.1897 50.5003 16.1897C50.4853 14.9072 50.4778 13.6321 50.4628 12.3496C50.9878 12.3496 51.5128 12.3496 52.0378 12.3496C52.0378 13.6246 52.0378 14.9072 52.0378 16.1897Z" fill="#F68521"/>
<path d="M50.4927 46.0989C51.0102 46.0989 51.5203 46.0989 52.0378 46.1064C52.0378 47.2238 52.0378 48.3487 52.0378 49.4661C51.9778 49.5186 51.9179 49.571 51.8653 49.6235C51.3328 49.6235 50.8003 49.616 50.2603 49.616C50.3203 48.7836 50.3878 47.9513 50.4478 47.1189C50.4703 46.7814 50.4777 46.4438 50.4927 46.0989Z" fill="#F68521"/>
<path d="M52.0378 8.02979C51.5278 8.02979 51.0103 8.02979 50.5002 8.02979C50.5002 7.06976 50.5002 6.10968 50.5002 5.14966C51.0103 5.14966 51.5278 5.14966 52.0378 5.14966C52.0378 6.10968 52.0378 7.06976 52.0378 8.02979Z" fill="#F68521"/>
<path d="M26.6202 51.8813C26.6127 51.9263 26.6052 51.9787 26.5977 52.0237C18.8127 52.0237 11.0277 52.0237 3.2352 52.0237C3.2277 51.9712 3.22027 51.9263 3.21277 51.8813C11.0203 51.8813 18.8202 51.8813 26.6202 51.8813Z" fill="#F68521"/>
<path d="M30.5953 52.0237C30.5953 51.9711 30.5878 51.9186 30.5803 51.8735C36.8353 51.8735 43.0828 51.8811 49.3378 51.8811C49.3303 51.9261 49.3228 51.9786 49.3153 52.0237C43.0753 52.0237 36.8353 52.0237 30.5953 52.0237Z" fill="#F68521"/>
<path d="M3.2128 51.8812C3.2203 51.9262 3.22773 51.9787 3.23523 52.0237C2.32772 52.0237 1.42021 52.0237 0.512695 52.0237C0.512695 51.1161 0.512695 50.2086 0.512695 49.301C0.565196 49.301 0.617759 49.301 0.670259 49.3085C0.71526 49.4285 0.760209 49.556 0.80521 49.6761C1.09771 50.9812 1.99029 51.6112 3.2128 51.8812Z" fill="#F68521"/>
<path d="M52.0378 3.06494C51.4528 1.94744 50.7328 0.957324 49.4802 0.507324C50.3353 0.507324 51.1903 0.507324 52.0378 0.507324C52.0378 1.36232 52.0378 2.20994 52.0378 3.06494Z" fill="#F68521"/>
<path d="M49.3152 52.0237C49.3227 51.9787 49.3303 51.9262 49.3378 51.8812C50.6353 51.6412 51.4978 50.9062 51.8578 49.6238C51.9178 49.5713 51.9778 49.5188 52.0303 49.4663C52.0303 50.3213 52.0303 51.1762 52.0303 52.0237C51.1303 52.0237 50.2228 52.0237 49.3152 52.0237Z" fill="#F68521"/>
<path d="M3.07776 0.507324C1.86277 0.994824 1.00776 1.84994 0.520264 3.06494C0.520264 2.20994 0.520264 1.35482 0.520264 0.507324C1.36775 0.507324 2.22277 0.507324 3.07776 0.507324Z" fill="#F68521"/>
<path d="M0.520264 32.0292C0.520264 28.6168 0.520264 25.2044 0.520264 21.792C0.572754 21.792 0.617801 21.792 0.670291 21.7995C0.677789 23.022 0.677804 24.2519 0.685303 25.4743C0.685303 27.1843 0.685303 28.8868 0.685303 30.5968C0.677804 31.0768 0.677789 31.5567 0.670291 32.0442C0.617801 32.0292 0.565255 32.0292 0.520264 32.0292Z" fill="#F68521"/>
<path d="M0.685303 7.7071C0.685303 9.19956 0.685303 10.692 0.685303 12.1845C0.677804 12.402 0.670291 12.6119 0.670291 12.8293C0.617801 12.8293 0.565255 12.8293 0.520264 12.8293C0.520264 9.62693 0.520264 6.43215 0.520264 3.22974C0.580253 3.76222 0.632812 4.29462 0.685303 4.82711C0.685303 5.78708 0.685303 6.74712 0.685303 7.7071Z" fill="#F68521"/>
<path d="M0.520264 32.0293C0.572754 32.0293 0.625307 32.0293 0.677797 32.0293C0.677797 33.2518 0.685303 34.4817 0.685303 35.7042C0.685303 37.3016 0.685303 38.9067 0.685303 40.5042C0.685303 40.8792 0.677797 41.2542 0.677797 41.6292C0.625307 41.6292 0.572754 41.6292 0.520264 41.6292C0.520264 38.4267 0.520264 35.2242 0.520264 32.0293Z" fill="#F68521"/>
<path d="M0.520264 12.8293C0.572754 12.8293 0.625299 12.8293 0.670291 12.8293C0.677789 13.8943 0.677804 14.9594 0.685303 16.0244C0.685303 17.5169 0.685303 19.0095 0.685303 20.502C0.677804 20.9295 0.670291 21.357 0.670291 21.792C0.617801 21.792 0.572754 21.792 0.520264 21.7845C0.520264 18.7995 0.520264 15.8143 0.520264 12.8293Z" fill="#F68521"/>
<path d="M0.520264 41.6292C0.572754 41.6292 0.625307 41.6292 0.677797 41.6292C0.677797 42.7991 0.685303 43.9765 0.685303 45.1465C0.685303 46.534 0.677797 47.929 0.677797 49.3164C0.625307 49.3089 0.572754 49.3089 0.520264 49.3089C0.520264 46.744 0.520264 44.1866 0.520264 41.6292Z" fill="#F68521"/>
<path d="M3.2128 51.8812C1.9828 51.6187 1.09024 50.9813 0.805237 49.6838C1.29274 49.6088 1.77279 49.5338 2.26029 49.4663C2.74029 50.2088 3.41526 50.4563 4.30026 50.4563C11.3878 50.4338 18.4677 50.4413 25.5553 50.4413C25.7428 50.4413 25.9527 50.3888 26.1102 50.4563C26.4252 50.5913 26.8678 50.7263 26.9728 50.9812C27.0628 51.1987 26.7553 51.5812 26.6278 51.8887C18.8203 51.8812 11.0203 51.8812 3.2128 51.8812Z" fill="#F68521"/>
<path d="M26.7703 35.7039C26.6578 33.9414 27.1078 33.4614 28.8853 33.4614C34.5328 33.4614 40.1727 33.4614 45.8202 33.4614C47.4627 33.4614 47.9802 34.0239 47.8752 35.7039C47.4027 35.7039 46.9302 35.7039 46.4577 35.7039C46.4877 35.2164 46.3152 35.0289 45.7753 35.0289C40.1428 35.0514 34.5103 35.0514 28.8778 35.0289C28.3453 35.0289 28.1653 35.2164 28.1953 35.7039C27.7153 35.7039 27.2428 35.7039 26.7703 35.7039Z" fill="#F68521"/>
<path d="M26.7702 16.3472C26.6802 14.8772 27.2277 14.2922 28.6827 14.2847C34.4352 14.2847 40.1877 14.2847 45.9402 14.2847C47.4102 14.2847 47.9502 14.8622 47.8677 16.3472C47.3802 16.3472 46.8927 16.3472 46.4127 16.3472C46.2552 16.1897 46.1277 15.9721 45.9402 15.8896C45.7602 15.8071 45.5202 15.8746 45.3102 15.8746C39.8577 15.8746 34.4052 15.8746 28.9527 15.8746C28.6002 15.8746 28.1577 15.7472 28.1802 16.3547C27.7152 16.3472 27.2427 16.3472 26.7702 16.3472Z" fill="#F68521"/>
<path d="M47.8753 46.2639C47.9428 47.8013 47.4328 48.3413 45.8953 48.3413C40.1278 48.3413 34.3603 48.3413 28.5853 48.3413C27.3628 48.3413 26.8228 47.8539 26.7628 46.744C27.2503 46.744 27.7378 46.7365 28.2253 46.7365C30.6778 46.744 33.1303 46.7515 35.5828 46.759C38.9428 46.759 42.3028 46.759 45.6628 46.759C46.0228 46.759 46.4578 46.8639 46.4428 46.2714C46.9228 46.2639 47.3953 46.2639 47.8753 46.2639Z" fill="#F68521"/>
<path d="M51.8654 49.6237C51.5054 50.9063 50.6429 51.6413 49.3454 51.8813C43.0903 51.8813 36.8428 51.8738 30.5878 51.8738C30.4753 51.5588 30.1828 51.0938 30.2878 50.9663C30.5203 50.6963 30.9628 50.4563 31.3153 50.4563C36.8953 50.4263 42.4753 50.4188 48.0553 50.4488C48.9328 50.4563 49.6828 50.3062 50.2603 49.6162C50.7928 49.6237 51.3254 49.6237 51.8654 49.6237Z" fill="#F68521"/>
<path d="M12.4228 22.887C10.3978 22.887 8.37281 22.8795 6.35531 22.8945C5.8228 22.8945 5.35031 22.8046 5.33531 22.1671C5.32031 21.5071 5.78531 21.3345 6.36281 21.3345C10.4128 21.3345 14.4554 21.3345 18.5054 21.3345C19.0529 21.3345 19.5628 21.432 19.5553 22.122C19.5478 22.8195 19.0529 22.887 18.4979 22.887C16.4654 22.8795 14.4403 22.887 12.4228 22.887Z" fill="#F68521"/>
<path d="M12.4378 39.0492C14.4628 39.0492 16.4878 39.0567 18.5128 39.0492C19.0378 39.0492 19.5253 39.1091 19.5478 39.7541C19.5703 40.4141 19.1053 40.5939 18.5278 40.5864C14.4778 40.5864 10.4278 40.5864 6.37775 40.5864C5.80025 40.5864 5.33524 40.4141 5.34274 39.7616C5.35024 39.1316 5.83023 39.0341 6.36274 39.0416C8.38775 39.0566 10.4127 39.0492 12.4378 39.0492Z" fill="#F68521"/>
<path d="M47.7628 23.2393C47.5678 23.9368 47.0728 24.2068 46.3828 24.2068C40.3378 24.2068 34.2928 24.2068 28.2478 24.2068C27.5578 24.2068 27.0702 23.9218 26.8677 23.2393C33.8352 23.2393 40.7952 23.2393 47.7628 23.2393Z" fill="#F68521"/>
<path d="M19.4727 32.4941C19.6902 33.0642 19.4052 33.3491 18.8877 33.4692C18.6327 33.5292 18.3628 33.5517 18.1003 33.5517C14.3203 33.5592 10.5478 33.5592 6.76782 33.5517C6.50532 33.5517 6.23529 33.5292 5.98029 33.4692C5.47029 33.3491 5.17777 33.0642 5.39527 32.4941C10.0902 32.4941 14.7852 32.4941 19.4727 32.4941Z" fill="#F68521"/>
<path d="M19.4129 28.8115C19.6904 29.6443 19.4653 29.9444 18.5353 29.9444C14.7403 29.9519 10.9378 29.9444 7.1428 29.9444C6.82779 29.9444 6.50528 29.9519 6.19027 29.9444C5.41027 29.9144 5.2153 29.5993 5.4703 28.8115C5.7403 28.8715 6.01778 28.9916 6.28778 28.9916C10.3903 29.0066 14.5003 29.0066 18.6028 28.9916C18.8653 28.9841 19.1354 28.8715 19.4129 28.8115Z" fill="#F68521"/>
<path d="M5.34276 25.7817C5.29776 24.9867 5.81522 24.8667 6.43772 24.8667C8.83769 24.8667 11.2377 24.8667 13.6376 24.8667C15.2651 24.8667 16.8926 24.8667 18.5201 24.8667C19.1201 24.8667 19.5777 25.0467 19.5327 25.7817C14.8002 25.7817 10.0752 25.7817 5.34276 25.7817Z" fill="#F68521"/>
<path d="M36.8803 28.4967C35.8678 28.4967 34.8628 28.4892 33.8503 28.4967C33.3178 28.5042 32.8602 28.3843 32.8527 27.7468C32.8452 27.1318 33.2652 26.9292 33.8052 26.9292C35.8527 26.9292 37.9003 26.9292 39.9478 26.9292C40.4953 26.9292 40.9227 27.1543 40.9227 27.7392C40.9152 28.3542 40.4503 28.4967 39.9178 28.4892C38.8977 28.4892 37.8928 28.4967 36.8803 28.4967Z" fill="#F68521"/>
<path d="M47.7627 23.2393C40.7952 23.2393 33.8352 23.2393 26.8677 23.2393C26.8377 22.9693 26.8002 22.6918 26.7702 22.4219C27.2427 22.4219 27.7152 22.4219 28.1877 22.4219C28.5702 23.1192 28.9603 22.5718 29.3503 22.4294C29.9878 22.4894 30.6252 22.5569 31.2627 22.6168C31.3602 22.6543 31.4577 22.7219 31.5552 22.7219C34.1202 22.7144 36.6852 22.6994 39.2502 22.6919C40.6377 22.6844 42.0178 22.6844 43.4053 22.6769C43.4428 22.6544 43.4878 22.6243 43.5253 22.6018C44.1328 22.5943 44.7402 22.5868 45.3477 22.5793C45.7527 22.7818 46.1502 22.8868 46.4577 22.4219C46.9302 22.4219 47.4102 22.4219 47.8828 22.4219C47.8378 22.6993 47.8002 22.9693 47.7627 23.2393Z" fill="#F68521"/>
<path d="M19.4952 15.057C19.5852 15.9044 18.9627 15.8443 18.4452 15.8443C15.1977 15.8593 11.9427 15.8518 8.69523 15.8518C7.87024 15.8518 7.04529 15.8743 6.2203 15.8443C5.4478 15.8143 5.23777 15.4843 5.44027 14.7043C5.71027 14.8243 5.98023 15.0495 6.25023 15.0495C10.6602 15.072 15.0777 15.0645 19.4952 15.057Z" fill="#F68521"/>
<path d="M5.38031 18.3569C5.69531 18.1694 6.01023 17.8244 6.32523 17.8169C10.3977 17.7794 14.4628 17.7794 18.5353 17.8169C18.8503 17.8169 19.1653 18.1694 19.4803 18.3569C19.1803 18.4319 18.8878 18.5744 18.5953 18.5744C14.4853 18.5894 10.3753 18.5894 6.26526 18.5744C5.97276 18.5744 5.68031 18.4319 5.38031 18.3569Z" fill="#F68521"/>
<path d="M19.4953 15.0571C15.0778 15.0571 10.6603 15.0721 6.24277 15.0496C5.97277 15.0496 5.7028 14.8244 5.4328 14.7044C5.7478 14.5619 6.06281 14.2996 6.37781 14.2921C10.4053 14.2621 14.4328 14.277 18.4528 14.2695C19.0003 14.277 19.4953 14.3371 19.4953 15.0571Z" fill="#F68521"/>
<path d="M5.34277 25.7817C10.0678 25.7817 14.8003 25.7817 19.5253 25.7817C19.2478 25.9992 18.9778 26.3968 18.7003 26.4043C14.5227 26.4417 10.3453 26.4417 6.16776 26.4043C5.89026 26.3968 5.62027 25.9917 5.34277 25.7817Z" fill="#F68521"/>
<path d="M19.5328 47.0586C19.2178 47.2688 18.9028 47.6516 18.5803 47.6591C14.4853 47.6966 10.3903 47.6966 6.29529 47.6591C5.97279 47.6591 5.66527 47.2688 5.34277 47.0586C10.0753 47.0586 14.8003 47.0586 19.5328 47.0586Z" fill="#F68521"/>
<path d="M5.4328 46.5264C5.7178 46.3914 6.01032 46.1363 6.29532 46.1363C10.3903 46.1138 14.4853 46.1138 18.5803 46.1363C18.8653 46.1363 19.1578 46.3914 19.4428 46.5264C19.1728 46.6015 18.9103 46.7365 18.6403 46.7365C14.5003 46.7516 10.3602 46.7516 6.22775 46.7365C5.96525 46.7365 5.6953 46.6015 5.4328 46.5264Z" fill="#F68521"/>
<path d="M45.0853 28.4967C44.4703 28.4967 43.8628 28.5042 43.2478 28.4967C42.7453 28.4892 42.4302 28.2642 42.4227 27.7318C42.4152 27.1919 42.7603 26.9519 43.2328 26.9444C44.5078 26.9219 45.7903 26.9219 47.0653 26.9444C47.5378 26.9519 47.8978 27.1693 47.8903 27.7168C47.8828 28.2942 47.5304 28.4967 46.9979 28.4967C46.3604 28.4967 45.7228 28.4967 45.0853 28.4967Z" fill="#F68521"/>
<path d="M29.2678 28.497C28.6828 28.497 28.0827 28.5795 27.5202 28.4669C27.2277 28.4069 26.8078 28.0169 26.8003 27.7619C26.7928 27.4994 27.1978 27.0043 27.4453 26.9893C28.6603 26.9068 29.8978 26.8993 31.1128 26.9893C31.3828 27.0118 31.6153 27.5294 31.8628 27.822C31.5853 28.047 31.3303 28.4144 31.0228 28.4669C30.4528 28.572 29.8528 28.497 29.2678 28.497Z" fill="#F68521"/>
<path d="M0.677796 35.7039C0.677796 34.4814 0.670288 33.2516 0.670288 32.0291C0.677788 31.5492 0.677803 31.0618 0.685303 30.5818C1.15781 30.5818 1.62283 30.5818 2.09534 30.5818C2.09534 32.2917 2.09534 33.994 2.09534 35.7039C1.62283 35.7039 1.15031 35.7039 0.677796 35.7039Z" fill="#F68521"/>
<path d="M2.08777 30.5818C1.61526 30.5818 1.15024 30.5818 0.677734 30.5818C0.677734 28.8718 0.677734 27.1692 0.677734 25.4592C1.14274 25.4592 1.61525 25.4592 2.08026 25.4592C2.08776 27.1692 2.08777 28.8793 2.08777 30.5818Z" fill="#F68521"/>
<path d="M2.08777 25.467C1.61528 25.467 1.15029 25.467 0.685302 25.467C0.677803 24.2446 0.677788 23.0147 0.670288 21.7922C0.677788 21.3647 0.677803 20.9373 0.685302 20.5098C1.15029 20.5098 1.62278 20.5098 2.08777 20.5098C2.08777 22.1597 2.08777 23.8096 2.08777 25.467Z" fill="#F68521"/>
<path d="M34.2628 30.5891C34.2403 29.9817 34.6303 29.8016 35.1328 29.8016C37.6003 29.7941 40.0678 29.7866 42.5353 29.8016C43.0228 29.8016 43.4353 29.9667 43.4128 30.5891C40.3603 30.5891 37.3153 30.5891 34.2628 30.5891Z" fill="#F68521"/>
<path d="M0.677734 35.7039C1.15024 35.7039 1.61526 35.7039 2.08777 35.7039C2.08777 37.3013 2.08777 38.9064 2.08777 40.5039C1.61526 40.5039 1.15024 40.5039 0.677734 40.5039C0.677734 38.9064 0.677734 37.3013 0.677734 35.7039Z" fill="#F68521"/>
<path d="M5.3653 36.4915C5.3803 36.3339 5.39525 36.169 5.41025 36.0115C10.0903 36.0115 14.7778 36.0115 19.4578 36.0115C19.4728 36.169 19.4953 36.3339 19.5103 36.4915C14.7928 36.4915 10.0828 36.4915 5.3653 36.4915Z" fill="#F68521"/>
<path d="M22.4503 17.9443C22.4353 16.6394 22.4278 15.3345 22.4128 14.0295C22.4053 13.512 22.5853 13.1221 23.1703 13.1221C23.7553 13.1221 23.9354 13.5195 23.9354 14.0295C23.9279 15.3345 23.9128 16.6394 23.8978 17.9368C23.4178 17.9443 22.9303 17.9443 22.4503 17.9443Z" fill="#F68521"/>
<path d="M23.8978 41.1489C23.8978 42.6939 23.9053 44.2391 23.9053 45.7842C23.4178 45.7842 22.9303 45.7842 22.4428 45.7842C22.4428 44.2391 22.4427 42.6939 22.4502 41.1414C22.9302 41.1489 23.4103 41.1489 23.8978 41.1489Z" fill="#F68521"/>
<path d="M0.677795 40.5039C1.15029 40.5039 1.61528 40.5039 2.08777 40.5039C2.08777 42.0489 2.08777 43.6014 2.08777 45.1465C1.61528 45.1465 1.15029 45.1465 0.677795 45.1465C0.677795 43.9765 0.670288 42.799 0.670288 41.6289C0.677788 41.2539 0.677795 40.8789 0.677795 40.5039Z" fill="#F68521"/>
<path d="M5.3653 36.4915C10.0828 36.4915 14.7928 36.4915 19.5103 36.4915C19.2178 36.664 18.9328 36.9868 18.6403 36.9868C14.5078 37.0168 10.3752 37.0168 6.24274 36.9868C5.94274 36.9868 5.6578 36.664 5.3653 36.4915Z" fill="#F68521"/>
<path d="M19.4727 32.4941C14.7852 32.4941 10.0903 32.4941 5.40277 32.4941C5.70277 32.3292 5.99532 32.0217 6.29531 32.0142C10.3903 31.9842 14.4853 31.9842 18.5803 32.0142C18.8803 32.0217 19.1727 32.3292 19.4727 32.4941Z" fill="#F68521"/>
<path d="M19.4128 28.8118C19.1428 28.8718 18.8653 28.9844 18.5953 28.9844C14.4928 28.9994 10.3828 28.9994 6.2803 28.9844C6.0103 28.9844 5.73283 28.8718 5.46283 28.8043C5.74033 28.6918 6.01781 28.4893 6.28781 28.4893C10.3903 28.4668 14.4928 28.4668 18.5878 28.4893C18.8653 28.4893 19.1353 28.6993 19.4128 28.8118Z" fill="#F68521"/>
<path d="M19.4578 36.0115C14.7777 36.0115 10.0902 36.0115 5.41022 36.0115C5.70272 35.8465 5.99526 35.5389 6.29526 35.5389C10.3828 35.5089 14.4703 35.5089 18.5578 35.5389C18.8578 35.5389 19.1578 35.8465 19.4578 36.0115Z" fill="#F68521"/>
<path d="M19.4278 43.7214C19.1203 43.8714 18.8128 44.1489 18.4978 44.1489C14.4553 44.1789 10.4127 44.1789 6.37024 44.1489C6.06274 44.1489 5.75526 43.8639 5.45526 43.7139C10.1128 43.7214 14.7703 43.7214 19.4278 43.7214Z" fill="#F68521"/>
<path d="M19.4428 18.927C19.1353 19.077 18.8352 19.362 18.5277 19.362C14.4627 19.392 10.3977 19.392 6.34021 19.362C6.03271 19.362 5.73273 19.077 5.42523 18.927C10.0977 18.927 14.7703 18.927 19.4428 18.927Z" fill="#F68521"/>
<path d="M5.4328 43.0615C5.7328 42.904 6.03277 42.604 6.34027 42.604C10.4128 42.574 14.4928 42.574 18.5728 42.604C18.8728 42.604 19.1728 42.904 19.4803 43.0615C14.7928 43.0615 10.1128 43.0615 5.4328 43.0615Z" fill="#F68521"/>
<path d="M2.08783 20.502C1.62282 20.502 1.15031 20.502 0.685303 20.502C0.685303 19.0095 0.685303 17.5169 0.685303 16.0244C1.15781 16.0244 1.62283 16.0244 2.09534 16.0244C2.08784 17.5169 2.08783 19.0095 2.08783 20.502Z" fill="#F68521"/>
<path d="M0.677796 45.1465C1.1503 45.1465 1.61532 45.1465 2.08783 45.1465C2.09533 46.1964 2.08776 47.2539 2.11776 48.3038C2.12526 48.6938 2.20781 49.0763 2.26032 49.4663C1.77281 49.5413 1.29275 49.6163 0.805239 49.6838C0.760239 49.5638 0.715289 49.4364 0.670288 49.3164C0.677788 47.9289 0.677796 46.5339 0.677796 45.1465Z" fill="#F68521"/>
<path d="M2.08777 16.0244C1.61526 16.0244 1.15024 16.0244 0.677735 16.0244C0.670235 14.9594 0.67022 13.8944 0.66272 12.8295C0.67022 12.612 0.677735 12.4021 0.677735 12.1846C1.14274 12.1846 1.61525 12.1846 2.08026 12.1846C2.08776 13.467 2.08777 14.7419 2.08777 16.0244Z" fill="#F68521"/>
<path d="M22.4428 45.7842C22.9303 45.7842 23.4178 45.7842 23.9054 45.7842C23.9279 46.5941 24.0329 47.4115 23.9429 48.2064C23.9129 48.4764 23.3803 48.6939 23.0803 48.9338C22.8628 48.6489 22.4952 48.3788 22.4577 48.0788C22.3677 47.3289 22.4353 46.5566 22.4428 45.7842Z" fill="#F68521"/>
<path d="M5.43277 46.5264C5.70277 46.6013 5.96523 46.7363 6.23523 46.7363C10.3753 46.7513 14.5153 46.7513 18.6478 46.7363C18.9178 46.7363 19.1803 46.6013 19.4503 46.5264C19.4803 46.7063 19.5103 46.8787 19.5403 47.0586C14.8078 47.0586 10.0828 47.0586 5.35028 47.0586C5.37278 46.8787 5.40277 46.7063 5.43277 46.5264Z" fill="#F68521"/>
<path d="M22.4503 17.9443C22.9377 17.9443 23.4178 17.9443 23.9053 17.9443C23.9053 19.0094 23.9053 20.0744 23.9053 21.147C23.4178 21.147 22.9377 21.147 22.4503 21.147C22.4503 20.0819 22.4503 19.0094 22.4503 17.9443Z" fill="#F68521"/>
<path d="M26.7703 30.5818C26.7328 29.9515 27.1753 29.8164 27.6478 29.8089C29.0578 29.7864 30.4603 29.7939 31.8704 29.8089C32.3654 29.8164 32.7553 30.004 32.7928 30.5818C30.7828 30.5818 28.7803 30.5818 26.7703 30.5818Z" fill="#F68521"/>
<path d="M23.8978 41.1487C23.4178 41.1487 22.9302 41.1487 22.4503 41.1487C22.4503 40.0838 22.4503 39.0191 22.4503 37.9468C22.9302 37.9468 23.4178 37.9468 23.8978 37.9468C23.8978 39.0191 23.8978 40.0838 23.8978 41.1487Z" fill="#F68521"/>
<path d="M19.4428 18.927C14.7703 18.927 10.0978 18.927 5.42526 18.927C5.41026 18.7395 5.39531 18.552 5.38031 18.3569C5.67281 18.4319 5.97276 18.5745 6.26526 18.5745C10.3753 18.5895 14.4853 18.5895 18.5953 18.5745C18.8878 18.5745 19.1878 18.4319 19.4803 18.3569C19.4728 18.552 19.4578 18.7395 19.4428 18.927Z" fill="#F68521"/>
<path d="M5.43277 43.0615C10.1128 43.0615 14.7927 43.0615 19.4727 43.0615C19.4952 43.1665 19.5103 43.2791 19.5328 43.384C14.8003 43.384 10.0753 43.384 5.34277 43.384C5.37277 43.2716 5.40277 43.1665 5.43277 43.0615Z" fill="#F68521"/>
<path d="M5.34277 43.384C10.0753 43.384 14.8003 43.384 19.5328 43.384C19.4953 43.4965 19.4653 43.6088 19.4278 43.7288C14.7703 43.7288 10.1128 43.7288 5.45529 43.7213C5.41779 43.6088 5.38027 43.4965 5.34277 43.384Z" fill="#F68521"/>
<path d="M22.4503 29.9441C22.4503 28.9316 22.4503 27.919 22.4503 26.9065C22.9377 26.9065 23.4178 26.9065 23.9053 26.9065C23.9053 27.919 23.9053 28.9316 23.9053 29.9441C23.4178 29.9441 22.9302 29.9441 22.4503 29.9441Z" fill="#F68521"/>
<path d="M43.3903 30.9043C43.0903 31.0618 42.7903 31.3545 42.4903 31.362C40.0603 31.3995 37.6228 31.3995 35.1853 31.362C34.8853 31.3545 34.5853 31.0618 34.2853 30.9043C37.3228 30.9043 40.3528 30.9043 43.3903 30.9043Z" fill="#F68521"/>
<path d="M23.8978 26.9065C23.4103 26.9065 22.9303 26.9065 22.4428 26.9065C22.4428 25.9465 22.4428 24.9866 22.4428 24.0266C22.9303 24.0266 23.4103 24.0266 23.8978 24.0266C23.8978 24.9866 23.8978 25.9465 23.8978 26.9065Z" fill="#F68521"/>
<path d="M23.8978 24.0266C23.4103 24.0266 22.9303 24.0266 22.4428 24.0266C22.4428 23.0668 22.4428 22.1068 22.4428 21.147C22.9303 21.147 23.4103 21.147 23.8978 21.147C23.8978 22.1068 23.8978 23.0668 23.8978 24.0266Z" fill="#F68521"/>
<path d="M22.4503 29.9441C22.9302 29.9441 23.4178 29.9441 23.8978 29.9441C23.8978 30.8516 23.8978 31.7592 23.8978 32.6667C23.4103 32.6667 22.9302 32.6667 22.4503 32.6667C22.4503 31.7592 22.4503 30.8516 22.4503 29.9441Z" fill="#F68521"/>
<path d="M22.4503 32.6667C22.9302 32.6667 23.4178 32.6667 23.8978 32.6667C23.8978 33.5742 23.8978 34.4817 23.8978 35.3892C23.4178 35.3892 22.9302 35.3892 22.4503 35.3892C22.4503 34.4817 22.4503 33.5742 22.4503 32.6667Z" fill="#F68521"/>
<path d="M22.4503 35.3892C22.9303 35.3892 23.4178 35.3892 23.8978 35.3892C23.8978 36.2442 23.8978 37.0993 23.8978 37.9468C23.4178 37.9468 22.9303 37.9468 22.4503 37.9468C22.4428 37.0918 22.4428 36.2367 22.4503 35.3892Z" fill="#F68521"/>
<path d="M26.7702 39.2217C26.7702 38.4716 26.7702 37.7291 26.7702 36.979C27.2427 36.979 27.7152 36.979 28.1953 36.979C28.1953 37.7291 28.1953 38.4716 28.1953 39.2217C27.7152 39.2217 27.2427 39.2217 26.7702 39.2217Z" fill="#F68521"/>
<path d="M47.8753 46.2639C47.4028 46.2639 46.9228 46.2639 46.4503 46.2639C46.4503 45.5139 46.4503 44.7715 46.4503 44.0215C46.9228 44.0215 47.4028 44.0215 47.8753 44.0215C47.8678 44.7715 47.8678 45.5214 47.8753 46.2639Z" fill="#F68521"/>
<path d="M43.3903 30.9043C40.3603 30.9043 37.3228 30.9043 34.2927 30.9043C34.2852 30.7992 34.2777 30.6942 34.2627 30.5891C37.3152 30.5891 40.3678 30.5891 43.4203 30.5891C43.4053 30.6942 43.3978 30.7992 43.3903 30.9043Z" fill="#F68521"/>
<path d="M26.7628 44.989C26.7628 44.3515 26.7628 43.7064 26.7628 43.0688C27.2353 43.0688 27.7153 43.0688 28.1878 43.0688C28.1878 43.7064 28.1878 44.3515 28.1878 44.989C27.7153 44.989 27.2428 44.989 26.7628 44.989Z" fill="#F68521"/>
<path d="M28.1878 43.0688C27.7153 43.0688 27.2353 43.0688 26.7628 43.0688C26.7628 42.4313 26.7628 41.7862 26.7628 41.1487C27.2353 41.1487 27.7153 41.1487 28.1878 41.1487C28.1878 41.7862 28.1878 42.4238 28.1878 43.0688Z" fill="#F68521"/>
<path d="M47.8677 38.749C47.8677 39.3865 47.8677 40.0315 47.8677 40.6689C47.3952 40.6689 46.9227 40.6689 46.4503 40.6689C46.4503 40.0315 46.4503 39.3865 46.4503 38.749C46.9227 38.749 47.3952 38.749 47.8677 38.749Z" fill="#F68521"/>
<path d="M28.1878 41.1487C27.7153 41.1487 27.2353 41.1487 26.7628 41.1487C26.7628 40.5112 26.7628 39.8664 26.7628 39.229C27.2353 39.229 27.7078 39.229 28.1803 39.229C28.1878 39.8664 28.1878 40.5037 28.1878 41.1487Z" fill="#F68521"/>
<path d="M47.8677 38.749C47.3952 38.749 46.9228 38.749 46.4427 38.749C46.4427 38.1115 46.4427 37.4664 46.4427 36.8289C46.9153 36.8289 47.3952 36.8289 47.8677 36.8289C47.8677 37.4664 47.8677 38.104 47.8677 38.749Z" fill="#F68521"/>
<path d="M32.7028 30.9193C32.4028 31.0768 32.1103 31.3543 31.8028 31.3618C30.4303 31.4068 29.0503 31.4143 27.6778 31.3618C27.3778 31.3543 27.0852 31.0618 26.7852 30.9043C28.7577 30.9043 30.7302 30.9118 32.7028 30.9193Z" fill="#F68521"/>
<path d="M26.7628 44.989C27.2352 44.989 27.7153 44.989 28.1877 44.989C28.2027 45.5741 28.2103 46.1592 28.2253 46.7442C27.7378 46.7442 27.2502 46.7517 26.7628 46.7517C26.7628 46.1592 26.7628 45.5741 26.7628 44.989Z" fill="#F68521"/>
<path d="M47.8677 44.0291C47.3952 44.0291 46.9153 44.0291 46.4427 44.0291C46.4427 43.444 46.4427 42.8589 46.4427 42.2664C46.9153 42.2664 47.3877 42.2664 47.8677 42.2664C47.8677 42.8514 47.8677 43.4365 47.8677 44.0291Z" fill="#F68521"/>
<path d="M46.4128 16.3396C46.9003 16.3396 47.3878 16.3396 47.8677 16.3396C47.8677 16.8721 47.8677 17.4045 47.8677 17.937C47.3953 17.937 46.9228 17.937 46.4503 17.937C46.4353 17.412 46.4278 16.8796 46.4128 16.3396Z" fill="#F68521"/>
<path d="M44.6877 30.5815C44.6877 30.5591 44.6727 30.529 44.6802 30.5065C45.0402 29.3071 46.0302 29.9293 46.7502 29.8169C47.2827 29.7344 47.8377 29.8319 47.8677 30.5815C46.8102 30.5815 45.7452 30.5815 44.6877 30.5815Z" fill="#F68521"/>
<path d="M47.8677 42.2664C47.3952 42.2664 46.9228 42.2664 46.4427 42.2664C46.4427 41.7339 46.4427 41.2014 46.4427 40.6689C46.9153 40.6689 47.3877 40.6689 47.8602 40.6689C47.8677 41.2014 47.8677 41.7339 47.8677 42.2664Z" fill="#F68521"/>
<path d="M26.7702 18.9045C26.7702 18.4245 26.7702 17.9446 26.7702 17.4646C27.2427 17.4646 27.7152 17.4646 28.1953 17.4646C28.1953 17.9446 28.1953 18.4245 28.1953 18.9045C27.7152 18.9045 27.2427 18.9045 26.7702 18.9045Z" fill="#F68521"/>
<path d="M32.7028 30.9192C30.7303 30.9117 28.7577 30.9042 26.7852 30.9042C26.7777 30.7992 26.7702 30.6943 26.7702 30.5893C28.7802 30.5893 30.7828 30.5818 32.7928 30.5818C32.7628 30.6868 32.7328 30.8067 32.7028 30.9192Z" fill="#F68521"/>
<path d="M47.8677 18.9045C47.8677 19.332 47.8677 19.7593 47.8677 20.1868C47.3952 20.1868 46.9227 20.1868 46.4503 20.1868C46.4503 19.7593 46.4503 19.332 46.4503 18.9045C46.9227 18.9045 47.3952 18.9045 47.8677 18.9045Z" fill="#F68521"/>
<path d="M26.7702 18.9045C27.2427 18.9045 27.7153 18.9045 28.1878 18.9045C28.1878 19.332 28.1878 19.7593 28.1878 20.1868C27.7153 20.1868 27.2427 20.1868 26.7702 20.1868C26.7702 19.7593 26.7702 19.332 26.7702 18.9045Z" fill="#F68521"/>
<path d="M26.7702 20.1868C27.2427 20.1868 27.7153 20.1868 28.1878 20.1868C28.1878 20.6143 28.1878 21.0417 28.1878 21.4692C27.7153 21.4692 27.2427 21.4692 26.7702 21.4692C26.7702 21.0417 26.7702 20.6143 26.7702 20.1868Z" fill="#F68521"/>
<path d="M28.1878 36.9866C27.7153 36.9866 27.2428 36.9866 26.7628 36.9866C26.7628 36.5591 26.7628 36.1314 26.7628 35.7039C27.2353 35.7039 27.7078 35.7039 28.1803 35.7039C28.1878 36.1314 28.1878 36.5591 28.1878 36.9866Z" fill="#F68521"/>
<path d="M46.4502 20.1868C46.9227 20.1868 47.3952 20.1868 47.8677 20.1868C47.8677 20.6143 47.8677 21.0417 47.8677 21.4692C47.3952 21.4692 46.9153 21.4692 46.4427 21.4692C46.4502 21.0417 46.4502 20.6143 46.4502 20.1868Z" fill="#F68521"/>
<path d="M28.1878 17.4646C27.7153 17.4646 27.2428 17.4646 26.7628 17.4646C26.7628 17.0895 26.7628 16.7145 26.7628 16.3469C27.2353 16.3469 27.7078 16.3469 28.1803 16.3469C28.1878 16.722 28.1878 17.0895 28.1878 17.4646Z" fill="#F68521"/>
<path d="M47.8677 36.8289C47.3952 36.8289 46.9153 36.8289 46.4427 36.8289C46.4427 36.4539 46.4427 36.0789 46.4427 35.7114C46.9153 35.7114 47.3877 35.7114 47.8602 35.7114C47.8677 36.0789 47.8677 36.4539 47.8677 36.8289Z" fill="#F68521"/>
<path d="M47.8453 30.8967C47.7028 31.0467 47.5678 31.3091 47.4253 31.3166C46.6603 31.3616 45.8953 31.3616 45.1303 31.3166C44.9803 31.3091 44.8452 31.0467 44.7027 30.8967C45.7527 30.8967 46.7953 30.8967 47.8453 30.8967Z" fill="#F68521"/>
<path d="M47.8677 18.9045C47.3952 18.9045 46.9227 18.9045 46.4503 18.9045C46.4503 18.582 46.4503 18.2669 46.4503 17.9443C46.9227 17.9443 47.3952 17.9443 47.8677 17.9443C47.8677 18.2669 47.8677 18.582 47.8677 18.9045Z" fill="#F68521"/>
<path d="M26.7702 21.4617C27.2427 21.4617 27.7153 21.4617 28.1878 21.4617C28.1878 21.7842 28.1878 22.0993 28.1878 22.4219C27.7153 22.4219 27.2427 22.4219 26.7702 22.4219C26.7702 22.1068 26.7702 21.7842 26.7702 21.4617Z" fill="#F68521"/>
<path d="M46.4427 21.4617C46.9153 21.4617 47.3952 21.4617 47.8677 21.4617C47.8677 21.7842 47.8677 22.0993 47.8677 22.4219C47.3952 22.4219 46.9153 22.4219 46.4427 22.4219C46.4427 22.1068 46.4427 21.7842 46.4427 21.4617Z" fill="#F68521"/>
<path d="M47.8453 30.8967C46.7953 30.8967 45.7527 30.8967 44.7027 30.8967C44.6952 30.7917 44.6952 30.6868 44.6877 30.5818C45.7452 30.5818 46.8027 30.5818 47.8677 30.5818C47.8602 30.6868 47.8528 30.7917 47.8453 30.8967Z" fill="#F68521"/>
<path d="M2.08777 4.82715C2.08777 5.78717 2.08777 6.74726 2.08777 7.70728C1.62278 7.70728 1.15029 7.70728 0.685303 7.70728C0.685303 6.74726 0.685303 5.78717 0.685303 4.82715C1.15029 4.82715 1.62278 4.82715 2.08777 4.82715Z" fill="#F68521"/>
<path d="M32.0803 21.717C31.8103 22.0169 31.5327 22.3168 31.2627 22.6167C30.6252 22.5567 29.9878 22.4892 29.3503 22.4293C29.7703 22.0094 30.1902 21.5896 30.6102 21.1697C30.8202 21.2671 31.0228 21.3795 31.2403 21.462C31.5103 21.5595 31.7953 21.6345 32.0803 21.717Z" fill="#F68521"/>
<path d="M43.3903 22.6167C43.2703 22.4217 43.1578 22.2267 43.0378 22.0317C43.5553 21.8893 44.0727 21.7394 44.5902 21.5969C44.8377 21.9269 45.0852 22.2567 45.3327 22.5792C44.7252 22.5867 44.1178 22.5942 43.5103 22.6017C43.4728 22.6017 43.4278 22.6092 43.3903 22.6167Z" fill="#F68521"/>
<path d="M43.3903 22.6168C43.4353 22.6093 43.4728 22.6018 43.5178 22.6018C43.4803 22.6243 43.4353 22.6545 43.3978 22.677L43.3903 22.6168Z" fill="#F68521"/>
<path d="M23.6053 4.47471C24.0553 3.70981 24.7378 3.39489 25.6003 3.39489C29.1103 3.40239 32.6203 3.40988 36.1303 3.38739C36.7678 3.37989 37.2178 3.60477 37.2103 4.23469C37.2028 4.81212 36.7153 4.96207 36.1678 4.95457C32.6578 4.93207 29.1478 4.92471 25.6378 4.90971C25.3903 4.82723 25.1503 4.71468 24.8953 4.66219C24.4753 4.5872 24.0403 4.5422 23.6053 4.47471Z" fill="#F68521"/>
<path d="M46.9302 7.4146C46.4952 7.57215 46.0677 7.86485 45.6327 7.87235C38.8977 7.90236 32.1553 7.90985 25.4203 7.86484C24.9028 7.86484 24.3852 7.45212 23.8677 7.23454C31.2852 7.23454 38.7027 7.22703 46.1202 7.23454C46.3902 7.23454 46.6602 7.35457 46.9302 7.4146Z" fill="#F68521"/>
<path d="M46.9302 7.41455C46.6602 7.35455 46.3902 7.23455 46.1202 7.23455C38.7027 7.22705 31.2852 7.22705 23.8677 7.23455C23.7627 7.07704 23.6577 6.91212 23.5527 6.75461C25.4952 6.75461 27.4452 6.75461 29.3877 6.75461C35.0652 6.75461 40.7352 6.74713 46.4127 6.76963C46.6902 6.76963 46.9752 6.9871 47.2527 7.1071C47.1477 7.20461 47.0352 7.30955 46.9302 7.41455Z" fill="#F68521"/>
<path d="M45.4753 4.91724C44.0653 4.93224 42.6628 4.94727 41.2528 4.94727C40.7203 4.94727 40.3752 4.66975 40.3752 4.12984C40.3752 3.61242 40.7503 3.40248 41.2303 3.40248C42.7152 3.39498 44.2078 3.365 45.6928 3.40999C46.4353 3.43248 47.0727 3.76988 47.4177 4.48976C47.0127 4.54225 46.6002 4.58723 46.2027 4.66222C45.9552 4.72221 45.7153 4.83476 45.4753 4.91724Z" fill="#F68521"/>
<path d="M47.2528 7.09229C46.9753 6.97229 46.6903 6.76233 46.4128 6.75483C40.7353 6.73234 35.0652 6.73982 29.3877 6.73982C27.4452 6.73982 25.4953 6.73982 23.5528 6.73982C23.4628 6.52233 23.3802 6.30475 23.2902 6.08726C23.8077 5.98976 24.5653 6.42485 24.6703 5.44989C24.7153 5.44239 24.7527 5.44238 24.7977 5.44238C24.7602 6.15486 25.0828 6.42489 25.8028 6.42489C32.2378 6.40989 38.6728 6.40989 45.1078 6.42489C45.6628 6.42489 46.0152 6.22981 46.2627 5.77233C46.7577 5.77233 47.2528 5.76482 47.7478 5.76482C47.5828 6.2148 47.4178 6.6573 47.2528 7.09229Z" fill="#F68521"/>
<path d="M4.33783 4.30228C5.50781 2.95231 7.29271 3.13229 8.0202 4.66226C7.01522 4.66226 6.01031 4.68474 5.00533 4.64725C4.78033 4.63975 4.55533 4.42228 4.33783 4.30228Z" fill="#F68521"/>
<path d="M9.94781 4.32476C10.9978 3.05739 12.2128 3.0649 13.4803 4.33977C13.3678 4.43726 13.2553 4.62466 13.1353 4.63216C12.1828 4.65466 11.2303 4.65465 10.2853 4.62465C10.1653 4.61715 10.0603 4.42975 9.94781 4.32476Z" fill="#F68521"/>
<path d="M19.4053 6.26714C19.1953 6.59713 18.9853 6.93467 18.7753 7.26465C17.8378 6.97217 16.9078 6.85973 15.9928 7.32471C15.7528 7.02472 15.5203 6.71727 15.2803 6.41728C15.8278 6.35728 16.3753 6.29729 16.9228 6.22979C17.2453 6.18479 17.5678 6.13216 17.8978 6.08716C18.3928 6.15465 18.8953 6.20714 19.4053 6.26714Z" fill="#F68521"/>
<path d="M15.5728 4.34717C16.5103 3.06486 18.0777 3.04984 19.0977 4.31714C17.9202 4.33214 16.7428 4.33967 15.5728 4.34717Z" fill="#F68521"/>
<path d="M9.94773 4.32495C10.0602 4.42993 10.1727 4.61733 10.2852 4.62483C11.2377 4.64733 12.1903 4.65483 13.1353 4.63234C13.2553 4.63234 13.3678 4.44495 13.4803 4.33996C13.6153 4.66241 13.7503 4.97738 13.8853 5.29983C13.3753 5.29983 12.8578 5.30734 12.3477 5.30734C11.8527 4.87241 11.4027 4.80488 11.0352 5.45728C10.5252 5.45728 10.0153 5.45728 9.50525 5.45728C9.64775 5.08234 9.79773 4.70739 9.94773 4.32495Z" fill="#F68521"/>
<path d="M15.5728 4.3474C16.7503 4.33991 17.9203 4.33238 19.0977 4.31738C19.2027 4.54233 19.3003 4.75969 19.4053 4.98464C18.9178 5.05962 18.4228 5.13464 17.9353 5.20962C17.5003 4.93969 17.0653 4.75233 16.6978 5.3147C16.1953 5.3147 15.6928 5.30719 15.1828 5.30719C15.3103 4.98477 15.4378 4.66983 15.5728 4.3474Z" fill="#F68521"/>
<path d="M4.33777 4.30225C4.56277 4.42224 4.78028 4.6397 5.00528 4.6472C6.01028 4.68469 7.0152 4.66221 8.0202 4.66221C8.0952 4.8722 8.17023 5.08976 8.23773 5.29974C7.72773 5.30724 7.22521 5.31477 6.71521 5.32227C6.30271 4.92479 5.88276 4.73728 5.45526 5.29974C4.93776 5.29974 4.42772 5.29974 3.91022 5.29974C4.04522 4.96976 4.18777 4.63223 4.33777 4.30225Z" fill="#F68521"/>
<path d="M4.82523 7.42212C4.61523 7.19711 4.41276 6.97217 4.20276 6.74716C4.53276 6.69465 4.8703 6.66467 5.1853 6.58217C5.4028 6.52217 5.59776 6.38706 5.80026 6.28955C5.96526 6.29705 6.12278 6.29707 6.28778 6.30457C6.49778 6.40207 6.70026 6.52967 6.91776 6.58217C7.27026 6.66467 7.6303 6.69465 7.9903 6.73965C7.8403 6.90466 7.69773 7.06209 7.54773 7.2271C7.25523 7.2271 6.96279 7.21211 6.67029 7.23461C6.04779 7.27961 5.44023 7.35462 4.82523 7.42212Z" fill="#F68521"/>
<path d="M13.6677 6.59725C13.5627 6.76227 13.4577 6.9197 13.3527 7.08472C12.2652 7.08472 11.1702 7.08472 10.0828 7.08472C9.97026 6.9197 9.85781 6.75476 9.75281 6.58975C10.0453 6.58975 10.3453 6.62723 10.6228 6.56722C10.8928 6.51472 11.1402 6.3721 11.4027 6.26709C11.6202 6.26709 11.8302 6.25977 12.0477 6.25977C12.2202 6.36477 12.3928 6.53722 12.5803 6.56722C12.9253 6.62723 13.3002 6.58975 13.6677 6.59725Z" fill="#F68521"/>
<path d="M15.1828 5.2998C15.6853 5.2998 16.1878 5.30731 16.6978 5.30731C16.7728 5.61479 16.8478 5.92226 16.9228 6.22975C16.3753 6.28974 15.8278 6.34974 15.2803 6.41724C15.2428 6.04976 15.2128 5.67478 15.1828 5.2998Z" fill="#F68521"/>
<path d="M10.0752 7.08472C11.1627 7.08472 12.2578 7.08472 13.3453 7.08472C12.3478 8.13467 11.0877 8.14217 10.0752 7.08472Z" fill="#F68521"/>
<path d="M15.9927 7.33231C16.9077 6.86722 17.8453 6.97969 18.7753 7.27224C17.8153 8.08241 16.9302 8.10497 15.9927 7.33231Z" fill="#F68521"/>
<path d="M24.7977 5.45734C24.7527 5.45734 24.7153 5.45734 24.6703 5.46484C24.2053 5.46484 23.7328 5.46484 23.2678 5.46484C23.3803 5.1348 23.4928 4.80472 23.6053 4.48218C24.0403 4.54219 24.4752 4.5947 24.9027 4.67721C25.1577 4.72972 25.3977 4.84229 25.6452 4.9248C25.3602 5.09732 25.0827 5.27731 24.7977 5.45734Z" fill="#F68521"/>
<path d="M13.6677 6.59744C13.3002 6.59744 12.9253 6.62741 12.5653 6.57491C12.3778 6.54491 12.2128 6.37229 12.0328 6.26729C12.1528 6.10978 12.2728 5.94486 12.3928 5.78735C12.8953 5.78735 13.4053 5.78735 13.9078 5.78735C13.8328 6.04986 13.7502 6.32743 13.6677 6.59744Z" fill="#F68521"/>
<path d="M4.8252 7.42221C5.4402 7.35472 6.05527 7.27973 6.67028 7.22724C6.96278 7.20475 7.25523 7.21974 7.54773 7.21974C6.75272 8.00707 5.76271 8.08207 4.8252 7.42221Z" fill="#F68521"/>
<path d="M6.71524 5.32971C7.22523 5.32221 7.72774 5.31487 8.23773 5.30737C8.21523 5.62983 8.19277 5.94463 8.17777 6.26709C7.66028 6.2146 7.13523 6.16213 6.61774 6.10964C6.64774 5.84717 6.67774 5.58468 6.71524 5.32971Z" fill="#F68521"/>
<path d="M45.4753 4.91736C45.7228 4.83486 45.9628 4.7223 46.2103 4.6698C46.6078 4.5873 47.0203 4.54981 47.4253 4.49731C47.5228 4.76731 47.6203 5.03737 47.7178 5.30737C47.2153 5.35237 46.7053 5.38981 46.2028 5.43481C45.9628 5.26231 45.7153 5.08986 45.4753 4.91736Z" fill="#F68521"/>
<path d="M9.50525 5.46484C10.0153 5.46484 10.5252 5.46484 11.0352 5.46484C11.0577 5.67483 11.0728 5.8922 11.0953 6.10219C10.6078 6.16218 10.1202 6.21466 9.62519 6.27466C9.58768 5.99718 9.54275 5.72732 9.50525 5.46484Z" fill="#F68521"/>
<path d="M5.79279 6.28976C5.59028 6.38726 5.39531 6.52235 5.17781 6.58235C4.8553 6.66484 4.52524 6.69482 4.19523 6.74731C4.09773 6.47733 4.00021 6.2148 3.8952 5.94481C4.39022 5.89232 4.89273 5.83985 5.38774 5.78735C5.53025 5.95234 5.66528 6.11727 5.79279 6.28976Z" fill="#F68521"/>
<path d="M17.9277 5.20969C18.4153 5.13468 18.9103 5.05963 19.3978 4.98462C19.4428 5.24716 19.4803 5.51724 19.5253 5.77979C19.0153 5.77979 18.4977 5.77979 17.9877 5.77979C17.9727 5.59226 17.9502 5.40472 17.9277 5.20969Z" fill="#F68521"/>
<path d="M5.39526 5.78715C4.90026 5.83964 4.39777 5.8921 3.90277 5.94458C3.90277 5.73464 3.90277 5.51731 3.90277 5.30737C4.42027 5.30737 4.93031 5.30737 5.44781 5.30737C5.43281 5.46483 5.41776 5.6222 5.39526 5.78715Z" fill="#F68521"/>
<path d="M6.61023 6.10962C7.12773 6.16212 7.65279 6.2146 8.17029 6.26711C8.11029 6.42462 8.04279 6.58223 7.98279 6.73975C7.62279 6.68724 7.26275 6.65727 6.91025 6.58226C6.69275 6.52976 6.49027 6.40215 6.28027 6.30465C6.39277 6.23714 6.50523 6.16962 6.61023 6.10962Z" fill="#F68521"/>
<path d="M23.2678 5.46484C23.7328 5.46484 24.2053 5.46484 24.6703 5.46484C24.5578 6.43983 23.8002 6.00473 23.2903 6.10222C23.2828 5.88473 23.2753 5.67484 23.2678 5.46484Z" fill="#F68521"/>
<path d="M13.9153 5.77979C13.4128 5.77979 12.9028 5.77979 12.4003 5.77979C12.3853 5.62227 12.3703 5.46483 12.3553 5.30731C12.8653 5.30731 13.3828 5.2998 13.8929 5.2998C13.8929 5.45732 13.9078 5.62227 13.9153 5.77979Z" fill="#F68521"/>
<path d="M46.2028 5.43483C46.7053 5.38982 47.2153 5.35238 47.7178 5.30737C47.7253 5.46489 47.7403 5.62233 47.7478 5.77985C47.2528 5.77985 46.7577 5.78735 46.2627 5.78735C46.2477 5.66734 46.2253 5.54734 46.2028 5.43483Z" fill="#F68521"/>
<path d="M17.9878 5.77979C18.4978 5.77979 19.0153 5.77979 19.5253 5.77979C19.4803 5.94474 19.4428 6.10213 19.3978 6.26709C18.8953 6.2071 18.3928 6.15463 17.8903 6.09465C17.9278 5.98967 17.9578 5.88476 17.9878 5.77979Z" fill="#F68521"/>
<path d="M9.62524 6.26724C10.1128 6.20723 10.6003 6.15474 11.0953 6.09473C11.1928 6.15474 11.2978 6.20723 11.3953 6.26724C11.1328 6.37226 10.8853 6.51489 10.6153 6.5674C10.3378 6.61991 10.0378 6.58242 9.74527 6.58992C9.70777 6.48491 9.67024 6.37976 9.62524 6.26724Z" fill="#F68521"/>
<path d="M33.9852 39.0643C33.8802 38.4117 34.0228 37.8415 34.6153 37.4739C35.2228 37.0989 35.8153 37.1965 36.4078 37.564C37.1353 38.0216 37.8702 38.4565 38.6052 38.8991C38.3577 39.0116 38.1177 39.1543 37.8627 39.2293C37.4652 39.3418 37.0603 39.4092 36.6553 39.4917C36.2428 39.3567 35.8302 39.2141 35.4178 39.0791C34.9453 39.0641 34.4652 39.0643 33.9852 39.0643Z" fill="#F68521"/>
<path d="M40.5178 41.4641C40.2028 42.3791 39.2727 42.469 38.5977 42.9041C37.8552 42.7765 37.1202 42.6415 36.3777 42.514C37.0902 42.1015 37.7952 41.6816 38.5077 41.269C39.1827 41.3365 39.8503 41.4041 40.5178 41.4641Z" fill="#F68521"/>
<path d="M36.3778 42.5215C37.1203 42.649 37.8553 42.784 38.5978 42.9115C38.1253 43.1814 37.6528 43.4515 37.1803 43.7214C36.1453 43.6689 35.1102 43.6165 34.0752 43.5715C34.0452 43.3015 34.0152 43.024 33.9852 42.7465C34.4802 42.7465 34.9753 42.7465 35.4703 42.754C35.7703 42.6715 36.0778 42.5965 36.3778 42.5215Z" fill="#F68521"/>
<path d="M36.6552 39.484C37.0602 39.4015 37.4652 39.3341 37.8627 39.2215C38.1177 39.1465 38.3577 39.0039 38.6052 38.8914C39.2202 39.3189 39.8352 39.7466 40.4577 40.1667C40.0152 40.1742 39.5727 40.1367 39.1377 40.1967C38.9427 40.2267 38.7702 40.4368 38.5827 40.5718C37.9377 40.2117 37.2927 39.844 36.6552 39.484Z" fill="#F68521"/>
<path d="M38.5827 40.5788C38.7627 40.4513 38.9352 40.2339 39.1377 40.2039C39.5727 40.1439 40.0152 40.1741 40.4577 40.1741C40.4802 40.609 40.5028 41.0363 40.5253 41.4712C39.8578 41.4037 39.1902 41.3437 38.5153 41.2762C38.8153 41.0663 39.0327 40.8562 38.5827 40.5788Z" fill="#F68521"/>
<path d="M34.0753 43.564C35.1102 43.6165 36.1452 43.6689 37.1802 43.7139C36.5427 43.984 35.9203 44.359 35.2528 44.4865C34.6753 44.599 34.1953 44.2315 34.0753 43.564Z" fill="#F68521"/>
<path d="M33.9852 40.9839C33.9852 40.6089 33.9852 40.2415 33.9852 39.8665C34.4652 39.8665 34.9452 39.8665 35.4177 39.874C35.4177 40.249 35.4177 40.624 35.4177 40.9915C34.9377 40.9915 34.4652 40.9839 33.9852 40.9839Z" fill="#F68521"/>
<path d="M33.9852 40.9841C34.4652 40.9841 34.9377 40.9916 35.4177 40.9916C35.4177 41.359 35.4177 41.7339 35.4177 42.1013C34.9377 42.1013 34.4652 42.1013 33.9852 42.1013C33.9852 41.7264 33.9852 41.359 33.9852 40.9841Z" fill="#F68521"/>
<path d="M35.4177 39.8665C34.9377 39.8665 34.4577 39.8664 33.9852 39.8589C33.9852 39.589 33.9852 39.3266 33.9852 39.0566C34.4652 39.0566 34.9452 39.0566 35.4177 39.0641C35.4177 39.3341 35.4177 39.604 35.4177 39.8665Z" fill="#F68521"/>
<path d="M33.9852 42.1013C34.4652 42.1013 34.9378 42.1013 35.4178 42.1013C35.4328 42.3188 35.4553 42.5289 35.4703 42.7463C34.9753 42.7463 34.4802 42.7463 33.9852 42.7388C33.9852 42.5289 33.9852 42.3188 33.9852 42.1013Z" fill="#F68521"/>
<path d="M35.6953 19.2342C35.0653 18.4469 34.7428 19.1818 34.3378 19.5117C33.8128 19.3468 33.2804 19.1892 32.7554 19.0317C33.2054 18.5518 33.6403 18.057 34.1128 17.6071C34.8328 16.9097 35.6277 16.9398 36.3252 17.6821C36.6252 18.0046 36.8952 18.3644 37.1802 18.7018C37.0152 18.8218 36.8653 19.0017 36.6853 19.0542C36.3703 19.1517 36.0253 19.1817 35.6953 19.2342Z" fill="#F68521"/>
<path d="M41.7553 20.6069C41.5303 20.3969 41.3052 20.1795 41.0502 19.947C40.8177 20.112 40.6077 20.2694 40.3977 20.4194C39.8577 20.2694 39.3252 20.1194 38.7852 19.9694C39.2052 19.5269 39.6103 19.0693 40.0528 18.6418C40.6753 18.0493 41.5228 18.0794 42.1003 18.7169C42.5203 19.1819 42.9178 19.6769 43.3303 20.1569C42.7978 20.3069 42.2728 20.4569 41.7553 20.6069Z" fill="#F68521"/>
<path d="M38.7853 19.9692C39.3253 20.1192 39.8578 20.2693 40.3978 20.4193C40.1278 20.7643 39.8503 21.1093 39.5803 21.4618C39.0778 21.6043 38.5753 21.7393 38.0728 21.8818C37.5553 21.3193 37.0453 20.7493 36.5278 20.1868C37.1278 20.1268 37.7278 20.0743 38.3353 20.0143C38.4853 19.9993 38.6353 19.9842 38.7853 19.9692Z" fill="#F68521"/>
<path d="M41.7553 20.607C42.2803 20.457 42.8053 20.3069 43.3303 20.1494C43.7503 20.6294 44.1778 21.1096 44.5978 21.5971C44.0803 21.7396 43.5628 21.8895 43.0453 22.032C42.6103 21.5595 42.1828 21.0795 41.7553 20.607Z" fill="#F68521"/>
<path d="M32.7553 19.0244C33.2803 19.1819 33.8128 19.3471 34.3378 19.5046C34.0078 19.8421 33.6703 20.1722 33.3402 20.5098C32.7177 20.4423 32.1027 20.3747 31.4802 20.3147C31.9002 19.8872 32.3278 19.4595 32.7553 19.0244Z" fill="#F68521"/>
<path d="M31.4728 20.3147C32.0952 20.3822 32.7102 20.4497 33.3327 20.5097C32.9127 20.9072 32.4928 21.312 32.0728 21.7095C31.7878 21.627 31.5028 21.5519 31.2253 21.4544C31.0078 21.3794 30.8053 21.2595 30.5953 21.162C30.8953 20.8846 31.1878 20.5997 31.4728 20.3147Z" fill="#F68521"/>
<path d="M38.3278 20.0143C37.7278 20.0743 37.1277 20.1268 36.5202 20.1868C36.2427 19.8718 35.9652 19.5568 35.6877 19.2419C36.0177 19.1819 36.3553 19.1594 36.6703 19.0619C36.8578 19.0019 37.0002 18.8295 37.1652 18.7095C37.5627 19.1369 37.9453 19.5719 38.3278 20.0143Z" fill="#F68521"/>
<path d="M38.0728 21.8743C38.5753 21.7318 39.0777 21.5968 39.5802 21.4543C39.9551 21.9792 39.5201 22.2567 39.2427 22.5791C38.8452 22.3542 38.4628 22.1142 38.0728 21.8743Z" fill="#F68521"/>
</svg>
