<svg width="56" height="47" viewBox="0 0 56 47" fill="none" xmlns="http://www.w3.org/2000/svg">
<path d="M53.5877 3.94346C53.1077 2.58599 52.0952 2.07601 50.7152 2.07601C35.5652 2.08351 20.4151 2.091 5.27262 2.06851C3.58512 2.06851 2.10761 3.16344 2.31011 5.02339C2.34011 5.28589 2.29511 5.54842 2.28761 5.81091C1.77011 5.81091 1.25262 5.81091 0.735123 5.81091C0.720123 5.28592 0.705117 4.75336 0.682617 4.22837C0.855117 2.6234 1.71012 1.49836 3.14262 0.785881C3.33762 0.688383 3.52513 0.560915 3.71263 0.440918C19.7851 0.440918 35.8577 0.440918 51.9302 0.440918C53.7077 0.958406 54.8402 2.07598 55.2227 3.92094C54.6827 3.92094 54.1352 3.92846 53.5877 3.94346Z" fill="#F68521"/>
<path d="M13.6802 46.2725C13.6652 46.2275 13.6502 46.1898 13.6427 46.1448C15.0677 46.1373 16.4852 46.1224 17.9102 46.1224C29.2577 46.1224 40.6052 46.13 51.9527 46.1375C51.9452 46.1825 51.9377 46.235 51.9302 46.28C39.1802 46.2725 26.4302 46.2725 13.6802 46.2725Z" fill="#F68521"/>
<path d="M55.2302 3.90589C54.8477 2.06845 53.7076 0.950886 51.9376 0.425903C53.0851 0.425903 54.2327 0.425903 55.4177 0.425903C55.4177 1.64086 55.4177 2.8484 55.4177 4.06335C55.3802 4.04836 55.3352 4.04835 55.2977 4.05585C55.2677 4.01085 55.2452 3.95839 55.2302 3.90589Z" fill="#F68521"/>
<path d="M4.03519 46.2725C2.87269 46.2725 1.71768 46.2725 0.555176 46.2725C0.555176 45.005 0.555176 43.7449 0.555176 42.4774C0.600176 42.4849 0.652678 42.4849 0.697678 42.4849C0.900178 43.0699 1.11018 43.6475 1.31268 44.2325C1.89768 45.3125 2.80519 45.935 4.01269 46.13C4.02019 46.1825 4.02769 46.2275 4.03519 46.2725Z" fill="#F68521"/>
<path d="M3.72021 0.43335C3.53272 0.54585 3.34523 0.68082 3.15023 0.77832C1.71774 1.49082 0.862752 2.61589 0.690253 4.22089C0.645254 4.21339 0.600244 4.22089 0.562744 4.22839C0.562744 2.96089 0.562744 1.70085 0.562744 0.43335C1.61274 0.43335 2.66272 0.43335 3.72021 0.43335Z" fill="#F68521"/>
<path d="M51.9302 46.2725C51.9377 46.2275 51.9452 46.1751 51.9527 46.1301C53.3927 45.8901 54.3826 45.0949 54.9377 43.7449C55.0502 43.3774 55.1627 43.01 55.2752 42.65C55.3202 42.65 55.3652 42.65 55.4102 42.6425C55.4102 43.8575 55.4102 45.065 55.4102 46.28C54.2477 46.2725 53.0927 46.2725 51.9302 46.2725Z" fill="#F68521"/>
<path d="M0.697684 42.485C0.652682 42.485 0.600178 42.485 0.555176 42.4775C0.555176 35.2026 0.555176 27.9352 0.555176 20.6604C0.600178 20.6604 0.645197 20.6604 0.690199 20.6604C0.7052 20.8179 0.720198 20.9755 0.735199 21.133C0.735199 22.6105 0.735199 24.0878 0.735199 25.5578C0.735199 26.7728 0.735199 27.9803 0.735199 29.1953C0.735199 30.3578 0.735199 31.5127 0.735199 32.6751C0.735199 33.8901 0.735199 35.0977 0.735199 36.3126C0.735199 37.5801 0.735199 38.8401 0.735199 40.1076C0.720198 40.9026 0.712684 41.6975 0.697684 42.485Z" fill="#F68521"/>
<path d="M55.4102 42.6424C55.3652 42.6499 55.3202 42.6499 55.2752 42.6499C55.2602 41.5399 55.2452 40.43 55.2302 39.32C55.2302 37.7376 55.2302 36.1551 55.2302 34.5801C55.2302 33.2076 55.2302 31.8427 55.2302 30.4702C55.2302 29.2027 55.2302 27.9427 55.2302 26.6753C55.2302 25.5653 55.2302 24.4629 55.2302 23.3529C55.2452 23.2479 55.2602 23.143 55.2752 23.038C55.3202 23.038 55.3652 23.038 55.4102 23.038C55.4102 29.5703 55.4102 36.1026 55.4102 42.6424Z" fill="#F68521"/>
<path d="M55.4102 23.038C55.3652 23.038 55.3202 23.038 55.2752 23.038C55.2602 21.8755 55.2452 20.7204 55.2302 19.5579C55.2302 18.2905 55.2302 17.0306 55.2302 15.7632C55.2302 13.4982 55.2302 11.2332 55.2302 8.9683C55.2527 7.33334 55.2677 5.69835 55.2902 4.0634C55.3352 4.0559 55.3727 4.0559 55.4102 4.0709C55.4102 10.3932 55.4102 16.7156 55.4102 23.038Z" fill="#F68521"/>
<path d="M0.690193 20.668C0.645193 20.668 0.600176 20.668 0.555176 20.668C0.555176 15.1855 0.555176 9.71068 0.555176 4.22826C0.600176 4.22076 0.645186 4.21326 0.682686 4.22076C0.697686 4.74575 0.712691 5.27832 0.735191 5.80331C0.735191 9.38826 0.742676 12.9731 0.742676 16.558C0.727676 17.923 0.705193 19.2955 0.690193 20.668Z" fill="#F68521"/>
<path d="M4.03519 46.2725C4.02769 46.2275 4.0202 46.175 4.0127 46.13C6.5102 46.1375 9.00018 46.1373 11.4977 46.1448C11.4902 46.1898 11.4827 46.235 11.4602 46.2725C8.98519 46.2725 6.51019 46.2725 4.03519 46.2725Z" fill="#F68521"/>
<path d="M0.742714 16.5505C0.742714 12.9656 0.735229 9.3808 0.735229 5.7959C1.25273 5.7959 1.77021 5.7959 2.28771 5.7959C2.28771 6.92087 2.28771 8.05328 2.28771 9.29825C2.68521 9.29825 2.99271 9.29825 3.29271 9.29825C15.6977 9.29825 28.1027 9.29825 40.5002 9.29825C41.1377 9.29825 41.8427 9.2008 41.9552 10.1008C42.0302 10.7158 41.5427 11.0007 40.5002 11.0007C28.1252 11.0007 15.7427 11.0007 3.36771 11.0007C3.05271 11.0007 2.74523 11.0007 2.28023 11.0007C2.28023 12.8907 2.28023 14.7205 2.28023 16.5505C1.77023 16.558 1.25271 16.5505 0.742714 16.5505Z" fill="#F68521"/>
<path d="M54.9377 43.7449C54.3902 45.0949 53.3928 45.89 51.9528 46.1299C40.6052 46.1224 29.2577 46.1224 17.9102 46.1149C16.4852 46.1149 15.0677 46.13 13.6427 46.1375C13.4552 45.86 13.0877 45.5524 13.1252 45.3124C13.1702 45.0424 13.5452 44.765 13.8452 44.6225C14.1077 44.5025 14.4602 44.5474 14.7752 44.5474C26.7377 44.5474 38.6928 44.5324 50.6553 44.5624C51.7653 44.5624 52.6653 44.3074 53.3403 43.4075C53.5128 43.52 53.6703 43.6999 53.8503 43.7299C54.2103 43.7824 54.5777 43.7449 54.9377 43.7449Z" fill="#F68521"/>
<path d="M21.4502 30.62C21.4427 30.3276 21.4127 30.0427 21.4352 29.7502C21.4652 29.2253 21.7652 28.9329 22.2827 28.8879C22.5152 28.8654 22.7552 28.8804 22.9952 28.8804C31.9952 28.8804 40.9952 28.8804 49.9952 28.8804C51.6377 28.8804 51.6377 28.8804 51.6152 30.5376C51.6152 30.6651 51.6002 30.8001 51.5927 30.9276C51.0977 30.9276 50.5952 30.9276 50.1002 30.9276C49.8302 30.8001 49.5677 30.5677 49.2977 30.5677C40.8077 30.5452 32.3177 30.5527 23.8277 30.5527C23.5727 30.5527 23.3102 30.605 23.0552 30.635C22.5152 30.635 21.9827 30.6275 21.4502 30.62Z" fill="#F68521"/>
<path d="M51.7202 40.7375C51.7352 40.97 51.7652 41.2101 51.7652 41.4426C51.7652 42.425 51.5402 42.6649 50.5727 42.6649C45.6452 42.6649 40.7252 42.6649 35.7977 42.6649C31.5077 42.6649 27.2102 42.6649 22.9202 42.6649C21.5027 42.6649 21.4127 42.5749 21.4277 41.135C21.4277 41 21.4427 40.8725 21.4502 40.7451C21.9752 40.7451 22.5002 40.7451 23.0252 40.7451C23.2727 40.85 23.5127 41.0376 23.7602 41.0451C24.6827 41.0826 25.5977 41.0602 26.5202 41.0602C34.0652 41.0602 41.6102 41.0676 49.1552 41.0451C49.4702 41.0451 49.7777 40.8425 50.0927 40.7375C50.6327 40.7375 51.1727 40.7375 51.7202 40.7375Z" fill="#F68521"/>
<path d="M21.4501 14.4955C21.3526 12.4331 21.3601 12.4181 23.4076 12.4181C32.2951 12.4181 41.1751 12.4181 50.0626 12.4181C51.4351 12.4181 51.4352 12.4181 51.6302 13.738C51.6452 13.8355 51.7052 13.9256 51.7427 14.0231C51.6977 14.1281 51.6527 14.233 51.6077 14.3305C51.1052 14.3755 50.6027 14.428 50.1002 14.473C50.0702 13.873 49.6127 14.0456 49.2902 14.0456C44.5877 14.0381 39.8776 14.0381 35.1751 14.0381C31.3876 14.0381 27.6076 14.0381 23.8201 14.0381C23.4826 14.0381 23.0326 13.888 23.0401 14.4955C22.5001 14.503 21.9751 14.503 21.4501 14.4955Z" fill="#F68521"/>
<path d="M51.7202 24.4553C51.7277 24.7703 51.7877 25.0928 51.7352 25.4003C51.6527 25.8803 51.3902 26.2253 50.8352 26.2103C50.5952 26.2028 50.3627 26.2103 50.1227 26.2103C41.1752 26.2103 32.2202 26.2103 23.2727 26.2103C21.4277 26.2103 21.3527 26.1353 21.4502 24.2979C21.9902 24.2979 22.5377 24.2979 23.0852 24.2979C23.3777 24.4028 23.6777 24.5903 23.9702 24.5903C32.4002 24.6053 40.8227 24.6053 49.2527 24.5978C49.5302 24.5978 49.8077 24.5078 50.0852 24.4628C50.6252 24.4553 51.1727 24.4553 51.7202 24.4553Z" fill="#F68521"/>
<path d="M55.2302 8.96826C55.2302 11.2332 55.2302 13.4982 55.2302 15.7632C54.7127 15.7632 54.2027 15.7632 53.6852 15.7632C53.6852 14.2182 53.6852 12.6657 53.6852 11.0457C53.3102 11.0307 53.0327 11.0082 52.7552 11.0082C49.9877 11.0082 47.2277 11.0082 44.4602 11.0082C44.2202 11.0082 43.9802 11.0307 43.7552 10.9857C43.2902 10.8957 43.0052 10.6182 43.0352 10.1007C43.0652 9.59076 43.3652 9.33573 43.8527 9.32073C44.4302 9.29823 45.0077 9.31323 45.5927 9.31323C48.0452 9.31323 50.4902 9.32071 52.9427 9.29821C53.1902 9.29821 53.4452 9.08827 53.6927 8.97577C54.1952 8.96827 54.7127 8.96826 55.2302 8.96826Z" fill="#F68521"/>
<path d="M19.3577 39.4775C19.3652 40.2425 19.3652 41 19.3802 41.765C19.3952 42.3425 19.1477 42.6649 18.5477 42.6649C14.0702 42.6649 9.60017 42.6649 5.12266 42.6649C4.47766 42.6649 4.25267 42.2299 4.21517 41.6899C4.18517 41.2174 4.23018 40.745 4.24518 40.2726C4.79268 40.2726 5.34017 40.2726 5.88017 40.2726C5.91767 40.52 5.95517 40.7675 5.99267 41.015C9.93017 41.015 13.8077 41.015 17.7977 41.015C17.7977 40.4675 17.7977 39.98 17.7977 39.485C18.3152 39.4775 18.8402 39.4775 19.3577 39.4775Z" fill="#F68521"/>
<path d="M4.35022 12.9281C4.64272 12.7631 4.92772 12.448 5.22022 12.448C9.63772 12.418 14.0477 12.4255 18.4652 12.4255C19.0727 12.4255 19.4102 12.6881 19.3877 13.3256C19.3802 13.7156 19.3652 14.1129 19.3577 14.5029C18.8402 14.5029 18.3152 14.5029 17.7977 14.5029C17.8052 13.9554 17.4152 14.053 17.0852 14.053C13.5977 14.053 10.1027 14.053 6.61523 14.053C6.36023 14.053 6.09774 14.053 5.82024 14.053C5.79024 14.3605 5.76773 14.5855 5.74523 14.818C5.28023 14.818 4.82273 14.818 4.35773 14.8105C4.35773 14.1805 4.35772 13.5581 4.35022 12.9281Z" fill="#F68521"/>
<path d="M11.4977 46.1449C9.00016 46.1374 6.51018 46.1376 4.01268 46.1301C2.80518 45.9351 1.89768 45.3125 1.31268 44.2325C1.92768 44.1725 2.53519 44.105 3.15019 44.045C3.87769 44.21 4.59768 44.5025 5.32518 44.525C7.21518 44.5925 9.11266 44.5175 11.0102 44.5775C11.3627 44.5925 11.7827 44.945 12.0002 45.2675C12.0827 45.3875 11.6777 45.8449 11.4977 46.1449Z" fill="#F68521"/>
<path d="M55.2301 8.96826C54.7126 8.96826 54.1951 8.96826 53.6776 8.96826C53.6476 7.29578 53.6176 5.61584 53.5876 3.94336C54.1351 3.93586 54.6826 3.92083 55.2301 3.91333C55.2526 3.96583 55.2676 4.01079 55.2901 4.06329C55.2676 5.69827 55.2451 7.33328 55.2301 8.96826Z" fill="#F68521"/>
<path d="M55.2303 34.5725C55.2303 36.155 55.2303 37.7376 55.2303 39.3126C54.7128 39.3126 54.1952 39.3126 53.6777 39.3126C53.6777 37.7301 53.6777 36.1475 53.6777 34.5725C54.1952 34.5725 54.7128 34.5725 55.2303 34.5725Z" fill="#F68521"/>
<path d="M0.74269 16.5505C1.26018 16.5505 1.77017 16.5505 2.28766 16.5505C2.28766 18.0805 2.28766 19.603 2.28766 21.1329C1.77017 21.1329 1.25268 21.1329 0.74269 21.1329C0.72769 20.9754 0.712693 20.8179 0.697693 20.6604C0.705193 19.2954 0.72769 17.923 0.74269 16.5505Z" fill="#F68521"/>
<path d="M53.6777 39.3201C54.1952 39.3201 54.7127 39.3201 55.2301 39.3201C55.2451 40.43 55.2601 41.5399 55.2751 42.6499C55.1626 43.0174 55.0501 43.3849 54.9376 43.7448C54.5776 43.7448 54.2102 43.7823 53.8577 43.7298C53.6777 43.6998 53.5202 43.5199 53.3477 43.4074C53.4527 42.0424 53.5652 40.685 53.6777 39.3201Z" fill="#F68521"/>
<path d="M4.25269 33.1478C4.25269 31.7828 4.25269 30.4104 4.25269 29.0454C4.79269 29.0454 5.33268 29.0454 5.87268 29.0454C5.87268 30.4179 5.87268 31.7828 5.87268 33.1553C5.33268 33.1478 4.79269 33.1478 4.25269 33.1478Z" fill="#F68521"/>
<path d="M0.735229 21.1405C1.25273 21.1405 1.77024 21.1405 2.28024 21.1405C2.28024 22.618 2.28024 24.0953 2.28024 25.5653C1.76274 25.5653 1.24523 25.5653 0.735229 25.5653C0.735229 24.0878 0.735229 22.6105 0.735229 21.1405Z" fill="#F68521"/>
<path d="M4.25272 33.1477C4.79272 33.1477 5.33269 33.1477 5.87268 33.1477C5.87268 34.4677 5.87269 35.7802 5.88019 37.1002C5.3402 37.1002 4.79272 37.1002 4.25272 37.1002C4.24522 35.7802 4.25272 34.4677 4.25272 33.1477Z" fill="#F68521"/>
<path d="M3.15018 44.045C2.53518 44.105 1.92768 44.1725 1.31269 44.2325C1.11019 43.6476 0.90019 43.07 0.697693 42.485C0.712693 41.6901 0.727706 40.8951 0.735206 40.1077C1.2527 40.1077 1.77019 40.1077 2.28018 40.1077C2.28768 40.7376 2.30268 41.3677 2.30268 42.0051C2.29518 42.8076 2.61018 43.4751 3.15018 44.045Z" fill="#F68521"/>
<path d="M19.3576 39.4775C18.8326 39.4775 18.3152 39.4775 17.7902 39.4775C17.7902 38.0526 17.7902 36.6352 17.7902 35.2102C18.3077 35.2102 18.8326 35.2102 19.3501 35.2102C19.3576 36.6277 19.3576 38.0526 19.3576 39.4775Z" fill="#F68521"/>
<path d="M55.2303 34.5725C54.7128 34.5725 54.1952 34.5725 53.6777 34.5725C53.6777 33.2001 53.6777 31.8351 53.6777 30.4626C54.1952 30.4626 54.7127 30.4626 55.2227 30.4626C55.2302 31.8351 55.2303 33.2076 55.2303 34.5725Z" fill="#F68521"/>
<path d="M19.3577 20.5105C19.3577 21.8304 19.3577 23.1429 19.3577 24.4628C18.8402 24.4628 18.3152 24.4628 17.7977 24.4628C17.7977 23.1429 17.7977 21.8304 17.7977 20.5105C18.3152 20.5105 18.8402 20.5105 19.3577 20.5105Z" fill="#F68521"/>
<path d="M17.7977 24.4628C18.3152 24.4628 18.8402 24.4628 19.3577 24.4628C19.3577 25.7303 19.3577 26.9903 19.3577 28.2578C18.8402 28.2578 18.3152 28.2578 17.7977 28.2578C17.7977 26.9903 17.7977 25.7228 17.7977 24.4628Z" fill="#F68521"/>
<path d="M2.28766 40.1077C1.77016 40.1077 1.25267 40.1077 0.742676 40.1077C0.742676 38.8402 0.742676 37.5801 0.742676 36.3126C1.26017 36.3126 1.77767 36.3126 2.29517 36.3126C2.28767 37.5801 2.28766 38.8477 2.28766 40.1077Z" fill="#F68521"/>
<path d="M55.2227 19.558C55.2377 20.7204 55.2527 21.8755 55.2677 23.038C55.2527 23.143 55.2377 23.2479 55.2227 23.3529C54.7052 23.3529 54.1952 23.3529 53.6777 23.3529C53.6777 22.0854 53.6777 20.8254 53.6777 19.558C54.1952 19.558 54.7127 19.558 55.2227 19.558Z" fill="#F68521"/>
<path d="M55.2227 19.558C54.7052 19.558 54.1952 19.558 53.6777 19.558C53.6777 18.2905 53.6777 17.0307 53.6777 15.7632C54.1952 15.7632 54.7052 15.7632 55.2227 15.7632C55.2227 17.0307 55.2227 18.2905 55.2227 19.558Z" fill="#F68521"/>
<path d="M55.2302 30.4626C54.7127 30.4626 54.1952 30.4626 53.6852 30.4626C53.6852 29.1952 53.6852 27.9353 53.6852 26.6678C54.2027 26.6678 54.7127 26.6678 55.2302 26.6678C55.2302 27.9353 55.2302 29.2027 55.2302 30.4626Z" fill="#F68521"/>
<path d="M19.3577 35.2102C18.8402 35.2102 18.3152 35.2102 17.7977 35.2102C17.7977 33.9952 17.7977 32.7877 17.7977 31.5728C18.3152 31.5728 18.8402 31.5728 19.3577 31.5728C19.3577 32.7877 19.3577 33.9952 19.3577 35.2102Z" fill="#F68521"/>
<path d="M2.28769 36.3126C1.7702 36.3126 1.25272 36.3126 0.735229 36.3126C0.735229 35.0977 0.735229 33.8901 0.735229 32.6752C1.25272 32.6752 1.7702 32.6752 2.28769 32.6752C2.28769 33.8901 2.28769 35.1052 2.28769 36.3126Z" fill="#F68521"/>
<path d="M0.735169 25.5653C1.25267 25.5653 1.77018 25.5653 2.28018 25.5653C2.28018 26.7803 2.28018 27.9878 2.28018 29.2028C1.76268 29.2028 1.24517 29.2028 0.727661 29.2028C0.735161 27.9878 0.735169 26.7803 0.735169 25.5653Z" fill="#F68521"/>
<path d="M5.87268 29.0454C5.33268 29.0454 4.79269 29.0454 4.25269 29.0454C4.25269 28.5654 4.25268 28.0928 4.24518 27.6128C4.24518 27.5153 4.24518 27.4179 4.24518 27.3204C4.24518 26.7879 4.25269 26.2553 4.25269 25.7228C4.79269 25.7228 5.33268 25.7228 5.87268 25.7228C5.87268 26.8253 5.87268 27.9354 5.87268 29.0454Z" fill="#F68521"/>
<path d="M0.735229 29.2028C1.25272 29.2028 1.7702 29.2028 2.28769 29.2028C2.28769 30.3653 2.28769 31.5202 2.28769 32.6827C1.7702 32.6827 1.25272 32.6827 0.735229 32.6827C0.735229 31.5202 0.735229 30.3578 0.735229 29.2028Z" fill="#F68521"/>
<path d="M4.24518 37.1002C4.78518 37.1002 5.33268 37.1002 5.87268 37.1002C5.87268 38.1577 5.87268 39.2077 5.87268 40.2651C5.32518 40.2651 4.77768 40.2651 4.23767 40.2651C4.24517 39.2077 4.24518 38.1577 4.24518 37.1002Z" fill="#F68521"/>
<path d="M19.3577 20.5105C18.8402 20.5105 18.3152 20.5105 17.7977 20.5105C17.7977 19.348 17.7977 18.1931 17.7977 17.0306C18.3227 17.0306 18.8402 17.0306 19.3652 17.0306C19.3577 18.1856 19.3577 19.348 19.3577 20.5105Z" fill="#F68521"/>
<path d="M4.35015 12.9282C4.35015 13.5582 4.35765 14.1807 4.35765 14.8107C4.35765 15.5982 4.36516 16.3781 4.34266 17.1655C4.32766 17.7655 4.74766 17.653 5.10016 17.668C5.46017 17.683 5.7827 17.683 5.7752 17.1655C5.7677 16.7081 5.85019 16.243 5.8877 15.7855C5.8802 17.2555 5.8727 18.7255 5.8652 20.203C5.32518 20.203 4.79268 20.203 4.25266 20.203C4.23766 17.9306 4.22265 15.6505 4.21515 13.3781C4.21515 13.2206 4.30515 13.0707 4.35015 12.9282Z" fill="#F68521"/>
<path d="M19.3577 31.5728C18.8402 31.5728 18.3152 31.5728 17.7977 31.5728C17.7977 30.4627 17.7977 29.3603 17.7977 28.2502C18.3152 28.2502 18.8402 28.2502 19.3577 28.2502C19.3577 29.3603 19.3577 30.4627 19.3577 31.5728Z" fill="#F68521"/>
<path d="M55.2302 26.6678C54.7127 26.6678 54.2027 26.6678 53.6852 26.6678C53.6852 25.5578 53.6852 24.4554 53.6852 23.3453C54.2027 23.3453 54.7127 23.3453 55.2302 23.3453C55.2302 24.4554 55.2302 25.5653 55.2302 26.6678Z" fill="#F68521"/>
<path d="M5.87268 25.7228C5.33268 25.7228 4.79269 25.7228 4.25269 25.7228C4.25269 24.7778 4.25269 23.8255 4.25269 22.8805C4.79269 22.8805 5.32519 22.8805 5.8652 22.8805C5.8727 23.8255 5.87268 24.7703 5.87268 25.7228Z" fill="#F68521"/>
<path d="M5.8652 22.8805C5.3252 22.8805 4.79269 22.8805 4.25269 22.8805C4.25269 21.988 4.25269 21.0879 4.25269 20.1954C4.79269 20.1954 5.3252 20.1954 5.8652 20.1954C5.8652 21.0879 5.8652 21.9805 5.8652 22.8805Z" fill="#F68521"/>
<path d="M22.6577 6.74839C22.4477 7.06336 22.2377 7.37833 22.0352 7.6933C20.6702 7.7008 19.3052 7.70063 17.9402 7.70813C17.7302 7.34067 17.5127 6.97323 17.3027 6.60577C17.8952 6.60577 18.4877 6.59826 19.0802 6.59826C19.7027 7.02572 20.3252 7.04836 20.9252 6.56091C21.5027 6.62091 22.0802 6.6884 22.6577 6.74839Z" fill="#F68521"/>
<path d="M17.7751 3.89094C19.0802 2.37588 21.0902 2.45087 22.3202 4.06344C21.0752 4.06344 19.8226 4.07093 18.5776 4.05593C18.3076 4.05593 18.0451 3.95095 17.7751 3.89094Z" fill="#F68521"/>
<path d="M4.92017 3.97327C6.00017 2.44334 7.94268 2.41346 9.35269 3.91339C7.87518 3.92839 6.39767 3.95077 4.92017 3.97327Z" fill="#F68521"/>
<path d="M11.4152 3.83073C12.6152 2.45826 14.7901 2.4808 15.6001 3.87578C15.4876 3.93578 15.3826 4.05577 15.2701 4.05577C14.1151 4.07077 12.9602 4.07077 11.7977 4.05577C11.6702 4.04827 11.5427 3.90573 11.4152 3.83073Z" fill="#F68521"/>
<path d="M19.3576 17.0306C18.8326 17.0306 18.3152 17.0306 17.7902 17.0306C17.7902 16.1906 17.7902 15.3431 17.7902 14.5031C18.3077 14.5031 18.8326 14.5031 19.3501 14.5031C19.3576 15.3431 19.3576 16.1906 19.3576 17.0306Z" fill="#F68521"/>
<path d="M50.0927 30.9354C50.5877 30.9354 51.0902 30.9354 51.5852 30.9354C51.6302 31.6779 51.6827 32.4128 51.7277 33.1552C51.1727 33.2077 50.6177 33.2527 50.0552 33.3052C50.0702 32.5177 50.0852 31.7304 50.0927 30.9354Z" fill="#F68521"/>
<path d="M51.7202 40.7375C51.1802 40.7375 50.6327 40.7375 50.0927 40.7375C50.0927 40.0551 50.0927 39.3651 50.1002 38.6826C50.6402 38.6826 51.1802 38.6826 51.7202 38.6826C51.7127 39.3651 51.7127 40.0476 51.7202 40.7375Z" fill="#F68521"/>
<path d="M23.0777 24.2979C22.5302 24.2979 21.9902 24.2979 21.4502 24.2979C21.4502 23.6154 21.4502 22.9254 21.4502 22.2429C21.9752 22.2429 22.5002 22.2429 23.0177 22.2429C23.0402 22.9329 23.0627 23.6154 23.0777 24.2979Z" fill="#F68521"/>
<path d="M21.4502 14.4956C21.9752 14.4956 22.5002 14.5031 23.0252 14.5031C23.0252 15.2381 23.0252 15.9805 23.0252 16.7155C22.5002 16.7155 21.9752 16.7079 21.4502 16.7079C21.4502 15.973 21.4502 15.2381 21.4502 14.4956Z" fill="#F68521"/>
<path d="M51.6077 14.3381C51.6527 14.2331 51.6977 14.1281 51.7427 14.0306C51.7352 15.8756 51.7202 17.713 51.7127 19.558C51.1727 19.558 50.6327 19.558 50.0927 19.558C50.0927 19.033 50.0927 18.5006 50.0927 17.9756C51.6227 17.9906 51.6227 17.9906 51.6002 16.4681C51.6002 16.4456 51.6002 16.4155 51.6002 16.393C51.6077 15.703 51.6077 15.0206 51.6077 14.3381Z" fill="#F68521"/>
<path d="M50.0626 33.3127C50.6176 33.2602 51.1727 33.2152 51.7352 33.1627C51.7277 33.8452 51.7201 34.5277 51.7126 35.2027C51.1651 35.2027 50.6101 35.2027 50.0626 35.2102C50.0626 34.5727 50.0626 33.9427 50.0626 33.3127Z" fill="#F68521"/>
<path d="M51.7127 21.133C51.7127 21.7105 51.7127 22.288 51.7127 22.8655C51.1727 22.8655 50.6327 22.8655 50.0852 22.8655C50.0852 22.288 50.0852 21.703 50.0852 21.1255C50.6327 21.1405 51.1727 21.1405 51.7127 21.133Z" fill="#F68521"/>
<path d="M50.0626 35.2101C50.6101 35.2101 51.1651 35.2101 51.7126 35.2026C51.7126 35.7801 51.7126 36.3651 51.7126 36.9426C51.1726 36.9426 50.6327 36.9426 50.1002 36.9426C50.0852 36.3651 50.0701 35.7876 50.0626 35.2101Z" fill="#F68521"/>
<path d="M17.9402 7.70819C19.3052 7.70069 20.6702 7.70086 22.0352 7.69336C20.8952 8.86314 19.1702 8.87047 17.9402 7.70819Z" fill="#F68521"/>
<path d="M50.0927 36.9426C50.6327 36.9426 51.1727 36.9426 51.7052 36.9426C51.7052 37.5202 51.7052 38.1051 51.7052 38.6826C51.1652 38.6826 50.6252 38.6826 50.0852 38.6826C50.0927 38.1051 50.0927 37.5277 50.0927 36.9426Z" fill="#F68521"/>
<path d="M23.0252 22.2429C22.5002 22.2429 21.9751 22.2429 21.4576 22.2429C21.4576 21.6129 21.4576 20.9829 21.4576 20.3455C21.9826 20.3455 22.5077 20.3455 23.0327 20.353C23.0252 20.9829 23.0252 21.6129 23.0252 22.2429Z" fill="#F68521"/>
<path d="M21.4502 16.708C21.9752 16.708 22.5002 16.7155 23.0252 16.7155C23.0252 17.3455 23.0252 17.983 23.0252 18.6129C22.5002 18.6129 21.9752 18.6054 21.4502 18.6054C21.4502 17.9754 21.4502 17.3455 21.4502 16.708Z" fill="#F68521"/>
<path d="M23.0252 40.7375C22.5002 40.7375 21.9752 40.7375 21.4502 40.7375C21.4502 40.1075 21.4502 39.4775 21.4502 38.8475C21.9752 38.8475 22.5002 38.8475 23.0252 38.8475C23.0252 39.4775 23.0252 40.1075 23.0252 40.7375Z" fill="#F68521"/>
<path d="M15.5852 7.70813C14.4077 8.86316 12.6902 8.86317 11.5802 7.72314C12.9152 7.71564 14.2502 7.71563 15.5852 7.70813Z" fill="#F68521"/>
<path d="M11.4152 3.83081C11.5427 3.90581 11.6702 4.04835 11.7977 4.05585C12.9527 4.07085 14.1076 4.07085 15.2701 4.05585C15.3826 4.05585 15.4876 3.93585 15.6001 3.87585C15.7576 4.04085 15.9077 4.20579 16.0652 4.37079C15.4802 4.48329 14.8951 4.59575 14.3101 4.70825C13.7101 4.40825 13.1477 4.45343 12.6227 4.88843C12.0752 4.76843 11.5277 4.65577 10.9802 4.53577C11.1227 4.29577 11.2727 4.06331 11.4152 3.83081Z" fill="#F68521"/>
<path d="M17.7752 3.89087C18.0452 3.95086 18.3077 4.05583 18.5777 4.05583C19.8227 4.07083 21.0752 4.06334 22.3202 4.06334C22.4027 4.20582 22.4777 4.34836 22.5602 4.49835C22.2977 4.56584 22.0277 4.61817 21.7652 4.70816C21.5177 4.79065 21.2777 4.91076 21.0302 5.01575C20.5127 4.43081 19.8977 4.3932 19.2227 4.71567C18.6152 4.65568 18.0002 4.59569 17.3927 4.5357C17.5202 4.31822 17.6477 4.10835 17.7752 3.89087Z" fill="#F68521"/>
<path d="M50.0927 22.873C50.6326 22.873 51.1726 22.873 51.7126 22.873C51.7126 23.398 51.7126 23.9303 51.7201 24.4553C51.1726 24.4553 50.6251 24.4553 50.0776 24.4628C50.0851 23.9303 50.0852 23.4055 50.0927 22.873Z" fill="#F68521"/>
<path d="M21.4502 37.1002C21.4502 36.5227 21.4502 35.9451 21.4502 35.3601C21.9752 35.3601 22.5002 35.3601 23.0252 35.3676C23.0252 35.9451 23.0252 36.5302 23.0252 37.1077C22.5002 37.1077 21.9752 37.1077 21.4502 37.1002Z" fill="#F68521"/>
<path d="M21.4502 37.1002C21.9752 37.1002 22.5002 37.1077 23.0252 37.1077C23.0252 37.6852 23.0252 38.2625 23.0252 38.84C22.5002 38.84 21.9752 38.84 21.4502 38.84C21.4502 38.2625 21.4502 37.6852 21.4502 37.1002Z" fill="#F68521"/>
<path d="M21.4502 18.6055C21.9752 18.6055 22.5002 18.613 23.0252 18.613C23.0252 19.1904 23.0252 19.7679 23.0252 20.3529C22.5002 20.3529 21.9752 20.3529 21.4502 20.3454C21.4502 19.7679 21.4502 19.1904 21.4502 18.6055Z" fill="#F68521"/>
<path d="M51.7126 21.1329C51.1727 21.1329 50.6327 21.1329 50.0927 21.1329C50.0927 20.608 50.0927 20.0754 50.0927 19.5504C50.6327 19.5504 51.1727 19.5504 51.7126 19.5504C51.7126 20.0829 51.7126 20.608 51.7126 21.1329Z" fill="#F68521"/>
<path d="M21.4502 30.6202C21.9827 30.6277 22.5152 30.6353 23.0477 30.6428C23.0402 31.1602 23.0327 31.6853 23.0252 32.2028C22.5002 32.2028 21.9752 32.2028 21.4502 32.1953C21.4502 31.6778 21.4502 31.1527 21.4502 30.6202Z" fill="#F68521"/>
<path d="M23.0252 35.3677C22.5002 35.3677 21.9752 35.3602 21.4502 35.3602C21.4502 34.8352 21.4502 34.3101 21.4502 33.7776C21.9752 33.7776 22.5002 33.7776 23.0252 33.7851C23.0252 34.3176 23.0252 34.8427 23.0252 35.3677Z" fill="#F68521"/>
<path d="M23.0252 33.7926C22.5002 33.7926 21.9752 33.7926 21.4502 33.7851C21.4502 33.2601 21.4502 32.7277 21.4502 32.2028C21.9752 32.2028 22.5002 32.2028 23.0252 32.2103C23.0252 32.7352 23.0252 33.2601 23.0252 33.7926Z" fill="#F68521"/>
<path d="M8.96268 7.87329C7.89767 8.79566 6.34515 8.78816 5.27264 7.87329C6.50265 7.87329 7.73267 7.87329 8.96268 7.87329Z" fill="#F68521"/>
<path d="M4.83024 7.3858C4.71775 7.17579 4.61274 6.96589 4.50024 6.75588C4.78524 6.75588 5.07773 6.80087 5.35523 6.74086C5.61773 6.68836 5.85773 6.53072 6.10523 6.41821C6.67522 7.07825 7.32023 7.00325 7.99523 6.60572C8.14523 6.71073 8.29523 6.88334 8.46023 6.89835C8.88022 6.94335 9.30022 6.91336 9.72021 6.91336C9.62272 7.07087 9.52523 7.2358 9.42773 7.39331C7.89023 7.39331 6.36024 7.3858 4.83024 7.3858Z" fill="#F68521"/>
<path d="M4.8302 7.38574C6.36019 7.38574 7.89018 7.39325 9.42767 7.39325C9.27767 7.55073 9.12016 7.71581 8.97016 7.87329C7.74017 7.87329 6.51019 7.87329 5.2802 7.87329C5.1227 7.70831 4.9802 7.55072 4.8302 7.38574Z" fill="#F68521"/>
<path d="M15.5852 7.70813C14.2502 7.71563 12.9152 7.71564 11.5802 7.72314C11.4377 7.55814 11.2952 7.39321 11.1527 7.22821C11.7977 7.13071 12.5252 7.49075 13.0877 6.89075C13.3877 6.89075 13.6877 6.89075 13.9877 6.89825C14.2277 7.01075 14.4527 7.1757 14.7002 7.2132C15.1052 7.2732 15.5252 7.24323 15.9377 7.24323C15.8252 7.40073 15.7052 7.55813 15.5852 7.70813Z" fill="#F68521"/>
<path d="M4.92018 3.97321C6.39768 3.95071 7.8752 3.92833 9.35271 3.91333C9.43521 4.07083 9.51021 4.22823 9.59271 4.37823C9.28521 4.37823 8.97021 4.33326 8.67771 4.40076C8.4302 4.45326 8.2052 4.63324 7.9727 4.76074C7.5152 4.69324 7.06519 4.62573 6.60769 4.56573C5.94768 4.50573 5.28768 4.43823 4.62018 4.37823C4.71768 4.24323 4.82267 4.10821 4.92018 3.97321Z" fill="#F68521"/>
<path d="M6.09769 6.42576C5.85019 6.53826 5.61019 6.69589 5.34769 6.74839C5.0777 6.80089 4.77769 6.7634 4.49269 6.7634C4.41769 6.38841 4.33519 6.01342 4.26019 5.63843C4.80019 5.64593 5.34769 5.64576 5.88769 5.65326C5.96269 5.90075 6.03019 6.16327 6.09769 6.42576Z" fill="#F68521"/>
<path d="M21.0377 5.00832C21.2852 4.90332 21.5177 4.78338 21.7727 4.70088C22.0277 4.61087 22.2977 4.55835 22.5677 4.49084C22.6577 4.92587 22.7477 5.36088 22.8377 5.7959C22.3127 5.7959 21.7952 5.7959 21.2702 5.7959C21.1877 5.54089 21.1127 5.27834 21.0377 5.00832Z" fill="#F68521"/>
<path d="M16.3502 5.17322C16.3502 5.54076 16.3427 5.90828 16.3427 6.28333C15.8177 6.23082 15.2852 6.17834 14.7602 6.11833C14.7377 5.8183 14.7227 5.5183 14.7002 5.21827C15.2477 5.20327 15.8027 5.18822 16.3502 5.17322Z" fill="#F68521"/>
<path d="M19.0801 6.59064C18.4876 6.59064 17.8951 6.59814 17.3026 6.59814C17.2576 6.23068 17.2126 5.85574 17.1676 5.48828C17.6926 5.48828 18.2176 5.48828 18.7426 5.48828C18.8551 5.85574 18.9676 6.22318 19.0801 6.59064Z" fill="#F68521"/>
<path d="M18.7352 5.48828C18.2102 5.48828 17.6852 5.48828 17.1602 5.48828C17.2352 5.16576 17.3102 4.85072 17.3927 4.5282C18.0002 4.5882 18.6152 4.6482 19.2227 4.7082C19.0652 4.97072 18.9002 5.23327 18.7352 5.48828Z" fill="#F68521"/>
<path d="M10.8227 6.4408C10.8002 6.0433 10.7777 5.64591 10.7552 5.24841C11.2802 5.33091 11.8127 5.41328 12.3377 5.48828C12.3677 5.75078 12.3977 6.01332 12.4277 6.27582C11.8952 6.33582 11.3627 6.3883 10.8227 6.4408Z" fill="#F68521"/>
<path d="M21.2702 5.80334C21.7952 5.80334 22.3127 5.80334 22.8377 5.80334C22.7777 6.11837 22.7177 6.43339 22.6577 6.74841C22.0802 6.68091 21.5027 6.61339 20.9252 6.54589C21.0377 6.30587 21.1502 6.05836 21.2702 5.80334Z" fill="#F68521"/>
<path d="M10.8227 6.44074C11.3552 6.38824 11.8952 6.33576 12.4277 6.27576C12.6452 6.47826 12.8627 6.68832 13.0877 6.89083C12.5252 7.48335 11.7977 7.1308 11.1527 7.2283C11.0477 6.96579 10.9352 6.70325 10.8227 6.44074Z" fill="#F68521"/>
<path d="M9.87771 5.01581C9.91521 5.27833 9.9452 5.54088 9.9827 5.7959C9.44269 5.7959 8.90268 5.7959 8.36267 5.7959C8.29517 5.53338 8.23516 5.27082 8.16766 5.0083C8.73767 5.0158 9.3077 5.01581 9.87771 5.01581Z" fill="#F68521"/>
<path d="M8.36264 5.80334C8.90266 5.80334 9.44268 5.80334 9.9827 5.80334C9.90019 6.13332 9.82519 6.46316 9.74268 6.78564C9.45017 6.72565 9.15018 6.68814 8.86517 6.59065C8.65516 6.51565 8.47516 6.35819 8.28015 6.23819C8.30265 6.0957 8.33264 5.94584 8.36264 5.80334Z" fill="#F68521"/>
<path d="M15.9452 7.25082C15.5327 7.24332 15.1126 7.2733 14.7077 7.22079C14.4602 7.18329 14.2277 7.01833 13.9952 6.90582C14.2052 6.7408 14.4077 6.57566 14.6177 6.41064C15.1652 6.47815 15.7052 6.54567 16.2527 6.61318C16.1402 6.8232 16.0427 7.0333 15.9452 7.25082Z" fill="#F68521"/>
<path d="M12.3377 5.48828C11.8127 5.40578 11.2802 5.3309 10.7552 5.2484C10.8302 5.00838 10.9052 4.76821 10.9802 4.5282C11.5277 4.64821 12.0752 4.76087 12.6227 4.88088C12.5252 5.08339 12.4352 5.28577 12.3377 5.48828Z" fill="#F68521"/>
<path d="M4.62017 4.3783C5.28017 4.43828 5.94017 4.50577 6.60767 4.56576C6.42767 4.71573 6.24766 4.86578 6.06016 5.01575C5.49766 5.01575 4.92767 5.01575 4.36517 5.01575C4.44767 4.79829 4.53767 4.58826 4.62017 4.3783Z" fill="#F68521"/>
<path d="M16.3502 5.17334C15.8027 5.18834 15.2477 5.20338 14.7002 5.21838C14.5727 5.04588 14.4377 4.87343 14.3102 4.70093C14.8952 4.58843 15.4802 4.47578 16.0652 4.36328C16.1552 4.63328 16.2527 4.90334 16.3502 5.17334Z" fill="#F68521"/>
<path d="M9.87775 5.01575C9.30774 5.01575 8.73773 5.01575 8.16022 5.01575C8.09272 4.93326 8.02521 4.8507 7.96521 4.76071C8.19771 4.63323 8.42272 4.45326 8.67022 4.40077C8.96272 4.33328 9.27773 4.38575 9.58523 4.37825C9.68273 4.58823 9.78025 4.80577 9.87775 5.01575Z" fill="#F68521"/>
<path d="M4.3652 5.01575C4.9277 5.01575 5.49768 5.01575 6.06018 5.01575C6.00018 5.22575 5.9477 5.43563 5.8877 5.64563C5.3477 5.63813 4.80019 5.6383 4.26019 5.6308C4.29769 5.4283 4.3352 5.21825 4.3652 5.01575Z" fill="#F68521"/>
<path d="M8.28018 6.23828C8.47518 6.35825 8.65518 6.51568 8.86519 6.59065C9.14269 6.68812 9.45018 6.72562 9.74268 6.7856C9.75018 6.83059 9.73519 6.8757 9.71269 6.91319C9.29269 6.91319 8.86517 6.94317 8.45267 6.89818C8.28767 6.88318 8.14517 6.71063 7.98767 6.60566C8.08517 6.4857 8.18268 6.35825 8.28018 6.23828Z" fill="#F68521"/>
<path d="M16.2452 6.61316C15.6977 6.54567 15.1577 6.47816 14.6102 6.41067C14.6627 6.31318 14.7077 6.21577 14.7602 6.11829C15.2852 6.17078 15.8177 6.22325 16.3427 6.28324C16.3127 6.38823 16.2752 6.50067 16.2452 6.61316Z" fill="#F68521"/>
<path d="M50.1002 14.8406C50.1002 14.7206 50.1002 14.6006 50.1002 14.4806C50.6027 14.4356 51.1052 14.3831 51.6077 14.3381C51.6077 15.0206 51.6077 15.7106 51.6077 16.3931C51.1052 16.3931 50.6027 16.3931 50.1002 16.3931C50.1002 15.9656 50.1002 15.5381 50.1002 15.1106C50.1002 15.0206 50.1002 14.9306 50.1002 14.8406Z" fill="#F68521"/>
<path d="M5.74516 14.8182C5.79016 15.1407 5.84267 15.4556 5.88766 15.778C5.85017 16.2355 5.76767 16.7006 5.77517 17.1581C5.78267 17.6756 5.46015 17.6755 5.10016 17.6605C4.74766 17.6455 4.32768 17.7581 4.34268 17.1581C4.36518 16.3706 4.35017 15.5907 4.35767 14.8032C4.82266 14.8107 5.28767 14.8107 5.74516 14.8182Z" fill="#F68521"/>
<path d="M50.1002 16.3931C50.6027 16.3931 51.1052 16.3931 51.6077 16.3931C51.6077 16.4156 51.6077 16.4456 51.6077 16.4681C51.6302 17.983 51.6302 17.983 50.1002 17.9755C50.1002 17.4505 50.1002 16.918 50.1002 16.3931Z" fill="#F68521"/>
<path d="M15.9302 31.8503C16.1252 32.5927 15.9077 33.0501 15.2177 33.0651C12.9827 33.1026 10.7477 33.0875 8.51272 33.0425C7.95772 33.035 7.50023 32.7652 7.67273 32.0453C10.1327 32.0453 12.5927 32.0528 15.0527 32.0378C15.3452 32.0378 15.6377 31.9178 15.9302 31.8503Z" fill="#F68521"/>
<path d="M15.8326 17.1656C15.8626 17.4431 15.8927 17.7206 15.9227 17.9981C13.4027 17.9906 10.8751 17.9831 8.35514 17.9906C8.18264 17.9906 8.01015 18.073 7.84515 18.118C7.51515 17.8106 7.48515 17.488 7.80015 17.1431C8.01015 17.2106 8.22015 17.3381 8.43765 17.3381C10.6277 17.3531 12.8251 17.3531 15.0152 17.3381C15.2777 17.3381 15.5551 17.2256 15.8326 17.1656Z" fill="#F68521"/>
<path d="M15.9302 31.8502C15.6377 31.9177 15.3452 32.0377 15.0527 32.0377C12.5927 32.0527 10.1327 32.0452 7.67273 32.0452C7.95773 31.8352 8.22771 31.4452 8.52021 31.4377C10.7252 31.3851 12.9377 31.3926 15.1503 31.4301C15.4053 31.4376 15.6677 31.7077 15.9302 31.8502Z" fill="#F68521"/>
<path d="M16.0127 27.6128C15.6902 27.8228 15.3677 28.1978 15.0452 28.2128C12.9077 28.2653 10.7627 28.2653 8.61771 28.2128C8.29521 28.2053 7.98773 27.8303 7.67273 27.6203C10.4552 27.6203 13.2377 27.6128 16.0127 27.6128Z" fill="#F68521"/>
<path d="M7.68018 22.2429C7.96517 22.0404 8.24268 21.6578 8.52768 21.6503C10.7252 21.5978 12.9152 21.5978 15.1127 21.6503C15.4127 21.6578 15.7127 22.0329 16.0052 22.2354C13.2302 22.2429 10.4552 22.2429 7.68018 22.2429Z" fill="#F68521"/>
<path d="M16.0127 27.6129C13.2302 27.6129 10.4552 27.6204 7.67273 27.6204C7.67273 27.4628 7.67273 27.3054 7.67273 27.1479C10.1552 27.1479 12.6377 27.1554 15.1127 27.1404C15.3752 27.1404 15.6452 27.0204 15.9077 26.9529C15.9452 27.1779 15.9827 27.3953 16.0127 27.6129Z" fill="#F68521"/>
<path d="M16.0127 36.9426C16.0052 37.1001 16.0052 37.25 15.9977 37.4075C13.2302 37.4075 10.4552 37.415 7.68772 37.415C7.68022 37.2575 7.67273 37.1001 7.67273 36.9426C10.4552 36.9501 13.2302 36.9426 16.0127 36.9426Z" fill="#F68521"/>
<path d="M7.68768 37.4151C10.4552 37.4151 13.2302 37.4076 15.9977 37.4076C15.7127 37.5802 15.4277 37.8877 15.1352 37.8952C12.9377 37.9402 10.7477 37.9402 8.55018 37.8952C8.26518 37.8877 7.98018 37.5877 7.68768 37.4151Z" fill="#F68521"/>
<path d="M15.9152 22.8954C15.6077 23.0454 15.3077 23.3154 15.0002 23.3229C12.8702 23.3604 10.7327 23.3604 8.60271 23.3229C8.30271 23.3154 8.0027 23.0306 7.7027 22.873C10.4402 22.8805 13.1777 22.8879 15.9152 22.8954Z" fill="#F68521"/>
<path d="M7.83765 18.1106C8.01015 18.0656 8.18264 17.9832 8.34764 17.9832C10.8676 17.9832 13.3951 17.9907 15.9151 17.9907C15.6376 18.1407 15.3676 18.4181 15.0901 18.4181C12.9151 18.4556 10.7401 18.4481 8.56515 18.4256C8.32515 18.4256 8.07765 18.2231 7.83765 18.1106Z" fill="#F68521"/>
<path d="M16.0126 36.9427C13.2301 36.9427 10.4477 36.9427 7.66516 36.9502C7.77016 36.7927 7.87515 36.6351 7.98015 36.4701C8.25015 36.5226 8.52016 36.6201 8.79016 36.6276C11.1451 36.6426 13.5001 36.6426 15.8476 36.6426C15.9076 36.7401 15.9601 36.8452 16.0126 36.9427Z" fill="#F68521"/>
<path d="M15.9152 22.8954C13.1777 22.8879 10.4402 22.8805 7.71022 22.8655C7.69522 22.768 7.68021 22.6629 7.65771 22.5654C10.4477 22.5654 13.2377 22.5654 16.0277 22.5579C15.9902 22.6704 15.9527 22.7829 15.9152 22.8954Z" fill="#F68521"/>
<path d="M16.0277 22.5579C13.2377 22.5579 10.4477 22.5579 7.65771 22.5654C7.66521 22.4604 7.67271 22.3554 7.68021 22.2429C10.4552 22.2429 13.2302 22.2429 16.0052 22.2429C16.0127 22.3479 16.0202 22.4529 16.0277 22.5579Z" fill="#F68521"/>
<path d="M15.9152 26.9529C15.6527 27.0204 15.3827 27.1329 15.1202 27.1404C12.6377 27.1554 10.1552 27.1479 7.68018 27.1479C7.73268 27.0429 7.79268 26.9378 7.84518 26.8403C10.5002 26.8328 13.1477 26.8254 15.8027 26.8104C15.8327 26.8554 15.8777 26.9079 15.9152 26.9529Z" fill="#F68521"/>
<path d="M15.8327 17.1655C15.5552 17.2255 15.2777 17.3379 15.0002 17.3454C12.8102 17.3604 10.6127 17.3604 8.42267 17.3454C8.21266 17.3454 8.00266 17.218 7.78516 17.1505C7.90516 17.0605 8.02516 16.9706 8.13766 16.8732C8.80516 16.9257 9.48016 17.0231 10.1477 17.0156C11.9852 17.0081 13.8227 16.963 15.6677 16.933C15.7202 17.008 15.7802 17.083 15.8327 17.1655Z" fill="#F68521"/>
<path d="M15.8552 36.6425C13.5002 36.6425 11.1452 36.6424 8.79769 36.6274C8.52769 36.6274 8.25767 36.53 7.98767 36.47C8.23517 36.4175 8.48267 36.32 8.73017 36.32C10.8077 36.305 12.8927 36.2975 14.9702 36.3275C15.2627 36.335 15.5552 36.53 15.8552 36.6425Z" fill="#F68521"/>
<path d="M15.7952 26.8104C13.1402 26.8179 10.4927 26.8252 7.83765 26.8402C8.08515 26.7352 8.33264 26.5478 8.58014 26.5403C10.7252 26.5178 12.8777 26.5178 15.0227 26.5403C15.2852 26.5403 15.5402 26.7129 15.7952 26.8104Z" fill="#F68521"/>
<path d="M15.6677 16.933C13.8302 16.9629 11.9927 17.008 10.1477 17.0155C9.48019 17.0155 8.81269 16.9181 8.1377 16.8731C8.34019 16.8356 8.53519 16.753 8.73768 16.753C10.8002 16.7455 12.8702 16.738 14.9327 16.753C15.1802 16.753 15.4202 16.8655 15.6677 16.933Z" fill="#F68521"/>
</svg>
